G04 #@! TF.GenerationSoftware,KiCad,Pcbnew,(5.1.2)-2*
G04 #@! TF.CreationDate,2020-08-30T00:43:24-04:00*
G04 #@! TF.ProjectId,Scanner1,5363616e-6e65-4723-912e-6b696361645f,rev?*
G04 #@! TF.SameCoordinates,Original*
G04 #@! TF.FileFunction,Paste,Top*
G04 #@! TF.FilePolarity,Positive*
%FSLAX46Y46*%
G04 Gerber Fmt 4.6, Leading zero omitted, Abs format (unit mm)*
G04 Created by KiCad (PCBNEW (5.1.2)-2) date 2020-08-30 00:43:24*
%MOMM*%
%LPD*%
G04 APERTURE LIST*
%ADD10R,0.550000X1.500000*%
%ADD11R,1.500000X0.550000*%
%ADD12C,0.100000*%
%ADD13C,0.975000*%
%ADD14R,0.900000X0.800000*%
%ADD15R,1.200000X1.400000*%
G04 APERTURE END LIST*
D10*
X169228000Y-87864000D03*
X170028000Y-87864000D03*
X170828000Y-87864000D03*
X171628000Y-87864000D03*
X172428000Y-87864000D03*
X173228000Y-87864000D03*
X174028000Y-87864000D03*
X174828000Y-87864000D03*
X175628000Y-87864000D03*
X176428000Y-87864000D03*
X177228000Y-87864000D03*
D11*
X178928000Y-86164000D03*
X178928000Y-85364000D03*
X178928000Y-84564000D03*
X178928000Y-83764000D03*
X178928000Y-82964000D03*
X178928000Y-82164000D03*
X178928000Y-81364000D03*
X178928000Y-80564000D03*
X178928000Y-79764000D03*
X178928000Y-78964000D03*
X178928000Y-78164000D03*
D10*
X177228000Y-76464000D03*
X176428000Y-76464000D03*
X175628000Y-76464000D03*
X174828000Y-76464000D03*
X174028000Y-76464000D03*
X173228000Y-76464000D03*
X172428000Y-76464000D03*
X171628000Y-76464000D03*
X170828000Y-76464000D03*
X170028000Y-76464000D03*
X169228000Y-76464000D03*
D11*
X167528000Y-78164000D03*
X167528000Y-78964000D03*
X167528000Y-79764000D03*
X167528000Y-80564000D03*
X167528000Y-81364000D03*
X167528000Y-82164000D03*
X167528000Y-82964000D03*
X167528000Y-83764000D03*
X167528000Y-84564000D03*
X167528000Y-85364000D03*
X167528000Y-86164000D03*
D12*
G36*
X189456142Y-83636174D02*
G01*
X189479803Y-83639684D01*
X189503007Y-83645496D01*
X189525529Y-83653554D01*
X189547153Y-83663782D01*
X189567670Y-83676079D01*
X189586883Y-83690329D01*
X189604607Y-83706393D01*
X189620671Y-83724117D01*
X189634921Y-83743330D01*
X189647218Y-83763847D01*
X189657446Y-83785471D01*
X189665504Y-83807993D01*
X189671316Y-83831197D01*
X189674826Y-83854858D01*
X189676000Y-83878750D01*
X189676000Y-84366250D01*
X189674826Y-84390142D01*
X189671316Y-84413803D01*
X189665504Y-84437007D01*
X189657446Y-84459529D01*
X189647218Y-84481153D01*
X189634921Y-84501670D01*
X189620671Y-84520883D01*
X189604607Y-84538607D01*
X189586883Y-84554671D01*
X189567670Y-84568921D01*
X189547153Y-84581218D01*
X189525529Y-84591446D01*
X189503007Y-84599504D01*
X189479803Y-84605316D01*
X189456142Y-84608826D01*
X189432250Y-84610000D01*
X188519750Y-84610000D01*
X188495858Y-84608826D01*
X188472197Y-84605316D01*
X188448993Y-84599504D01*
X188426471Y-84591446D01*
X188404847Y-84581218D01*
X188384330Y-84568921D01*
X188365117Y-84554671D01*
X188347393Y-84538607D01*
X188331329Y-84520883D01*
X188317079Y-84501670D01*
X188304782Y-84481153D01*
X188294554Y-84459529D01*
X188286496Y-84437007D01*
X188280684Y-84413803D01*
X188277174Y-84390142D01*
X188276000Y-84366250D01*
X188276000Y-83878750D01*
X188277174Y-83854858D01*
X188280684Y-83831197D01*
X188286496Y-83807993D01*
X188294554Y-83785471D01*
X188304782Y-83763847D01*
X188317079Y-83743330D01*
X188331329Y-83724117D01*
X188347393Y-83706393D01*
X188365117Y-83690329D01*
X188384330Y-83676079D01*
X188404847Y-83663782D01*
X188426471Y-83653554D01*
X188448993Y-83645496D01*
X188472197Y-83639684D01*
X188495858Y-83636174D01*
X188519750Y-83635000D01*
X189432250Y-83635000D01*
X189456142Y-83636174D01*
X189456142Y-83636174D01*
G37*
D13*
X188976000Y-84122500D03*
D12*
G36*
X189456142Y-81761174D02*
G01*
X189479803Y-81764684D01*
X189503007Y-81770496D01*
X189525529Y-81778554D01*
X189547153Y-81788782D01*
X189567670Y-81801079D01*
X189586883Y-81815329D01*
X189604607Y-81831393D01*
X189620671Y-81849117D01*
X189634921Y-81868330D01*
X189647218Y-81888847D01*
X189657446Y-81910471D01*
X189665504Y-81932993D01*
X189671316Y-81956197D01*
X189674826Y-81979858D01*
X189676000Y-82003750D01*
X189676000Y-82491250D01*
X189674826Y-82515142D01*
X189671316Y-82538803D01*
X189665504Y-82562007D01*
X189657446Y-82584529D01*
X189647218Y-82606153D01*
X189634921Y-82626670D01*
X189620671Y-82645883D01*
X189604607Y-82663607D01*
X189586883Y-82679671D01*
X189567670Y-82693921D01*
X189547153Y-82706218D01*
X189525529Y-82716446D01*
X189503007Y-82724504D01*
X189479803Y-82730316D01*
X189456142Y-82733826D01*
X189432250Y-82735000D01*
X188519750Y-82735000D01*
X188495858Y-82733826D01*
X188472197Y-82730316D01*
X188448993Y-82724504D01*
X188426471Y-82716446D01*
X188404847Y-82706218D01*
X188384330Y-82693921D01*
X188365117Y-82679671D01*
X188347393Y-82663607D01*
X188331329Y-82645883D01*
X188317079Y-82626670D01*
X188304782Y-82606153D01*
X188294554Y-82584529D01*
X188286496Y-82562007D01*
X188280684Y-82538803D01*
X188277174Y-82515142D01*
X188276000Y-82491250D01*
X188276000Y-82003750D01*
X188277174Y-81979858D01*
X188280684Y-81956197D01*
X188286496Y-81932993D01*
X188294554Y-81910471D01*
X188304782Y-81888847D01*
X188317079Y-81868330D01*
X188331329Y-81849117D01*
X188347393Y-81831393D01*
X188365117Y-81815329D01*
X188384330Y-81801079D01*
X188404847Y-81788782D01*
X188426471Y-81778554D01*
X188448993Y-81770496D01*
X188472197Y-81764684D01*
X188495858Y-81761174D01*
X188519750Y-81760000D01*
X189432250Y-81760000D01*
X189456142Y-81761174D01*
X189456142Y-81761174D01*
G37*
D13*
X188976000Y-82247500D03*
D12*
G36*
X187348142Y-79311174D02*
G01*
X187371803Y-79314684D01*
X187395007Y-79320496D01*
X187417529Y-79328554D01*
X187439153Y-79338782D01*
X187459670Y-79351079D01*
X187478883Y-79365329D01*
X187496607Y-79381393D01*
X187512671Y-79399117D01*
X187526921Y-79418330D01*
X187539218Y-79438847D01*
X187549446Y-79460471D01*
X187557504Y-79482993D01*
X187563316Y-79506197D01*
X187566826Y-79529858D01*
X187568000Y-79553750D01*
X187568000Y-80466250D01*
X187566826Y-80490142D01*
X187563316Y-80513803D01*
X187557504Y-80537007D01*
X187549446Y-80559529D01*
X187539218Y-80581153D01*
X187526921Y-80601670D01*
X187512671Y-80620883D01*
X187496607Y-80638607D01*
X187478883Y-80654671D01*
X187459670Y-80668921D01*
X187439153Y-80681218D01*
X187417529Y-80691446D01*
X187395007Y-80699504D01*
X187371803Y-80705316D01*
X187348142Y-80708826D01*
X187324250Y-80710000D01*
X186836750Y-80710000D01*
X186812858Y-80708826D01*
X186789197Y-80705316D01*
X186765993Y-80699504D01*
X186743471Y-80691446D01*
X186721847Y-80681218D01*
X186701330Y-80668921D01*
X186682117Y-80654671D01*
X186664393Y-80638607D01*
X186648329Y-80620883D01*
X186634079Y-80601670D01*
X186621782Y-80581153D01*
X186611554Y-80559529D01*
X186603496Y-80537007D01*
X186597684Y-80513803D01*
X186594174Y-80490142D01*
X186593000Y-80466250D01*
X186593000Y-79553750D01*
X186594174Y-79529858D01*
X186597684Y-79506197D01*
X186603496Y-79482993D01*
X186611554Y-79460471D01*
X186621782Y-79438847D01*
X186634079Y-79418330D01*
X186648329Y-79399117D01*
X186664393Y-79381393D01*
X186682117Y-79365329D01*
X186701330Y-79351079D01*
X186721847Y-79338782D01*
X186743471Y-79328554D01*
X186765993Y-79320496D01*
X186789197Y-79314684D01*
X186812858Y-79311174D01*
X186836750Y-79310000D01*
X187324250Y-79310000D01*
X187348142Y-79311174D01*
X187348142Y-79311174D01*
G37*
D13*
X187080500Y-80010000D03*
D12*
G36*
X185473142Y-79311174D02*
G01*
X185496803Y-79314684D01*
X185520007Y-79320496D01*
X185542529Y-79328554D01*
X185564153Y-79338782D01*
X185584670Y-79351079D01*
X185603883Y-79365329D01*
X185621607Y-79381393D01*
X185637671Y-79399117D01*
X185651921Y-79418330D01*
X185664218Y-79438847D01*
X185674446Y-79460471D01*
X185682504Y-79482993D01*
X185688316Y-79506197D01*
X185691826Y-79529858D01*
X185693000Y-79553750D01*
X185693000Y-80466250D01*
X185691826Y-80490142D01*
X185688316Y-80513803D01*
X185682504Y-80537007D01*
X185674446Y-80559529D01*
X185664218Y-80581153D01*
X185651921Y-80601670D01*
X185637671Y-80620883D01*
X185621607Y-80638607D01*
X185603883Y-80654671D01*
X185584670Y-80668921D01*
X185564153Y-80681218D01*
X185542529Y-80691446D01*
X185520007Y-80699504D01*
X185496803Y-80705316D01*
X185473142Y-80708826D01*
X185449250Y-80710000D01*
X184961750Y-80710000D01*
X184937858Y-80708826D01*
X184914197Y-80705316D01*
X184890993Y-80699504D01*
X184868471Y-80691446D01*
X184846847Y-80681218D01*
X184826330Y-80668921D01*
X184807117Y-80654671D01*
X184789393Y-80638607D01*
X184773329Y-80620883D01*
X184759079Y-80601670D01*
X184746782Y-80581153D01*
X184736554Y-80559529D01*
X184728496Y-80537007D01*
X184722684Y-80513803D01*
X184719174Y-80490142D01*
X184718000Y-80466250D01*
X184718000Y-79553750D01*
X184719174Y-79529858D01*
X184722684Y-79506197D01*
X184728496Y-79482993D01*
X184736554Y-79460471D01*
X184746782Y-79438847D01*
X184759079Y-79418330D01*
X184773329Y-79399117D01*
X184789393Y-79381393D01*
X184807117Y-79365329D01*
X184826330Y-79351079D01*
X184846847Y-79338782D01*
X184868471Y-79328554D01*
X184890993Y-79320496D01*
X184914197Y-79314684D01*
X184937858Y-79311174D01*
X184961750Y-79310000D01*
X185449250Y-79310000D01*
X185473142Y-79311174D01*
X185473142Y-79311174D01*
G37*
D13*
X185205500Y-80010000D03*
D12*
G36*
X142752142Y-83460674D02*
G01*
X142775803Y-83464184D01*
X142799007Y-83469996D01*
X142821529Y-83478054D01*
X142843153Y-83488282D01*
X142863670Y-83500579D01*
X142882883Y-83514829D01*
X142900607Y-83530893D01*
X142916671Y-83548617D01*
X142930921Y-83567830D01*
X142943218Y-83588347D01*
X142953446Y-83609971D01*
X142961504Y-83632493D01*
X142967316Y-83655697D01*
X142970826Y-83679358D01*
X142972000Y-83703250D01*
X142972000Y-84190750D01*
X142970826Y-84214642D01*
X142967316Y-84238303D01*
X142961504Y-84261507D01*
X142953446Y-84284029D01*
X142943218Y-84305653D01*
X142930921Y-84326170D01*
X142916671Y-84345383D01*
X142900607Y-84363107D01*
X142882883Y-84379171D01*
X142863670Y-84393421D01*
X142843153Y-84405718D01*
X142821529Y-84415946D01*
X142799007Y-84424004D01*
X142775803Y-84429816D01*
X142752142Y-84433326D01*
X142728250Y-84434500D01*
X141815750Y-84434500D01*
X141791858Y-84433326D01*
X141768197Y-84429816D01*
X141744993Y-84424004D01*
X141722471Y-84415946D01*
X141700847Y-84405718D01*
X141680330Y-84393421D01*
X141661117Y-84379171D01*
X141643393Y-84363107D01*
X141627329Y-84345383D01*
X141613079Y-84326170D01*
X141600782Y-84305653D01*
X141590554Y-84284029D01*
X141582496Y-84261507D01*
X141576684Y-84238303D01*
X141573174Y-84214642D01*
X141572000Y-84190750D01*
X141572000Y-83703250D01*
X141573174Y-83679358D01*
X141576684Y-83655697D01*
X141582496Y-83632493D01*
X141590554Y-83609971D01*
X141600782Y-83588347D01*
X141613079Y-83567830D01*
X141627329Y-83548617D01*
X141643393Y-83530893D01*
X141661117Y-83514829D01*
X141680330Y-83500579D01*
X141700847Y-83488282D01*
X141722471Y-83478054D01*
X141744993Y-83469996D01*
X141768197Y-83464184D01*
X141791858Y-83460674D01*
X141815750Y-83459500D01*
X142728250Y-83459500D01*
X142752142Y-83460674D01*
X142752142Y-83460674D01*
G37*
D13*
X142272000Y-83947000D03*
D12*
G36*
X142752142Y-81585674D02*
G01*
X142775803Y-81589184D01*
X142799007Y-81594996D01*
X142821529Y-81603054D01*
X142843153Y-81613282D01*
X142863670Y-81625579D01*
X142882883Y-81639829D01*
X142900607Y-81655893D01*
X142916671Y-81673617D01*
X142930921Y-81692830D01*
X142943218Y-81713347D01*
X142953446Y-81734971D01*
X142961504Y-81757493D01*
X142967316Y-81780697D01*
X142970826Y-81804358D01*
X142972000Y-81828250D01*
X142972000Y-82315750D01*
X142970826Y-82339642D01*
X142967316Y-82363303D01*
X142961504Y-82386507D01*
X142953446Y-82409029D01*
X142943218Y-82430653D01*
X142930921Y-82451170D01*
X142916671Y-82470383D01*
X142900607Y-82488107D01*
X142882883Y-82504171D01*
X142863670Y-82518421D01*
X142843153Y-82530718D01*
X142821529Y-82540946D01*
X142799007Y-82549004D01*
X142775803Y-82554816D01*
X142752142Y-82558326D01*
X142728250Y-82559500D01*
X141815750Y-82559500D01*
X141791858Y-82558326D01*
X141768197Y-82554816D01*
X141744993Y-82549004D01*
X141722471Y-82540946D01*
X141700847Y-82530718D01*
X141680330Y-82518421D01*
X141661117Y-82504171D01*
X141643393Y-82488107D01*
X141627329Y-82470383D01*
X141613079Y-82451170D01*
X141600782Y-82430653D01*
X141590554Y-82409029D01*
X141582496Y-82386507D01*
X141576684Y-82363303D01*
X141573174Y-82339642D01*
X141572000Y-82315750D01*
X141572000Y-81828250D01*
X141573174Y-81804358D01*
X141576684Y-81780697D01*
X141582496Y-81757493D01*
X141590554Y-81734971D01*
X141600782Y-81713347D01*
X141613079Y-81692830D01*
X141627329Y-81673617D01*
X141643393Y-81655893D01*
X141661117Y-81639829D01*
X141680330Y-81625579D01*
X141700847Y-81613282D01*
X141722471Y-81603054D01*
X141744993Y-81594996D01*
X141768197Y-81589184D01*
X141791858Y-81585674D01*
X141815750Y-81584500D01*
X142728250Y-81584500D01*
X142752142Y-81585674D01*
X142752142Y-81585674D01*
G37*
D13*
X142272000Y-82072000D03*
D12*
G36*
X147546142Y-81585674D02*
G01*
X147569803Y-81589184D01*
X147593007Y-81594996D01*
X147615529Y-81603054D01*
X147637153Y-81613282D01*
X147657670Y-81625579D01*
X147676883Y-81639829D01*
X147694607Y-81655893D01*
X147710671Y-81673617D01*
X147724921Y-81692830D01*
X147737218Y-81713347D01*
X147747446Y-81734971D01*
X147755504Y-81757493D01*
X147761316Y-81780697D01*
X147764826Y-81804358D01*
X147766000Y-81828250D01*
X147766000Y-82315750D01*
X147764826Y-82339642D01*
X147761316Y-82363303D01*
X147755504Y-82386507D01*
X147747446Y-82409029D01*
X147737218Y-82430653D01*
X147724921Y-82451170D01*
X147710671Y-82470383D01*
X147694607Y-82488107D01*
X147676883Y-82504171D01*
X147657670Y-82518421D01*
X147637153Y-82530718D01*
X147615529Y-82540946D01*
X147593007Y-82549004D01*
X147569803Y-82554816D01*
X147546142Y-82558326D01*
X147522250Y-82559500D01*
X146609750Y-82559500D01*
X146585858Y-82558326D01*
X146562197Y-82554816D01*
X146538993Y-82549004D01*
X146516471Y-82540946D01*
X146494847Y-82530718D01*
X146474330Y-82518421D01*
X146455117Y-82504171D01*
X146437393Y-82488107D01*
X146421329Y-82470383D01*
X146407079Y-82451170D01*
X146394782Y-82430653D01*
X146384554Y-82409029D01*
X146376496Y-82386507D01*
X146370684Y-82363303D01*
X146367174Y-82339642D01*
X146366000Y-82315750D01*
X146366000Y-81828250D01*
X146367174Y-81804358D01*
X146370684Y-81780697D01*
X146376496Y-81757493D01*
X146384554Y-81734971D01*
X146394782Y-81713347D01*
X146407079Y-81692830D01*
X146421329Y-81673617D01*
X146437393Y-81655893D01*
X146455117Y-81639829D01*
X146474330Y-81625579D01*
X146494847Y-81613282D01*
X146516471Y-81603054D01*
X146538993Y-81594996D01*
X146562197Y-81589184D01*
X146585858Y-81585674D01*
X146609750Y-81584500D01*
X147522250Y-81584500D01*
X147546142Y-81585674D01*
X147546142Y-81585674D01*
G37*
D13*
X147066000Y-82072000D03*
D12*
G36*
X147546142Y-83460674D02*
G01*
X147569803Y-83464184D01*
X147593007Y-83469996D01*
X147615529Y-83478054D01*
X147637153Y-83488282D01*
X147657670Y-83500579D01*
X147676883Y-83514829D01*
X147694607Y-83530893D01*
X147710671Y-83548617D01*
X147724921Y-83567830D01*
X147737218Y-83588347D01*
X147747446Y-83609971D01*
X147755504Y-83632493D01*
X147761316Y-83655697D01*
X147764826Y-83679358D01*
X147766000Y-83703250D01*
X147766000Y-84190750D01*
X147764826Y-84214642D01*
X147761316Y-84238303D01*
X147755504Y-84261507D01*
X147747446Y-84284029D01*
X147737218Y-84305653D01*
X147724921Y-84326170D01*
X147710671Y-84345383D01*
X147694607Y-84363107D01*
X147676883Y-84379171D01*
X147657670Y-84393421D01*
X147637153Y-84405718D01*
X147615529Y-84415946D01*
X147593007Y-84424004D01*
X147569803Y-84429816D01*
X147546142Y-84433326D01*
X147522250Y-84434500D01*
X146609750Y-84434500D01*
X146585858Y-84433326D01*
X146562197Y-84429816D01*
X146538993Y-84424004D01*
X146516471Y-84415946D01*
X146494847Y-84405718D01*
X146474330Y-84393421D01*
X146455117Y-84379171D01*
X146437393Y-84363107D01*
X146421329Y-84345383D01*
X146407079Y-84326170D01*
X146394782Y-84305653D01*
X146384554Y-84284029D01*
X146376496Y-84261507D01*
X146370684Y-84238303D01*
X146367174Y-84214642D01*
X146366000Y-84190750D01*
X146366000Y-83703250D01*
X146367174Y-83679358D01*
X146370684Y-83655697D01*
X146376496Y-83632493D01*
X146384554Y-83609971D01*
X146394782Y-83588347D01*
X146407079Y-83567830D01*
X146421329Y-83548617D01*
X146437393Y-83530893D01*
X146455117Y-83514829D01*
X146474330Y-83500579D01*
X146494847Y-83488282D01*
X146516471Y-83478054D01*
X146538993Y-83469996D01*
X146562197Y-83464184D01*
X146585858Y-83460674D01*
X146609750Y-83459500D01*
X147522250Y-83459500D01*
X147546142Y-83460674D01*
X147546142Y-83460674D01*
G37*
D13*
X147066000Y-83947000D03*
D12*
G36*
X164437142Y-86000674D02*
G01*
X164460803Y-86004184D01*
X164484007Y-86009996D01*
X164506529Y-86018054D01*
X164528153Y-86028282D01*
X164548670Y-86040579D01*
X164567883Y-86054829D01*
X164585607Y-86070893D01*
X164601671Y-86088617D01*
X164615921Y-86107830D01*
X164628218Y-86128347D01*
X164638446Y-86149971D01*
X164646504Y-86172493D01*
X164652316Y-86195697D01*
X164655826Y-86219358D01*
X164657000Y-86243250D01*
X164657000Y-86730750D01*
X164655826Y-86754642D01*
X164652316Y-86778303D01*
X164646504Y-86801507D01*
X164638446Y-86824029D01*
X164628218Y-86845653D01*
X164615921Y-86866170D01*
X164601671Y-86885383D01*
X164585607Y-86903107D01*
X164567883Y-86919171D01*
X164548670Y-86933421D01*
X164528153Y-86945718D01*
X164506529Y-86955946D01*
X164484007Y-86964004D01*
X164460803Y-86969816D01*
X164437142Y-86973326D01*
X164413250Y-86974500D01*
X163500750Y-86974500D01*
X163476858Y-86973326D01*
X163453197Y-86969816D01*
X163429993Y-86964004D01*
X163407471Y-86955946D01*
X163385847Y-86945718D01*
X163365330Y-86933421D01*
X163346117Y-86919171D01*
X163328393Y-86903107D01*
X163312329Y-86885383D01*
X163298079Y-86866170D01*
X163285782Y-86845653D01*
X163275554Y-86824029D01*
X163267496Y-86801507D01*
X163261684Y-86778303D01*
X163258174Y-86754642D01*
X163257000Y-86730750D01*
X163257000Y-86243250D01*
X163258174Y-86219358D01*
X163261684Y-86195697D01*
X163267496Y-86172493D01*
X163275554Y-86149971D01*
X163285782Y-86128347D01*
X163298079Y-86107830D01*
X163312329Y-86088617D01*
X163328393Y-86070893D01*
X163346117Y-86054829D01*
X163365330Y-86040579D01*
X163385847Y-86028282D01*
X163407471Y-86018054D01*
X163429993Y-86009996D01*
X163453197Y-86004184D01*
X163476858Y-86000674D01*
X163500750Y-85999500D01*
X164413250Y-85999500D01*
X164437142Y-86000674D01*
X164437142Y-86000674D01*
G37*
D13*
X163957000Y-86487000D03*
D12*
G36*
X164437142Y-84125674D02*
G01*
X164460803Y-84129184D01*
X164484007Y-84134996D01*
X164506529Y-84143054D01*
X164528153Y-84153282D01*
X164548670Y-84165579D01*
X164567883Y-84179829D01*
X164585607Y-84195893D01*
X164601671Y-84213617D01*
X164615921Y-84232830D01*
X164628218Y-84253347D01*
X164638446Y-84274971D01*
X164646504Y-84297493D01*
X164652316Y-84320697D01*
X164655826Y-84344358D01*
X164657000Y-84368250D01*
X164657000Y-84855750D01*
X164655826Y-84879642D01*
X164652316Y-84903303D01*
X164646504Y-84926507D01*
X164638446Y-84949029D01*
X164628218Y-84970653D01*
X164615921Y-84991170D01*
X164601671Y-85010383D01*
X164585607Y-85028107D01*
X164567883Y-85044171D01*
X164548670Y-85058421D01*
X164528153Y-85070718D01*
X164506529Y-85080946D01*
X164484007Y-85089004D01*
X164460803Y-85094816D01*
X164437142Y-85098326D01*
X164413250Y-85099500D01*
X163500750Y-85099500D01*
X163476858Y-85098326D01*
X163453197Y-85094816D01*
X163429993Y-85089004D01*
X163407471Y-85080946D01*
X163385847Y-85070718D01*
X163365330Y-85058421D01*
X163346117Y-85044171D01*
X163328393Y-85028107D01*
X163312329Y-85010383D01*
X163298079Y-84991170D01*
X163285782Y-84970653D01*
X163275554Y-84949029D01*
X163267496Y-84926507D01*
X163261684Y-84903303D01*
X163258174Y-84879642D01*
X163257000Y-84855750D01*
X163257000Y-84368250D01*
X163258174Y-84344358D01*
X163261684Y-84320697D01*
X163267496Y-84297493D01*
X163275554Y-84274971D01*
X163285782Y-84253347D01*
X163298079Y-84232830D01*
X163312329Y-84213617D01*
X163328393Y-84195893D01*
X163346117Y-84179829D01*
X163365330Y-84165579D01*
X163385847Y-84153282D01*
X163407471Y-84143054D01*
X163429993Y-84134996D01*
X163453197Y-84129184D01*
X163476858Y-84125674D01*
X163500750Y-84124500D01*
X164413250Y-84124500D01*
X164437142Y-84125674D01*
X164437142Y-84125674D01*
G37*
D13*
X163957000Y-84612000D03*
D12*
G36*
X182852142Y-83793174D02*
G01*
X182875803Y-83796684D01*
X182899007Y-83802496D01*
X182921529Y-83810554D01*
X182943153Y-83820782D01*
X182963670Y-83833079D01*
X182982883Y-83847329D01*
X183000607Y-83863393D01*
X183016671Y-83881117D01*
X183030921Y-83900330D01*
X183043218Y-83920847D01*
X183053446Y-83942471D01*
X183061504Y-83964993D01*
X183067316Y-83988197D01*
X183070826Y-84011858D01*
X183072000Y-84035750D01*
X183072000Y-84523250D01*
X183070826Y-84547142D01*
X183067316Y-84570803D01*
X183061504Y-84594007D01*
X183053446Y-84616529D01*
X183043218Y-84638153D01*
X183030921Y-84658670D01*
X183016671Y-84677883D01*
X183000607Y-84695607D01*
X182982883Y-84711671D01*
X182963670Y-84725921D01*
X182943153Y-84738218D01*
X182921529Y-84748446D01*
X182899007Y-84756504D01*
X182875803Y-84762316D01*
X182852142Y-84765826D01*
X182828250Y-84767000D01*
X181915750Y-84767000D01*
X181891858Y-84765826D01*
X181868197Y-84762316D01*
X181844993Y-84756504D01*
X181822471Y-84748446D01*
X181800847Y-84738218D01*
X181780330Y-84725921D01*
X181761117Y-84711671D01*
X181743393Y-84695607D01*
X181727329Y-84677883D01*
X181713079Y-84658670D01*
X181700782Y-84638153D01*
X181690554Y-84616529D01*
X181682496Y-84594007D01*
X181676684Y-84570803D01*
X181673174Y-84547142D01*
X181672000Y-84523250D01*
X181672000Y-84035750D01*
X181673174Y-84011858D01*
X181676684Y-83988197D01*
X181682496Y-83964993D01*
X181690554Y-83942471D01*
X181700782Y-83920847D01*
X181713079Y-83900330D01*
X181727329Y-83881117D01*
X181743393Y-83863393D01*
X181761117Y-83847329D01*
X181780330Y-83833079D01*
X181800847Y-83820782D01*
X181822471Y-83810554D01*
X181844993Y-83802496D01*
X181868197Y-83796684D01*
X181891858Y-83793174D01*
X181915750Y-83792000D01*
X182828250Y-83792000D01*
X182852142Y-83793174D01*
X182852142Y-83793174D01*
G37*
D13*
X182372000Y-84279500D03*
D12*
G36*
X182852142Y-85668174D02*
G01*
X182875803Y-85671684D01*
X182899007Y-85677496D01*
X182921529Y-85685554D01*
X182943153Y-85695782D01*
X182963670Y-85708079D01*
X182982883Y-85722329D01*
X183000607Y-85738393D01*
X183016671Y-85756117D01*
X183030921Y-85775330D01*
X183043218Y-85795847D01*
X183053446Y-85817471D01*
X183061504Y-85839993D01*
X183067316Y-85863197D01*
X183070826Y-85886858D01*
X183072000Y-85910750D01*
X183072000Y-86398250D01*
X183070826Y-86422142D01*
X183067316Y-86445803D01*
X183061504Y-86469007D01*
X183053446Y-86491529D01*
X183043218Y-86513153D01*
X183030921Y-86533670D01*
X183016671Y-86552883D01*
X183000607Y-86570607D01*
X182982883Y-86586671D01*
X182963670Y-86600921D01*
X182943153Y-86613218D01*
X182921529Y-86623446D01*
X182899007Y-86631504D01*
X182875803Y-86637316D01*
X182852142Y-86640826D01*
X182828250Y-86642000D01*
X181915750Y-86642000D01*
X181891858Y-86640826D01*
X181868197Y-86637316D01*
X181844993Y-86631504D01*
X181822471Y-86623446D01*
X181800847Y-86613218D01*
X181780330Y-86600921D01*
X181761117Y-86586671D01*
X181743393Y-86570607D01*
X181727329Y-86552883D01*
X181713079Y-86533670D01*
X181700782Y-86513153D01*
X181690554Y-86491529D01*
X181682496Y-86469007D01*
X181676684Y-86445803D01*
X181673174Y-86422142D01*
X181672000Y-86398250D01*
X181672000Y-85910750D01*
X181673174Y-85886858D01*
X181676684Y-85863197D01*
X181682496Y-85839993D01*
X181690554Y-85817471D01*
X181700782Y-85795847D01*
X181713079Y-85775330D01*
X181727329Y-85756117D01*
X181743393Y-85738393D01*
X181761117Y-85722329D01*
X181780330Y-85708079D01*
X181800847Y-85695782D01*
X181822471Y-85685554D01*
X181844993Y-85677496D01*
X181868197Y-85671684D01*
X181891858Y-85668174D01*
X181915750Y-85667000D01*
X182828250Y-85667000D01*
X182852142Y-85668174D01*
X182852142Y-85668174D01*
G37*
D13*
X182372000Y-86154500D03*
D12*
G36*
X173495642Y-90868174D02*
G01*
X173519303Y-90871684D01*
X173542507Y-90877496D01*
X173565029Y-90885554D01*
X173586653Y-90895782D01*
X173607170Y-90908079D01*
X173626383Y-90922329D01*
X173644107Y-90938393D01*
X173660171Y-90956117D01*
X173674421Y-90975330D01*
X173686718Y-90995847D01*
X173696946Y-91017471D01*
X173705004Y-91039993D01*
X173710816Y-91063197D01*
X173714326Y-91086858D01*
X173715500Y-91110750D01*
X173715500Y-92023250D01*
X173714326Y-92047142D01*
X173710816Y-92070803D01*
X173705004Y-92094007D01*
X173696946Y-92116529D01*
X173686718Y-92138153D01*
X173674421Y-92158670D01*
X173660171Y-92177883D01*
X173644107Y-92195607D01*
X173626383Y-92211671D01*
X173607170Y-92225921D01*
X173586653Y-92238218D01*
X173565029Y-92248446D01*
X173542507Y-92256504D01*
X173519303Y-92262316D01*
X173495642Y-92265826D01*
X173471750Y-92267000D01*
X172984250Y-92267000D01*
X172960358Y-92265826D01*
X172936697Y-92262316D01*
X172913493Y-92256504D01*
X172890971Y-92248446D01*
X172869347Y-92238218D01*
X172848830Y-92225921D01*
X172829617Y-92211671D01*
X172811893Y-92195607D01*
X172795829Y-92177883D01*
X172781579Y-92158670D01*
X172769282Y-92138153D01*
X172759054Y-92116529D01*
X172750996Y-92094007D01*
X172745184Y-92070803D01*
X172741674Y-92047142D01*
X172740500Y-92023250D01*
X172740500Y-91110750D01*
X172741674Y-91086858D01*
X172745184Y-91063197D01*
X172750996Y-91039993D01*
X172759054Y-91017471D01*
X172769282Y-90995847D01*
X172781579Y-90975330D01*
X172795829Y-90956117D01*
X172811893Y-90938393D01*
X172829617Y-90922329D01*
X172848830Y-90908079D01*
X172869347Y-90895782D01*
X172890971Y-90885554D01*
X172913493Y-90877496D01*
X172936697Y-90871684D01*
X172960358Y-90868174D01*
X172984250Y-90867000D01*
X173471750Y-90867000D01*
X173495642Y-90868174D01*
X173495642Y-90868174D01*
G37*
D13*
X173228000Y-91567000D03*
D12*
G36*
X171620642Y-90868174D02*
G01*
X171644303Y-90871684D01*
X171667507Y-90877496D01*
X171690029Y-90885554D01*
X171711653Y-90895782D01*
X171732170Y-90908079D01*
X171751383Y-90922329D01*
X171769107Y-90938393D01*
X171785171Y-90956117D01*
X171799421Y-90975330D01*
X171811718Y-90995847D01*
X171821946Y-91017471D01*
X171830004Y-91039993D01*
X171835816Y-91063197D01*
X171839326Y-91086858D01*
X171840500Y-91110750D01*
X171840500Y-92023250D01*
X171839326Y-92047142D01*
X171835816Y-92070803D01*
X171830004Y-92094007D01*
X171821946Y-92116529D01*
X171811718Y-92138153D01*
X171799421Y-92158670D01*
X171785171Y-92177883D01*
X171769107Y-92195607D01*
X171751383Y-92211671D01*
X171732170Y-92225921D01*
X171711653Y-92238218D01*
X171690029Y-92248446D01*
X171667507Y-92256504D01*
X171644303Y-92262316D01*
X171620642Y-92265826D01*
X171596750Y-92267000D01*
X171109250Y-92267000D01*
X171085358Y-92265826D01*
X171061697Y-92262316D01*
X171038493Y-92256504D01*
X171015971Y-92248446D01*
X170994347Y-92238218D01*
X170973830Y-92225921D01*
X170954617Y-92211671D01*
X170936893Y-92195607D01*
X170920829Y-92177883D01*
X170906579Y-92158670D01*
X170894282Y-92138153D01*
X170884054Y-92116529D01*
X170875996Y-92094007D01*
X170870184Y-92070803D01*
X170866674Y-92047142D01*
X170865500Y-92023250D01*
X170865500Y-91110750D01*
X170866674Y-91086858D01*
X170870184Y-91063197D01*
X170875996Y-91039993D01*
X170884054Y-91017471D01*
X170894282Y-90995847D01*
X170906579Y-90975330D01*
X170920829Y-90956117D01*
X170936893Y-90938393D01*
X170954617Y-90922329D01*
X170973830Y-90908079D01*
X170994347Y-90895782D01*
X171015971Y-90885554D01*
X171038493Y-90877496D01*
X171061697Y-90871684D01*
X171085358Y-90868174D01*
X171109250Y-90867000D01*
X171596750Y-90867000D01*
X171620642Y-90868174D01*
X171620642Y-90868174D01*
G37*
D13*
X171353000Y-91567000D03*
D12*
G36*
X164437142Y-76554174D02*
G01*
X164460803Y-76557684D01*
X164484007Y-76563496D01*
X164506529Y-76571554D01*
X164528153Y-76581782D01*
X164548670Y-76594079D01*
X164567883Y-76608329D01*
X164585607Y-76624393D01*
X164601671Y-76642117D01*
X164615921Y-76661330D01*
X164628218Y-76681847D01*
X164638446Y-76703471D01*
X164646504Y-76725993D01*
X164652316Y-76749197D01*
X164655826Y-76772858D01*
X164657000Y-76796750D01*
X164657000Y-77284250D01*
X164655826Y-77308142D01*
X164652316Y-77331803D01*
X164646504Y-77355007D01*
X164638446Y-77377529D01*
X164628218Y-77399153D01*
X164615921Y-77419670D01*
X164601671Y-77438883D01*
X164585607Y-77456607D01*
X164567883Y-77472671D01*
X164548670Y-77486921D01*
X164528153Y-77499218D01*
X164506529Y-77509446D01*
X164484007Y-77517504D01*
X164460803Y-77523316D01*
X164437142Y-77526826D01*
X164413250Y-77528000D01*
X163500750Y-77528000D01*
X163476858Y-77526826D01*
X163453197Y-77523316D01*
X163429993Y-77517504D01*
X163407471Y-77509446D01*
X163385847Y-77499218D01*
X163365330Y-77486921D01*
X163346117Y-77472671D01*
X163328393Y-77456607D01*
X163312329Y-77438883D01*
X163298079Y-77419670D01*
X163285782Y-77399153D01*
X163275554Y-77377529D01*
X163267496Y-77355007D01*
X163261684Y-77331803D01*
X163258174Y-77308142D01*
X163257000Y-77284250D01*
X163257000Y-76796750D01*
X163258174Y-76772858D01*
X163261684Y-76749197D01*
X163267496Y-76725993D01*
X163275554Y-76703471D01*
X163285782Y-76681847D01*
X163298079Y-76661330D01*
X163312329Y-76642117D01*
X163328393Y-76624393D01*
X163346117Y-76608329D01*
X163365330Y-76594079D01*
X163385847Y-76581782D01*
X163407471Y-76571554D01*
X163429993Y-76563496D01*
X163453197Y-76557684D01*
X163476858Y-76554174D01*
X163500750Y-76553000D01*
X164413250Y-76553000D01*
X164437142Y-76554174D01*
X164437142Y-76554174D01*
G37*
D13*
X163957000Y-77040500D03*
D12*
G36*
X164437142Y-78429174D02*
G01*
X164460803Y-78432684D01*
X164484007Y-78438496D01*
X164506529Y-78446554D01*
X164528153Y-78456782D01*
X164548670Y-78469079D01*
X164567883Y-78483329D01*
X164585607Y-78499393D01*
X164601671Y-78517117D01*
X164615921Y-78536330D01*
X164628218Y-78556847D01*
X164638446Y-78578471D01*
X164646504Y-78600993D01*
X164652316Y-78624197D01*
X164655826Y-78647858D01*
X164657000Y-78671750D01*
X164657000Y-79159250D01*
X164655826Y-79183142D01*
X164652316Y-79206803D01*
X164646504Y-79230007D01*
X164638446Y-79252529D01*
X164628218Y-79274153D01*
X164615921Y-79294670D01*
X164601671Y-79313883D01*
X164585607Y-79331607D01*
X164567883Y-79347671D01*
X164548670Y-79361921D01*
X164528153Y-79374218D01*
X164506529Y-79384446D01*
X164484007Y-79392504D01*
X164460803Y-79398316D01*
X164437142Y-79401826D01*
X164413250Y-79403000D01*
X163500750Y-79403000D01*
X163476858Y-79401826D01*
X163453197Y-79398316D01*
X163429993Y-79392504D01*
X163407471Y-79384446D01*
X163385847Y-79374218D01*
X163365330Y-79361921D01*
X163346117Y-79347671D01*
X163328393Y-79331607D01*
X163312329Y-79313883D01*
X163298079Y-79294670D01*
X163285782Y-79274153D01*
X163275554Y-79252529D01*
X163267496Y-79230007D01*
X163261684Y-79206803D01*
X163258174Y-79183142D01*
X163257000Y-79159250D01*
X163257000Y-78671750D01*
X163258174Y-78647858D01*
X163261684Y-78624197D01*
X163267496Y-78600993D01*
X163275554Y-78578471D01*
X163285782Y-78556847D01*
X163298079Y-78536330D01*
X163312329Y-78517117D01*
X163328393Y-78499393D01*
X163346117Y-78483329D01*
X163365330Y-78469079D01*
X163385847Y-78456782D01*
X163407471Y-78446554D01*
X163429993Y-78438496D01*
X163453197Y-78432684D01*
X163476858Y-78429174D01*
X163500750Y-78428000D01*
X164413250Y-78428000D01*
X164437142Y-78429174D01*
X164437142Y-78429174D01*
G37*
D13*
X163957000Y-78915500D03*
D12*
G36*
X222009642Y-60896174D02*
G01*
X222033303Y-60899684D01*
X222056507Y-60905496D01*
X222079029Y-60913554D01*
X222100653Y-60923782D01*
X222121170Y-60936079D01*
X222140383Y-60950329D01*
X222158107Y-60966393D01*
X222174171Y-60984117D01*
X222188421Y-61003330D01*
X222200718Y-61023847D01*
X222210946Y-61045471D01*
X222219004Y-61067993D01*
X222224816Y-61091197D01*
X222228326Y-61114858D01*
X222229500Y-61138750D01*
X222229500Y-62051250D01*
X222228326Y-62075142D01*
X222224816Y-62098803D01*
X222219004Y-62122007D01*
X222210946Y-62144529D01*
X222200718Y-62166153D01*
X222188421Y-62186670D01*
X222174171Y-62205883D01*
X222158107Y-62223607D01*
X222140383Y-62239671D01*
X222121170Y-62253921D01*
X222100653Y-62266218D01*
X222079029Y-62276446D01*
X222056507Y-62284504D01*
X222033303Y-62290316D01*
X222009642Y-62293826D01*
X221985750Y-62295000D01*
X221498250Y-62295000D01*
X221474358Y-62293826D01*
X221450697Y-62290316D01*
X221427493Y-62284504D01*
X221404971Y-62276446D01*
X221383347Y-62266218D01*
X221362830Y-62253921D01*
X221343617Y-62239671D01*
X221325893Y-62223607D01*
X221309829Y-62205883D01*
X221295579Y-62186670D01*
X221283282Y-62166153D01*
X221273054Y-62144529D01*
X221264996Y-62122007D01*
X221259184Y-62098803D01*
X221255674Y-62075142D01*
X221254500Y-62051250D01*
X221254500Y-61138750D01*
X221255674Y-61114858D01*
X221259184Y-61091197D01*
X221264996Y-61067993D01*
X221273054Y-61045471D01*
X221283282Y-61023847D01*
X221295579Y-61003330D01*
X221309829Y-60984117D01*
X221325893Y-60966393D01*
X221343617Y-60950329D01*
X221362830Y-60936079D01*
X221383347Y-60923782D01*
X221404971Y-60913554D01*
X221427493Y-60905496D01*
X221450697Y-60899684D01*
X221474358Y-60896174D01*
X221498250Y-60895000D01*
X221985750Y-60895000D01*
X222009642Y-60896174D01*
X222009642Y-60896174D01*
G37*
D13*
X221742000Y-61595000D03*
D12*
G36*
X220134642Y-60896174D02*
G01*
X220158303Y-60899684D01*
X220181507Y-60905496D01*
X220204029Y-60913554D01*
X220225653Y-60923782D01*
X220246170Y-60936079D01*
X220265383Y-60950329D01*
X220283107Y-60966393D01*
X220299171Y-60984117D01*
X220313421Y-61003330D01*
X220325718Y-61023847D01*
X220335946Y-61045471D01*
X220344004Y-61067993D01*
X220349816Y-61091197D01*
X220353326Y-61114858D01*
X220354500Y-61138750D01*
X220354500Y-62051250D01*
X220353326Y-62075142D01*
X220349816Y-62098803D01*
X220344004Y-62122007D01*
X220335946Y-62144529D01*
X220325718Y-62166153D01*
X220313421Y-62186670D01*
X220299171Y-62205883D01*
X220283107Y-62223607D01*
X220265383Y-62239671D01*
X220246170Y-62253921D01*
X220225653Y-62266218D01*
X220204029Y-62276446D01*
X220181507Y-62284504D01*
X220158303Y-62290316D01*
X220134642Y-62293826D01*
X220110750Y-62295000D01*
X219623250Y-62295000D01*
X219599358Y-62293826D01*
X219575697Y-62290316D01*
X219552493Y-62284504D01*
X219529971Y-62276446D01*
X219508347Y-62266218D01*
X219487830Y-62253921D01*
X219468617Y-62239671D01*
X219450893Y-62223607D01*
X219434829Y-62205883D01*
X219420579Y-62186670D01*
X219408282Y-62166153D01*
X219398054Y-62144529D01*
X219389996Y-62122007D01*
X219384184Y-62098803D01*
X219380674Y-62075142D01*
X219379500Y-62051250D01*
X219379500Y-61138750D01*
X219380674Y-61114858D01*
X219384184Y-61091197D01*
X219389996Y-61067993D01*
X219398054Y-61045471D01*
X219408282Y-61023847D01*
X219420579Y-61003330D01*
X219434829Y-60984117D01*
X219450893Y-60966393D01*
X219468617Y-60950329D01*
X219487830Y-60936079D01*
X219508347Y-60923782D01*
X219529971Y-60913554D01*
X219552493Y-60905496D01*
X219575697Y-60899684D01*
X219599358Y-60896174D01*
X219623250Y-60895000D01*
X220110750Y-60895000D01*
X220134642Y-60896174D01*
X220134642Y-60896174D01*
G37*
D13*
X219867000Y-61595000D03*
D12*
G36*
X209694951Y-60896174D02*
G01*
X209718612Y-60899684D01*
X209741816Y-60905496D01*
X209764338Y-60913554D01*
X209785962Y-60923782D01*
X209806479Y-60936079D01*
X209825692Y-60950329D01*
X209843416Y-60966393D01*
X209859480Y-60984117D01*
X209873730Y-61003330D01*
X209886027Y-61023847D01*
X209896255Y-61045471D01*
X209904313Y-61067993D01*
X209910125Y-61091197D01*
X209913635Y-61114858D01*
X209914809Y-61138750D01*
X209914809Y-62051250D01*
X209913635Y-62075142D01*
X209910125Y-62098803D01*
X209904313Y-62122007D01*
X209896255Y-62144529D01*
X209886027Y-62166153D01*
X209873730Y-62186670D01*
X209859480Y-62205883D01*
X209843416Y-62223607D01*
X209825692Y-62239671D01*
X209806479Y-62253921D01*
X209785962Y-62266218D01*
X209764338Y-62276446D01*
X209741816Y-62284504D01*
X209718612Y-62290316D01*
X209694951Y-62293826D01*
X209671059Y-62295000D01*
X209183559Y-62295000D01*
X209159667Y-62293826D01*
X209136006Y-62290316D01*
X209112802Y-62284504D01*
X209090280Y-62276446D01*
X209068656Y-62266218D01*
X209048139Y-62253921D01*
X209028926Y-62239671D01*
X209011202Y-62223607D01*
X208995138Y-62205883D01*
X208980888Y-62186670D01*
X208968591Y-62166153D01*
X208958363Y-62144529D01*
X208950305Y-62122007D01*
X208944493Y-62098803D01*
X208940983Y-62075142D01*
X208939809Y-62051250D01*
X208939809Y-61138750D01*
X208940983Y-61114858D01*
X208944493Y-61091197D01*
X208950305Y-61067993D01*
X208958363Y-61045471D01*
X208968591Y-61023847D01*
X208980888Y-61003330D01*
X208995138Y-60984117D01*
X209011202Y-60966393D01*
X209028926Y-60950329D01*
X209048139Y-60936079D01*
X209068656Y-60923782D01*
X209090280Y-60913554D01*
X209112802Y-60905496D01*
X209136006Y-60899684D01*
X209159667Y-60896174D01*
X209183559Y-60895000D01*
X209671059Y-60895000D01*
X209694951Y-60896174D01*
X209694951Y-60896174D01*
G37*
D13*
X209427309Y-61595000D03*
D12*
G36*
X211569951Y-60896174D02*
G01*
X211593612Y-60899684D01*
X211616816Y-60905496D01*
X211639338Y-60913554D01*
X211660962Y-60923782D01*
X211681479Y-60936079D01*
X211700692Y-60950329D01*
X211718416Y-60966393D01*
X211734480Y-60984117D01*
X211748730Y-61003330D01*
X211761027Y-61023847D01*
X211771255Y-61045471D01*
X211779313Y-61067993D01*
X211785125Y-61091197D01*
X211788635Y-61114858D01*
X211789809Y-61138750D01*
X211789809Y-62051250D01*
X211788635Y-62075142D01*
X211785125Y-62098803D01*
X211779313Y-62122007D01*
X211771255Y-62144529D01*
X211761027Y-62166153D01*
X211748730Y-62186670D01*
X211734480Y-62205883D01*
X211718416Y-62223607D01*
X211700692Y-62239671D01*
X211681479Y-62253921D01*
X211660962Y-62266218D01*
X211639338Y-62276446D01*
X211616816Y-62284504D01*
X211593612Y-62290316D01*
X211569951Y-62293826D01*
X211546059Y-62295000D01*
X211058559Y-62295000D01*
X211034667Y-62293826D01*
X211011006Y-62290316D01*
X210987802Y-62284504D01*
X210965280Y-62276446D01*
X210943656Y-62266218D01*
X210923139Y-62253921D01*
X210903926Y-62239671D01*
X210886202Y-62223607D01*
X210870138Y-62205883D01*
X210855888Y-62186670D01*
X210843591Y-62166153D01*
X210833363Y-62144529D01*
X210825305Y-62122007D01*
X210819493Y-62098803D01*
X210815983Y-62075142D01*
X210814809Y-62051250D01*
X210814809Y-61138750D01*
X210815983Y-61114858D01*
X210819493Y-61091197D01*
X210825305Y-61067993D01*
X210833363Y-61045471D01*
X210843591Y-61023847D01*
X210855888Y-61003330D01*
X210870138Y-60984117D01*
X210886202Y-60966393D01*
X210903926Y-60950329D01*
X210923139Y-60936079D01*
X210943656Y-60923782D01*
X210965280Y-60913554D01*
X210987802Y-60905496D01*
X211011006Y-60899684D01*
X211034667Y-60896174D01*
X211058559Y-60895000D01*
X211546059Y-60895000D01*
X211569951Y-60896174D01*
X211569951Y-60896174D01*
G37*
D13*
X211302309Y-61595000D03*
D12*
G36*
X201130264Y-60896174D02*
G01*
X201153925Y-60899684D01*
X201177129Y-60905496D01*
X201199651Y-60913554D01*
X201221275Y-60923782D01*
X201241792Y-60936079D01*
X201261005Y-60950329D01*
X201278729Y-60966393D01*
X201294793Y-60984117D01*
X201309043Y-61003330D01*
X201321340Y-61023847D01*
X201331568Y-61045471D01*
X201339626Y-61067993D01*
X201345438Y-61091197D01*
X201348948Y-61114858D01*
X201350122Y-61138750D01*
X201350122Y-62051250D01*
X201348948Y-62075142D01*
X201345438Y-62098803D01*
X201339626Y-62122007D01*
X201331568Y-62144529D01*
X201321340Y-62166153D01*
X201309043Y-62186670D01*
X201294793Y-62205883D01*
X201278729Y-62223607D01*
X201261005Y-62239671D01*
X201241792Y-62253921D01*
X201221275Y-62266218D01*
X201199651Y-62276446D01*
X201177129Y-62284504D01*
X201153925Y-62290316D01*
X201130264Y-62293826D01*
X201106372Y-62295000D01*
X200618872Y-62295000D01*
X200594980Y-62293826D01*
X200571319Y-62290316D01*
X200548115Y-62284504D01*
X200525593Y-62276446D01*
X200503969Y-62266218D01*
X200483452Y-62253921D01*
X200464239Y-62239671D01*
X200446515Y-62223607D01*
X200430451Y-62205883D01*
X200416201Y-62186670D01*
X200403904Y-62166153D01*
X200393676Y-62144529D01*
X200385618Y-62122007D01*
X200379806Y-62098803D01*
X200376296Y-62075142D01*
X200375122Y-62051250D01*
X200375122Y-61138750D01*
X200376296Y-61114858D01*
X200379806Y-61091197D01*
X200385618Y-61067993D01*
X200393676Y-61045471D01*
X200403904Y-61023847D01*
X200416201Y-61003330D01*
X200430451Y-60984117D01*
X200446515Y-60966393D01*
X200464239Y-60950329D01*
X200483452Y-60936079D01*
X200503969Y-60923782D01*
X200525593Y-60913554D01*
X200548115Y-60905496D01*
X200571319Y-60899684D01*
X200594980Y-60896174D01*
X200618872Y-60895000D01*
X201106372Y-60895000D01*
X201130264Y-60896174D01*
X201130264Y-60896174D01*
G37*
D13*
X200862622Y-61595000D03*
D12*
G36*
X199255264Y-60896174D02*
G01*
X199278925Y-60899684D01*
X199302129Y-60905496D01*
X199324651Y-60913554D01*
X199346275Y-60923782D01*
X199366792Y-60936079D01*
X199386005Y-60950329D01*
X199403729Y-60966393D01*
X199419793Y-60984117D01*
X199434043Y-61003330D01*
X199446340Y-61023847D01*
X199456568Y-61045471D01*
X199464626Y-61067993D01*
X199470438Y-61091197D01*
X199473948Y-61114858D01*
X199475122Y-61138750D01*
X199475122Y-62051250D01*
X199473948Y-62075142D01*
X199470438Y-62098803D01*
X199464626Y-62122007D01*
X199456568Y-62144529D01*
X199446340Y-62166153D01*
X199434043Y-62186670D01*
X199419793Y-62205883D01*
X199403729Y-62223607D01*
X199386005Y-62239671D01*
X199366792Y-62253921D01*
X199346275Y-62266218D01*
X199324651Y-62276446D01*
X199302129Y-62284504D01*
X199278925Y-62290316D01*
X199255264Y-62293826D01*
X199231372Y-62295000D01*
X198743872Y-62295000D01*
X198719980Y-62293826D01*
X198696319Y-62290316D01*
X198673115Y-62284504D01*
X198650593Y-62276446D01*
X198628969Y-62266218D01*
X198608452Y-62253921D01*
X198589239Y-62239671D01*
X198571515Y-62223607D01*
X198555451Y-62205883D01*
X198541201Y-62186670D01*
X198528904Y-62166153D01*
X198518676Y-62144529D01*
X198510618Y-62122007D01*
X198504806Y-62098803D01*
X198501296Y-62075142D01*
X198500122Y-62051250D01*
X198500122Y-61138750D01*
X198501296Y-61114858D01*
X198504806Y-61091197D01*
X198510618Y-61067993D01*
X198518676Y-61045471D01*
X198528904Y-61023847D01*
X198541201Y-61003330D01*
X198555451Y-60984117D01*
X198571515Y-60966393D01*
X198589239Y-60950329D01*
X198608452Y-60936079D01*
X198628969Y-60923782D01*
X198650593Y-60913554D01*
X198673115Y-60905496D01*
X198696319Y-60899684D01*
X198719980Y-60896174D01*
X198743872Y-60895000D01*
X199231372Y-60895000D01*
X199255264Y-60896174D01*
X199255264Y-60896174D01*
G37*
D13*
X198987622Y-61595000D03*
D12*
G36*
X188815577Y-60896174D02*
G01*
X188839238Y-60899684D01*
X188862442Y-60905496D01*
X188884964Y-60913554D01*
X188906588Y-60923782D01*
X188927105Y-60936079D01*
X188946318Y-60950329D01*
X188964042Y-60966393D01*
X188980106Y-60984117D01*
X188994356Y-61003330D01*
X189006653Y-61023847D01*
X189016881Y-61045471D01*
X189024939Y-61067993D01*
X189030751Y-61091197D01*
X189034261Y-61114858D01*
X189035435Y-61138750D01*
X189035435Y-62051250D01*
X189034261Y-62075142D01*
X189030751Y-62098803D01*
X189024939Y-62122007D01*
X189016881Y-62144529D01*
X189006653Y-62166153D01*
X188994356Y-62186670D01*
X188980106Y-62205883D01*
X188964042Y-62223607D01*
X188946318Y-62239671D01*
X188927105Y-62253921D01*
X188906588Y-62266218D01*
X188884964Y-62276446D01*
X188862442Y-62284504D01*
X188839238Y-62290316D01*
X188815577Y-62293826D01*
X188791685Y-62295000D01*
X188304185Y-62295000D01*
X188280293Y-62293826D01*
X188256632Y-62290316D01*
X188233428Y-62284504D01*
X188210906Y-62276446D01*
X188189282Y-62266218D01*
X188168765Y-62253921D01*
X188149552Y-62239671D01*
X188131828Y-62223607D01*
X188115764Y-62205883D01*
X188101514Y-62186670D01*
X188089217Y-62166153D01*
X188078989Y-62144529D01*
X188070931Y-62122007D01*
X188065119Y-62098803D01*
X188061609Y-62075142D01*
X188060435Y-62051250D01*
X188060435Y-61138750D01*
X188061609Y-61114858D01*
X188065119Y-61091197D01*
X188070931Y-61067993D01*
X188078989Y-61045471D01*
X188089217Y-61023847D01*
X188101514Y-61003330D01*
X188115764Y-60984117D01*
X188131828Y-60966393D01*
X188149552Y-60950329D01*
X188168765Y-60936079D01*
X188189282Y-60923782D01*
X188210906Y-60913554D01*
X188233428Y-60905496D01*
X188256632Y-60899684D01*
X188280293Y-60896174D01*
X188304185Y-60895000D01*
X188791685Y-60895000D01*
X188815577Y-60896174D01*
X188815577Y-60896174D01*
G37*
D13*
X188547935Y-61595000D03*
D12*
G36*
X190690577Y-60896174D02*
G01*
X190714238Y-60899684D01*
X190737442Y-60905496D01*
X190759964Y-60913554D01*
X190781588Y-60923782D01*
X190802105Y-60936079D01*
X190821318Y-60950329D01*
X190839042Y-60966393D01*
X190855106Y-60984117D01*
X190869356Y-61003330D01*
X190881653Y-61023847D01*
X190891881Y-61045471D01*
X190899939Y-61067993D01*
X190905751Y-61091197D01*
X190909261Y-61114858D01*
X190910435Y-61138750D01*
X190910435Y-62051250D01*
X190909261Y-62075142D01*
X190905751Y-62098803D01*
X190899939Y-62122007D01*
X190891881Y-62144529D01*
X190881653Y-62166153D01*
X190869356Y-62186670D01*
X190855106Y-62205883D01*
X190839042Y-62223607D01*
X190821318Y-62239671D01*
X190802105Y-62253921D01*
X190781588Y-62266218D01*
X190759964Y-62276446D01*
X190737442Y-62284504D01*
X190714238Y-62290316D01*
X190690577Y-62293826D01*
X190666685Y-62295000D01*
X190179185Y-62295000D01*
X190155293Y-62293826D01*
X190131632Y-62290316D01*
X190108428Y-62284504D01*
X190085906Y-62276446D01*
X190064282Y-62266218D01*
X190043765Y-62253921D01*
X190024552Y-62239671D01*
X190006828Y-62223607D01*
X189990764Y-62205883D01*
X189976514Y-62186670D01*
X189964217Y-62166153D01*
X189953989Y-62144529D01*
X189945931Y-62122007D01*
X189940119Y-62098803D01*
X189936609Y-62075142D01*
X189935435Y-62051250D01*
X189935435Y-61138750D01*
X189936609Y-61114858D01*
X189940119Y-61091197D01*
X189945931Y-61067993D01*
X189953989Y-61045471D01*
X189964217Y-61023847D01*
X189976514Y-61003330D01*
X189990764Y-60984117D01*
X190006828Y-60966393D01*
X190024552Y-60950329D01*
X190043765Y-60936079D01*
X190064282Y-60923782D01*
X190085906Y-60913554D01*
X190108428Y-60905496D01*
X190131632Y-60899684D01*
X190155293Y-60896174D01*
X190179185Y-60895000D01*
X190666685Y-60895000D01*
X190690577Y-60896174D01*
X190690577Y-60896174D01*
G37*
D13*
X190422935Y-61595000D03*
D12*
G36*
X180250890Y-60896174D02*
G01*
X180274551Y-60899684D01*
X180297755Y-60905496D01*
X180320277Y-60913554D01*
X180341901Y-60923782D01*
X180362418Y-60936079D01*
X180381631Y-60950329D01*
X180399355Y-60966393D01*
X180415419Y-60984117D01*
X180429669Y-61003330D01*
X180441966Y-61023847D01*
X180452194Y-61045471D01*
X180460252Y-61067993D01*
X180466064Y-61091197D01*
X180469574Y-61114858D01*
X180470748Y-61138750D01*
X180470748Y-62051250D01*
X180469574Y-62075142D01*
X180466064Y-62098803D01*
X180460252Y-62122007D01*
X180452194Y-62144529D01*
X180441966Y-62166153D01*
X180429669Y-62186670D01*
X180415419Y-62205883D01*
X180399355Y-62223607D01*
X180381631Y-62239671D01*
X180362418Y-62253921D01*
X180341901Y-62266218D01*
X180320277Y-62276446D01*
X180297755Y-62284504D01*
X180274551Y-62290316D01*
X180250890Y-62293826D01*
X180226998Y-62295000D01*
X179739498Y-62295000D01*
X179715606Y-62293826D01*
X179691945Y-62290316D01*
X179668741Y-62284504D01*
X179646219Y-62276446D01*
X179624595Y-62266218D01*
X179604078Y-62253921D01*
X179584865Y-62239671D01*
X179567141Y-62223607D01*
X179551077Y-62205883D01*
X179536827Y-62186670D01*
X179524530Y-62166153D01*
X179514302Y-62144529D01*
X179506244Y-62122007D01*
X179500432Y-62098803D01*
X179496922Y-62075142D01*
X179495748Y-62051250D01*
X179495748Y-61138750D01*
X179496922Y-61114858D01*
X179500432Y-61091197D01*
X179506244Y-61067993D01*
X179514302Y-61045471D01*
X179524530Y-61023847D01*
X179536827Y-61003330D01*
X179551077Y-60984117D01*
X179567141Y-60966393D01*
X179584865Y-60950329D01*
X179604078Y-60936079D01*
X179624595Y-60923782D01*
X179646219Y-60913554D01*
X179668741Y-60905496D01*
X179691945Y-60899684D01*
X179715606Y-60896174D01*
X179739498Y-60895000D01*
X180226998Y-60895000D01*
X180250890Y-60896174D01*
X180250890Y-60896174D01*
G37*
D13*
X179983248Y-61595000D03*
D12*
G36*
X178375890Y-60896174D02*
G01*
X178399551Y-60899684D01*
X178422755Y-60905496D01*
X178445277Y-60913554D01*
X178466901Y-60923782D01*
X178487418Y-60936079D01*
X178506631Y-60950329D01*
X178524355Y-60966393D01*
X178540419Y-60984117D01*
X178554669Y-61003330D01*
X178566966Y-61023847D01*
X178577194Y-61045471D01*
X178585252Y-61067993D01*
X178591064Y-61091197D01*
X178594574Y-61114858D01*
X178595748Y-61138750D01*
X178595748Y-62051250D01*
X178594574Y-62075142D01*
X178591064Y-62098803D01*
X178585252Y-62122007D01*
X178577194Y-62144529D01*
X178566966Y-62166153D01*
X178554669Y-62186670D01*
X178540419Y-62205883D01*
X178524355Y-62223607D01*
X178506631Y-62239671D01*
X178487418Y-62253921D01*
X178466901Y-62266218D01*
X178445277Y-62276446D01*
X178422755Y-62284504D01*
X178399551Y-62290316D01*
X178375890Y-62293826D01*
X178351998Y-62295000D01*
X177864498Y-62295000D01*
X177840606Y-62293826D01*
X177816945Y-62290316D01*
X177793741Y-62284504D01*
X177771219Y-62276446D01*
X177749595Y-62266218D01*
X177729078Y-62253921D01*
X177709865Y-62239671D01*
X177692141Y-62223607D01*
X177676077Y-62205883D01*
X177661827Y-62186670D01*
X177649530Y-62166153D01*
X177639302Y-62144529D01*
X177631244Y-62122007D01*
X177625432Y-62098803D01*
X177621922Y-62075142D01*
X177620748Y-62051250D01*
X177620748Y-61138750D01*
X177621922Y-61114858D01*
X177625432Y-61091197D01*
X177631244Y-61067993D01*
X177639302Y-61045471D01*
X177649530Y-61023847D01*
X177661827Y-61003330D01*
X177676077Y-60984117D01*
X177692141Y-60966393D01*
X177709865Y-60950329D01*
X177729078Y-60936079D01*
X177749595Y-60923782D01*
X177771219Y-60913554D01*
X177793741Y-60905496D01*
X177816945Y-60899684D01*
X177840606Y-60896174D01*
X177864498Y-60895000D01*
X178351998Y-60895000D01*
X178375890Y-60896174D01*
X178375890Y-60896174D01*
G37*
D13*
X178108248Y-61595000D03*
D12*
G36*
X167936203Y-60896174D02*
G01*
X167959864Y-60899684D01*
X167983068Y-60905496D01*
X168005590Y-60913554D01*
X168027214Y-60923782D01*
X168047731Y-60936079D01*
X168066944Y-60950329D01*
X168084668Y-60966393D01*
X168100732Y-60984117D01*
X168114982Y-61003330D01*
X168127279Y-61023847D01*
X168137507Y-61045471D01*
X168145565Y-61067993D01*
X168151377Y-61091197D01*
X168154887Y-61114858D01*
X168156061Y-61138750D01*
X168156061Y-62051250D01*
X168154887Y-62075142D01*
X168151377Y-62098803D01*
X168145565Y-62122007D01*
X168137507Y-62144529D01*
X168127279Y-62166153D01*
X168114982Y-62186670D01*
X168100732Y-62205883D01*
X168084668Y-62223607D01*
X168066944Y-62239671D01*
X168047731Y-62253921D01*
X168027214Y-62266218D01*
X168005590Y-62276446D01*
X167983068Y-62284504D01*
X167959864Y-62290316D01*
X167936203Y-62293826D01*
X167912311Y-62295000D01*
X167424811Y-62295000D01*
X167400919Y-62293826D01*
X167377258Y-62290316D01*
X167354054Y-62284504D01*
X167331532Y-62276446D01*
X167309908Y-62266218D01*
X167289391Y-62253921D01*
X167270178Y-62239671D01*
X167252454Y-62223607D01*
X167236390Y-62205883D01*
X167222140Y-62186670D01*
X167209843Y-62166153D01*
X167199615Y-62144529D01*
X167191557Y-62122007D01*
X167185745Y-62098803D01*
X167182235Y-62075142D01*
X167181061Y-62051250D01*
X167181061Y-61138750D01*
X167182235Y-61114858D01*
X167185745Y-61091197D01*
X167191557Y-61067993D01*
X167199615Y-61045471D01*
X167209843Y-61023847D01*
X167222140Y-61003330D01*
X167236390Y-60984117D01*
X167252454Y-60966393D01*
X167270178Y-60950329D01*
X167289391Y-60936079D01*
X167309908Y-60923782D01*
X167331532Y-60913554D01*
X167354054Y-60905496D01*
X167377258Y-60899684D01*
X167400919Y-60896174D01*
X167424811Y-60895000D01*
X167912311Y-60895000D01*
X167936203Y-60896174D01*
X167936203Y-60896174D01*
G37*
D13*
X167668561Y-61595000D03*
D12*
G36*
X169811203Y-60896174D02*
G01*
X169834864Y-60899684D01*
X169858068Y-60905496D01*
X169880590Y-60913554D01*
X169902214Y-60923782D01*
X169922731Y-60936079D01*
X169941944Y-60950329D01*
X169959668Y-60966393D01*
X169975732Y-60984117D01*
X169989982Y-61003330D01*
X170002279Y-61023847D01*
X170012507Y-61045471D01*
X170020565Y-61067993D01*
X170026377Y-61091197D01*
X170029887Y-61114858D01*
X170031061Y-61138750D01*
X170031061Y-62051250D01*
X170029887Y-62075142D01*
X170026377Y-62098803D01*
X170020565Y-62122007D01*
X170012507Y-62144529D01*
X170002279Y-62166153D01*
X169989982Y-62186670D01*
X169975732Y-62205883D01*
X169959668Y-62223607D01*
X169941944Y-62239671D01*
X169922731Y-62253921D01*
X169902214Y-62266218D01*
X169880590Y-62276446D01*
X169858068Y-62284504D01*
X169834864Y-62290316D01*
X169811203Y-62293826D01*
X169787311Y-62295000D01*
X169299811Y-62295000D01*
X169275919Y-62293826D01*
X169252258Y-62290316D01*
X169229054Y-62284504D01*
X169206532Y-62276446D01*
X169184908Y-62266218D01*
X169164391Y-62253921D01*
X169145178Y-62239671D01*
X169127454Y-62223607D01*
X169111390Y-62205883D01*
X169097140Y-62186670D01*
X169084843Y-62166153D01*
X169074615Y-62144529D01*
X169066557Y-62122007D01*
X169060745Y-62098803D01*
X169057235Y-62075142D01*
X169056061Y-62051250D01*
X169056061Y-61138750D01*
X169057235Y-61114858D01*
X169060745Y-61091197D01*
X169066557Y-61067993D01*
X169074615Y-61045471D01*
X169084843Y-61023847D01*
X169097140Y-61003330D01*
X169111390Y-60984117D01*
X169127454Y-60966393D01*
X169145178Y-60950329D01*
X169164391Y-60936079D01*
X169184908Y-60923782D01*
X169206532Y-60913554D01*
X169229054Y-60905496D01*
X169252258Y-60899684D01*
X169275919Y-60896174D01*
X169299811Y-60895000D01*
X169787311Y-60895000D01*
X169811203Y-60896174D01*
X169811203Y-60896174D01*
G37*
D13*
X169543561Y-61595000D03*
D12*
G36*
X157496516Y-60896174D02*
G01*
X157520177Y-60899684D01*
X157543381Y-60905496D01*
X157565903Y-60913554D01*
X157587527Y-60923782D01*
X157608044Y-60936079D01*
X157627257Y-60950329D01*
X157644981Y-60966393D01*
X157661045Y-60984117D01*
X157675295Y-61003330D01*
X157687592Y-61023847D01*
X157697820Y-61045471D01*
X157705878Y-61067993D01*
X157711690Y-61091197D01*
X157715200Y-61114858D01*
X157716374Y-61138750D01*
X157716374Y-62051250D01*
X157715200Y-62075142D01*
X157711690Y-62098803D01*
X157705878Y-62122007D01*
X157697820Y-62144529D01*
X157687592Y-62166153D01*
X157675295Y-62186670D01*
X157661045Y-62205883D01*
X157644981Y-62223607D01*
X157627257Y-62239671D01*
X157608044Y-62253921D01*
X157587527Y-62266218D01*
X157565903Y-62276446D01*
X157543381Y-62284504D01*
X157520177Y-62290316D01*
X157496516Y-62293826D01*
X157472624Y-62295000D01*
X156985124Y-62295000D01*
X156961232Y-62293826D01*
X156937571Y-62290316D01*
X156914367Y-62284504D01*
X156891845Y-62276446D01*
X156870221Y-62266218D01*
X156849704Y-62253921D01*
X156830491Y-62239671D01*
X156812767Y-62223607D01*
X156796703Y-62205883D01*
X156782453Y-62186670D01*
X156770156Y-62166153D01*
X156759928Y-62144529D01*
X156751870Y-62122007D01*
X156746058Y-62098803D01*
X156742548Y-62075142D01*
X156741374Y-62051250D01*
X156741374Y-61138750D01*
X156742548Y-61114858D01*
X156746058Y-61091197D01*
X156751870Y-61067993D01*
X156759928Y-61045471D01*
X156770156Y-61023847D01*
X156782453Y-61003330D01*
X156796703Y-60984117D01*
X156812767Y-60966393D01*
X156830491Y-60950329D01*
X156849704Y-60936079D01*
X156870221Y-60923782D01*
X156891845Y-60913554D01*
X156914367Y-60905496D01*
X156937571Y-60899684D01*
X156961232Y-60896174D01*
X156985124Y-60895000D01*
X157472624Y-60895000D01*
X157496516Y-60896174D01*
X157496516Y-60896174D01*
G37*
D13*
X157228874Y-61595000D03*
D12*
G36*
X159371516Y-60896174D02*
G01*
X159395177Y-60899684D01*
X159418381Y-60905496D01*
X159440903Y-60913554D01*
X159462527Y-60923782D01*
X159483044Y-60936079D01*
X159502257Y-60950329D01*
X159519981Y-60966393D01*
X159536045Y-60984117D01*
X159550295Y-61003330D01*
X159562592Y-61023847D01*
X159572820Y-61045471D01*
X159580878Y-61067993D01*
X159586690Y-61091197D01*
X159590200Y-61114858D01*
X159591374Y-61138750D01*
X159591374Y-62051250D01*
X159590200Y-62075142D01*
X159586690Y-62098803D01*
X159580878Y-62122007D01*
X159572820Y-62144529D01*
X159562592Y-62166153D01*
X159550295Y-62186670D01*
X159536045Y-62205883D01*
X159519981Y-62223607D01*
X159502257Y-62239671D01*
X159483044Y-62253921D01*
X159462527Y-62266218D01*
X159440903Y-62276446D01*
X159418381Y-62284504D01*
X159395177Y-62290316D01*
X159371516Y-62293826D01*
X159347624Y-62295000D01*
X158860124Y-62295000D01*
X158836232Y-62293826D01*
X158812571Y-62290316D01*
X158789367Y-62284504D01*
X158766845Y-62276446D01*
X158745221Y-62266218D01*
X158724704Y-62253921D01*
X158705491Y-62239671D01*
X158687767Y-62223607D01*
X158671703Y-62205883D01*
X158657453Y-62186670D01*
X158645156Y-62166153D01*
X158634928Y-62144529D01*
X158626870Y-62122007D01*
X158621058Y-62098803D01*
X158617548Y-62075142D01*
X158616374Y-62051250D01*
X158616374Y-61138750D01*
X158617548Y-61114858D01*
X158621058Y-61091197D01*
X158626870Y-61067993D01*
X158634928Y-61045471D01*
X158645156Y-61023847D01*
X158657453Y-61003330D01*
X158671703Y-60984117D01*
X158687767Y-60966393D01*
X158705491Y-60950329D01*
X158724704Y-60936079D01*
X158745221Y-60923782D01*
X158766845Y-60913554D01*
X158789367Y-60905496D01*
X158812571Y-60899684D01*
X158836232Y-60896174D01*
X158860124Y-60895000D01*
X159347624Y-60895000D01*
X159371516Y-60896174D01*
X159371516Y-60896174D01*
G37*
D13*
X159103874Y-61595000D03*
D12*
G36*
X147056829Y-60896174D02*
G01*
X147080490Y-60899684D01*
X147103694Y-60905496D01*
X147126216Y-60913554D01*
X147147840Y-60923782D01*
X147168357Y-60936079D01*
X147187570Y-60950329D01*
X147205294Y-60966393D01*
X147221358Y-60984117D01*
X147235608Y-61003330D01*
X147247905Y-61023847D01*
X147258133Y-61045471D01*
X147266191Y-61067993D01*
X147272003Y-61091197D01*
X147275513Y-61114858D01*
X147276687Y-61138750D01*
X147276687Y-62051250D01*
X147275513Y-62075142D01*
X147272003Y-62098803D01*
X147266191Y-62122007D01*
X147258133Y-62144529D01*
X147247905Y-62166153D01*
X147235608Y-62186670D01*
X147221358Y-62205883D01*
X147205294Y-62223607D01*
X147187570Y-62239671D01*
X147168357Y-62253921D01*
X147147840Y-62266218D01*
X147126216Y-62276446D01*
X147103694Y-62284504D01*
X147080490Y-62290316D01*
X147056829Y-62293826D01*
X147032937Y-62295000D01*
X146545437Y-62295000D01*
X146521545Y-62293826D01*
X146497884Y-62290316D01*
X146474680Y-62284504D01*
X146452158Y-62276446D01*
X146430534Y-62266218D01*
X146410017Y-62253921D01*
X146390804Y-62239671D01*
X146373080Y-62223607D01*
X146357016Y-62205883D01*
X146342766Y-62186670D01*
X146330469Y-62166153D01*
X146320241Y-62144529D01*
X146312183Y-62122007D01*
X146306371Y-62098803D01*
X146302861Y-62075142D01*
X146301687Y-62051250D01*
X146301687Y-61138750D01*
X146302861Y-61114858D01*
X146306371Y-61091197D01*
X146312183Y-61067993D01*
X146320241Y-61045471D01*
X146330469Y-61023847D01*
X146342766Y-61003330D01*
X146357016Y-60984117D01*
X146373080Y-60966393D01*
X146390804Y-60950329D01*
X146410017Y-60936079D01*
X146430534Y-60923782D01*
X146452158Y-60913554D01*
X146474680Y-60905496D01*
X146497884Y-60899684D01*
X146521545Y-60896174D01*
X146545437Y-60895000D01*
X147032937Y-60895000D01*
X147056829Y-60896174D01*
X147056829Y-60896174D01*
G37*
D13*
X146789187Y-61595000D03*
D12*
G36*
X148931829Y-60896174D02*
G01*
X148955490Y-60899684D01*
X148978694Y-60905496D01*
X149001216Y-60913554D01*
X149022840Y-60923782D01*
X149043357Y-60936079D01*
X149062570Y-60950329D01*
X149080294Y-60966393D01*
X149096358Y-60984117D01*
X149110608Y-61003330D01*
X149122905Y-61023847D01*
X149133133Y-61045471D01*
X149141191Y-61067993D01*
X149147003Y-61091197D01*
X149150513Y-61114858D01*
X149151687Y-61138750D01*
X149151687Y-62051250D01*
X149150513Y-62075142D01*
X149147003Y-62098803D01*
X149141191Y-62122007D01*
X149133133Y-62144529D01*
X149122905Y-62166153D01*
X149110608Y-62186670D01*
X149096358Y-62205883D01*
X149080294Y-62223607D01*
X149062570Y-62239671D01*
X149043357Y-62253921D01*
X149022840Y-62266218D01*
X149001216Y-62276446D01*
X148978694Y-62284504D01*
X148955490Y-62290316D01*
X148931829Y-62293826D01*
X148907937Y-62295000D01*
X148420437Y-62295000D01*
X148396545Y-62293826D01*
X148372884Y-62290316D01*
X148349680Y-62284504D01*
X148327158Y-62276446D01*
X148305534Y-62266218D01*
X148285017Y-62253921D01*
X148265804Y-62239671D01*
X148248080Y-62223607D01*
X148232016Y-62205883D01*
X148217766Y-62186670D01*
X148205469Y-62166153D01*
X148195241Y-62144529D01*
X148187183Y-62122007D01*
X148181371Y-62098803D01*
X148177861Y-62075142D01*
X148176687Y-62051250D01*
X148176687Y-61138750D01*
X148177861Y-61114858D01*
X148181371Y-61091197D01*
X148187183Y-61067993D01*
X148195241Y-61045471D01*
X148205469Y-61023847D01*
X148217766Y-61003330D01*
X148232016Y-60984117D01*
X148248080Y-60966393D01*
X148265804Y-60950329D01*
X148285017Y-60936079D01*
X148305534Y-60923782D01*
X148327158Y-60913554D01*
X148349680Y-60905496D01*
X148372884Y-60899684D01*
X148396545Y-60896174D01*
X148420437Y-60895000D01*
X148907937Y-60895000D01*
X148931829Y-60896174D01*
X148931829Y-60896174D01*
G37*
D13*
X148664187Y-61595000D03*
D12*
G36*
X138492142Y-60896174D02*
G01*
X138515803Y-60899684D01*
X138539007Y-60905496D01*
X138561529Y-60913554D01*
X138583153Y-60923782D01*
X138603670Y-60936079D01*
X138622883Y-60950329D01*
X138640607Y-60966393D01*
X138656671Y-60984117D01*
X138670921Y-61003330D01*
X138683218Y-61023847D01*
X138693446Y-61045471D01*
X138701504Y-61067993D01*
X138707316Y-61091197D01*
X138710826Y-61114858D01*
X138712000Y-61138750D01*
X138712000Y-62051250D01*
X138710826Y-62075142D01*
X138707316Y-62098803D01*
X138701504Y-62122007D01*
X138693446Y-62144529D01*
X138683218Y-62166153D01*
X138670921Y-62186670D01*
X138656671Y-62205883D01*
X138640607Y-62223607D01*
X138622883Y-62239671D01*
X138603670Y-62253921D01*
X138583153Y-62266218D01*
X138561529Y-62276446D01*
X138539007Y-62284504D01*
X138515803Y-62290316D01*
X138492142Y-62293826D01*
X138468250Y-62295000D01*
X137980750Y-62295000D01*
X137956858Y-62293826D01*
X137933197Y-62290316D01*
X137909993Y-62284504D01*
X137887471Y-62276446D01*
X137865847Y-62266218D01*
X137845330Y-62253921D01*
X137826117Y-62239671D01*
X137808393Y-62223607D01*
X137792329Y-62205883D01*
X137778079Y-62186670D01*
X137765782Y-62166153D01*
X137755554Y-62144529D01*
X137747496Y-62122007D01*
X137741684Y-62098803D01*
X137738174Y-62075142D01*
X137737000Y-62051250D01*
X137737000Y-61138750D01*
X137738174Y-61114858D01*
X137741684Y-61091197D01*
X137747496Y-61067993D01*
X137755554Y-61045471D01*
X137765782Y-61023847D01*
X137778079Y-61003330D01*
X137792329Y-60984117D01*
X137808393Y-60966393D01*
X137826117Y-60950329D01*
X137845330Y-60936079D01*
X137865847Y-60923782D01*
X137887471Y-60913554D01*
X137909993Y-60905496D01*
X137933197Y-60899684D01*
X137956858Y-60896174D01*
X137980750Y-60895000D01*
X138468250Y-60895000D01*
X138492142Y-60896174D01*
X138492142Y-60896174D01*
G37*
D13*
X138224500Y-61595000D03*
D12*
G36*
X136617142Y-60896174D02*
G01*
X136640803Y-60899684D01*
X136664007Y-60905496D01*
X136686529Y-60913554D01*
X136708153Y-60923782D01*
X136728670Y-60936079D01*
X136747883Y-60950329D01*
X136765607Y-60966393D01*
X136781671Y-60984117D01*
X136795921Y-61003330D01*
X136808218Y-61023847D01*
X136818446Y-61045471D01*
X136826504Y-61067993D01*
X136832316Y-61091197D01*
X136835826Y-61114858D01*
X136837000Y-61138750D01*
X136837000Y-62051250D01*
X136835826Y-62075142D01*
X136832316Y-62098803D01*
X136826504Y-62122007D01*
X136818446Y-62144529D01*
X136808218Y-62166153D01*
X136795921Y-62186670D01*
X136781671Y-62205883D01*
X136765607Y-62223607D01*
X136747883Y-62239671D01*
X136728670Y-62253921D01*
X136708153Y-62266218D01*
X136686529Y-62276446D01*
X136664007Y-62284504D01*
X136640803Y-62290316D01*
X136617142Y-62293826D01*
X136593250Y-62295000D01*
X136105750Y-62295000D01*
X136081858Y-62293826D01*
X136058197Y-62290316D01*
X136034993Y-62284504D01*
X136012471Y-62276446D01*
X135990847Y-62266218D01*
X135970330Y-62253921D01*
X135951117Y-62239671D01*
X135933393Y-62223607D01*
X135917329Y-62205883D01*
X135903079Y-62186670D01*
X135890782Y-62166153D01*
X135880554Y-62144529D01*
X135872496Y-62122007D01*
X135866684Y-62098803D01*
X135863174Y-62075142D01*
X135862000Y-62051250D01*
X135862000Y-61138750D01*
X135863174Y-61114858D01*
X135866684Y-61091197D01*
X135872496Y-61067993D01*
X135880554Y-61045471D01*
X135890782Y-61023847D01*
X135903079Y-61003330D01*
X135917329Y-60984117D01*
X135933393Y-60966393D01*
X135951117Y-60950329D01*
X135970330Y-60936079D01*
X135990847Y-60923782D01*
X136012471Y-60913554D01*
X136034993Y-60905496D01*
X136058197Y-60899684D01*
X136081858Y-60896174D01*
X136105750Y-60895000D01*
X136593250Y-60895000D01*
X136617142Y-60896174D01*
X136617142Y-60896174D01*
G37*
D13*
X136349500Y-61595000D03*
D12*
G36*
X144207142Y-79184174D02*
G01*
X144230803Y-79187684D01*
X144254007Y-79193496D01*
X144276529Y-79201554D01*
X144298153Y-79211782D01*
X144318670Y-79224079D01*
X144337883Y-79238329D01*
X144355607Y-79254393D01*
X144371671Y-79272117D01*
X144385921Y-79291330D01*
X144398218Y-79311847D01*
X144408446Y-79333471D01*
X144416504Y-79355993D01*
X144422316Y-79379197D01*
X144425826Y-79402858D01*
X144427000Y-79426750D01*
X144427000Y-80339250D01*
X144425826Y-80363142D01*
X144422316Y-80386803D01*
X144416504Y-80410007D01*
X144408446Y-80432529D01*
X144398218Y-80454153D01*
X144385921Y-80474670D01*
X144371671Y-80493883D01*
X144355607Y-80511607D01*
X144337883Y-80527671D01*
X144318670Y-80541921D01*
X144298153Y-80554218D01*
X144276529Y-80564446D01*
X144254007Y-80572504D01*
X144230803Y-80578316D01*
X144207142Y-80581826D01*
X144183250Y-80583000D01*
X143695750Y-80583000D01*
X143671858Y-80581826D01*
X143648197Y-80578316D01*
X143624993Y-80572504D01*
X143602471Y-80564446D01*
X143580847Y-80554218D01*
X143560330Y-80541921D01*
X143541117Y-80527671D01*
X143523393Y-80511607D01*
X143507329Y-80493883D01*
X143493079Y-80474670D01*
X143480782Y-80454153D01*
X143470554Y-80432529D01*
X143462496Y-80410007D01*
X143456684Y-80386803D01*
X143453174Y-80363142D01*
X143452000Y-80339250D01*
X143452000Y-79426750D01*
X143453174Y-79402858D01*
X143456684Y-79379197D01*
X143462496Y-79355993D01*
X143470554Y-79333471D01*
X143480782Y-79311847D01*
X143493079Y-79291330D01*
X143507329Y-79272117D01*
X143523393Y-79254393D01*
X143541117Y-79238329D01*
X143560330Y-79224079D01*
X143580847Y-79211782D01*
X143602471Y-79201554D01*
X143624993Y-79193496D01*
X143648197Y-79187684D01*
X143671858Y-79184174D01*
X143695750Y-79183000D01*
X144183250Y-79183000D01*
X144207142Y-79184174D01*
X144207142Y-79184174D01*
G37*
D13*
X143939500Y-79883000D03*
D12*
G36*
X142332142Y-79184174D02*
G01*
X142355803Y-79187684D01*
X142379007Y-79193496D01*
X142401529Y-79201554D01*
X142423153Y-79211782D01*
X142443670Y-79224079D01*
X142462883Y-79238329D01*
X142480607Y-79254393D01*
X142496671Y-79272117D01*
X142510921Y-79291330D01*
X142523218Y-79311847D01*
X142533446Y-79333471D01*
X142541504Y-79355993D01*
X142547316Y-79379197D01*
X142550826Y-79402858D01*
X142552000Y-79426750D01*
X142552000Y-80339250D01*
X142550826Y-80363142D01*
X142547316Y-80386803D01*
X142541504Y-80410007D01*
X142533446Y-80432529D01*
X142523218Y-80454153D01*
X142510921Y-80474670D01*
X142496671Y-80493883D01*
X142480607Y-80511607D01*
X142462883Y-80527671D01*
X142443670Y-80541921D01*
X142423153Y-80554218D01*
X142401529Y-80564446D01*
X142379007Y-80572504D01*
X142355803Y-80578316D01*
X142332142Y-80581826D01*
X142308250Y-80583000D01*
X141820750Y-80583000D01*
X141796858Y-80581826D01*
X141773197Y-80578316D01*
X141749993Y-80572504D01*
X141727471Y-80564446D01*
X141705847Y-80554218D01*
X141685330Y-80541921D01*
X141666117Y-80527671D01*
X141648393Y-80511607D01*
X141632329Y-80493883D01*
X141618079Y-80474670D01*
X141605782Y-80454153D01*
X141595554Y-80432529D01*
X141587496Y-80410007D01*
X141581684Y-80386803D01*
X141578174Y-80363142D01*
X141577000Y-80339250D01*
X141577000Y-79426750D01*
X141578174Y-79402858D01*
X141581684Y-79379197D01*
X141587496Y-79355993D01*
X141595554Y-79333471D01*
X141605782Y-79311847D01*
X141618079Y-79291330D01*
X141632329Y-79272117D01*
X141648393Y-79254393D01*
X141666117Y-79238329D01*
X141685330Y-79224079D01*
X141705847Y-79211782D01*
X141727471Y-79201554D01*
X141749993Y-79193496D01*
X141773197Y-79187684D01*
X141796858Y-79184174D01*
X141820750Y-79183000D01*
X142308250Y-79183000D01*
X142332142Y-79184174D01*
X142332142Y-79184174D01*
G37*
D13*
X142064500Y-79883000D03*
D14*
X150987000Y-71886000D03*
X150987000Y-69986000D03*
X148987000Y-70936000D03*
D12*
G36*
X143736142Y-91588674D02*
G01*
X143759803Y-91592184D01*
X143783007Y-91597996D01*
X143805529Y-91606054D01*
X143827153Y-91616282D01*
X143847670Y-91628579D01*
X143866883Y-91642829D01*
X143884607Y-91658893D01*
X143900671Y-91676617D01*
X143914921Y-91695830D01*
X143927218Y-91716347D01*
X143937446Y-91737971D01*
X143945504Y-91760493D01*
X143951316Y-91783697D01*
X143954826Y-91807358D01*
X143956000Y-91831250D01*
X143956000Y-92318750D01*
X143954826Y-92342642D01*
X143951316Y-92366303D01*
X143945504Y-92389507D01*
X143937446Y-92412029D01*
X143927218Y-92433653D01*
X143914921Y-92454170D01*
X143900671Y-92473383D01*
X143884607Y-92491107D01*
X143866883Y-92507171D01*
X143847670Y-92521421D01*
X143827153Y-92533718D01*
X143805529Y-92543946D01*
X143783007Y-92552004D01*
X143759803Y-92557816D01*
X143736142Y-92561326D01*
X143712250Y-92562500D01*
X142799750Y-92562500D01*
X142775858Y-92561326D01*
X142752197Y-92557816D01*
X142728993Y-92552004D01*
X142706471Y-92543946D01*
X142684847Y-92533718D01*
X142664330Y-92521421D01*
X142645117Y-92507171D01*
X142627393Y-92491107D01*
X142611329Y-92473383D01*
X142597079Y-92454170D01*
X142584782Y-92433653D01*
X142574554Y-92412029D01*
X142566496Y-92389507D01*
X142560684Y-92366303D01*
X142557174Y-92342642D01*
X142556000Y-92318750D01*
X142556000Y-91831250D01*
X142557174Y-91807358D01*
X142560684Y-91783697D01*
X142566496Y-91760493D01*
X142574554Y-91737971D01*
X142584782Y-91716347D01*
X142597079Y-91695830D01*
X142611329Y-91676617D01*
X142627393Y-91658893D01*
X142645117Y-91642829D01*
X142664330Y-91628579D01*
X142684847Y-91616282D01*
X142706471Y-91606054D01*
X142728993Y-91597996D01*
X142752197Y-91592184D01*
X142775858Y-91588674D01*
X142799750Y-91587500D01*
X143712250Y-91587500D01*
X143736142Y-91588674D01*
X143736142Y-91588674D01*
G37*
D13*
X143256000Y-92075000D03*
D12*
G36*
X143736142Y-89713674D02*
G01*
X143759803Y-89717184D01*
X143783007Y-89722996D01*
X143805529Y-89731054D01*
X143827153Y-89741282D01*
X143847670Y-89753579D01*
X143866883Y-89767829D01*
X143884607Y-89783893D01*
X143900671Y-89801617D01*
X143914921Y-89820830D01*
X143927218Y-89841347D01*
X143937446Y-89862971D01*
X143945504Y-89885493D01*
X143951316Y-89908697D01*
X143954826Y-89932358D01*
X143956000Y-89956250D01*
X143956000Y-90443750D01*
X143954826Y-90467642D01*
X143951316Y-90491303D01*
X143945504Y-90514507D01*
X143937446Y-90537029D01*
X143927218Y-90558653D01*
X143914921Y-90579170D01*
X143900671Y-90598383D01*
X143884607Y-90616107D01*
X143866883Y-90632171D01*
X143847670Y-90646421D01*
X143827153Y-90658718D01*
X143805529Y-90668946D01*
X143783007Y-90677004D01*
X143759803Y-90682816D01*
X143736142Y-90686326D01*
X143712250Y-90687500D01*
X142799750Y-90687500D01*
X142775858Y-90686326D01*
X142752197Y-90682816D01*
X142728993Y-90677004D01*
X142706471Y-90668946D01*
X142684847Y-90658718D01*
X142664330Y-90646421D01*
X142645117Y-90632171D01*
X142627393Y-90616107D01*
X142611329Y-90598383D01*
X142597079Y-90579170D01*
X142584782Y-90558653D01*
X142574554Y-90537029D01*
X142566496Y-90514507D01*
X142560684Y-90491303D01*
X142557174Y-90467642D01*
X142556000Y-90443750D01*
X142556000Y-89956250D01*
X142557174Y-89932358D01*
X142560684Y-89908697D01*
X142566496Y-89885493D01*
X142574554Y-89862971D01*
X142584782Y-89841347D01*
X142597079Y-89820830D01*
X142611329Y-89801617D01*
X142627393Y-89783893D01*
X142645117Y-89767829D01*
X142664330Y-89753579D01*
X142684847Y-89741282D01*
X142706471Y-89731054D01*
X142728993Y-89722996D01*
X142752197Y-89717184D01*
X142775858Y-89713674D01*
X142799750Y-89712500D01*
X143712250Y-89712500D01*
X143736142Y-89713674D01*
X143736142Y-89713674D01*
G37*
D13*
X143256000Y-90200000D03*
D12*
G36*
X146530142Y-91588674D02*
G01*
X146553803Y-91592184D01*
X146577007Y-91597996D01*
X146599529Y-91606054D01*
X146621153Y-91616282D01*
X146641670Y-91628579D01*
X146660883Y-91642829D01*
X146678607Y-91658893D01*
X146694671Y-91676617D01*
X146708921Y-91695830D01*
X146721218Y-91716347D01*
X146731446Y-91737971D01*
X146739504Y-91760493D01*
X146745316Y-91783697D01*
X146748826Y-91807358D01*
X146750000Y-91831250D01*
X146750000Y-92318750D01*
X146748826Y-92342642D01*
X146745316Y-92366303D01*
X146739504Y-92389507D01*
X146731446Y-92412029D01*
X146721218Y-92433653D01*
X146708921Y-92454170D01*
X146694671Y-92473383D01*
X146678607Y-92491107D01*
X146660883Y-92507171D01*
X146641670Y-92521421D01*
X146621153Y-92533718D01*
X146599529Y-92543946D01*
X146577007Y-92552004D01*
X146553803Y-92557816D01*
X146530142Y-92561326D01*
X146506250Y-92562500D01*
X145593750Y-92562500D01*
X145569858Y-92561326D01*
X145546197Y-92557816D01*
X145522993Y-92552004D01*
X145500471Y-92543946D01*
X145478847Y-92533718D01*
X145458330Y-92521421D01*
X145439117Y-92507171D01*
X145421393Y-92491107D01*
X145405329Y-92473383D01*
X145391079Y-92454170D01*
X145378782Y-92433653D01*
X145368554Y-92412029D01*
X145360496Y-92389507D01*
X145354684Y-92366303D01*
X145351174Y-92342642D01*
X145350000Y-92318750D01*
X145350000Y-91831250D01*
X145351174Y-91807358D01*
X145354684Y-91783697D01*
X145360496Y-91760493D01*
X145368554Y-91737971D01*
X145378782Y-91716347D01*
X145391079Y-91695830D01*
X145405329Y-91676617D01*
X145421393Y-91658893D01*
X145439117Y-91642829D01*
X145458330Y-91628579D01*
X145478847Y-91616282D01*
X145500471Y-91606054D01*
X145522993Y-91597996D01*
X145546197Y-91592184D01*
X145569858Y-91588674D01*
X145593750Y-91587500D01*
X146506250Y-91587500D01*
X146530142Y-91588674D01*
X146530142Y-91588674D01*
G37*
D13*
X146050000Y-92075000D03*
D12*
G36*
X146530142Y-89713674D02*
G01*
X146553803Y-89717184D01*
X146577007Y-89722996D01*
X146599529Y-89731054D01*
X146621153Y-89741282D01*
X146641670Y-89753579D01*
X146660883Y-89767829D01*
X146678607Y-89783893D01*
X146694671Y-89801617D01*
X146708921Y-89820830D01*
X146721218Y-89841347D01*
X146731446Y-89862971D01*
X146739504Y-89885493D01*
X146745316Y-89908697D01*
X146748826Y-89932358D01*
X146750000Y-89956250D01*
X146750000Y-90443750D01*
X146748826Y-90467642D01*
X146745316Y-90491303D01*
X146739504Y-90514507D01*
X146731446Y-90537029D01*
X146721218Y-90558653D01*
X146708921Y-90579170D01*
X146694671Y-90598383D01*
X146678607Y-90616107D01*
X146660883Y-90632171D01*
X146641670Y-90646421D01*
X146621153Y-90658718D01*
X146599529Y-90668946D01*
X146577007Y-90677004D01*
X146553803Y-90682816D01*
X146530142Y-90686326D01*
X146506250Y-90687500D01*
X145593750Y-90687500D01*
X145569858Y-90686326D01*
X145546197Y-90682816D01*
X145522993Y-90677004D01*
X145500471Y-90668946D01*
X145478847Y-90658718D01*
X145458330Y-90646421D01*
X145439117Y-90632171D01*
X145421393Y-90616107D01*
X145405329Y-90598383D01*
X145391079Y-90579170D01*
X145378782Y-90558653D01*
X145368554Y-90537029D01*
X145360496Y-90514507D01*
X145354684Y-90491303D01*
X145351174Y-90467642D01*
X145350000Y-90443750D01*
X145350000Y-89956250D01*
X145351174Y-89932358D01*
X145354684Y-89908697D01*
X145360496Y-89885493D01*
X145368554Y-89862971D01*
X145378782Y-89841347D01*
X145391079Y-89820830D01*
X145405329Y-89801617D01*
X145421393Y-89783893D01*
X145439117Y-89767829D01*
X145458330Y-89753579D01*
X145478847Y-89741282D01*
X145500471Y-89731054D01*
X145522993Y-89722996D01*
X145546197Y-89717184D01*
X145569858Y-89713674D01*
X145593750Y-89712500D01*
X146506250Y-89712500D01*
X146530142Y-89713674D01*
X146530142Y-89713674D01*
G37*
D13*
X146050000Y-90200000D03*
D12*
G36*
X142332142Y-74495174D02*
G01*
X142355803Y-74498684D01*
X142379007Y-74504496D01*
X142401529Y-74512554D01*
X142423153Y-74522782D01*
X142443670Y-74535079D01*
X142462883Y-74549329D01*
X142480607Y-74565393D01*
X142496671Y-74583117D01*
X142510921Y-74602330D01*
X142523218Y-74622847D01*
X142533446Y-74644471D01*
X142541504Y-74666993D01*
X142547316Y-74690197D01*
X142550826Y-74713858D01*
X142552000Y-74737750D01*
X142552000Y-75650250D01*
X142550826Y-75674142D01*
X142547316Y-75697803D01*
X142541504Y-75721007D01*
X142533446Y-75743529D01*
X142523218Y-75765153D01*
X142510921Y-75785670D01*
X142496671Y-75804883D01*
X142480607Y-75822607D01*
X142462883Y-75838671D01*
X142443670Y-75852921D01*
X142423153Y-75865218D01*
X142401529Y-75875446D01*
X142379007Y-75883504D01*
X142355803Y-75889316D01*
X142332142Y-75892826D01*
X142308250Y-75894000D01*
X141820750Y-75894000D01*
X141796858Y-75892826D01*
X141773197Y-75889316D01*
X141749993Y-75883504D01*
X141727471Y-75875446D01*
X141705847Y-75865218D01*
X141685330Y-75852921D01*
X141666117Y-75838671D01*
X141648393Y-75822607D01*
X141632329Y-75804883D01*
X141618079Y-75785670D01*
X141605782Y-75765153D01*
X141595554Y-75743529D01*
X141587496Y-75721007D01*
X141581684Y-75697803D01*
X141578174Y-75674142D01*
X141577000Y-75650250D01*
X141577000Y-74737750D01*
X141578174Y-74713858D01*
X141581684Y-74690197D01*
X141587496Y-74666993D01*
X141595554Y-74644471D01*
X141605782Y-74622847D01*
X141618079Y-74602330D01*
X141632329Y-74583117D01*
X141648393Y-74565393D01*
X141666117Y-74549329D01*
X141685330Y-74535079D01*
X141705847Y-74522782D01*
X141727471Y-74512554D01*
X141749993Y-74504496D01*
X141773197Y-74498684D01*
X141796858Y-74495174D01*
X141820750Y-74494000D01*
X142308250Y-74494000D01*
X142332142Y-74495174D01*
X142332142Y-74495174D01*
G37*
D13*
X142064500Y-75194000D03*
D12*
G36*
X144207142Y-74495174D02*
G01*
X144230803Y-74498684D01*
X144254007Y-74504496D01*
X144276529Y-74512554D01*
X144298153Y-74522782D01*
X144318670Y-74535079D01*
X144337883Y-74549329D01*
X144355607Y-74565393D01*
X144371671Y-74583117D01*
X144385921Y-74602330D01*
X144398218Y-74622847D01*
X144408446Y-74644471D01*
X144416504Y-74666993D01*
X144422316Y-74690197D01*
X144425826Y-74713858D01*
X144427000Y-74737750D01*
X144427000Y-75650250D01*
X144425826Y-75674142D01*
X144422316Y-75697803D01*
X144416504Y-75721007D01*
X144408446Y-75743529D01*
X144398218Y-75765153D01*
X144385921Y-75785670D01*
X144371671Y-75804883D01*
X144355607Y-75822607D01*
X144337883Y-75838671D01*
X144318670Y-75852921D01*
X144298153Y-75865218D01*
X144276529Y-75875446D01*
X144254007Y-75883504D01*
X144230803Y-75889316D01*
X144207142Y-75892826D01*
X144183250Y-75894000D01*
X143695750Y-75894000D01*
X143671858Y-75892826D01*
X143648197Y-75889316D01*
X143624993Y-75883504D01*
X143602471Y-75875446D01*
X143580847Y-75865218D01*
X143560330Y-75852921D01*
X143541117Y-75838671D01*
X143523393Y-75822607D01*
X143507329Y-75804883D01*
X143493079Y-75785670D01*
X143480782Y-75765153D01*
X143470554Y-75743529D01*
X143462496Y-75721007D01*
X143456684Y-75697803D01*
X143453174Y-75674142D01*
X143452000Y-75650250D01*
X143452000Y-74737750D01*
X143453174Y-74713858D01*
X143456684Y-74690197D01*
X143462496Y-74666993D01*
X143470554Y-74644471D01*
X143480782Y-74622847D01*
X143493079Y-74602330D01*
X143507329Y-74583117D01*
X143523393Y-74565393D01*
X143541117Y-74549329D01*
X143560330Y-74535079D01*
X143580847Y-74522782D01*
X143602471Y-74512554D01*
X143624993Y-74504496D01*
X143648197Y-74498684D01*
X143671858Y-74495174D01*
X143695750Y-74494000D01*
X144183250Y-74494000D01*
X144207142Y-74495174D01*
X144207142Y-74495174D01*
G37*
D13*
X143939500Y-75194000D03*
D12*
G36*
X144207142Y-76644174D02*
G01*
X144230803Y-76647684D01*
X144254007Y-76653496D01*
X144276529Y-76661554D01*
X144298153Y-76671782D01*
X144318670Y-76684079D01*
X144337883Y-76698329D01*
X144355607Y-76714393D01*
X144371671Y-76732117D01*
X144385921Y-76751330D01*
X144398218Y-76771847D01*
X144408446Y-76793471D01*
X144416504Y-76815993D01*
X144422316Y-76839197D01*
X144425826Y-76862858D01*
X144427000Y-76886750D01*
X144427000Y-77799250D01*
X144425826Y-77823142D01*
X144422316Y-77846803D01*
X144416504Y-77870007D01*
X144408446Y-77892529D01*
X144398218Y-77914153D01*
X144385921Y-77934670D01*
X144371671Y-77953883D01*
X144355607Y-77971607D01*
X144337883Y-77987671D01*
X144318670Y-78001921D01*
X144298153Y-78014218D01*
X144276529Y-78024446D01*
X144254007Y-78032504D01*
X144230803Y-78038316D01*
X144207142Y-78041826D01*
X144183250Y-78043000D01*
X143695750Y-78043000D01*
X143671858Y-78041826D01*
X143648197Y-78038316D01*
X143624993Y-78032504D01*
X143602471Y-78024446D01*
X143580847Y-78014218D01*
X143560330Y-78001921D01*
X143541117Y-77987671D01*
X143523393Y-77971607D01*
X143507329Y-77953883D01*
X143493079Y-77934670D01*
X143480782Y-77914153D01*
X143470554Y-77892529D01*
X143462496Y-77870007D01*
X143456684Y-77846803D01*
X143453174Y-77823142D01*
X143452000Y-77799250D01*
X143452000Y-76886750D01*
X143453174Y-76862858D01*
X143456684Y-76839197D01*
X143462496Y-76815993D01*
X143470554Y-76793471D01*
X143480782Y-76771847D01*
X143493079Y-76751330D01*
X143507329Y-76732117D01*
X143523393Y-76714393D01*
X143541117Y-76698329D01*
X143560330Y-76684079D01*
X143580847Y-76671782D01*
X143602471Y-76661554D01*
X143624993Y-76653496D01*
X143648197Y-76647684D01*
X143671858Y-76644174D01*
X143695750Y-76643000D01*
X144183250Y-76643000D01*
X144207142Y-76644174D01*
X144207142Y-76644174D01*
G37*
D13*
X143939500Y-77343000D03*
D12*
G36*
X142332142Y-76644174D02*
G01*
X142355803Y-76647684D01*
X142379007Y-76653496D01*
X142401529Y-76661554D01*
X142423153Y-76671782D01*
X142443670Y-76684079D01*
X142462883Y-76698329D01*
X142480607Y-76714393D01*
X142496671Y-76732117D01*
X142510921Y-76751330D01*
X142523218Y-76771847D01*
X142533446Y-76793471D01*
X142541504Y-76815993D01*
X142547316Y-76839197D01*
X142550826Y-76862858D01*
X142552000Y-76886750D01*
X142552000Y-77799250D01*
X142550826Y-77823142D01*
X142547316Y-77846803D01*
X142541504Y-77870007D01*
X142533446Y-77892529D01*
X142523218Y-77914153D01*
X142510921Y-77934670D01*
X142496671Y-77953883D01*
X142480607Y-77971607D01*
X142462883Y-77987671D01*
X142443670Y-78001921D01*
X142423153Y-78014218D01*
X142401529Y-78024446D01*
X142379007Y-78032504D01*
X142355803Y-78038316D01*
X142332142Y-78041826D01*
X142308250Y-78043000D01*
X141820750Y-78043000D01*
X141796858Y-78041826D01*
X141773197Y-78038316D01*
X141749993Y-78032504D01*
X141727471Y-78024446D01*
X141705847Y-78014218D01*
X141685330Y-78001921D01*
X141666117Y-77987671D01*
X141648393Y-77971607D01*
X141632329Y-77953883D01*
X141618079Y-77934670D01*
X141605782Y-77914153D01*
X141595554Y-77892529D01*
X141587496Y-77870007D01*
X141581684Y-77846803D01*
X141578174Y-77823142D01*
X141577000Y-77799250D01*
X141577000Y-76886750D01*
X141578174Y-76862858D01*
X141581684Y-76839197D01*
X141587496Y-76815993D01*
X141595554Y-76793471D01*
X141605782Y-76771847D01*
X141618079Y-76751330D01*
X141632329Y-76732117D01*
X141648393Y-76714393D01*
X141666117Y-76698329D01*
X141685330Y-76684079D01*
X141705847Y-76671782D01*
X141727471Y-76661554D01*
X141749993Y-76653496D01*
X141773197Y-76647684D01*
X141796858Y-76644174D01*
X141820750Y-76643000D01*
X142308250Y-76643000D01*
X142332142Y-76644174D01*
X142332142Y-76644174D01*
G37*
D13*
X142064500Y-77343000D03*
D12*
G36*
X145149142Y-81585674D02*
G01*
X145172803Y-81589184D01*
X145196007Y-81594996D01*
X145218529Y-81603054D01*
X145240153Y-81613282D01*
X145260670Y-81625579D01*
X145279883Y-81639829D01*
X145297607Y-81655893D01*
X145313671Y-81673617D01*
X145327921Y-81692830D01*
X145340218Y-81713347D01*
X145350446Y-81734971D01*
X145358504Y-81757493D01*
X145364316Y-81780697D01*
X145367826Y-81804358D01*
X145369000Y-81828250D01*
X145369000Y-82315750D01*
X145367826Y-82339642D01*
X145364316Y-82363303D01*
X145358504Y-82386507D01*
X145350446Y-82409029D01*
X145340218Y-82430653D01*
X145327921Y-82451170D01*
X145313671Y-82470383D01*
X145297607Y-82488107D01*
X145279883Y-82504171D01*
X145260670Y-82518421D01*
X145240153Y-82530718D01*
X145218529Y-82540946D01*
X145196007Y-82549004D01*
X145172803Y-82554816D01*
X145149142Y-82558326D01*
X145125250Y-82559500D01*
X144212750Y-82559500D01*
X144188858Y-82558326D01*
X144165197Y-82554816D01*
X144141993Y-82549004D01*
X144119471Y-82540946D01*
X144097847Y-82530718D01*
X144077330Y-82518421D01*
X144058117Y-82504171D01*
X144040393Y-82488107D01*
X144024329Y-82470383D01*
X144010079Y-82451170D01*
X143997782Y-82430653D01*
X143987554Y-82409029D01*
X143979496Y-82386507D01*
X143973684Y-82363303D01*
X143970174Y-82339642D01*
X143969000Y-82315750D01*
X143969000Y-81828250D01*
X143970174Y-81804358D01*
X143973684Y-81780697D01*
X143979496Y-81757493D01*
X143987554Y-81734971D01*
X143997782Y-81713347D01*
X144010079Y-81692830D01*
X144024329Y-81673617D01*
X144040393Y-81655893D01*
X144058117Y-81639829D01*
X144077330Y-81625579D01*
X144097847Y-81613282D01*
X144119471Y-81603054D01*
X144141993Y-81594996D01*
X144165197Y-81589184D01*
X144188858Y-81585674D01*
X144212750Y-81584500D01*
X145125250Y-81584500D01*
X145149142Y-81585674D01*
X145149142Y-81585674D01*
G37*
D13*
X144669000Y-82072000D03*
D12*
G36*
X145149142Y-83460674D02*
G01*
X145172803Y-83464184D01*
X145196007Y-83469996D01*
X145218529Y-83478054D01*
X145240153Y-83488282D01*
X145260670Y-83500579D01*
X145279883Y-83514829D01*
X145297607Y-83530893D01*
X145313671Y-83548617D01*
X145327921Y-83567830D01*
X145340218Y-83588347D01*
X145350446Y-83609971D01*
X145358504Y-83632493D01*
X145364316Y-83655697D01*
X145367826Y-83679358D01*
X145369000Y-83703250D01*
X145369000Y-84190750D01*
X145367826Y-84214642D01*
X145364316Y-84238303D01*
X145358504Y-84261507D01*
X145350446Y-84284029D01*
X145340218Y-84305653D01*
X145327921Y-84326170D01*
X145313671Y-84345383D01*
X145297607Y-84363107D01*
X145279883Y-84379171D01*
X145260670Y-84393421D01*
X145240153Y-84405718D01*
X145218529Y-84415946D01*
X145196007Y-84424004D01*
X145172803Y-84429816D01*
X145149142Y-84433326D01*
X145125250Y-84434500D01*
X144212750Y-84434500D01*
X144188858Y-84433326D01*
X144165197Y-84429816D01*
X144141993Y-84424004D01*
X144119471Y-84415946D01*
X144097847Y-84405718D01*
X144077330Y-84393421D01*
X144058117Y-84379171D01*
X144040393Y-84363107D01*
X144024329Y-84345383D01*
X144010079Y-84326170D01*
X143997782Y-84305653D01*
X143987554Y-84284029D01*
X143979496Y-84261507D01*
X143973684Y-84238303D01*
X143970174Y-84214642D01*
X143969000Y-84190750D01*
X143969000Y-83703250D01*
X143970174Y-83679358D01*
X143973684Y-83655697D01*
X143979496Y-83632493D01*
X143987554Y-83609971D01*
X143997782Y-83588347D01*
X144010079Y-83567830D01*
X144024329Y-83548617D01*
X144040393Y-83530893D01*
X144058117Y-83514829D01*
X144077330Y-83500579D01*
X144097847Y-83488282D01*
X144119471Y-83478054D01*
X144141993Y-83469996D01*
X144165197Y-83464184D01*
X144188858Y-83460674D01*
X144212750Y-83459500D01*
X145125250Y-83459500D01*
X145149142Y-83460674D01*
X145149142Y-83460674D01*
G37*
D13*
X144669000Y-83947000D03*
D12*
G36*
X167538142Y-72072174D02*
G01*
X167561803Y-72075684D01*
X167585007Y-72081496D01*
X167607529Y-72089554D01*
X167629153Y-72099782D01*
X167649670Y-72112079D01*
X167668883Y-72126329D01*
X167686607Y-72142393D01*
X167702671Y-72160117D01*
X167716921Y-72179330D01*
X167729218Y-72199847D01*
X167739446Y-72221471D01*
X167747504Y-72243993D01*
X167753316Y-72267197D01*
X167756826Y-72290858D01*
X167758000Y-72314750D01*
X167758000Y-73227250D01*
X167756826Y-73251142D01*
X167753316Y-73274803D01*
X167747504Y-73298007D01*
X167739446Y-73320529D01*
X167729218Y-73342153D01*
X167716921Y-73362670D01*
X167702671Y-73381883D01*
X167686607Y-73399607D01*
X167668883Y-73415671D01*
X167649670Y-73429921D01*
X167629153Y-73442218D01*
X167607529Y-73452446D01*
X167585007Y-73460504D01*
X167561803Y-73466316D01*
X167538142Y-73469826D01*
X167514250Y-73471000D01*
X167026750Y-73471000D01*
X167002858Y-73469826D01*
X166979197Y-73466316D01*
X166955993Y-73460504D01*
X166933471Y-73452446D01*
X166911847Y-73442218D01*
X166891330Y-73429921D01*
X166872117Y-73415671D01*
X166854393Y-73399607D01*
X166838329Y-73381883D01*
X166824079Y-73362670D01*
X166811782Y-73342153D01*
X166801554Y-73320529D01*
X166793496Y-73298007D01*
X166787684Y-73274803D01*
X166784174Y-73251142D01*
X166783000Y-73227250D01*
X166783000Y-72314750D01*
X166784174Y-72290858D01*
X166787684Y-72267197D01*
X166793496Y-72243993D01*
X166801554Y-72221471D01*
X166811782Y-72199847D01*
X166824079Y-72179330D01*
X166838329Y-72160117D01*
X166854393Y-72142393D01*
X166872117Y-72126329D01*
X166891330Y-72112079D01*
X166911847Y-72099782D01*
X166933471Y-72089554D01*
X166955993Y-72081496D01*
X166979197Y-72075684D01*
X167002858Y-72072174D01*
X167026750Y-72071000D01*
X167514250Y-72071000D01*
X167538142Y-72072174D01*
X167538142Y-72072174D01*
G37*
D13*
X167270500Y-72771000D03*
D12*
G36*
X169413142Y-72072174D02*
G01*
X169436803Y-72075684D01*
X169460007Y-72081496D01*
X169482529Y-72089554D01*
X169504153Y-72099782D01*
X169524670Y-72112079D01*
X169543883Y-72126329D01*
X169561607Y-72142393D01*
X169577671Y-72160117D01*
X169591921Y-72179330D01*
X169604218Y-72199847D01*
X169614446Y-72221471D01*
X169622504Y-72243993D01*
X169628316Y-72267197D01*
X169631826Y-72290858D01*
X169633000Y-72314750D01*
X169633000Y-73227250D01*
X169631826Y-73251142D01*
X169628316Y-73274803D01*
X169622504Y-73298007D01*
X169614446Y-73320529D01*
X169604218Y-73342153D01*
X169591921Y-73362670D01*
X169577671Y-73381883D01*
X169561607Y-73399607D01*
X169543883Y-73415671D01*
X169524670Y-73429921D01*
X169504153Y-73442218D01*
X169482529Y-73452446D01*
X169460007Y-73460504D01*
X169436803Y-73466316D01*
X169413142Y-73469826D01*
X169389250Y-73471000D01*
X168901750Y-73471000D01*
X168877858Y-73469826D01*
X168854197Y-73466316D01*
X168830993Y-73460504D01*
X168808471Y-73452446D01*
X168786847Y-73442218D01*
X168766330Y-73429921D01*
X168747117Y-73415671D01*
X168729393Y-73399607D01*
X168713329Y-73381883D01*
X168699079Y-73362670D01*
X168686782Y-73342153D01*
X168676554Y-73320529D01*
X168668496Y-73298007D01*
X168662684Y-73274803D01*
X168659174Y-73251142D01*
X168658000Y-73227250D01*
X168658000Y-72314750D01*
X168659174Y-72290858D01*
X168662684Y-72267197D01*
X168668496Y-72243993D01*
X168676554Y-72221471D01*
X168686782Y-72199847D01*
X168699079Y-72179330D01*
X168713329Y-72160117D01*
X168729393Y-72142393D01*
X168747117Y-72126329D01*
X168766330Y-72112079D01*
X168786847Y-72099782D01*
X168808471Y-72089554D01*
X168830993Y-72081496D01*
X168854197Y-72075684D01*
X168877858Y-72072174D01*
X168901750Y-72071000D01*
X169389250Y-72071000D01*
X169413142Y-72072174D01*
X169413142Y-72072174D01*
G37*
D13*
X169145500Y-72771000D03*
D12*
G36*
X215618142Y-87857174D02*
G01*
X215641803Y-87860684D01*
X215665007Y-87866496D01*
X215687529Y-87874554D01*
X215709153Y-87884782D01*
X215729670Y-87897079D01*
X215748883Y-87911329D01*
X215766607Y-87927393D01*
X215782671Y-87945117D01*
X215796921Y-87964330D01*
X215809218Y-87984847D01*
X215819446Y-88006471D01*
X215827504Y-88028993D01*
X215833316Y-88052197D01*
X215836826Y-88075858D01*
X215838000Y-88099750D01*
X215838000Y-88587250D01*
X215836826Y-88611142D01*
X215833316Y-88634803D01*
X215827504Y-88658007D01*
X215819446Y-88680529D01*
X215809218Y-88702153D01*
X215796921Y-88722670D01*
X215782671Y-88741883D01*
X215766607Y-88759607D01*
X215748883Y-88775671D01*
X215729670Y-88789921D01*
X215709153Y-88802218D01*
X215687529Y-88812446D01*
X215665007Y-88820504D01*
X215641803Y-88826316D01*
X215618142Y-88829826D01*
X215594250Y-88831000D01*
X214681750Y-88831000D01*
X214657858Y-88829826D01*
X214634197Y-88826316D01*
X214610993Y-88820504D01*
X214588471Y-88812446D01*
X214566847Y-88802218D01*
X214546330Y-88789921D01*
X214527117Y-88775671D01*
X214509393Y-88759607D01*
X214493329Y-88741883D01*
X214479079Y-88722670D01*
X214466782Y-88702153D01*
X214456554Y-88680529D01*
X214448496Y-88658007D01*
X214442684Y-88634803D01*
X214439174Y-88611142D01*
X214438000Y-88587250D01*
X214438000Y-88099750D01*
X214439174Y-88075858D01*
X214442684Y-88052197D01*
X214448496Y-88028993D01*
X214456554Y-88006471D01*
X214466782Y-87984847D01*
X214479079Y-87964330D01*
X214493329Y-87945117D01*
X214509393Y-87927393D01*
X214527117Y-87911329D01*
X214546330Y-87897079D01*
X214566847Y-87884782D01*
X214588471Y-87874554D01*
X214610993Y-87866496D01*
X214634197Y-87860684D01*
X214657858Y-87857174D01*
X214681750Y-87856000D01*
X215594250Y-87856000D01*
X215618142Y-87857174D01*
X215618142Y-87857174D01*
G37*
D13*
X215138000Y-88343500D03*
D12*
G36*
X215618142Y-89732174D02*
G01*
X215641803Y-89735684D01*
X215665007Y-89741496D01*
X215687529Y-89749554D01*
X215709153Y-89759782D01*
X215729670Y-89772079D01*
X215748883Y-89786329D01*
X215766607Y-89802393D01*
X215782671Y-89820117D01*
X215796921Y-89839330D01*
X215809218Y-89859847D01*
X215819446Y-89881471D01*
X215827504Y-89903993D01*
X215833316Y-89927197D01*
X215836826Y-89950858D01*
X215838000Y-89974750D01*
X215838000Y-90462250D01*
X215836826Y-90486142D01*
X215833316Y-90509803D01*
X215827504Y-90533007D01*
X215819446Y-90555529D01*
X215809218Y-90577153D01*
X215796921Y-90597670D01*
X215782671Y-90616883D01*
X215766607Y-90634607D01*
X215748883Y-90650671D01*
X215729670Y-90664921D01*
X215709153Y-90677218D01*
X215687529Y-90687446D01*
X215665007Y-90695504D01*
X215641803Y-90701316D01*
X215618142Y-90704826D01*
X215594250Y-90706000D01*
X214681750Y-90706000D01*
X214657858Y-90704826D01*
X214634197Y-90701316D01*
X214610993Y-90695504D01*
X214588471Y-90687446D01*
X214566847Y-90677218D01*
X214546330Y-90664921D01*
X214527117Y-90650671D01*
X214509393Y-90634607D01*
X214493329Y-90616883D01*
X214479079Y-90597670D01*
X214466782Y-90577153D01*
X214456554Y-90555529D01*
X214448496Y-90533007D01*
X214442684Y-90509803D01*
X214439174Y-90486142D01*
X214438000Y-90462250D01*
X214438000Y-89974750D01*
X214439174Y-89950858D01*
X214442684Y-89927197D01*
X214448496Y-89903993D01*
X214456554Y-89881471D01*
X214466782Y-89859847D01*
X214479079Y-89839330D01*
X214493329Y-89820117D01*
X214509393Y-89802393D01*
X214527117Y-89786329D01*
X214546330Y-89772079D01*
X214566847Y-89759782D01*
X214588471Y-89749554D01*
X214610993Y-89741496D01*
X214634197Y-89735684D01*
X214657858Y-89732174D01*
X214681750Y-89731000D01*
X215594250Y-89731000D01*
X215618142Y-89732174D01*
X215618142Y-89732174D01*
G37*
D13*
X215138000Y-90218500D03*
D12*
G36*
X213332142Y-87857174D02*
G01*
X213355803Y-87860684D01*
X213379007Y-87866496D01*
X213401529Y-87874554D01*
X213423153Y-87884782D01*
X213443670Y-87897079D01*
X213462883Y-87911329D01*
X213480607Y-87927393D01*
X213496671Y-87945117D01*
X213510921Y-87964330D01*
X213523218Y-87984847D01*
X213533446Y-88006471D01*
X213541504Y-88028993D01*
X213547316Y-88052197D01*
X213550826Y-88075858D01*
X213552000Y-88099750D01*
X213552000Y-88587250D01*
X213550826Y-88611142D01*
X213547316Y-88634803D01*
X213541504Y-88658007D01*
X213533446Y-88680529D01*
X213523218Y-88702153D01*
X213510921Y-88722670D01*
X213496671Y-88741883D01*
X213480607Y-88759607D01*
X213462883Y-88775671D01*
X213443670Y-88789921D01*
X213423153Y-88802218D01*
X213401529Y-88812446D01*
X213379007Y-88820504D01*
X213355803Y-88826316D01*
X213332142Y-88829826D01*
X213308250Y-88831000D01*
X212395750Y-88831000D01*
X212371858Y-88829826D01*
X212348197Y-88826316D01*
X212324993Y-88820504D01*
X212302471Y-88812446D01*
X212280847Y-88802218D01*
X212260330Y-88789921D01*
X212241117Y-88775671D01*
X212223393Y-88759607D01*
X212207329Y-88741883D01*
X212193079Y-88722670D01*
X212180782Y-88702153D01*
X212170554Y-88680529D01*
X212162496Y-88658007D01*
X212156684Y-88634803D01*
X212153174Y-88611142D01*
X212152000Y-88587250D01*
X212152000Y-88099750D01*
X212153174Y-88075858D01*
X212156684Y-88052197D01*
X212162496Y-88028993D01*
X212170554Y-88006471D01*
X212180782Y-87984847D01*
X212193079Y-87964330D01*
X212207329Y-87945117D01*
X212223393Y-87927393D01*
X212241117Y-87911329D01*
X212260330Y-87897079D01*
X212280847Y-87884782D01*
X212302471Y-87874554D01*
X212324993Y-87866496D01*
X212348197Y-87860684D01*
X212371858Y-87857174D01*
X212395750Y-87856000D01*
X213308250Y-87856000D01*
X213332142Y-87857174D01*
X213332142Y-87857174D01*
G37*
D13*
X212852000Y-88343500D03*
D12*
G36*
X213332142Y-89732174D02*
G01*
X213355803Y-89735684D01*
X213379007Y-89741496D01*
X213401529Y-89749554D01*
X213423153Y-89759782D01*
X213443670Y-89772079D01*
X213462883Y-89786329D01*
X213480607Y-89802393D01*
X213496671Y-89820117D01*
X213510921Y-89839330D01*
X213523218Y-89859847D01*
X213533446Y-89881471D01*
X213541504Y-89903993D01*
X213547316Y-89927197D01*
X213550826Y-89950858D01*
X213552000Y-89974750D01*
X213552000Y-90462250D01*
X213550826Y-90486142D01*
X213547316Y-90509803D01*
X213541504Y-90533007D01*
X213533446Y-90555529D01*
X213523218Y-90577153D01*
X213510921Y-90597670D01*
X213496671Y-90616883D01*
X213480607Y-90634607D01*
X213462883Y-90650671D01*
X213443670Y-90664921D01*
X213423153Y-90677218D01*
X213401529Y-90687446D01*
X213379007Y-90695504D01*
X213355803Y-90701316D01*
X213332142Y-90704826D01*
X213308250Y-90706000D01*
X212395750Y-90706000D01*
X212371858Y-90704826D01*
X212348197Y-90701316D01*
X212324993Y-90695504D01*
X212302471Y-90687446D01*
X212280847Y-90677218D01*
X212260330Y-90664921D01*
X212241117Y-90650671D01*
X212223393Y-90634607D01*
X212207329Y-90616883D01*
X212193079Y-90597670D01*
X212180782Y-90577153D01*
X212170554Y-90555529D01*
X212162496Y-90533007D01*
X212156684Y-90509803D01*
X212153174Y-90486142D01*
X212152000Y-90462250D01*
X212152000Y-89974750D01*
X212153174Y-89950858D01*
X212156684Y-89927197D01*
X212162496Y-89903993D01*
X212170554Y-89881471D01*
X212180782Y-89859847D01*
X212193079Y-89839330D01*
X212207329Y-89820117D01*
X212223393Y-89802393D01*
X212241117Y-89786329D01*
X212260330Y-89772079D01*
X212280847Y-89759782D01*
X212302471Y-89749554D01*
X212324993Y-89741496D01*
X212348197Y-89735684D01*
X212371858Y-89732174D01*
X212395750Y-89731000D01*
X213308250Y-89731000D01*
X213332142Y-89732174D01*
X213332142Y-89732174D01*
G37*
D13*
X212852000Y-90218500D03*
D12*
G36*
X203172142Y-69442174D02*
G01*
X203195803Y-69445684D01*
X203219007Y-69451496D01*
X203241529Y-69459554D01*
X203263153Y-69469782D01*
X203283670Y-69482079D01*
X203302883Y-69496329D01*
X203320607Y-69512393D01*
X203336671Y-69530117D01*
X203350921Y-69549330D01*
X203363218Y-69569847D01*
X203373446Y-69591471D01*
X203381504Y-69613993D01*
X203387316Y-69637197D01*
X203390826Y-69660858D01*
X203392000Y-69684750D01*
X203392000Y-70172250D01*
X203390826Y-70196142D01*
X203387316Y-70219803D01*
X203381504Y-70243007D01*
X203373446Y-70265529D01*
X203363218Y-70287153D01*
X203350921Y-70307670D01*
X203336671Y-70326883D01*
X203320607Y-70344607D01*
X203302883Y-70360671D01*
X203283670Y-70374921D01*
X203263153Y-70387218D01*
X203241529Y-70397446D01*
X203219007Y-70405504D01*
X203195803Y-70411316D01*
X203172142Y-70414826D01*
X203148250Y-70416000D01*
X202235750Y-70416000D01*
X202211858Y-70414826D01*
X202188197Y-70411316D01*
X202164993Y-70405504D01*
X202142471Y-70397446D01*
X202120847Y-70387218D01*
X202100330Y-70374921D01*
X202081117Y-70360671D01*
X202063393Y-70344607D01*
X202047329Y-70326883D01*
X202033079Y-70307670D01*
X202020782Y-70287153D01*
X202010554Y-70265529D01*
X202002496Y-70243007D01*
X201996684Y-70219803D01*
X201993174Y-70196142D01*
X201992000Y-70172250D01*
X201992000Y-69684750D01*
X201993174Y-69660858D01*
X201996684Y-69637197D01*
X202002496Y-69613993D01*
X202010554Y-69591471D01*
X202020782Y-69569847D01*
X202033079Y-69549330D01*
X202047329Y-69530117D01*
X202063393Y-69512393D01*
X202081117Y-69496329D01*
X202100330Y-69482079D01*
X202120847Y-69469782D01*
X202142471Y-69459554D01*
X202164993Y-69451496D01*
X202188197Y-69445684D01*
X202211858Y-69442174D01*
X202235750Y-69441000D01*
X203148250Y-69441000D01*
X203172142Y-69442174D01*
X203172142Y-69442174D01*
G37*
D13*
X202692000Y-69928500D03*
D12*
G36*
X203172142Y-71317174D02*
G01*
X203195803Y-71320684D01*
X203219007Y-71326496D01*
X203241529Y-71334554D01*
X203263153Y-71344782D01*
X203283670Y-71357079D01*
X203302883Y-71371329D01*
X203320607Y-71387393D01*
X203336671Y-71405117D01*
X203350921Y-71424330D01*
X203363218Y-71444847D01*
X203373446Y-71466471D01*
X203381504Y-71488993D01*
X203387316Y-71512197D01*
X203390826Y-71535858D01*
X203392000Y-71559750D01*
X203392000Y-72047250D01*
X203390826Y-72071142D01*
X203387316Y-72094803D01*
X203381504Y-72118007D01*
X203373446Y-72140529D01*
X203363218Y-72162153D01*
X203350921Y-72182670D01*
X203336671Y-72201883D01*
X203320607Y-72219607D01*
X203302883Y-72235671D01*
X203283670Y-72249921D01*
X203263153Y-72262218D01*
X203241529Y-72272446D01*
X203219007Y-72280504D01*
X203195803Y-72286316D01*
X203172142Y-72289826D01*
X203148250Y-72291000D01*
X202235750Y-72291000D01*
X202211858Y-72289826D01*
X202188197Y-72286316D01*
X202164993Y-72280504D01*
X202142471Y-72272446D01*
X202120847Y-72262218D01*
X202100330Y-72249921D01*
X202081117Y-72235671D01*
X202063393Y-72219607D01*
X202047329Y-72201883D01*
X202033079Y-72182670D01*
X202020782Y-72162153D01*
X202010554Y-72140529D01*
X202002496Y-72118007D01*
X201996684Y-72094803D01*
X201993174Y-72071142D01*
X201992000Y-72047250D01*
X201992000Y-71559750D01*
X201993174Y-71535858D01*
X201996684Y-71512197D01*
X202002496Y-71488993D01*
X202010554Y-71466471D01*
X202020782Y-71444847D01*
X202033079Y-71424330D01*
X202047329Y-71405117D01*
X202063393Y-71387393D01*
X202081117Y-71371329D01*
X202100330Y-71357079D01*
X202120847Y-71344782D01*
X202142471Y-71334554D01*
X202164993Y-71326496D01*
X202188197Y-71320684D01*
X202211858Y-71317174D01*
X202235750Y-71316000D01*
X203148250Y-71316000D01*
X203172142Y-71317174D01*
X203172142Y-71317174D01*
G37*
D13*
X202692000Y-71803500D03*
D12*
G36*
X199489142Y-69442174D02*
G01*
X199512803Y-69445684D01*
X199536007Y-69451496D01*
X199558529Y-69459554D01*
X199580153Y-69469782D01*
X199600670Y-69482079D01*
X199619883Y-69496329D01*
X199637607Y-69512393D01*
X199653671Y-69530117D01*
X199667921Y-69549330D01*
X199680218Y-69569847D01*
X199690446Y-69591471D01*
X199698504Y-69613993D01*
X199704316Y-69637197D01*
X199707826Y-69660858D01*
X199709000Y-69684750D01*
X199709000Y-70172250D01*
X199707826Y-70196142D01*
X199704316Y-70219803D01*
X199698504Y-70243007D01*
X199690446Y-70265529D01*
X199680218Y-70287153D01*
X199667921Y-70307670D01*
X199653671Y-70326883D01*
X199637607Y-70344607D01*
X199619883Y-70360671D01*
X199600670Y-70374921D01*
X199580153Y-70387218D01*
X199558529Y-70397446D01*
X199536007Y-70405504D01*
X199512803Y-70411316D01*
X199489142Y-70414826D01*
X199465250Y-70416000D01*
X198552750Y-70416000D01*
X198528858Y-70414826D01*
X198505197Y-70411316D01*
X198481993Y-70405504D01*
X198459471Y-70397446D01*
X198437847Y-70387218D01*
X198417330Y-70374921D01*
X198398117Y-70360671D01*
X198380393Y-70344607D01*
X198364329Y-70326883D01*
X198350079Y-70307670D01*
X198337782Y-70287153D01*
X198327554Y-70265529D01*
X198319496Y-70243007D01*
X198313684Y-70219803D01*
X198310174Y-70196142D01*
X198309000Y-70172250D01*
X198309000Y-69684750D01*
X198310174Y-69660858D01*
X198313684Y-69637197D01*
X198319496Y-69613993D01*
X198327554Y-69591471D01*
X198337782Y-69569847D01*
X198350079Y-69549330D01*
X198364329Y-69530117D01*
X198380393Y-69512393D01*
X198398117Y-69496329D01*
X198417330Y-69482079D01*
X198437847Y-69469782D01*
X198459471Y-69459554D01*
X198481993Y-69451496D01*
X198505197Y-69445684D01*
X198528858Y-69442174D01*
X198552750Y-69441000D01*
X199465250Y-69441000D01*
X199489142Y-69442174D01*
X199489142Y-69442174D01*
G37*
D13*
X199009000Y-69928500D03*
D12*
G36*
X199489142Y-71317174D02*
G01*
X199512803Y-71320684D01*
X199536007Y-71326496D01*
X199558529Y-71334554D01*
X199580153Y-71344782D01*
X199600670Y-71357079D01*
X199619883Y-71371329D01*
X199637607Y-71387393D01*
X199653671Y-71405117D01*
X199667921Y-71424330D01*
X199680218Y-71444847D01*
X199690446Y-71466471D01*
X199698504Y-71488993D01*
X199704316Y-71512197D01*
X199707826Y-71535858D01*
X199709000Y-71559750D01*
X199709000Y-72047250D01*
X199707826Y-72071142D01*
X199704316Y-72094803D01*
X199698504Y-72118007D01*
X199690446Y-72140529D01*
X199680218Y-72162153D01*
X199667921Y-72182670D01*
X199653671Y-72201883D01*
X199637607Y-72219607D01*
X199619883Y-72235671D01*
X199600670Y-72249921D01*
X199580153Y-72262218D01*
X199558529Y-72272446D01*
X199536007Y-72280504D01*
X199512803Y-72286316D01*
X199489142Y-72289826D01*
X199465250Y-72291000D01*
X198552750Y-72291000D01*
X198528858Y-72289826D01*
X198505197Y-72286316D01*
X198481993Y-72280504D01*
X198459471Y-72272446D01*
X198437847Y-72262218D01*
X198417330Y-72249921D01*
X198398117Y-72235671D01*
X198380393Y-72219607D01*
X198364329Y-72201883D01*
X198350079Y-72182670D01*
X198337782Y-72162153D01*
X198327554Y-72140529D01*
X198319496Y-72118007D01*
X198313684Y-72094803D01*
X198310174Y-72071142D01*
X198309000Y-72047250D01*
X198309000Y-71559750D01*
X198310174Y-71535858D01*
X198313684Y-71512197D01*
X198319496Y-71488993D01*
X198327554Y-71466471D01*
X198337782Y-71444847D01*
X198350079Y-71424330D01*
X198364329Y-71405117D01*
X198380393Y-71387393D01*
X198398117Y-71371329D01*
X198417330Y-71357079D01*
X198437847Y-71344782D01*
X198459471Y-71334554D01*
X198481993Y-71326496D01*
X198505197Y-71320684D01*
X198528858Y-71317174D01*
X198552750Y-71316000D01*
X199465250Y-71316000D01*
X199489142Y-71317174D01*
X199489142Y-71317174D01*
G37*
D13*
X199009000Y-71803500D03*
D12*
G36*
X195806142Y-71317174D02*
G01*
X195829803Y-71320684D01*
X195853007Y-71326496D01*
X195875529Y-71334554D01*
X195897153Y-71344782D01*
X195917670Y-71357079D01*
X195936883Y-71371329D01*
X195954607Y-71387393D01*
X195970671Y-71405117D01*
X195984921Y-71424330D01*
X195997218Y-71444847D01*
X196007446Y-71466471D01*
X196015504Y-71488993D01*
X196021316Y-71512197D01*
X196024826Y-71535858D01*
X196026000Y-71559750D01*
X196026000Y-72047250D01*
X196024826Y-72071142D01*
X196021316Y-72094803D01*
X196015504Y-72118007D01*
X196007446Y-72140529D01*
X195997218Y-72162153D01*
X195984921Y-72182670D01*
X195970671Y-72201883D01*
X195954607Y-72219607D01*
X195936883Y-72235671D01*
X195917670Y-72249921D01*
X195897153Y-72262218D01*
X195875529Y-72272446D01*
X195853007Y-72280504D01*
X195829803Y-72286316D01*
X195806142Y-72289826D01*
X195782250Y-72291000D01*
X194869750Y-72291000D01*
X194845858Y-72289826D01*
X194822197Y-72286316D01*
X194798993Y-72280504D01*
X194776471Y-72272446D01*
X194754847Y-72262218D01*
X194734330Y-72249921D01*
X194715117Y-72235671D01*
X194697393Y-72219607D01*
X194681329Y-72201883D01*
X194667079Y-72182670D01*
X194654782Y-72162153D01*
X194644554Y-72140529D01*
X194636496Y-72118007D01*
X194630684Y-72094803D01*
X194627174Y-72071142D01*
X194626000Y-72047250D01*
X194626000Y-71559750D01*
X194627174Y-71535858D01*
X194630684Y-71512197D01*
X194636496Y-71488993D01*
X194644554Y-71466471D01*
X194654782Y-71444847D01*
X194667079Y-71424330D01*
X194681329Y-71405117D01*
X194697393Y-71387393D01*
X194715117Y-71371329D01*
X194734330Y-71357079D01*
X194754847Y-71344782D01*
X194776471Y-71334554D01*
X194798993Y-71326496D01*
X194822197Y-71320684D01*
X194845858Y-71317174D01*
X194869750Y-71316000D01*
X195782250Y-71316000D01*
X195806142Y-71317174D01*
X195806142Y-71317174D01*
G37*
D13*
X195326000Y-71803500D03*
D12*
G36*
X195806142Y-69442174D02*
G01*
X195829803Y-69445684D01*
X195853007Y-69451496D01*
X195875529Y-69459554D01*
X195897153Y-69469782D01*
X195917670Y-69482079D01*
X195936883Y-69496329D01*
X195954607Y-69512393D01*
X195970671Y-69530117D01*
X195984921Y-69549330D01*
X195997218Y-69569847D01*
X196007446Y-69591471D01*
X196015504Y-69613993D01*
X196021316Y-69637197D01*
X196024826Y-69660858D01*
X196026000Y-69684750D01*
X196026000Y-70172250D01*
X196024826Y-70196142D01*
X196021316Y-70219803D01*
X196015504Y-70243007D01*
X196007446Y-70265529D01*
X195997218Y-70287153D01*
X195984921Y-70307670D01*
X195970671Y-70326883D01*
X195954607Y-70344607D01*
X195936883Y-70360671D01*
X195917670Y-70374921D01*
X195897153Y-70387218D01*
X195875529Y-70397446D01*
X195853007Y-70405504D01*
X195829803Y-70411316D01*
X195806142Y-70414826D01*
X195782250Y-70416000D01*
X194869750Y-70416000D01*
X194845858Y-70414826D01*
X194822197Y-70411316D01*
X194798993Y-70405504D01*
X194776471Y-70397446D01*
X194754847Y-70387218D01*
X194734330Y-70374921D01*
X194715117Y-70360671D01*
X194697393Y-70344607D01*
X194681329Y-70326883D01*
X194667079Y-70307670D01*
X194654782Y-70287153D01*
X194644554Y-70265529D01*
X194636496Y-70243007D01*
X194630684Y-70219803D01*
X194627174Y-70196142D01*
X194626000Y-70172250D01*
X194626000Y-69684750D01*
X194627174Y-69660858D01*
X194630684Y-69637197D01*
X194636496Y-69613993D01*
X194644554Y-69591471D01*
X194654782Y-69569847D01*
X194667079Y-69549330D01*
X194681329Y-69530117D01*
X194697393Y-69512393D01*
X194715117Y-69496329D01*
X194734330Y-69482079D01*
X194754847Y-69469782D01*
X194776471Y-69459554D01*
X194798993Y-69451496D01*
X194822197Y-69445684D01*
X194845858Y-69442174D01*
X194869750Y-69441000D01*
X195782250Y-69441000D01*
X195806142Y-69442174D01*
X195806142Y-69442174D01*
G37*
D13*
X195326000Y-69928500D03*
D12*
G36*
X192123142Y-71317174D02*
G01*
X192146803Y-71320684D01*
X192170007Y-71326496D01*
X192192529Y-71334554D01*
X192214153Y-71344782D01*
X192234670Y-71357079D01*
X192253883Y-71371329D01*
X192271607Y-71387393D01*
X192287671Y-71405117D01*
X192301921Y-71424330D01*
X192314218Y-71444847D01*
X192324446Y-71466471D01*
X192332504Y-71488993D01*
X192338316Y-71512197D01*
X192341826Y-71535858D01*
X192343000Y-71559750D01*
X192343000Y-72047250D01*
X192341826Y-72071142D01*
X192338316Y-72094803D01*
X192332504Y-72118007D01*
X192324446Y-72140529D01*
X192314218Y-72162153D01*
X192301921Y-72182670D01*
X192287671Y-72201883D01*
X192271607Y-72219607D01*
X192253883Y-72235671D01*
X192234670Y-72249921D01*
X192214153Y-72262218D01*
X192192529Y-72272446D01*
X192170007Y-72280504D01*
X192146803Y-72286316D01*
X192123142Y-72289826D01*
X192099250Y-72291000D01*
X191186750Y-72291000D01*
X191162858Y-72289826D01*
X191139197Y-72286316D01*
X191115993Y-72280504D01*
X191093471Y-72272446D01*
X191071847Y-72262218D01*
X191051330Y-72249921D01*
X191032117Y-72235671D01*
X191014393Y-72219607D01*
X190998329Y-72201883D01*
X190984079Y-72182670D01*
X190971782Y-72162153D01*
X190961554Y-72140529D01*
X190953496Y-72118007D01*
X190947684Y-72094803D01*
X190944174Y-72071142D01*
X190943000Y-72047250D01*
X190943000Y-71559750D01*
X190944174Y-71535858D01*
X190947684Y-71512197D01*
X190953496Y-71488993D01*
X190961554Y-71466471D01*
X190971782Y-71444847D01*
X190984079Y-71424330D01*
X190998329Y-71405117D01*
X191014393Y-71387393D01*
X191032117Y-71371329D01*
X191051330Y-71357079D01*
X191071847Y-71344782D01*
X191093471Y-71334554D01*
X191115993Y-71326496D01*
X191139197Y-71320684D01*
X191162858Y-71317174D01*
X191186750Y-71316000D01*
X192099250Y-71316000D01*
X192123142Y-71317174D01*
X192123142Y-71317174D01*
G37*
D13*
X191643000Y-71803500D03*
D12*
G36*
X192123142Y-69442174D02*
G01*
X192146803Y-69445684D01*
X192170007Y-69451496D01*
X192192529Y-69459554D01*
X192214153Y-69469782D01*
X192234670Y-69482079D01*
X192253883Y-69496329D01*
X192271607Y-69512393D01*
X192287671Y-69530117D01*
X192301921Y-69549330D01*
X192314218Y-69569847D01*
X192324446Y-69591471D01*
X192332504Y-69613993D01*
X192338316Y-69637197D01*
X192341826Y-69660858D01*
X192343000Y-69684750D01*
X192343000Y-70172250D01*
X192341826Y-70196142D01*
X192338316Y-70219803D01*
X192332504Y-70243007D01*
X192324446Y-70265529D01*
X192314218Y-70287153D01*
X192301921Y-70307670D01*
X192287671Y-70326883D01*
X192271607Y-70344607D01*
X192253883Y-70360671D01*
X192234670Y-70374921D01*
X192214153Y-70387218D01*
X192192529Y-70397446D01*
X192170007Y-70405504D01*
X192146803Y-70411316D01*
X192123142Y-70414826D01*
X192099250Y-70416000D01*
X191186750Y-70416000D01*
X191162858Y-70414826D01*
X191139197Y-70411316D01*
X191115993Y-70405504D01*
X191093471Y-70397446D01*
X191071847Y-70387218D01*
X191051330Y-70374921D01*
X191032117Y-70360671D01*
X191014393Y-70344607D01*
X190998329Y-70326883D01*
X190984079Y-70307670D01*
X190971782Y-70287153D01*
X190961554Y-70265529D01*
X190953496Y-70243007D01*
X190947684Y-70219803D01*
X190944174Y-70196142D01*
X190943000Y-70172250D01*
X190943000Y-69684750D01*
X190944174Y-69660858D01*
X190947684Y-69637197D01*
X190953496Y-69613993D01*
X190961554Y-69591471D01*
X190971782Y-69569847D01*
X190984079Y-69549330D01*
X190998329Y-69530117D01*
X191014393Y-69512393D01*
X191032117Y-69496329D01*
X191051330Y-69482079D01*
X191071847Y-69469782D01*
X191093471Y-69459554D01*
X191115993Y-69451496D01*
X191139197Y-69445684D01*
X191162858Y-69442174D01*
X191186750Y-69441000D01*
X192099250Y-69441000D01*
X192123142Y-69442174D01*
X192123142Y-69442174D01*
G37*
D13*
X191643000Y-69928500D03*
D12*
G36*
X188440142Y-71317174D02*
G01*
X188463803Y-71320684D01*
X188487007Y-71326496D01*
X188509529Y-71334554D01*
X188531153Y-71344782D01*
X188551670Y-71357079D01*
X188570883Y-71371329D01*
X188588607Y-71387393D01*
X188604671Y-71405117D01*
X188618921Y-71424330D01*
X188631218Y-71444847D01*
X188641446Y-71466471D01*
X188649504Y-71488993D01*
X188655316Y-71512197D01*
X188658826Y-71535858D01*
X188660000Y-71559750D01*
X188660000Y-72047250D01*
X188658826Y-72071142D01*
X188655316Y-72094803D01*
X188649504Y-72118007D01*
X188641446Y-72140529D01*
X188631218Y-72162153D01*
X188618921Y-72182670D01*
X188604671Y-72201883D01*
X188588607Y-72219607D01*
X188570883Y-72235671D01*
X188551670Y-72249921D01*
X188531153Y-72262218D01*
X188509529Y-72272446D01*
X188487007Y-72280504D01*
X188463803Y-72286316D01*
X188440142Y-72289826D01*
X188416250Y-72291000D01*
X187503750Y-72291000D01*
X187479858Y-72289826D01*
X187456197Y-72286316D01*
X187432993Y-72280504D01*
X187410471Y-72272446D01*
X187388847Y-72262218D01*
X187368330Y-72249921D01*
X187349117Y-72235671D01*
X187331393Y-72219607D01*
X187315329Y-72201883D01*
X187301079Y-72182670D01*
X187288782Y-72162153D01*
X187278554Y-72140529D01*
X187270496Y-72118007D01*
X187264684Y-72094803D01*
X187261174Y-72071142D01*
X187260000Y-72047250D01*
X187260000Y-71559750D01*
X187261174Y-71535858D01*
X187264684Y-71512197D01*
X187270496Y-71488993D01*
X187278554Y-71466471D01*
X187288782Y-71444847D01*
X187301079Y-71424330D01*
X187315329Y-71405117D01*
X187331393Y-71387393D01*
X187349117Y-71371329D01*
X187368330Y-71357079D01*
X187388847Y-71344782D01*
X187410471Y-71334554D01*
X187432993Y-71326496D01*
X187456197Y-71320684D01*
X187479858Y-71317174D01*
X187503750Y-71316000D01*
X188416250Y-71316000D01*
X188440142Y-71317174D01*
X188440142Y-71317174D01*
G37*
D13*
X187960000Y-71803500D03*
D12*
G36*
X188440142Y-69442174D02*
G01*
X188463803Y-69445684D01*
X188487007Y-69451496D01*
X188509529Y-69459554D01*
X188531153Y-69469782D01*
X188551670Y-69482079D01*
X188570883Y-69496329D01*
X188588607Y-69512393D01*
X188604671Y-69530117D01*
X188618921Y-69549330D01*
X188631218Y-69569847D01*
X188641446Y-69591471D01*
X188649504Y-69613993D01*
X188655316Y-69637197D01*
X188658826Y-69660858D01*
X188660000Y-69684750D01*
X188660000Y-70172250D01*
X188658826Y-70196142D01*
X188655316Y-70219803D01*
X188649504Y-70243007D01*
X188641446Y-70265529D01*
X188631218Y-70287153D01*
X188618921Y-70307670D01*
X188604671Y-70326883D01*
X188588607Y-70344607D01*
X188570883Y-70360671D01*
X188551670Y-70374921D01*
X188531153Y-70387218D01*
X188509529Y-70397446D01*
X188487007Y-70405504D01*
X188463803Y-70411316D01*
X188440142Y-70414826D01*
X188416250Y-70416000D01*
X187503750Y-70416000D01*
X187479858Y-70414826D01*
X187456197Y-70411316D01*
X187432993Y-70405504D01*
X187410471Y-70397446D01*
X187388847Y-70387218D01*
X187368330Y-70374921D01*
X187349117Y-70360671D01*
X187331393Y-70344607D01*
X187315329Y-70326883D01*
X187301079Y-70307670D01*
X187288782Y-70287153D01*
X187278554Y-70265529D01*
X187270496Y-70243007D01*
X187264684Y-70219803D01*
X187261174Y-70196142D01*
X187260000Y-70172250D01*
X187260000Y-69684750D01*
X187261174Y-69660858D01*
X187264684Y-69637197D01*
X187270496Y-69613993D01*
X187278554Y-69591471D01*
X187288782Y-69569847D01*
X187301079Y-69549330D01*
X187315329Y-69530117D01*
X187331393Y-69512393D01*
X187349117Y-69496329D01*
X187368330Y-69482079D01*
X187388847Y-69469782D01*
X187410471Y-69459554D01*
X187432993Y-69451496D01*
X187456197Y-69445684D01*
X187479858Y-69442174D01*
X187503750Y-69441000D01*
X188416250Y-69441000D01*
X188440142Y-69442174D01*
X188440142Y-69442174D01*
G37*
D13*
X187960000Y-69928500D03*
D12*
G36*
X184757142Y-69442174D02*
G01*
X184780803Y-69445684D01*
X184804007Y-69451496D01*
X184826529Y-69459554D01*
X184848153Y-69469782D01*
X184868670Y-69482079D01*
X184887883Y-69496329D01*
X184905607Y-69512393D01*
X184921671Y-69530117D01*
X184935921Y-69549330D01*
X184948218Y-69569847D01*
X184958446Y-69591471D01*
X184966504Y-69613993D01*
X184972316Y-69637197D01*
X184975826Y-69660858D01*
X184977000Y-69684750D01*
X184977000Y-70172250D01*
X184975826Y-70196142D01*
X184972316Y-70219803D01*
X184966504Y-70243007D01*
X184958446Y-70265529D01*
X184948218Y-70287153D01*
X184935921Y-70307670D01*
X184921671Y-70326883D01*
X184905607Y-70344607D01*
X184887883Y-70360671D01*
X184868670Y-70374921D01*
X184848153Y-70387218D01*
X184826529Y-70397446D01*
X184804007Y-70405504D01*
X184780803Y-70411316D01*
X184757142Y-70414826D01*
X184733250Y-70416000D01*
X183820750Y-70416000D01*
X183796858Y-70414826D01*
X183773197Y-70411316D01*
X183749993Y-70405504D01*
X183727471Y-70397446D01*
X183705847Y-70387218D01*
X183685330Y-70374921D01*
X183666117Y-70360671D01*
X183648393Y-70344607D01*
X183632329Y-70326883D01*
X183618079Y-70307670D01*
X183605782Y-70287153D01*
X183595554Y-70265529D01*
X183587496Y-70243007D01*
X183581684Y-70219803D01*
X183578174Y-70196142D01*
X183577000Y-70172250D01*
X183577000Y-69684750D01*
X183578174Y-69660858D01*
X183581684Y-69637197D01*
X183587496Y-69613993D01*
X183595554Y-69591471D01*
X183605782Y-69569847D01*
X183618079Y-69549330D01*
X183632329Y-69530117D01*
X183648393Y-69512393D01*
X183666117Y-69496329D01*
X183685330Y-69482079D01*
X183705847Y-69469782D01*
X183727471Y-69459554D01*
X183749993Y-69451496D01*
X183773197Y-69445684D01*
X183796858Y-69442174D01*
X183820750Y-69441000D01*
X184733250Y-69441000D01*
X184757142Y-69442174D01*
X184757142Y-69442174D01*
G37*
D13*
X184277000Y-69928500D03*
D12*
G36*
X184757142Y-71317174D02*
G01*
X184780803Y-71320684D01*
X184804007Y-71326496D01*
X184826529Y-71334554D01*
X184848153Y-71344782D01*
X184868670Y-71357079D01*
X184887883Y-71371329D01*
X184905607Y-71387393D01*
X184921671Y-71405117D01*
X184935921Y-71424330D01*
X184948218Y-71444847D01*
X184958446Y-71466471D01*
X184966504Y-71488993D01*
X184972316Y-71512197D01*
X184975826Y-71535858D01*
X184977000Y-71559750D01*
X184977000Y-72047250D01*
X184975826Y-72071142D01*
X184972316Y-72094803D01*
X184966504Y-72118007D01*
X184958446Y-72140529D01*
X184948218Y-72162153D01*
X184935921Y-72182670D01*
X184921671Y-72201883D01*
X184905607Y-72219607D01*
X184887883Y-72235671D01*
X184868670Y-72249921D01*
X184848153Y-72262218D01*
X184826529Y-72272446D01*
X184804007Y-72280504D01*
X184780803Y-72286316D01*
X184757142Y-72289826D01*
X184733250Y-72291000D01*
X183820750Y-72291000D01*
X183796858Y-72289826D01*
X183773197Y-72286316D01*
X183749993Y-72280504D01*
X183727471Y-72272446D01*
X183705847Y-72262218D01*
X183685330Y-72249921D01*
X183666117Y-72235671D01*
X183648393Y-72219607D01*
X183632329Y-72201883D01*
X183618079Y-72182670D01*
X183605782Y-72162153D01*
X183595554Y-72140529D01*
X183587496Y-72118007D01*
X183581684Y-72094803D01*
X183578174Y-72071142D01*
X183577000Y-72047250D01*
X183577000Y-71559750D01*
X183578174Y-71535858D01*
X183581684Y-71512197D01*
X183587496Y-71488993D01*
X183595554Y-71466471D01*
X183605782Y-71444847D01*
X183618079Y-71424330D01*
X183632329Y-71405117D01*
X183648393Y-71387393D01*
X183666117Y-71371329D01*
X183685330Y-71357079D01*
X183705847Y-71344782D01*
X183727471Y-71334554D01*
X183749993Y-71326496D01*
X183773197Y-71320684D01*
X183796858Y-71317174D01*
X183820750Y-71316000D01*
X184733250Y-71316000D01*
X184757142Y-71317174D01*
X184757142Y-71317174D01*
G37*
D13*
X184277000Y-71803500D03*
D12*
G36*
X181074142Y-69442174D02*
G01*
X181097803Y-69445684D01*
X181121007Y-69451496D01*
X181143529Y-69459554D01*
X181165153Y-69469782D01*
X181185670Y-69482079D01*
X181204883Y-69496329D01*
X181222607Y-69512393D01*
X181238671Y-69530117D01*
X181252921Y-69549330D01*
X181265218Y-69569847D01*
X181275446Y-69591471D01*
X181283504Y-69613993D01*
X181289316Y-69637197D01*
X181292826Y-69660858D01*
X181294000Y-69684750D01*
X181294000Y-70172250D01*
X181292826Y-70196142D01*
X181289316Y-70219803D01*
X181283504Y-70243007D01*
X181275446Y-70265529D01*
X181265218Y-70287153D01*
X181252921Y-70307670D01*
X181238671Y-70326883D01*
X181222607Y-70344607D01*
X181204883Y-70360671D01*
X181185670Y-70374921D01*
X181165153Y-70387218D01*
X181143529Y-70397446D01*
X181121007Y-70405504D01*
X181097803Y-70411316D01*
X181074142Y-70414826D01*
X181050250Y-70416000D01*
X180137750Y-70416000D01*
X180113858Y-70414826D01*
X180090197Y-70411316D01*
X180066993Y-70405504D01*
X180044471Y-70397446D01*
X180022847Y-70387218D01*
X180002330Y-70374921D01*
X179983117Y-70360671D01*
X179965393Y-70344607D01*
X179949329Y-70326883D01*
X179935079Y-70307670D01*
X179922782Y-70287153D01*
X179912554Y-70265529D01*
X179904496Y-70243007D01*
X179898684Y-70219803D01*
X179895174Y-70196142D01*
X179894000Y-70172250D01*
X179894000Y-69684750D01*
X179895174Y-69660858D01*
X179898684Y-69637197D01*
X179904496Y-69613993D01*
X179912554Y-69591471D01*
X179922782Y-69569847D01*
X179935079Y-69549330D01*
X179949329Y-69530117D01*
X179965393Y-69512393D01*
X179983117Y-69496329D01*
X180002330Y-69482079D01*
X180022847Y-69469782D01*
X180044471Y-69459554D01*
X180066993Y-69451496D01*
X180090197Y-69445684D01*
X180113858Y-69442174D01*
X180137750Y-69441000D01*
X181050250Y-69441000D01*
X181074142Y-69442174D01*
X181074142Y-69442174D01*
G37*
D13*
X180594000Y-69928500D03*
D12*
G36*
X181074142Y-71317174D02*
G01*
X181097803Y-71320684D01*
X181121007Y-71326496D01*
X181143529Y-71334554D01*
X181165153Y-71344782D01*
X181185670Y-71357079D01*
X181204883Y-71371329D01*
X181222607Y-71387393D01*
X181238671Y-71405117D01*
X181252921Y-71424330D01*
X181265218Y-71444847D01*
X181275446Y-71466471D01*
X181283504Y-71488993D01*
X181289316Y-71512197D01*
X181292826Y-71535858D01*
X181294000Y-71559750D01*
X181294000Y-72047250D01*
X181292826Y-72071142D01*
X181289316Y-72094803D01*
X181283504Y-72118007D01*
X181275446Y-72140529D01*
X181265218Y-72162153D01*
X181252921Y-72182670D01*
X181238671Y-72201883D01*
X181222607Y-72219607D01*
X181204883Y-72235671D01*
X181185670Y-72249921D01*
X181165153Y-72262218D01*
X181143529Y-72272446D01*
X181121007Y-72280504D01*
X181097803Y-72286316D01*
X181074142Y-72289826D01*
X181050250Y-72291000D01*
X180137750Y-72291000D01*
X180113858Y-72289826D01*
X180090197Y-72286316D01*
X180066993Y-72280504D01*
X180044471Y-72272446D01*
X180022847Y-72262218D01*
X180002330Y-72249921D01*
X179983117Y-72235671D01*
X179965393Y-72219607D01*
X179949329Y-72201883D01*
X179935079Y-72182670D01*
X179922782Y-72162153D01*
X179912554Y-72140529D01*
X179904496Y-72118007D01*
X179898684Y-72094803D01*
X179895174Y-72071142D01*
X179894000Y-72047250D01*
X179894000Y-71559750D01*
X179895174Y-71535858D01*
X179898684Y-71512197D01*
X179904496Y-71488993D01*
X179912554Y-71466471D01*
X179922782Y-71444847D01*
X179935079Y-71424330D01*
X179949329Y-71405117D01*
X179965393Y-71387393D01*
X179983117Y-71371329D01*
X180002330Y-71357079D01*
X180022847Y-71344782D01*
X180044471Y-71334554D01*
X180066993Y-71326496D01*
X180090197Y-71320684D01*
X180113858Y-71317174D01*
X180137750Y-71316000D01*
X181050250Y-71316000D01*
X181074142Y-71317174D01*
X181074142Y-71317174D01*
G37*
D13*
X180594000Y-71803500D03*
D12*
G36*
X177391142Y-71317174D02*
G01*
X177414803Y-71320684D01*
X177438007Y-71326496D01*
X177460529Y-71334554D01*
X177482153Y-71344782D01*
X177502670Y-71357079D01*
X177521883Y-71371329D01*
X177539607Y-71387393D01*
X177555671Y-71405117D01*
X177569921Y-71424330D01*
X177582218Y-71444847D01*
X177592446Y-71466471D01*
X177600504Y-71488993D01*
X177606316Y-71512197D01*
X177609826Y-71535858D01*
X177611000Y-71559750D01*
X177611000Y-72047250D01*
X177609826Y-72071142D01*
X177606316Y-72094803D01*
X177600504Y-72118007D01*
X177592446Y-72140529D01*
X177582218Y-72162153D01*
X177569921Y-72182670D01*
X177555671Y-72201883D01*
X177539607Y-72219607D01*
X177521883Y-72235671D01*
X177502670Y-72249921D01*
X177482153Y-72262218D01*
X177460529Y-72272446D01*
X177438007Y-72280504D01*
X177414803Y-72286316D01*
X177391142Y-72289826D01*
X177367250Y-72291000D01*
X176454750Y-72291000D01*
X176430858Y-72289826D01*
X176407197Y-72286316D01*
X176383993Y-72280504D01*
X176361471Y-72272446D01*
X176339847Y-72262218D01*
X176319330Y-72249921D01*
X176300117Y-72235671D01*
X176282393Y-72219607D01*
X176266329Y-72201883D01*
X176252079Y-72182670D01*
X176239782Y-72162153D01*
X176229554Y-72140529D01*
X176221496Y-72118007D01*
X176215684Y-72094803D01*
X176212174Y-72071142D01*
X176211000Y-72047250D01*
X176211000Y-71559750D01*
X176212174Y-71535858D01*
X176215684Y-71512197D01*
X176221496Y-71488993D01*
X176229554Y-71466471D01*
X176239782Y-71444847D01*
X176252079Y-71424330D01*
X176266329Y-71405117D01*
X176282393Y-71387393D01*
X176300117Y-71371329D01*
X176319330Y-71357079D01*
X176339847Y-71344782D01*
X176361471Y-71334554D01*
X176383993Y-71326496D01*
X176407197Y-71320684D01*
X176430858Y-71317174D01*
X176454750Y-71316000D01*
X177367250Y-71316000D01*
X177391142Y-71317174D01*
X177391142Y-71317174D01*
G37*
D13*
X176911000Y-71803500D03*
D12*
G36*
X177391142Y-69442174D02*
G01*
X177414803Y-69445684D01*
X177438007Y-69451496D01*
X177460529Y-69459554D01*
X177482153Y-69469782D01*
X177502670Y-69482079D01*
X177521883Y-69496329D01*
X177539607Y-69512393D01*
X177555671Y-69530117D01*
X177569921Y-69549330D01*
X177582218Y-69569847D01*
X177592446Y-69591471D01*
X177600504Y-69613993D01*
X177606316Y-69637197D01*
X177609826Y-69660858D01*
X177611000Y-69684750D01*
X177611000Y-70172250D01*
X177609826Y-70196142D01*
X177606316Y-70219803D01*
X177600504Y-70243007D01*
X177592446Y-70265529D01*
X177582218Y-70287153D01*
X177569921Y-70307670D01*
X177555671Y-70326883D01*
X177539607Y-70344607D01*
X177521883Y-70360671D01*
X177502670Y-70374921D01*
X177482153Y-70387218D01*
X177460529Y-70397446D01*
X177438007Y-70405504D01*
X177414803Y-70411316D01*
X177391142Y-70414826D01*
X177367250Y-70416000D01*
X176454750Y-70416000D01*
X176430858Y-70414826D01*
X176407197Y-70411316D01*
X176383993Y-70405504D01*
X176361471Y-70397446D01*
X176339847Y-70387218D01*
X176319330Y-70374921D01*
X176300117Y-70360671D01*
X176282393Y-70344607D01*
X176266329Y-70326883D01*
X176252079Y-70307670D01*
X176239782Y-70287153D01*
X176229554Y-70265529D01*
X176221496Y-70243007D01*
X176215684Y-70219803D01*
X176212174Y-70196142D01*
X176211000Y-70172250D01*
X176211000Y-69684750D01*
X176212174Y-69660858D01*
X176215684Y-69637197D01*
X176221496Y-69613993D01*
X176229554Y-69591471D01*
X176239782Y-69569847D01*
X176252079Y-69549330D01*
X176266329Y-69530117D01*
X176282393Y-69512393D01*
X176300117Y-69496329D01*
X176319330Y-69482079D01*
X176339847Y-69469782D01*
X176361471Y-69459554D01*
X176383993Y-69451496D01*
X176407197Y-69445684D01*
X176430858Y-69442174D01*
X176454750Y-69441000D01*
X177367250Y-69441000D01*
X177391142Y-69442174D01*
X177391142Y-69442174D01*
G37*
D13*
X176911000Y-69928500D03*
D12*
G36*
X173708142Y-69442174D02*
G01*
X173731803Y-69445684D01*
X173755007Y-69451496D01*
X173777529Y-69459554D01*
X173799153Y-69469782D01*
X173819670Y-69482079D01*
X173838883Y-69496329D01*
X173856607Y-69512393D01*
X173872671Y-69530117D01*
X173886921Y-69549330D01*
X173899218Y-69569847D01*
X173909446Y-69591471D01*
X173917504Y-69613993D01*
X173923316Y-69637197D01*
X173926826Y-69660858D01*
X173928000Y-69684750D01*
X173928000Y-70172250D01*
X173926826Y-70196142D01*
X173923316Y-70219803D01*
X173917504Y-70243007D01*
X173909446Y-70265529D01*
X173899218Y-70287153D01*
X173886921Y-70307670D01*
X173872671Y-70326883D01*
X173856607Y-70344607D01*
X173838883Y-70360671D01*
X173819670Y-70374921D01*
X173799153Y-70387218D01*
X173777529Y-70397446D01*
X173755007Y-70405504D01*
X173731803Y-70411316D01*
X173708142Y-70414826D01*
X173684250Y-70416000D01*
X172771750Y-70416000D01*
X172747858Y-70414826D01*
X172724197Y-70411316D01*
X172700993Y-70405504D01*
X172678471Y-70397446D01*
X172656847Y-70387218D01*
X172636330Y-70374921D01*
X172617117Y-70360671D01*
X172599393Y-70344607D01*
X172583329Y-70326883D01*
X172569079Y-70307670D01*
X172556782Y-70287153D01*
X172546554Y-70265529D01*
X172538496Y-70243007D01*
X172532684Y-70219803D01*
X172529174Y-70196142D01*
X172528000Y-70172250D01*
X172528000Y-69684750D01*
X172529174Y-69660858D01*
X172532684Y-69637197D01*
X172538496Y-69613993D01*
X172546554Y-69591471D01*
X172556782Y-69569847D01*
X172569079Y-69549330D01*
X172583329Y-69530117D01*
X172599393Y-69512393D01*
X172617117Y-69496329D01*
X172636330Y-69482079D01*
X172656847Y-69469782D01*
X172678471Y-69459554D01*
X172700993Y-69451496D01*
X172724197Y-69445684D01*
X172747858Y-69442174D01*
X172771750Y-69441000D01*
X173684250Y-69441000D01*
X173708142Y-69442174D01*
X173708142Y-69442174D01*
G37*
D13*
X173228000Y-69928500D03*
D12*
G36*
X173708142Y-71317174D02*
G01*
X173731803Y-71320684D01*
X173755007Y-71326496D01*
X173777529Y-71334554D01*
X173799153Y-71344782D01*
X173819670Y-71357079D01*
X173838883Y-71371329D01*
X173856607Y-71387393D01*
X173872671Y-71405117D01*
X173886921Y-71424330D01*
X173899218Y-71444847D01*
X173909446Y-71466471D01*
X173917504Y-71488993D01*
X173923316Y-71512197D01*
X173926826Y-71535858D01*
X173928000Y-71559750D01*
X173928000Y-72047250D01*
X173926826Y-72071142D01*
X173923316Y-72094803D01*
X173917504Y-72118007D01*
X173909446Y-72140529D01*
X173899218Y-72162153D01*
X173886921Y-72182670D01*
X173872671Y-72201883D01*
X173856607Y-72219607D01*
X173838883Y-72235671D01*
X173819670Y-72249921D01*
X173799153Y-72262218D01*
X173777529Y-72272446D01*
X173755007Y-72280504D01*
X173731803Y-72286316D01*
X173708142Y-72289826D01*
X173684250Y-72291000D01*
X172771750Y-72291000D01*
X172747858Y-72289826D01*
X172724197Y-72286316D01*
X172700993Y-72280504D01*
X172678471Y-72272446D01*
X172656847Y-72262218D01*
X172636330Y-72249921D01*
X172617117Y-72235671D01*
X172599393Y-72219607D01*
X172583329Y-72201883D01*
X172569079Y-72182670D01*
X172556782Y-72162153D01*
X172546554Y-72140529D01*
X172538496Y-72118007D01*
X172532684Y-72094803D01*
X172529174Y-72071142D01*
X172528000Y-72047250D01*
X172528000Y-71559750D01*
X172529174Y-71535858D01*
X172532684Y-71512197D01*
X172538496Y-71488993D01*
X172546554Y-71466471D01*
X172556782Y-71444847D01*
X172569079Y-71424330D01*
X172583329Y-71405117D01*
X172599393Y-71387393D01*
X172617117Y-71371329D01*
X172636330Y-71357079D01*
X172656847Y-71344782D01*
X172678471Y-71334554D01*
X172700993Y-71326496D01*
X172724197Y-71320684D01*
X172747858Y-71317174D01*
X172771750Y-71316000D01*
X173684250Y-71316000D01*
X173708142Y-71317174D01*
X173708142Y-71317174D01*
G37*
D13*
X173228000Y-71803500D03*
D12*
G36*
X153896142Y-71387174D02*
G01*
X153919803Y-71390684D01*
X153943007Y-71396496D01*
X153965529Y-71404554D01*
X153987153Y-71414782D01*
X154007670Y-71427079D01*
X154026883Y-71441329D01*
X154044607Y-71457393D01*
X154060671Y-71475117D01*
X154074921Y-71494330D01*
X154087218Y-71514847D01*
X154097446Y-71536471D01*
X154105504Y-71558993D01*
X154111316Y-71582197D01*
X154114826Y-71605858D01*
X154116000Y-71629750D01*
X154116000Y-72117250D01*
X154114826Y-72141142D01*
X154111316Y-72164803D01*
X154105504Y-72188007D01*
X154097446Y-72210529D01*
X154087218Y-72232153D01*
X154074921Y-72252670D01*
X154060671Y-72271883D01*
X154044607Y-72289607D01*
X154026883Y-72305671D01*
X154007670Y-72319921D01*
X153987153Y-72332218D01*
X153965529Y-72342446D01*
X153943007Y-72350504D01*
X153919803Y-72356316D01*
X153896142Y-72359826D01*
X153872250Y-72361000D01*
X152959750Y-72361000D01*
X152935858Y-72359826D01*
X152912197Y-72356316D01*
X152888993Y-72350504D01*
X152866471Y-72342446D01*
X152844847Y-72332218D01*
X152824330Y-72319921D01*
X152805117Y-72305671D01*
X152787393Y-72289607D01*
X152771329Y-72271883D01*
X152757079Y-72252670D01*
X152744782Y-72232153D01*
X152734554Y-72210529D01*
X152726496Y-72188007D01*
X152720684Y-72164803D01*
X152717174Y-72141142D01*
X152716000Y-72117250D01*
X152716000Y-71629750D01*
X152717174Y-71605858D01*
X152720684Y-71582197D01*
X152726496Y-71558993D01*
X152734554Y-71536471D01*
X152744782Y-71514847D01*
X152757079Y-71494330D01*
X152771329Y-71475117D01*
X152787393Y-71457393D01*
X152805117Y-71441329D01*
X152824330Y-71427079D01*
X152844847Y-71414782D01*
X152866471Y-71404554D01*
X152888993Y-71396496D01*
X152912197Y-71390684D01*
X152935858Y-71387174D01*
X152959750Y-71386000D01*
X153872250Y-71386000D01*
X153896142Y-71387174D01*
X153896142Y-71387174D01*
G37*
D13*
X153416000Y-71873500D03*
D12*
G36*
X153896142Y-69512174D02*
G01*
X153919803Y-69515684D01*
X153943007Y-69521496D01*
X153965529Y-69529554D01*
X153987153Y-69539782D01*
X154007670Y-69552079D01*
X154026883Y-69566329D01*
X154044607Y-69582393D01*
X154060671Y-69600117D01*
X154074921Y-69619330D01*
X154087218Y-69639847D01*
X154097446Y-69661471D01*
X154105504Y-69683993D01*
X154111316Y-69707197D01*
X154114826Y-69730858D01*
X154116000Y-69754750D01*
X154116000Y-70242250D01*
X154114826Y-70266142D01*
X154111316Y-70289803D01*
X154105504Y-70313007D01*
X154097446Y-70335529D01*
X154087218Y-70357153D01*
X154074921Y-70377670D01*
X154060671Y-70396883D01*
X154044607Y-70414607D01*
X154026883Y-70430671D01*
X154007670Y-70444921D01*
X153987153Y-70457218D01*
X153965529Y-70467446D01*
X153943007Y-70475504D01*
X153919803Y-70481316D01*
X153896142Y-70484826D01*
X153872250Y-70486000D01*
X152959750Y-70486000D01*
X152935858Y-70484826D01*
X152912197Y-70481316D01*
X152888993Y-70475504D01*
X152866471Y-70467446D01*
X152844847Y-70457218D01*
X152824330Y-70444921D01*
X152805117Y-70430671D01*
X152787393Y-70414607D01*
X152771329Y-70396883D01*
X152757079Y-70377670D01*
X152744782Y-70357153D01*
X152734554Y-70335529D01*
X152726496Y-70313007D01*
X152720684Y-70289803D01*
X152717174Y-70266142D01*
X152716000Y-70242250D01*
X152716000Y-69754750D01*
X152717174Y-69730858D01*
X152720684Y-69707197D01*
X152726496Y-69683993D01*
X152734554Y-69661471D01*
X152744782Y-69639847D01*
X152757079Y-69619330D01*
X152771329Y-69600117D01*
X152787393Y-69582393D01*
X152805117Y-69566329D01*
X152824330Y-69552079D01*
X152844847Y-69539782D01*
X152866471Y-69529554D01*
X152888993Y-69521496D01*
X152912197Y-69515684D01*
X152935858Y-69512174D01*
X152959750Y-69511000D01*
X153872250Y-69511000D01*
X153896142Y-69512174D01*
X153896142Y-69512174D01*
G37*
D13*
X153416000Y-69998500D03*
D15*
X185293000Y-82128000D03*
X185293000Y-84328000D03*
X186993000Y-84328000D03*
X186993000Y-82128000D03*
M02*
