G04 #@! TF.GenerationSoftware,KiCad,Pcbnew,(5.1.2)-2*
G04 #@! TF.CreationDate,2020-08-30T00:43:24-04:00*
G04 #@! TF.ProjectId,Scanner1,5363616e-6e65-4723-912e-6b696361645f,rev?*
G04 #@! TF.SameCoordinates,Original*
G04 #@! TF.FileFunction,Legend,Top*
G04 #@! TF.FilePolarity,Positive*
%FSLAX46Y46*%
G04 Gerber Fmt 4.6, Leading zero omitted, Abs format (unit mm)*
G04 Created by KiCad (PCBNEW (5.1.2)-2) date 2020-08-30 00:43:24*
%MOMM*%
%LPD*%
G04 APERTURE LIST*
%ADD10C,0.150000*%
%ADD11C,0.120000*%
%ADD12C,0.100000*%
G04 APERTURE END LIST*
D10*
X168053000Y-87339000D02*
X168628000Y-87339000D01*
X168053000Y-76989000D02*
X168728000Y-76989000D01*
X178403000Y-76989000D02*
X177728000Y-76989000D01*
X178403000Y-87339000D02*
X177728000Y-87339000D01*
X168053000Y-87339000D02*
X168053000Y-86664000D01*
X178403000Y-87339000D02*
X178403000Y-86664000D01*
X178403000Y-76989000D02*
X178403000Y-77664000D01*
X168053000Y-76989000D02*
X168053000Y-77664000D01*
X168628000Y-87339000D02*
X168628000Y-88614000D01*
D11*
X188266000Y-82926422D02*
X188266000Y-83443578D01*
X189686000Y-82926422D02*
X189686000Y-83443578D01*
X186401578Y-80720000D02*
X185884422Y-80720000D01*
X186401578Y-79300000D02*
X185884422Y-79300000D01*
X141562000Y-82750922D02*
X141562000Y-83268078D01*
X142982000Y-82750922D02*
X142982000Y-83268078D01*
X147776000Y-82750922D02*
X147776000Y-83268078D01*
X146356000Y-82750922D02*
X146356000Y-83268078D01*
X163247000Y-85290922D02*
X163247000Y-85808078D01*
X164667000Y-85290922D02*
X164667000Y-85808078D01*
X183082000Y-85475578D02*
X183082000Y-84958422D01*
X181662000Y-85475578D02*
X181662000Y-84958422D01*
X172549078Y-92277000D02*
X172031922Y-92277000D01*
X172549078Y-90857000D02*
X172031922Y-90857000D01*
X164667000Y-77719422D02*
X164667000Y-78236578D01*
X163247000Y-77719422D02*
X163247000Y-78236578D01*
X219119500Y-62555000D02*
X221804500Y-62555000D01*
X219119500Y-60635000D02*
X219119500Y-62555000D01*
X221804500Y-60635000D02*
X219119500Y-60635000D01*
X211364809Y-60635000D02*
X208679809Y-60635000D01*
X208679809Y-60635000D02*
X208679809Y-62555000D01*
X208679809Y-62555000D02*
X211364809Y-62555000D01*
X198240122Y-62555000D02*
X200925122Y-62555000D01*
X198240122Y-60635000D02*
X198240122Y-62555000D01*
X200925122Y-60635000D02*
X198240122Y-60635000D01*
X190485435Y-60635000D02*
X187800435Y-60635000D01*
X187800435Y-60635000D02*
X187800435Y-62555000D01*
X187800435Y-62555000D02*
X190485435Y-62555000D01*
X177360748Y-62555000D02*
X180045748Y-62555000D01*
X177360748Y-60635000D02*
X177360748Y-62555000D01*
X180045748Y-60635000D02*
X177360748Y-60635000D01*
X169606061Y-60635000D02*
X166921061Y-60635000D01*
X166921061Y-60635000D02*
X166921061Y-62555000D01*
X166921061Y-62555000D02*
X169606061Y-62555000D01*
X159166374Y-60635000D02*
X156481374Y-60635000D01*
X156481374Y-60635000D02*
X156481374Y-62555000D01*
X156481374Y-62555000D02*
X159166374Y-62555000D01*
X148726687Y-60635000D02*
X146041687Y-60635000D01*
X146041687Y-60635000D02*
X146041687Y-62555000D01*
X146041687Y-62555000D02*
X148726687Y-62555000D01*
X135602000Y-62555000D02*
X138287000Y-62555000D01*
X135602000Y-60635000D02*
X135602000Y-62555000D01*
X138287000Y-60635000D02*
X135602000Y-60635000D01*
X143260578Y-80593000D02*
X142743422Y-80593000D01*
X143260578Y-79173000D02*
X142743422Y-79173000D01*
D12*
X137866000Y-82969000D02*
X137841000Y-82969000D01*
X137866000Y-82319000D02*
X137866000Y-82969000D01*
X136991000Y-82969000D02*
X137841000Y-82969000D01*
X129466000Y-82969000D02*
X128616000Y-82969000D01*
X128616000Y-82969000D02*
X128616000Y-82344000D01*
X129541000Y-75019000D02*
X128616000Y-75019000D01*
X128616000Y-75019000D02*
X128616000Y-75644000D01*
X137291000Y-75019000D02*
X137866000Y-75019000D01*
X137866000Y-75019000D02*
X137866000Y-75494000D01*
D11*
X154753000Y-88579000D02*
X159953000Y-88579000D01*
X154753000Y-78359000D02*
X154753000Y-88579000D01*
X159953000Y-75759000D02*
X159953000Y-88579000D01*
X154753000Y-78359000D02*
X157353000Y-78359000D01*
X157353000Y-78359000D02*
X157353000Y-75759000D01*
X157353000Y-75759000D02*
X159953000Y-75759000D01*
X154753000Y-77089000D02*
X154753000Y-75759000D01*
X154753000Y-75759000D02*
X156083000Y-75759000D01*
X182312000Y-89856000D02*
X182312000Y-95056000D01*
X187452000Y-89856000D02*
X182312000Y-89856000D01*
X190052000Y-95056000D02*
X182312000Y-95056000D01*
X187452000Y-89856000D02*
X187452000Y-92456000D01*
X187452000Y-92456000D02*
X190052000Y-92456000D01*
X190052000Y-92456000D02*
X190052000Y-95056000D01*
X188722000Y-89856000D02*
X190052000Y-89856000D01*
X190052000Y-89856000D02*
X190052000Y-91186000D01*
X149227000Y-69356000D02*
X149227000Y-70286000D01*
X149227000Y-72516000D02*
X149227000Y-71586000D01*
X149227000Y-72516000D02*
X151387000Y-72516000D01*
X149227000Y-69356000D02*
X150687000Y-69356000D01*
X142546000Y-90878922D02*
X142546000Y-91396078D01*
X143966000Y-90878922D02*
X143966000Y-91396078D01*
X145340000Y-90878922D02*
X145340000Y-91396078D01*
X146760000Y-90878922D02*
X146760000Y-91396078D01*
X143260578Y-74484000D02*
X142743422Y-74484000D01*
X143260578Y-75904000D02*
X142743422Y-75904000D01*
X143260578Y-78053000D02*
X142743422Y-78053000D01*
X143260578Y-76633000D02*
X142743422Y-76633000D01*
X145379000Y-82750922D02*
X145379000Y-83268078D01*
X143959000Y-82750922D02*
X143959000Y-83268078D01*
X167949422Y-72061000D02*
X168466578Y-72061000D01*
X167949422Y-73481000D02*
X168466578Y-73481000D01*
X215848000Y-89539578D02*
X215848000Y-89022422D01*
X214428000Y-89539578D02*
X214428000Y-89022422D01*
X213562000Y-89539578D02*
X213562000Y-89022422D01*
X212142000Y-89539578D02*
X212142000Y-89022422D01*
X203402000Y-70607422D02*
X203402000Y-71124578D01*
X201982000Y-70607422D02*
X201982000Y-71124578D01*
X199719000Y-70607422D02*
X199719000Y-71124578D01*
X198299000Y-70607422D02*
X198299000Y-71124578D01*
X194616000Y-70607422D02*
X194616000Y-71124578D01*
X196036000Y-70607422D02*
X196036000Y-71124578D01*
X190933000Y-70607422D02*
X190933000Y-71124578D01*
X192353000Y-70607422D02*
X192353000Y-71124578D01*
X187250000Y-70607422D02*
X187250000Y-71124578D01*
X188670000Y-70607422D02*
X188670000Y-71124578D01*
X184987000Y-70607422D02*
X184987000Y-71124578D01*
X183567000Y-70607422D02*
X183567000Y-71124578D01*
X181304000Y-70607422D02*
X181304000Y-71124578D01*
X179884000Y-70607422D02*
X179884000Y-71124578D01*
X176201000Y-70607422D02*
X176201000Y-71124578D01*
X177621000Y-70607422D02*
X177621000Y-71124578D01*
X173938000Y-70607422D02*
X173938000Y-71124578D01*
X172518000Y-70607422D02*
X172518000Y-71124578D01*
X152706000Y-71194578D02*
X152706000Y-70677422D01*
X154126000Y-71194578D02*
X154126000Y-70677422D01*
X133588000Y-93892000D02*
X138088000Y-93892000D01*
X132338000Y-89892000D02*
X132338000Y-91392000D01*
X138088000Y-87392000D02*
X133588000Y-87392000D01*
X139338000Y-91392000D02*
X139338000Y-89892000D01*
X209061000Y-91392000D02*
X209061000Y-89892000D01*
X207811000Y-87392000D02*
X203311000Y-87392000D01*
X202061000Y-89892000D02*
X202061000Y-91392000D01*
X203311000Y-93892000D02*
X207811000Y-93892000D01*
X220075000Y-93892000D02*
X224575000Y-93892000D01*
X218825000Y-89892000D02*
X218825000Y-91392000D01*
X224575000Y-87392000D02*
X220075000Y-87392000D01*
X225825000Y-91392000D02*
X225825000Y-89892000D01*
X187793000Y-81228000D02*
X184493000Y-81228000D01*
X184493000Y-81228000D02*
X184493000Y-85228000D01*
D10*
X169672095Y-74001380D02*
X169672095Y-74810904D01*
X169719714Y-74906142D01*
X169767333Y-74953761D01*
X169862571Y-75001380D01*
X170053047Y-75001380D01*
X170148285Y-74953761D01*
X170195904Y-74906142D01*
X170243523Y-74810904D01*
X170243523Y-74001380D01*
X171243523Y-75001380D02*
X170672095Y-75001380D01*
X170957809Y-75001380D02*
X170957809Y-74001380D01*
X170862571Y-74144238D01*
X170767333Y-74239476D01*
X170672095Y-74287095D01*
X188809333Y-86209142D02*
X188761714Y-86256761D01*
X188618857Y-86304380D01*
X188523619Y-86304380D01*
X188380761Y-86256761D01*
X188285523Y-86161523D01*
X188237904Y-86066285D01*
X188190285Y-85875809D01*
X188190285Y-85732952D01*
X188237904Y-85542476D01*
X188285523Y-85447238D01*
X188380761Y-85352000D01*
X188523619Y-85304380D01*
X188618857Y-85304380D01*
X188761714Y-85352000D01*
X188809333Y-85399619D01*
X189761714Y-86304380D02*
X189190285Y-86304380D01*
X189476000Y-86304380D02*
X189476000Y-85304380D01*
X189380761Y-85447238D01*
X189285523Y-85542476D01*
X189190285Y-85590095D01*
X185976333Y-78589142D02*
X185928714Y-78636761D01*
X185785857Y-78684380D01*
X185690619Y-78684380D01*
X185547761Y-78636761D01*
X185452523Y-78541523D01*
X185404904Y-78446285D01*
X185357285Y-78255809D01*
X185357285Y-78112952D01*
X185404904Y-77922476D01*
X185452523Y-77827238D01*
X185547761Y-77732000D01*
X185690619Y-77684380D01*
X185785857Y-77684380D01*
X185928714Y-77732000D01*
X185976333Y-77779619D01*
X186357285Y-77779619D02*
X186404904Y-77732000D01*
X186500142Y-77684380D01*
X186738238Y-77684380D01*
X186833476Y-77732000D01*
X186881095Y-77779619D01*
X186928714Y-77874857D01*
X186928714Y-77970095D01*
X186881095Y-78112952D01*
X186309666Y-78684380D01*
X186928714Y-78684380D01*
X142105333Y-85955142D02*
X142057714Y-86002761D01*
X141914857Y-86050380D01*
X141819619Y-86050380D01*
X141676761Y-86002761D01*
X141581523Y-85907523D01*
X141533904Y-85812285D01*
X141486285Y-85621809D01*
X141486285Y-85478952D01*
X141533904Y-85288476D01*
X141581523Y-85193238D01*
X141676761Y-85098000D01*
X141819619Y-85050380D01*
X141914857Y-85050380D01*
X142057714Y-85098000D01*
X142105333Y-85145619D01*
X142438666Y-85050380D02*
X143057714Y-85050380D01*
X142724380Y-85431333D01*
X142867238Y-85431333D01*
X142962476Y-85478952D01*
X143010095Y-85526571D01*
X143057714Y-85621809D01*
X143057714Y-85859904D01*
X143010095Y-85955142D01*
X142962476Y-86002761D01*
X142867238Y-86050380D01*
X142581523Y-86050380D01*
X142486285Y-86002761D01*
X142438666Y-85955142D01*
X146899333Y-85955142D02*
X146851714Y-86002761D01*
X146708857Y-86050380D01*
X146613619Y-86050380D01*
X146470761Y-86002761D01*
X146375523Y-85907523D01*
X146327904Y-85812285D01*
X146280285Y-85621809D01*
X146280285Y-85478952D01*
X146327904Y-85288476D01*
X146375523Y-85193238D01*
X146470761Y-85098000D01*
X146613619Y-85050380D01*
X146708857Y-85050380D01*
X146851714Y-85098000D01*
X146899333Y-85145619D01*
X147756476Y-85383714D02*
X147756476Y-86050380D01*
X147518380Y-85002761D02*
X147280285Y-85717047D01*
X147899333Y-85717047D01*
X161758333Y-85906642D02*
X161710714Y-85954261D01*
X161567857Y-86001880D01*
X161472619Y-86001880D01*
X161329761Y-85954261D01*
X161234523Y-85859023D01*
X161186904Y-85763785D01*
X161139285Y-85573309D01*
X161139285Y-85430452D01*
X161186904Y-85239976D01*
X161234523Y-85144738D01*
X161329761Y-85049500D01*
X161472619Y-85001880D01*
X161567857Y-85001880D01*
X161710714Y-85049500D01*
X161758333Y-85097119D01*
X162663095Y-85001880D02*
X162186904Y-85001880D01*
X162139285Y-85478071D01*
X162186904Y-85430452D01*
X162282142Y-85382833D01*
X162520238Y-85382833D01*
X162615476Y-85430452D01*
X162663095Y-85478071D01*
X162710714Y-85573309D01*
X162710714Y-85811404D01*
X162663095Y-85906642D01*
X162615476Y-85954261D01*
X162520238Y-86001880D01*
X162282142Y-86001880D01*
X162186904Y-85954261D01*
X162139285Y-85906642D01*
X182205333Y-88035642D02*
X182157714Y-88083261D01*
X182014857Y-88130880D01*
X181919619Y-88130880D01*
X181776761Y-88083261D01*
X181681523Y-87988023D01*
X181633904Y-87892785D01*
X181586285Y-87702309D01*
X181586285Y-87559452D01*
X181633904Y-87368976D01*
X181681523Y-87273738D01*
X181776761Y-87178500D01*
X181919619Y-87130880D01*
X182014857Y-87130880D01*
X182157714Y-87178500D01*
X182205333Y-87226119D01*
X183062476Y-87130880D02*
X182872000Y-87130880D01*
X182776761Y-87178500D01*
X182729142Y-87226119D01*
X182633904Y-87368976D01*
X182586285Y-87559452D01*
X182586285Y-87940404D01*
X182633904Y-88035642D01*
X182681523Y-88083261D01*
X182776761Y-88130880D01*
X182967238Y-88130880D01*
X183062476Y-88083261D01*
X183110095Y-88035642D01*
X183157714Y-87940404D01*
X183157714Y-87702309D01*
X183110095Y-87607071D01*
X183062476Y-87559452D01*
X182967238Y-87511833D01*
X182776761Y-87511833D01*
X182681523Y-87559452D01*
X182633904Y-87607071D01*
X182586285Y-87702309D01*
X172123833Y-93574142D02*
X172076214Y-93621761D01*
X171933357Y-93669380D01*
X171838119Y-93669380D01*
X171695261Y-93621761D01*
X171600023Y-93526523D01*
X171552404Y-93431285D01*
X171504785Y-93240809D01*
X171504785Y-93097952D01*
X171552404Y-92907476D01*
X171600023Y-92812238D01*
X171695261Y-92717000D01*
X171838119Y-92669380D01*
X171933357Y-92669380D01*
X172076214Y-92717000D01*
X172123833Y-92764619D01*
X172457166Y-92669380D02*
X173123833Y-92669380D01*
X172695261Y-93669380D01*
X161758333Y-78335142D02*
X161710714Y-78382761D01*
X161567857Y-78430380D01*
X161472619Y-78430380D01*
X161329761Y-78382761D01*
X161234523Y-78287523D01*
X161186904Y-78192285D01*
X161139285Y-78001809D01*
X161139285Y-77858952D01*
X161186904Y-77668476D01*
X161234523Y-77573238D01*
X161329761Y-77478000D01*
X161472619Y-77430380D01*
X161567857Y-77430380D01*
X161710714Y-77478000D01*
X161758333Y-77525619D01*
X162329761Y-77858952D02*
X162234523Y-77811333D01*
X162186904Y-77763714D01*
X162139285Y-77668476D01*
X162139285Y-77620857D01*
X162186904Y-77525619D01*
X162234523Y-77478000D01*
X162329761Y-77430380D01*
X162520238Y-77430380D01*
X162615476Y-77478000D01*
X162663095Y-77525619D01*
X162710714Y-77620857D01*
X162710714Y-77668476D01*
X162663095Y-77763714D01*
X162615476Y-77811333D01*
X162520238Y-77858952D01*
X162329761Y-77858952D01*
X162234523Y-77906571D01*
X162186904Y-77954190D01*
X162139285Y-78049428D01*
X162139285Y-78239904D01*
X162186904Y-78335142D01*
X162234523Y-78382761D01*
X162329761Y-78430380D01*
X162520238Y-78430380D01*
X162615476Y-78382761D01*
X162663095Y-78335142D01*
X162710714Y-78239904D01*
X162710714Y-78049428D01*
X162663095Y-77954190D01*
X162615476Y-77906571D01*
X162520238Y-77858952D01*
X220066404Y-60397380D02*
X220066404Y-59397380D01*
X220304500Y-59397380D01*
X220447357Y-59445000D01*
X220542595Y-59540238D01*
X220590214Y-59635476D01*
X220637833Y-59825952D01*
X220637833Y-59968809D01*
X220590214Y-60159285D01*
X220542595Y-60254523D01*
X220447357Y-60349761D01*
X220304500Y-60397380D01*
X220066404Y-60397380D01*
X221590214Y-60397380D02*
X221018785Y-60397380D01*
X221304500Y-60397380D02*
X221304500Y-59397380D01*
X221209261Y-59540238D01*
X221114023Y-59635476D01*
X221018785Y-59683095D01*
X209626713Y-60397380D02*
X209626713Y-59397380D01*
X209864809Y-59397380D01*
X210007666Y-59445000D01*
X210102904Y-59540238D01*
X210150523Y-59635476D01*
X210198142Y-59825952D01*
X210198142Y-59968809D01*
X210150523Y-60159285D01*
X210102904Y-60254523D01*
X210007666Y-60349761D01*
X209864809Y-60397380D01*
X209626713Y-60397380D01*
X210579094Y-59492619D02*
X210626713Y-59445000D01*
X210721951Y-59397380D01*
X210960047Y-59397380D01*
X211055285Y-59445000D01*
X211102904Y-59492619D01*
X211150523Y-59587857D01*
X211150523Y-59683095D01*
X211102904Y-59825952D01*
X210531475Y-60397380D01*
X211150523Y-60397380D01*
X199187026Y-60397380D02*
X199187026Y-59397380D01*
X199425122Y-59397380D01*
X199567979Y-59445000D01*
X199663217Y-59540238D01*
X199710836Y-59635476D01*
X199758455Y-59825952D01*
X199758455Y-59968809D01*
X199710836Y-60159285D01*
X199663217Y-60254523D01*
X199567979Y-60349761D01*
X199425122Y-60397380D01*
X199187026Y-60397380D01*
X200091788Y-59397380D02*
X200710836Y-59397380D01*
X200377502Y-59778333D01*
X200520360Y-59778333D01*
X200615598Y-59825952D01*
X200663217Y-59873571D01*
X200710836Y-59968809D01*
X200710836Y-60206904D01*
X200663217Y-60302142D01*
X200615598Y-60349761D01*
X200520360Y-60397380D01*
X200234645Y-60397380D01*
X200139407Y-60349761D01*
X200091788Y-60302142D01*
X188747339Y-60397380D02*
X188747339Y-59397380D01*
X188985435Y-59397380D01*
X189128292Y-59445000D01*
X189223530Y-59540238D01*
X189271149Y-59635476D01*
X189318768Y-59825952D01*
X189318768Y-59968809D01*
X189271149Y-60159285D01*
X189223530Y-60254523D01*
X189128292Y-60349761D01*
X188985435Y-60397380D01*
X188747339Y-60397380D01*
X190175911Y-59730714D02*
X190175911Y-60397380D01*
X189937815Y-59349761D02*
X189699720Y-60064047D01*
X190318768Y-60064047D01*
X178307652Y-60397380D02*
X178307652Y-59397380D01*
X178545748Y-59397380D01*
X178688605Y-59445000D01*
X178783843Y-59540238D01*
X178831462Y-59635476D01*
X178879081Y-59825952D01*
X178879081Y-59968809D01*
X178831462Y-60159285D01*
X178783843Y-60254523D01*
X178688605Y-60349761D01*
X178545748Y-60397380D01*
X178307652Y-60397380D01*
X179783843Y-59397380D02*
X179307652Y-59397380D01*
X179260033Y-59873571D01*
X179307652Y-59825952D01*
X179402890Y-59778333D01*
X179640986Y-59778333D01*
X179736224Y-59825952D01*
X179783843Y-59873571D01*
X179831462Y-59968809D01*
X179831462Y-60206904D01*
X179783843Y-60302142D01*
X179736224Y-60349761D01*
X179640986Y-60397380D01*
X179402890Y-60397380D01*
X179307652Y-60349761D01*
X179260033Y-60302142D01*
X167867965Y-60397380D02*
X167867965Y-59397380D01*
X168106061Y-59397380D01*
X168248918Y-59445000D01*
X168344156Y-59540238D01*
X168391775Y-59635476D01*
X168439394Y-59825952D01*
X168439394Y-59968809D01*
X168391775Y-60159285D01*
X168344156Y-60254523D01*
X168248918Y-60349761D01*
X168106061Y-60397380D01*
X167867965Y-60397380D01*
X169296537Y-59397380D02*
X169106061Y-59397380D01*
X169010822Y-59445000D01*
X168963203Y-59492619D01*
X168867965Y-59635476D01*
X168820346Y-59825952D01*
X168820346Y-60206904D01*
X168867965Y-60302142D01*
X168915584Y-60349761D01*
X169010822Y-60397380D01*
X169201299Y-60397380D01*
X169296537Y-60349761D01*
X169344156Y-60302142D01*
X169391775Y-60206904D01*
X169391775Y-59968809D01*
X169344156Y-59873571D01*
X169296537Y-59825952D01*
X169201299Y-59778333D01*
X169010822Y-59778333D01*
X168915584Y-59825952D01*
X168867965Y-59873571D01*
X168820346Y-59968809D01*
X157428278Y-60397380D02*
X157428278Y-59397380D01*
X157666374Y-59397380D01*
X157809231Y-59445000D01*
X157904469Y-59540238D01*
X157952088Y-59635476D01*
X157999707Y-59825952D01*
X157999707Y-59968809D01*
X157952088Y-60159285D01*
X157904469Y-60254523D01*
X157809231Y-60349761D01*
X157666374Y-60397380D01*
X157428278Y-60397380D01*
X158333040Y-59397380D02*
X158999707Y-59397380D01*
X158571135Y-60397380D01*
X146988591Y-60397380D02*
X146988591Y-59397380D01*
X147226687Y-59397380D01*
X147369544Y-59445000D01*
X147464782Y-59540238D01*
X147512401Y-59635476D01*
X147560020Y-59825952D01*
X147560020Y-59968809D01*
X147512401Y-60159285D01*
X147464782Y-60254523D01*
X147369544Y-60349761D01*
X147226687Y-60397380D01*
X146988591Y-60397380D01*
X148131448Y-59825952D02*
X148036210Y-59778333D01*
X147988591Y-59730714D01*
X147940972Y-59635476D01*
X147940972Y-59587857D01*
X147988591Y-59492619D01*
X148036210Y-59445000D01*
X148131448Y-59397380D01*
X148321925Y-59397380D01*
X148417163Y-59445000D01*
X148464782Y-59492619D01*
X148512401Y-59587857D01*
X148512401Y-59635476D01*
X148464782Y-59730714D01*
X148417163Y-59778333D01*
X148321925Y-59825952D01*
X148131448Y-59825952D01*
X148036210Y-59873571D01*
X147988591Y-59921190D01*
X147940972Y-60016428D01*
X147940972Y-60206904D01*
X147988591Y-60302142D01*
X148036210Y-60349761D01*
X148131448Y-60397380D01*
X148321925Y-60397380D01*
X148417163Y-60349761D01*
X148464782Y-60302142D01*
X148512401Y-60206904D01*
X148512401Y-60016428D01*
X148464782Y-59921190D01*
X148417163Y-59873571D01*
X148321925Y-59825952D01*
X136548904Y-60397380D02*
X136548904Y-59397380D01*
X136787000Y-59397380D01*
X136929857Y-59445000D01*
X137025095Y-59540238D01*
X137072714Y-59635476D01*
X137120333Y-59825952D01*
X137120333Y-59968809D01*
X137072714Y-60159285D01*
X137025095Y-60254523D01*
X136929857Y-60349761D01*
X136787000Y-60397380D01*
X136548904Y-60397380D01*
X137596523Y-60397380D02*
X137787000Y-60397380D01*
X137882238Y-60349761D01*
X137929857Y-60302142D01*
X138025095Y-60159285D01*
X138072714Y-59968809D01*
X138072714Y-59587857D01*
X138025095Y-59492619D01*
X137977476Y-59445000D01*
X137882238Y-59397380D01*
X137691761Y-59397380D01*
X137596523Y-59445000D01*
X137548904Y-59492619D01*
X137501285Y-59587857D01*
X137501285Y-59825952D01*
X137548904Y-59921190D01*
X137596523Y-59968809D01*
X137691761Y-60016428D01*
X137882238Y-60016428D01*
X137977476Y-59968809D01*
X138025095Y-59921190D01*
X138072714Y-59825952D01*
X145335666Y-79811571D02*
X145002333Y-79811571D01*
X145002333Y-80335380D02*
X145002333Y-79335380D01*
X145478523Y-79335380D01*
X146383285Y-80335380D02*
X145811857Y-80335380D01*
X146097571Y-80335380D02*
X146097571Y-79335380D01*
X146002333Y-79478238D01*
X145907095Y-79573476D01*
X145811857Y-79621095D01*
X133557666Y-73121380D02*
X133557666Y-73835666D01*
X133510047Y-73978523D01*
X133414809Y-74073761D01*
X133271952Y-74121380D01*
X133176714Y-74121380D01*
X134557666Y-74121380D02*
X133986238Y-74121380D01*
X134271952Y-74121380D02*
X134271952Y-73121380D01*
X134176714Y-73264238D01*
X134081476Y-73359476D01*
X133986238Y-73407095D01*
X157019666Y-74001380D02*
X157019666Y-74715666D01*
X156972047Y-74858523D01*
X156876809Y-74953761D01*
X156733952Y-75001380D01*
X156638714Y-75001380D01*
X157448238Y-74096619D02*
X157495857Y-74049000D01*
X157591095Y-74001380D01*
X157829190Y-74001380D01*
X157924428Y-74049000D01*
X157972047Y-74096619D01*
X158019666Y-74191857D01*
X158019666Y-74287095D01*
X157972047Y-74429952D01*
X157400619Y-75001380D01*
X158019666Y-75001380D01*
X191436666Y-90638380D02*
X191436666Y-91352666D01*
X191389047Y-91495523D01*
X191293809Y-91590761D01*
X191150952Y-91638380D01*
X191055714Y-91638380D01*
X191817619Y-90638380D02*
X192436666Y-90638380D01*
X192103333Y-91019333D01*
X192246190Y-91019333D01*
X192341428Y-91066952D01*
X192389047Y-91114571D01*
X192436666Y-91209809D01*
X192436666Y-91447904D01*
X192389047Y-91543142D01*
X192341428Y-91590761D01*
X192246190Y-91638380D01*
X191960476Y-91638380D01*
X191865238Y-91590761D01*
X191817619Y-91543142D01*
X149891761Y-73983619D02*
X149796523Y-73936000D01*
X149701285Y-73840761D01*
X149558428Y-73697904D01*
X149463190Y-73650285D01*
X149367952Y-73650285D01*
X149415571Y-73888380D02*
X149320333Y-73840761D01*
X149225095Y-73745523D01*
X149177476Y-73555047D01*
X149177476Y-73221714D01*
X149225095Y-73031238D01*
X149320333Y-72936000D01*
X149415571Y-72888380D01*
X149606047Y-72888380D01*
X149701285Y-72936000D01*
X149796523Y-73031238D01*
X149844142Y-73221714D01*
X149844142Y-73555047D01*
X149796523Y-73745523D01*
X149701285Y-73840761D01*
X149606047Y-73888380D01*
X149415571Y-73888380D01*
X150796523Y-73888380D02*
X150225095Y-73888380D01*
X150510809Y-73888380D02*
X150510809Y-72888380D01*
X150415571Y-73031238D01*
X150320333Y-73126476D01*
X150225095Y-73174095D01*
X143089333Y-94208380D02*
X142756000Y-93732190D01*
X142517904Y-94208380D02*
X142517904Y-93208380D01*
X142898857Y-93208380D01*
X142994095Y-93256000D01*
X143041714Y-93303619D01*
X143089333Y-93398857D01*
X143089333Y-93541714D01*
X143041714Y-93636952D01*
X142994095Y-93684571D01*
X142898857Y-93732190D01*
X142517904Y-93732190D01*
X144041714Y-94208380D02*
X143470285Y-94208380D01*
X143756000Y-94208380D02*
X143756000Y-93208380D01*
X143660761Y-93351238D01*
X143565523Y-93446476D01*
X143470285Y-93494095D01*
X145883333Y-94178380D02*
X145550000Y-93702190D01*
X145311904Y-94178380D02*
X145311904Y-93178380D01*
X145692857Y-93178380D01*
X145788095Y-93226000D01*
X145835714Y-93273619D01*
X145883333Y-93368857D01*
X145883333Y-93511714D01*
X145835714Y-93606952D01*
X145788095Y-93654571D01*
X145692857Y-93702190D01*
X145311904Y-93702190D01*
X146264285Y-93273619D02*
X146311904Y-93226000D01*
X146407142Y-93178380D01*
X146645238Y-93178380D01*
X146740476Y-93226000D01*
X146788095Y-93273619D01*
X146835714Y-93368857D01*
X146835714Y-93464095D01*
X146788095Y-93606952D01*
X146216666Y-94178380D01*
X146835714Y-94178380D01*
X145629333Y-75646380D02*
X145296000Y-75170190D01*
X145057904Y-75646380D02*
X145057904Y-74646380D01*
X145438857Y-74646380D01*
X145534095Y-74694000D01*
X145581714Y-74741619D01*
X145629333Y-74836857D01*
X145629333Y-74979714D01*
X145581714Y-75074952D01*
X145534095Y-75122571D01*
X145438857Y-75170190D01*
X145057904Y-75170190D01*
X145962666Y-74646380D02*
X146581714Y-74646380D01*
X146248380Y-75027333D01*
X146391238Y-75027333D01*
X146486476Y-75074952D01*
X146534095Y-75122571D01*
X146581714Y-75217809D01*
X146581714Y-75455904D01*
X146534095Y-75551142D01*
X146486476Y-75598761D01*
X146391238Y-75646380D01*
X146105523Y-75646380D01*
X146010285Y-75598761D01*
X145962666Y-75551142D01*
X145629333Y-77795380D02*
X145296000Y-77319190D01*
X145057904Y-77795380D02*
X145057904Y-76795380D01*
X145438857Y-76795380D01*
X145534095Y-76843000D01*
X145581714Y-76890619D01*
X145629333Y-76985857D01*
X145629333Y-77128714D01*
X145581714Y-77223952D01*
X145534095Y-77271571D01*
X145438857Y-77319190D01*
X145057904Y-77319190D01*
X146486476Y-77128714D02*
X146486476Y-77795380D01*
X146248380Y-76747761D02*
X146010285Y-77462047D01*
X146629333Y-77462047D01*
X144502333Y-86050380D02*
X144169000Y-85574190D01*
X143930904Y-86050380D02*
X143930904Y-85050380D01*
X144311857Y-85050380D01*
X144407095Y-85098000D01*
X144454714Y-85145619D01*
X144502333Y-85240857D01*
X144502333Y-85383714D01*
X144454714Y-85478952D01*
X144407095Y-85526571D01*
X144311857Y-85574190D01*
X143930904Y-85574190D01*
X145407095Y-85050380D02*
X144930904Y-85050380D01*
X144883285Y-85526571D01*
X144930904Y-85478952D01*
X145026142Y-85431333D01*
X145264238Y-85431333D01*
X145359476Y-85478952D01*
X145407095Y-85526571D01*
X145454714Y-85621809D01*
X145454714Y-85859904D01*
X145407095Y-85955142D01*
X145359476Y-86002761D01*
X145264238Y-86050380D01*
X145026142Y-86050380D01*
X144930904Y-86002761D01*
X144883285Y-85955142D01*
X168041333Y-71573380D02*
X167708000Y-71097190D01*
X167469904Y-71573380D02*
X167469904Y-70573380D01*
X167850857Y-70573380D01*
X167946095Y-70621000D01*
X167993714Y-70668619D01*
X168041333Y-70763857D01*
X168041333Y-70906714D01*
X167993714Y-71001952D01*
X167946095Y-71049571D01*
X167850857Y-71097190D01*
X167469904Y-71097190D01*
X168898476Y-70573380D02*
X168708000Y-70573380D01*
X168612761Y-70621000D01*
X168565142Y-70668619D01*
X168469904Y-70811476D01*
X168422285Y-71001952D01*
X168422285Y-71382904D01*
X168469904Y-71478142D01*
X168517523Y-71525761D01*
X168612761Y-71573380D01*
X168803238Y-71573380D01*
X168898476Y-71525761D01*
X168946095Y-71478142D01*
X168993714Y-71382904D01*
X168993714Y-71144809D01*
X168946095Y-71049571D01*
X168898476Y-71001952D01*
X168803238Y-70954333D01*
X168612761Y-70954333D01*
X168517523Y-71001952D01*
X168469904Y-71049571D01*
X168422285Y-71144809D01*
X214971333Y-87193380D02*
X214638000Y-86717190D01*
X214399904Y-87193380D02*
X214399904Y-86193380D01*
X214780857Y-86193380D01*
X214876095Y-86241000D01*
X214923714Y-86288619D01*
X214971333Y-86383857D01*
X214971333Y-86526714D01*
X214923714Y-86621952D01*
X214876095Y-86669571D01*
X214780857Y-86717190D01*
X214399904Y-86717190D01*
X215304666Y-86193380D02*
X215971333Y-86193380D01*
X215542761Y-87193380D01*
X212685333Y-87193380D02*
X212352000Y-86717190D01*
X212113904Y-87193380D02*
X212113904Y-86193380D01*
X212494857Y-86193380D01*
X212590095Y-86241000D01*
X212637714Y-86288619D01*
X212685333Y-86383857D01*
X212685333Y-86526714D01*
X212637714Y-86621952D01*
X212590095Y-86669571D01*
X212494857Y-86717190D01*
X212113904Y-86717190D01*
X213256761Y-86621952D02*
X213161523Y-86574333D01*
X213113904Y-86526714D01*
X213066285Y-86431476D01*
X213066285Y-86383857D01*
X213113904Y-86288619D01*
X213161523Y-86241000D01*
X213256761Y-86193380D01*
X213447238Y-86193380D01*
X213542476Y-86241000D01*
X213590095Y-86288619D01*
X213637714Y-86383857D01*
X213637714Y-86431476D01*
X213590095Y-86526714D01*
X213542476Y-86574333D01*
X213447238Y-86621952D01*
X213256761Y-86621952D01*
X213161523Y-86669571D01*
X213113904Y-86717190D01*
X213066285Y-86812428D01*
X213066285Y-87002904D01*
X213113904Y-87098142D01*
X213161523Y-87145761D01*
X213256761Y-87193380D01*
X213447238Y-87193380D01*
X213542476Y-87145761D01*
X213590095Y-87098142D01*
X213637714Y-87002904D01*
X213637714Y-86812428D01*
X213590095Y-86717190D01*
X213542476Y-86669571D01*
X213447238Y-86621952D01*
X204794380Y-71032666D02*
X204318190Y-71366000D01*
X204794380Y-71604095D02*
X203794380Y-71604095D01*
X203794380Y-71223142D01*
X203842000Y-71127904D01*
X203889619Y-71080285D01*
X203984857Y-71032666D01*
X204127714Y-71032666D01*
X204222952Y-71080285D01*
X204270571Y-71127904D01*
X204318190Y-71223142D01*
X204318190Y-71604095D01*
X204794380Y-70556476D02*
X204794380Y-70366000D01*
X204746761Y-70270761D01*
X204699142Y-70223142D01*
X204556285Y-70127904D01*
X204365809Y-70080285D01*
X203984857Y-70080285D01*
X203889619Y-70127904D01*
X203842000Y-70175523D01*
X203794380Y-70270761D01*
X203794380Y-70461238D01*
X203842000Y-70556476D01*
X203889619Y-70604095D01*
X203984857Y-70651714D01*
X204222952Y-70651714D01*
X204318190Y-70604095D01*
X204365809Y-70556476D01*
X204413428Y-70461238D01*
X204413428Y-70270761D01*
X204365809Y-70175523D01*
X204318190Y-70127904D01*
X204222952Y-70080285D01*
X201111380Y-71508857D02*
X200635190Y-71842190D01*
X201111380Y-72080285D02*
X200111380Y-72080285D01*
X200111380Y-71699333D01*
X200159000Y-71604095D01*
X200206619Y-71556476D01*
X200301857Y-71508857D01*
X200444714Y-71508857D01*
X200539952Y-71556476D01*
X200587571Y-71604095D01*
X200635190Y-71699333D01*
X200635190Y-72080285D01*
X201111380Y-70556476D02*
X201111380Y-71127904D01*
X201111380Y-70842190D02*
X200111380Y-70842190D01*
X200254238Y-70937428D01*
X200349476Y-71032666D01*
X200397095Y-71127904D01*
X200111380Y-69937428D02*
X200111380Y-69842190D01*
X200159000Y-69746952D01*
X200206619Y-69699333D01*
X200301857Y-69651714D01*
X200492333Y-69604095D01*
X200730428Y-69604095D01*
X200920904Y-69651714D01*
X201016142Y-69699333D01*
X201063761Y-69746952D01*
X201111380Y-69842190D01*
X201111380Y-69937428D01*
X201063761Y-70032666D01*
X201016142Y-70080285D01*
X200920904Y-70127904D01*
X200730428Y-70175523D01*
X200492333Y-70175523D01*
X200301857Y-70127904D01*
X200206619Y-70080285D01*
X200159000Y-70032666D01*
X200111380Y-69937428D01*
X197428380Y-71508857D02*
X196952190Y-71842190D01*
X197428380Y-72080285D02*
X196428380Y-72080285D01*
X196428380Y-71699333D01*
X196476000Y-71604095D01*
X196523619Y-71556476D01*
X196618857Y-71508857D01*
X196761714Y-71508857D01*
X196856952Y-71556476D01*
X196904571Y-71604095D01*
X196952190Y-71699333D01*
X196952190Y-72080285D01*
X197428380Y-70556476D02*
X197428380Y-71127904D01*
X197428380Y-70842190D02*
X196428380Y-70842190D01*
X196571238Y-70937428D01*
X196666476Y-71032666D01*
X196714095Y-71127904D01*
X197428380Y-69604095D02*
X197428380Y-70175523D01*
X197428380Y-69889809D02*
X196428380Y-69889809D01*
X196571238Y-69985047D01*
X196666476Y-70080285D01*
X196714095Y-70175523D01*
X193745380Y-71508857D02*
X193269190Y-71842190D01*
X193745380Y-72080285D02*
X192745380Y-72080285D01*
X192745380Y-71699333D01*
X192793000Y-71604095D01*
X192840619Y-71556476D01*
X192935857Y-71508857D01*
X193078714Y-71508857D01*
X193173952Y-71556476D01*
X193221571Y-71604095D01*
X193269190Y-71699333D01*
X193269190Y-72080285D01*
X193745380Y-70556476D02*
X193745380Y-71127904D01*
X193745380Y-70842190D02*
X192745380Y-70842190D01*
X192888238Y-70937428D01*
X192983476Y-71032666D01*
X193031095Y-71127904D01*
X192840619Y-70175523D02*
X192793000Y-70127904D01*
X192745380Y-70032666D01*
X192745380Y-69794571D01*
X192793000Y-69699333D01*
X192840619Y-69651714D01*
X192935857Y-69604095D01*
X193031095Y-69604095D01*
X193173952Y-69651714D01*
X193745380Y-70223142D01*
X193745380Y-69604095D01*
X190062380Y-71508857D02*
X189586190Y-71842190D01*
X190062380Y-72080285D02*
X189062380Y-72080285D01*
X189062380Y-71699333D01*
X189110000Y-71604095D01*
X189157619Y-71556476D01*
X189252857Y-71508857D01*
X189395714Y-71508857D01*
X189490952Y-71556476D01*
X189538571Y-71604095D01*
X189586190Y-71699333D01*
X189586190Y-72080285D01*
X190062380Y-70556476D02*
X190062380Y-71127904D01*
X190062380Y-70842190D02*
X189062380Y-70842190D01*
X189205238Y-70937428D01*
X189300476Y-71032666D01*
X189348095Y-71127904D01*
X189062380Y-70223142D02*
X189062380Y-69604095D01*
X189443333Y-69937428D01*
X189443333Y-69794571D01*
X189490952Y-69699333D01*
X189538571Y-69651714D01*
X189633809Y-69604095D01*
X189871904Y-69604095D01*
X189967142Y-69651714D01*
X190014761Y-69699333D01*
X190062380Y-69794571D01*
X190062380Y-70080285D01*
X190014761Y-70175523D01*
X189967142Y-70223142D01*
X186379380Y-71508857D02*
X185903190Y-71842190D01*
X186379380Y-72080285D02*
X185379380Y-72080285D01*
X185379380Y-71699333D01*
X185427000Y-71604095D01*
X185474619Y-71556476D01*
X185569857Y-71508857D01*
X185712714Y-71508857D01*
X185807952Y-71556476D01*
X185855571Y-71604095D01*
X185903190Y-71699333D01*
X185903190Y-72080285D01*
X186379380Y-70556476D02*
X186379380Y-71127904D01*
X186379380Y-70842190D02*
X185379380Y-70842190D01*
X185522238Y-70937428D01*
X185617476Y-71032666D01*
X185665095Y-71127904D01*
X185712714Y-69699333D02*
X186379380Y-69699333D01*
X185331761Y-69937428D02*
X186046047Y-70175523D01*
X186046047Y-69556476D01*
X182696380Y-71508857D02*
X182220190Y-71842190D01*
X182696380Y-72080285D02*
X181696380Y-72080285D01*
X181696380Y-71699333D01*
X181744000Y-71604095D01*
X181791619Y-71556476D01*
X181886857Y-71508857D01*
X182029714Y-71508857D01*
X182124952Y-71556476D01*
X182172571Y-71604095D01*
X182220190Y-71699333D01*
X182220190Y-72080285D01*
X182696380Y-70556476D02*
X182696380Y-71127904D01*
X182696380Y-70842190D02*
X181696380Y-70842190D01*
X181839238Y-70937428D01*
X181934476Y-71032666D01*
X181982095Y-71127904D01*
X181696380Y-69651714D02*
X181696380Y-70127904D01*
X182172571Y-70175523D01*
X182124952Y-70127904D01*
X182077333Y-70032666D01*
X182077333Y-69794571D01*
X182124952Y-69699333D01*
X182172571Y-69651714D01*
X182267809Y-69604095D01*
X182505904Y-69604095D01*
X182601142Y-69651714D01*
X182648761Y-69699333D01*
X182696380Y-69794571D01*
X182696380Y-70032666D01*
X182648761Y-70127904D01*
X182601142Y-70175523D01*
X179013380Y-71508857D02*
X178537190Y-71842190D01*
X179013380Y-72080285D02*
X178013380Y-72080285D01*
X178013380Y-71699333D01*
X178061000Y-71604095D01*
X178108619Y-71556476D01*
X178203857Y-71508857D01*
X178346714Y-71508857D01*
X178441952Y-71556476D01*
X178489571Y-71604095D01*
X178537190Y-71699333D01*
X178537190Y-72080285D01*
X179013380Y-70556476D02*
X179013380Y-71127904D01*
X179013380Y-70842190D02*
X178013380Y-70842190D01*
X178156238Y-70937428D01*
X178251476Y-71032666D01*
X178299095Y-71127904D01*
X178013380Y-69699333D02*
X178013380Y-69889809D01*
X178061000Y-69985047D01*
X178108619Y-70032666D01*
X178251476Y-70127904D01*
X178441952Y-70175523D01*
X178822904Y-70175523D01*
X178918142Y-70127904D01*
X178965761Y-70080285D01*
X179013380Y-69985047D01*
X179013380Y-69794571D01*
X178965761Y-69699333D01*
X178918142Y-69651714D01*
X178822904Y-69604095D01*
X178584809Y-69604095D01*
X178489571Y-69651714D01*
X178441952Y-69699333D01*
X178394333Y-69794571D01*
X178394333Y-69985047D01*
X178441952Y-70080285D01*
X178489571Y-70127904D01*
X178584809Y-70175523D01*
X175330380Y-71508857D02*
X174854190Y-71842190D01*
X175330380Y-72080285D02*
X174330380Y-72080285D01*
X174330380Y-71699333D01*
X174378000Y-71604095D01*
X174425619Y-71556476D01*
X174520857Y-71508857D01*
X174663714Y-71508857D01*
X174758952Y-71556476D01*
X174806571Y-71604095D01*
X174854190Y-71699333D01*
X174854190Y-72080285D01*
X175330380Y-70556476D02*
X175330380Y-71127904D01*
X175330380Y-70842190D02*
X174330380Y-70842190D01*
X174473238Y-70937428D01*
X174568476Y-71032666D01*
X174616095Y-71127904D01*
X174330380Y-70223142D02*
X174330380Y-69556476D01*
X175330380Y-69985047D01*
X152773142Y-74006880D02*
X152439809Y-73530690D01*
X152201714Y-74006880D02*
X152201714Y-73006880D01*
X152582666Y-73006880D01*
X152677904Y-73054500D01*
X152725523Y-73102119D01*
X152773142Y-73197357D01*
X152773142Y-73340214D01*
X152725523Y-73435452D01*
X152677904Y-73483071D01*
X152582666Y-73530690D01*
X152201714Y-73530690D01*
X153725523Y-74006880D02*
X153154095Y-74006880D01*
X153439809Y-74006880D02*
X153439809Y-73006880D01*
X153344571Y-73149738D01*
X153249333Y-73244976D01*
X153154095Y-73292595D01*
X154296952Y-73435452D02*
X154201714Y-73387833D01*
X154154095Y-73340214D01*
X154106476Y-73244976D01*
X154106476Y-73197357D01*
X154154095Y-73102119D01*
X154201714Y-73054500D01*
X154296952Y-73006880D01*
X154487428Y-73006880D01*
X154582666Y-73054500D01*
X154630285Y-73102119D01*
X154677904Y-73197357D01*
X154677904Y-73244976D01*
X154630285Y-73340214D01*
X154582666Y-73387833D01*
X154487428Y-73435452D01*
X154296952Y-73435452D01*
X154201714Y-73483071D01*
X154154095Y-73530690D01*
X154106476Y-73625928D01*
X154106476Y-73816404D01*
X154154095Y-73911642D01*
X154201714Y-73959261D01*
X154296952Y-74006880D01*
X154487428Y-74006880D01*
X154582666Y-73959261D01*
X154630285Y-73911642D01*
X154677904Y-73816404D01*
X154677904Y-73625928D01*
X154630285Y-73530690D01*
X154582666Y-73483071D01*
X154487428Y-73435452D01*
X134504666Y-86796761D02*
X134647523Y-86844380D01*
X134885619Y-86844380D01*
X134980857Y-86796761D01*
X135028476Y-86749142D01*
X135076095Y-86653904D01*
X135076095Y-86558666D01*
X135028476Y-86463428D01*
X134980857Y-86415809D01*
X134885619Y-86368190D01*
X134695142Y-86320571D01*
X134599904Y-86272952D01*
X134552285Y-86225333D01*
X134504666Y-86130095D01*
X134504666Y-86034857D01*
X134552285Y-85939619D01*
X134599904Y-85892000D01*
X134695142Y-85844380D01*
X134933238Y-85844380D01*
X135076095Y-85892000D01*
X135409428Y-85844380D02*
X135647523Y-86844380D01*
X135838000Y-86130095D01*
X136028476Y-86844380D01*
X136266571Y-85844380D01*
X137171333Y-86844380D02*
X136599904Y-86844380D01*
X136885619Y-86844380D02*
X136885619Y-85844380D01*
X136790380Y-85987238D01*
X136695142Y-86082476D01*
X136599904Y-86130095D01*
X204227666Y-86796761D02*
X204370523Y-86844380D01*
X204608619Y-86844380D01*
X204703857Y-86796761D01*
X204751476Y-86749142D01*
X204799095Y-86653904D01*
X204799095Y-86558666D01*
X204751476Y-86463428D01*
X204703857Y-86415809D01*
X204608619Y-86368190D01*
X204418142Y-86320571D01*
X204322904Y-86272952D01*
X204275285Y-86225333D01*
X204227666Y-86130095D01*
X204227666Y-86034857D01*
X204275285Y-85939619D01*
X204322904Y-85892000D01*
X204418142Y-85844380D01*
X204656238Y-85844380D01*
X204799095Y-85892000D01*
X205132428Y-85844380D02*
X205370523Y-86844380D01*
X205561000Y-86130095D01*
X205751476Y-86844380D01*
X205989571Y-85844380D01*
X206322904Y-85939619D02*
X206370523Y-85892000D01*
X206465761Y-85844380D01*
X206703857Y-85844380D01*
X206799095Y-85892000D01*
X206846714Y-85939619D01*
X206894333Y-86034857D01*
X206894333Y-86130095D01*
X206846714Y-86272952D01*
X206275285Y-86844380D01*
X206894333Y-86844380D01*
X220991666Y-86796761D02*
X221134523Y-86844380D01*
X221372619Y-86844380D01*
X221467857Y-86796761D01*
X221515476Y-86749142D01*
X221563095Y-86653904D01*
X221563095Y-86558666D01*
X221515476Y-86463428D01*
X221467857Y-86415809D01*
X221372619Y-86368190D01*
X221182142Y-86320571D01*
X221086904Y-86272952D01*
X221039285Y-86225333D01*
X220991666Y-86130095D01*
X220991666Y-86034857D01*
X221039285Y-85939619D01*
X221086904Y-85892000D01*
X221182142Y-85844380D01*
X221420238Y-85844380D01*
X221563095Y-85892000D01*
X221896428Y-85844380D02*
X222134523Y-86844380D01*
X222325000Y-86130095D01*
X222515476Y-86844380D01*
X222753571Y-85844380D01*
X223039285Y-85844380D02*
X223658333Y-85844380D01*
X223325000Y-86225333D01*
X223467857Y-86225333D01*
X223563095Y-86272952D01*
X223610714Y-86320571D01*
X223658333Y-86415809D01*
X223658333Y-86653904D01*
X223610714Y-86749142D01*
X223563095Y-86796761D01*
X223467857Y-86844380D01*
X223182142Y-86844380D01*
X223086904Y-86796761D01*
X223039285Y-86749142D01*
X185705809Y-86209190D02*
X185705809Y-86685380D01*
X185372476Y-85685380D02*
X185705809Y-86209190D01*
X186039142Y-85685380D01*
X186896285Y-86685380D02*
X186324857Y-86685380D01*
X186610571Y-86685380D02*
X186610571Y-85685380D01*
X186515333Y-85828238D01*
X186420095Y-85923476D01*
X186324857Y-85971095D01*
M02*
