G04 #@! TF.GenerationSoftware,KiCad,Pcbnew,(5.1.2)-2*
G04 #@! TF.CreationDate,2020-08-30T00:43:24-04:00*
G04 #@! TF.ProjectId,Scanner1,5363616e-6e65-4723-912e-6b696361645f,rev?*
G04 #@! TF.SameCoordinates,Original*
G04 #@! TF.FileFunction,Soldermask,Top*
G04 #@! TF.FilePolarity,Negative*
%FSLAX46Y46*%
G04 Gerber Fmt 4.6, Leading zero omitted, Abs format (unit mm)*
G04 Created by KiCad (PCBNEW (5.1.2)-2) date 2020-08-30 00:43:24*
%MOMM*%
%LPD*%
G04 APERTURE LIST*
%ADD10C,0.100000*%
G04 APERTURE END LIST*
D10*
G36*
X183752442Y-92831518D02*
G01*
X183818627Y-92838037D01*
X183988466Y-92889557D01*
X184144991Y-92973222D01*
X184172154Y-92995514D01*
X184282186Y-93085814D01*
X184365448Y-93187271D01*
X184394778Y-93223009D01*
X184478443Y-93379534D01*
X184529963Y-93549373D01*
X184547359Y-93726000D01*
X184529963Y-93902627D01*
X184478443Y-94072466D01*
X184394778Y-94228991D01*
X184365448Y-94264729D01*
X184282186Y-94366186D01*
X184180729Y-94449448D01*
X184144991Y-94478778D01*
X183988466Y-94562443D01*
X183818627Y-94613963D01*
X183752443Y-94620481D01*
X183686260Y-94627000D01*
X183597740Y-94627000D01*
X183531557Y-94620481D01*
X183465373Y-94613963D01*
X183295534Y-94562443D01*
X183139009Y-94478778D01*
X183103271Y-94449448D01*
X183001814Y-94366186D01*
X182918552Y-94264729D01*
X182889222Y-94228991D01*
X182805557Y-94072466D01*
X182754037Y-93902627D01*
X182736641Y-93726000D01*
X182754037Y-93549373D01*
X182805557Y-93379534D01*
X182889222Y-93223009D01*
X182918552Y-93187271D01*
X183001814Y-93085814D01*
X183111846Y-92995514D01*
X183139009Y-92973222D01*
X183295534Y-92889557D01*
X183465373Y-92838037D01*
X183531558Y-92831518D01*
X183597740Y-92825000D01*
X183686260Y-92825000D01*
X183752442Y-92831518D01*
X183752442Y-92831518D01*
G37*
G36*
X186292442Y-92831518D02*
G01*
X186358627Y-92838037D01*
X186528466Y-92889557D01*
X186684991Y-92973222D01*
X186712154Y-92995514D01*
X186822186Y-93085814D01*
X186905448Y-93187271D01*
X186934778Y-93223009D01*
X187018443Y-93379534D01*
X187069963Y-93549373D01*
X187087359Y-93726000D01*
X187069963Y-93902627D01*
X187018443Y-94072466D01*
X186934778Y-94228991D01*
X186905448Y-94264729D01*
X186822186Y-94366186D01*
X186720729Y-94449448D01*
X186684991Y-94478778D01*
X186528466Y-94562443D01*
X186358627Y-94613963D01*
X186292443Y-94620481D01*
X186226260Y-94627000D01*
X186137740Y-94627000D01*
X186071557Y-94620481D01*
X186005373Y-94613963D01*
X185835534Y-94562443D01*
X185679009Y-94478778D01*
X185643271Y-94449448D01*
X185541814Y-94366186D01*
X185458552Y-94264729D01*
X185429222Y-94228991D01*
X185345557Y-94072466D01*
X185294037Y-93902627D01*
X185276641Y-93726000D01*
X185294037Y-93549373D01*
X185345557Y-93379534D01*
X185429222Y-93223009D01*
X185458552Y-93187271D01*
X185541814Y-93085814D01*
X185651846Y-92995514D01*
X185679009Y-92973222D01*
X185835534Y-92889557D01*
X186005373Y-92838037D01*
X186071558Y-92831518D01*
X186137740Y-92825000D01*
X186226260Y-92825000D01*
X186292442Y-92831518D01*
X186292442Y-92831518D01*
G37*
G36*
X188832442Y-92831518D02*
G01*
X188898627Y-92838037D01*
X189068466Y-92889557D01*
X189224991Y-92973222D01*
X189252154Y-92995514D01*
X189362186Y-93085814D01*
X189445448Y-93187271D01*
X189474778Y-93223009D01*
X189558443Y-93379534D01*
X189609963Y-93549373D01*
X189627359Y-93726000D01*
X189609963Y-93902627D01*
X189558443Y-94072466D01*
X189474778Y-94228991D01*
X189445448Y-94264729D01*
X189362186Y-94366186D01*
X189260729Y-94449448D01*
X189224991Y-94478778D01*
X189068466Y-94562443D01*
X188898627Y-94613963D01*
X188832443Y-94620481D01*
X188766260Y-94627000D01*
X188677740Y-94627000D01*
X188611557Y-94620481D01*
X188545373Y-94613963D01*
X188375534Y-94562443D01*
X188219009Y-94478778D01*
X188183271Y-94449448D01*
X188081814Y-94366186D01*
X187998552Y-94264729D01*
X187969222Y-94228991D01*
X187885557Y-94072466D01*
X187834037Y-93902627D01*
X187816641Y-93726000D01*
X187834037Y-93549373D01*
X187885557Y-93379534D01*
X187969222Y-93223009D01*
X187998552Y-93187271D01*
X188081814Y-93085814D01*
X188191846Y-92995514D01*
X188219009Y-92973222D01*
X188375534Y-92889557D01*
X188545373Y-92838037D01*
X188611558Y-92831518D01*
X188677740Y-92825000D01*
X188766260Y-92825000D01*
X188832442Y-92831518D01*
X188832442Y-92831518D01*
G37*
G36*
X209117564Y-91881389D02*
G01*
X209308833Y-91960615D01*
X209308835Y-91960616D01*
X209440737Y-92048750D01*
X209480973Y-92075635D01*
X209627365Y-92222027D01*
X209742385Y-92394167D01*
X209821611Y-92585436D01*
X209862000Y-92788484D01*
X209862000Y-92995516D01*
X209821611Y-93198564D01*
X209746652Y-93379532D01*
X209742384Y-93389835D01*
X209627365Y-93561973D01*
X209480973Y-93708365D01*
X209308835Y-93823384D01*
X209308834Y-93823385D01*
X209308833Y-93823385D01*
X209117564Y-93902611D01*
X208914516Y-93943000D01*
X208707484Y-93943000D01*
X208504436Y-93902611D01*
X208313167Y-93823385D01*
X208313166Y-93823385D01*
X208313165Y-93823384D01*
X208141027Y-93708365D01*
X207994635Y-93561973D01*
X207879616Y-93389835D01*
X207875348Y-93379532D01*
X207800389Y-93198564D01*
X207760000Y-92995516D01*
X207760000Y-92788484D01*
X207800389Y-92585436D01*
X207879615Y-92394167D01*
X207994635Y-92222027D01*
X208141027Y-92075635D01*
X208181263Y-92048750D01*
X208313165Y-91960616D01*
X208313167Y-91960615D01*
X208504436Y-91881389D01*
X208707484Y-91841000D01*
X208914516Y-91841000D01*
X209117564Y-91881389D01*
X209117564Y-91881389D01*
G37*
G36*
X225881564Y-91881389D02*
G01*
X226072833Y-91960615D01*
X226072835Y-91960616D01*
X226204737Y-92048750D01*
X226244973Y-92075635D01*
X226391365Y-92222027D01*
X226506385Y-92394167D01*
X226585611Y-92585436D01*
X226626000Y-92788484D01*
X226626000Y-92995516D01*
X226585611Y-93198564D01*
X226510652Y-93379532D01*
X226506384Y-93389835D01*
X226391365Y-93561973D01*
X226244973Y-93708365D01*
X226072835Y-93823384D01*
X226072834Y-93823385D01*
X226072833Y-93823385D01*
X225881564Y-93902611D01*
X225678516Y-93943000D01*
X225471484Y-93943000D01*
X225268436Y-93902611D01*
X225077167Y-93823385D01*
X225077166Y-93823385D01*
X225077165Y-93823384D01*
X224905027Y-93708365D01*
X224758635Y-93561973D01*
X224643616Y-93389835D01*
X224639348Y-93379532D01*
X224564389Y-93198564D01*
X224524000Y-92995516D01*
X224524000Y-92788484D01*
X224564389Y-92585436D01*
X224643615Y-92394167D01*
X224758635Y-92222027D01*
X224905027Y-92075635D01*
X224945263Y-92048750D01*
X225077165Y-91960616D01*
X225077167Y-91960615D01*
X225268436Y-91881389D01*
X225471484Y-91841000D01*
X225678516Y-91841000D01*
X225881564Y-91881389D01*
X225881564Y-91881389D01*
G37*
G36*
X219381564Y-91881389D02*
G01*
X219572833Y-91960615D01*
X219572835Y-91960616D01*
X219704737Y-92048750D01*
X219744973Y-92075635D01*
X219891365Y-92222027D01*
X220006385Y-92394167D01*
X220085611Y-92585436D01*
X220126000Y-92788484D01*
X220126000Y-92995516D01*
X220085611Y-93198564D01*
X220010652Y-93379532D01*
X220006384Y-93389835D01*
X219891365Y-93561973D01*
X219744973Y-93708365D01*
X219572835Y-93823384D01*
X219572834Y-93823385D01*
X219572833Y-93823385D01*
X219381564Y-93902611D01*
X219178516Y-93943000D01*
X218971484Y-93943000D01*
X218768436Y-93902611D01*
X218577167Y-93823385D01*
X218577166Y-93823385D01*
X218577165Y-93823384D01*
X218405027Y-93708365D01*
X218258635Y-93561973D01*
X218143616Y-93389835D01*
X218139348Y-93379532D01*
X218064389Y-93198564D01*
X218024000Y-92995516D01*
X218024000Y-92788484D01*
X218064389Y-92585436D01*
X218143615Y-92394167D01*
X218258635Y-92222027D01*
X218405027Y-92075635D01*
X218445263Y-92048750D01*
X218577165Y-91960616D01*
X218577167Y-91960615D01*
X218768436Y-91881389D01*
X218971484Y-91841000D01*
X219178516Y-91841000D01*
X219381564Y-91881389D01*
X219381564Y-91881389D01*
G37*
G36*
X139394564Y-91881389D02*
G01*
X139585833Y-91960615D01*
X139585835Y-91960616D01*
X139717737Y-92048750D01*
X139757973Y-92075635D01*
X139904365Y-92222027D01*
X140019385Y-92394167D01*
X140098611Y-92585436D01*
X140139000Y-92788484D01*
X140139000Y-92995516D01*
X140098611Y-93198564D01*
X140023652Y-93379532D01*
X140019384Y-93389835D01*
X139904365Y-93561973D01*
X139757973Y-93708365D01*
X139585835Y-93823384D01*
X139585834Y-93823385D01*
X139585833Y-93823385D01*
X139394564Y-93902611D01*
X139191516Y-93943000D01*
X138984484Y-93943000D01*
X138781436Y-93902611D01*
X138590167Y-93823385D01*
X138590166Y-93823385D01*
X138590165Y-93823384D01*
X138418027Y-93708365D01*
X138271635Y-93561973D01*
X138156616Y-93389835D01*
X138152348Y-93379532D01*
X138077389Y-93198564D01*
X138037000Y-92995516D01*
X138037000Y-92788484D01*
X138077389Y-92585436D01*
X138156615Y-92394167D01*
X138271635Y-92222027D01*
X138418027Y-92075635D01*
X138458263Y-92048750D01*
X138590165Y-91960616D01*
X138590167Y-91960615D01*
X138781436Y-91881389D01*
X138984484Y-91841000D01*
X139191516Y-91841000D01*
X139394564Y-91881389D01*
X139394564Y-91881389D01*
G37*
G36*
X132894564Y-91881389D02*
G01*
X133085833Y-91960615D01*
X133085835Y-91960616D01*
X133217737Y-92048750D01*
X133257973Y-92075635D01*
X133404365Y-92222027D01*
X133519385Y-92394167D01*
X133598611Y-92585436D01*
X133639000Y-92788484D01*
X133639000Y-92995516D01*
X133598611Y-93198564D01*
X133523652Y-93379532D01*
X133519384Y-93389835D01*
X133404365Y-93561973D01*
X133257973Y-93708365D01*
X133085835Y-93823384D01*
X133085834Y-93823385D01*
X133085833Y-93823385D01*
X132894564Y-93902611D01*
X132691516Y-93943000D01*
X132484484Y-93943000D01*
X132281436Y-93902611D01*
X132090167Y-93823385D01*
X132090166Y-93823385D01*
X132090165Y-93823384D01*
X131918027Y-93708365D01*
X131771635Y-93561973D01*
X131656616Y-93389835D01*
X131652348Y-93379532D01*
X131577389Y-93198564D01*
X131537000Y-92995516D01*
X131537000Y-92788484D01*
X131577389Y-92585436D01*
X131656615Y-92394167D01*
X131771635Y-92222027D01*
X131918027Y-92075635D01*
X131958263Y-92048750D01*
X132090165Y-91960616D01*
X132090167Y-91960615D01*
X132281436Y-91881389D01*
X132484484Y-91841000D01*
X132691516Y-91841000D01*
X132894564Y-91881389D01*
X132894564Y-91881389D01*
G37*
G36*
X202617564Y-91881389D02*
G01*
X202808833Y-91960615D01*
X202808835Y-91960616D01*
X202940737Y-92048750D01*
X202980973Y-92075635D01*
X203127365Y-92222027D01*
X203242385Y-92394167D01*
X203321611Y-92585436D01*
X203362000Y-92788484D01*
X203362000Y-92995516D01*
X203321611Y-93198564D01*
X203246652Y-93379532D01*
X203242384Y-93389835D01*
X203127365Y-93561973D01*
X202980973Y-93708365D01*
X202808835Y-93823384D01*
X202808834Y-93823385D01*
X202808833Y-93823385D01*
X202617564Y-93902611D01*
X202414516Y-93943000D01*
X202207484Y-93943000D01*
X202004436Y-93902611D01*
X201813167Y-93823385D01*
X201813166Y-93823385D01*
X201813165Y-93823384D01*
X201641027Y-93708365D01*
X201494635Y-93561973D01*
X201379616Y-93389835D01*
X201375348Y-93379532D01*
X201300389Y-93198564D01*
X201260000Y-92995516D01*
X201260000Y-92788484D01*
X201300389Y-92585436D01*
X201379615Y-92394167D01*
X201494635Y-92222027D01*
X201641027Y-92075635D01*
X201681263Y-92048750D01*
X201813165Y-91960616D01*
X201813167Y-91960615D01*
X202004436Y-91881389D01*
X202207484Y-91841000D01*
X202414516Y-91841000D01*
X202617564Y-91881389D01*
X202617564Y-91881389D01*
G37*
G36*
X143840468Y-91541065D02*
G01*
X143879138Y-91552796D01*
X143914777Y-91571846D01*
X143946017Y-91597483D01*
X143971654Y-91628723D01*
X143990704Y-91664362D01*
X144002435Y-91703032D01*
X144007000Y-91749388D01*
X144007000Y-92400612D01*
X144002435Y-92446968D01*
X143990704Y-92485638D01*
X143971654Y-92521277D01*
X143946017Y-92552517D01*
X143914777Y-92578154D01*
X143879138Y-92597204D01*
X143840468Y-92608935D01*
X143794112Y-92613500D01*
X142717888Y-92613500D01*
X142671532Y-92608935D01*
X142632862Y-92597204D01*
X142597223Y-92578154D01*
X142565983Y-92552517D01*
X142540346Y-92521277D01*
X142521296Y-92485638D01*
X142509565Y-92446968D01*
X142505000Y-92400612D01*
X142505000Y-91749388D01*
X142509565Y-91703032D01*
X142521296Y-91664362D01*
X142540346Y-91628723D01*
X142565983Y-91597483D01*
X142597223Y-91571846D01*
X142632862Y-91552796D01*
X142671532Y-91541065D01*
X142717888Y-91536500D01*
X143794112Y-91536500D01*
X143840468Y-91541065D01*
X143840468Y-91541065D01*
G37*
G36*
X146634468Y-91541065D02*
G01*
X146673138Y-91552796D01*
X146708777Y-91571846D01*
X146740017Y-91597483D01*
X146765654Y-91628723D01*
X146784704Y-91664362D01*
X146796435Y-91703032D01*
X146801000Y-91749388D01*
X146801000Y-92400612D01*
X146796435Y-92446968D01*
X146784704Y-92485638D01*
X146765654Y-92521277D01*
X146740017Y-92552517D01*
X146708777Y-92578154D01*
X146673138Y-92597204D01*
X146634468Y-92608935D01*
X146588112Y-92613500D01*
X145511888Y-92613500D01*
X145465532Y-92608935D01*
X145426862Y-92597204D01*
X145391223Y-92578154D01*
X145359983Y-92552517D01*
X145334346Y-92521277D01*
X145315296Y-92485638D01*
X145303565Y-92446968D01*
X145299000Y-92400612D01*
X145299000Y-91749388D01*
X145303565Y-91703032D01*
X145315296Y-91664362D01*
X145334346Y-91628723D01*
X145359983Y-91597483D01*
X145391223Y-91571846D01*
X145426862Y-91552796D01*
X145465532Y-91541065D01*
X145511888Y-91536500D01*
X146588112Y-91536500D01*
X146634468Y-91541065D01*
X146634468Y-91541065D01*
G37*
G36*
X173599968Y-90820565D02*
G01*
X173638638Y-90832296D01*
X173674277Y-90851346D01*
X173705517Y-90876983D01*
X173731154Y-90908223D01*
X173750204Y-90943862D01*
X173761935Y-90982532D01*
X173766500Y-91028888D01*
X173766500Y-92105112D01*
X173761935Y-92151468D01*
X173750204Y-92190138D01*
X173731154Y-92225777D01*
X173705517Y-92257017D01*
X173674277Y-92282654D01*
X173638638Y-92301704D01*
X173599968Y-92313435D01*
X173553612Y-92318000D01*
X172902388Y-92318000D01*
X172856032Y-92313435D01*
X172817362Y-92301704D01*
X172781723Y-92282654D01*
X172750483Y-92257017D01*
X172724846Y-92225777D01*
X172705796Y-92190138D01*
X172694065Y-92151468D01*
X172689500Y-92105112D01*
X172689500Y-91028888D01*
X172694065Y-90982532D01*
X172705796Y-90943862D01*
X172724846Y-90908223D01*
X172750483Y-90876983D01*
X172781723Y-90851346D01*
X172817362Y-90832296D01*
X172856032Y-90820565D01*
X172902388Y-90816000D01*
X173553612Y-90816000D01*
X173599968Y-90820565D01*
X173599968Y-90820565D01*
G37*
G36*
X171724968Y-90820565D02*
G01*
X171763638Y-90832296D01*
X171799277Y-90851346D01*
X171830517Y-90876983D01*
X171856154Y-90908223D01*
X171875204Y-90943862D01*
X171886935Y-90982532D01*
X171891500Y-91028888D01*
X171891500Y-92105112D01*
X171886935Y-92151468D01*
X171875204Y-92190138D01*
X171856154Y-92225777D01*
X171830517Y-92257017D01*
X171799277Y-92282654D01*
X171763638Y-92301704D01*
X171724968Y-92313435D01*
X171678612Y-92318000D01*
X171027388Y-92318000D01*
X170981032Y-92313435D01*
X170942362Y-92301704D01*
X170906723Y-92282654D01*
X170875483Y-92257017D01*
X170849846Y-92225777D01*
X170830796Y-92190138D01*
X170819065Y-92151468D01*
X170814500Y-92105112D01*
X170814500Y-91028888D01*
X170819065Y-90982532D01*
X170830796Y-90943862D01*
X170849846Y-90908223D01*
X170875483Y-90876983D01*
X170906723Y-90851346D01*
X170942362Y-90832296D01*
X170981032Y-90820565D01*
X171027388Y-90816000D01*
X171678612Y-90816000D01*
X171724968Y-90820565D01*
X171724968Y-90820565D01*
G37*
G36*
X183752443Y-90291519D02*
G01*
X183818627Y-90298037D01*
X183988466Y-90349557D01*
X184144991Y-90433222D01*
X184180729Y-90462552D01*
X184282186Y-90545814D01*
X184350567Y-90629138D01*
X184394778Y-90683009D01*
X184478443Y-90839534D01*
X184529963Y-91009373D01*
X184547359Y-91186000D01*
X184529963Y-91362627D01*
X184478443Y-91532466D01*
X184394778Y-91688991D01*
X184365448Y-91724729D01*
X184282186Y-91826186D01*
X184180729Y-91909448D01*
X184144991Y-91938778D01*
X183988466Y-92022443D01*
X183818627Y-92073963D01*
X183752443Y-92080481D01*
X183686260Y-92087000D01*
X183597740Y-92087000D01*
X183531557Y-92080481D01*
X183465373Y-92073963D01*
X183295534Y-92022443D01*
X183139009Y-91938778D01*
X183103271Y-91909448D01*
X183001814Y-91826186D01*
X182918552Y-91724729D01*
X182889222Y-91688991D01*
X182805557Y-91532466D01*
X182754037Y-91362627D01*
X182736641Y-91186000D01*
X182754037Y-91009373D01*
X182805557Y-90839534D01*
X182889222Y-90683009D01*
X182933433Y-90629138D01*
X183001814Y-90545814D01*
X183103271Y-90462552D01*
X183139009Y-90433222D01*
X183295534Y-90349557D01*
X183465373Y-90298037D01*
X183531558Y-90291518D01*
X183597740Y-90285000D01*
X183686260Y-90285000D01*
X183752443Y-90291519D01*
X183752443Y-90291519D01*
G37*
G36*
X186292443Y-90291519D02*
G01*
X186358627Y-90298037D01*
X186528466Y-90349557D01*
X186684991Y-90433222D01*
X186720729Y-90462552D01*
X186822186Y-90545814D01*
X186890567Y-90629138D01*
X186934778Y-90683009D01*
X187018443Y-90839534D01*
X187069963Y-91009373D01*
X187087359Y-91186000D01*
X187069963Y-91362627D01*
X187018443Y-91532466D01*
X186934778Y-91688991D01*
X186905448Y-91724729D01*
X186822186Y-91826186D01*
X186720729Y-91909448D01*
X186684991Y-91938778D01*
X186528466Y-92022443D01*
X186358627Y-92073963D01*
X186292443Y-92080481D01*
X186226260Y-92087000D01*
X186137740Y-92087000D01*
X186071557Y-92080481D01*
X186005373Y-92073963D01*
X185835534Y-92022443D01*
X185679009Y-91938778D01*
X185643271Y-91909448D01*
X185541814Y-91826186D01*
X185458552Y-91724729D01*
X185429222Y-91688991D01*
X185345557Y-91532466D01*
X185294037Y-91362627D01*
X185276641Y-91186000D01*
X185294037Y-91009373D01*
X185345557Y-90839534D01*
X185429222Y-90683009D01*
X185473433Y-90629138D01*
X185541814Y-90545814D01*
X185643271Y-90462552D01*
X185679009Y-90433222D01*
X185835534Y-90349557D01*
X186005373Y-90298037D01*
X186071558Y-90291518D01*
X186137740Y-90285000D01*
X186226260Y-90285000D01*
X186292443Y-90291519D01*
X186292443Y-90291519D01*
G37*
G36*
X189623000Y-92087000D02*
G01*
X187821000Y-92087000D01*
X187821000Y-90285000D01*
X189623000Y-90285000D01*
X189623000Y-92087000D01*
X189623000Y-92087000D01*
G37*
G36*
X215722468Y-89684565D02*
G01*
X215761138Y-89696296D01*
X215796777Y-89715346D01*
X215828017Y-89740983D01*
X215853654Y-89772223D01*
X215872704Y-89807862D01*
X215884435Y-89846532D01*
X215889000Y-89892888D01*
X215889000Y-90544112D01*
X215884435Y-90590468D01*
X215872704Y-90629138D01*
X215853654Y-90664777D01*
X215828017Y-90696017D01*
X215796777Y-90721654D01*
X215761138Y-90740704D01*
X215722468Y-90752435D01*
X215676112Y-90757000D01*
X214599888Y-90757000D01*
X214553532Y-90752435D01*
X214514862Y-90740704D01*
X214479223Y-90721654D01*
X214447983Y-90696017D01*
X214422346Y-90664777D01*
X214403296Y-90629138D01*
X214391565Y-90590468D01*
X214387000Y-90544112D01*
X214387000Y-89892888D01*
X214391565Y-89846532D01*
X214403296Y-89807862D01*
X214422346Y-89772223D01*
X214447983Y-89740983D01*
X214479223Y-89715346D01*
X214514862Y-89696296D01*
X214553532Y-89684565D01*
X214599888Y-89680000D01*
X215676112Y-89680000D01*
X215722468Y-89684565D01*
X215722468Y-89684565D01*
G37*
G36*
X213436468Y-89684565D02*
G01*
X213475138Y-89696296D01*
X213510777Y-89715346D01*
X213542017Y-89740983D01*
X213567654Y-89772223D01*
X213586704Y-89807862D01*
X213598435Y-89846532D01*
X213603000Y-89892888D01*
X213603000Y-90544112D01*
X213598435Y-90590468D01*
X213586704Y-90629138D01*
X213567654Y-90664777D01*
X213542017Y-90696017D01*
X213510777Y-90721654D01*
X213475138Y-90740704D01*
X213436468Y-90752435D01*
X213390112Y-90757000D01*
X212313888Y-90757000D01*
X212267532Y-90752435D01*
X212228862Y-90740704D01*
X212193223Y-90721654D01*
X212161983Y-90696017D01*
X212136346Y-90664777D01*
X212117296Y-90629138D01*
X212105565Y-90590468D01*
X212101000Y-90544112D01*
X212101000Y-89892888D01*
X212105565Y-89846532D01*
X212117296Y-89807862D01*
X212136346Y-89772223D01*
X212161983Y-89740983D01*
X212193223Y-89715346D01*
X212228862Y-89696296D01*
X212267532Y-89684565D01*
X212313888Y-89680000D01*
X213390112Y-89680000D01*
X213436468Y-89684565D01*
X213436468Y-89684565D01*
G37*
G36*
X143840468Y-89666065D02*
G01*
X143879138Y-89677796D01*
X143914777Y-89696846D01*
X143946017Y-89722483D01*
X143971654Y-89753723D01*
X143990704Y-89789362D01*
X144002435Y-89828032D01*
X144007000Y-89874388D01*
X144007000Y-90525612D01*
X144002435Y-90571968D01*
X143990704Y-90610638D01*
X143971654Y-90646277D01*
X143946017Y-90677517D01*
X143914777Y-90703154D01*
X143879138Y-90722204D01*
X143840468Y-90733935D01*
X143794112Y-90738500D01*
X142717888Y-90738500D01*
X142671532Y-90733935D01*
X142632862Y-90722204D01*
X142597223Y-90703154D01*
X142565983Y-90677517D01*
X142540346Y-90646277D01*
X142521296Y-90610638D01*
X142509565Y-90571968D01*
X142505000Y-90525612D01*
X142505000Y-89874388D01*
X142509565Y-89828032D01*
X142521296Y-89789362D01*
X142540346Y-89753723D01*
X142565983Y-89722483D01*
X142597223Y-89696846D01*
X142632862Y-89677796D01*
X142671532Y-89666065D01*
X142717888Y-89661500D01*
X143794112Y-89661500D01*
X143840468Y-89666065D01*
X143840468Y-89666065D01*
G37*
G36*
X146634468Y-89666065D02*
G01*
X146673138Y-89677796D01*
X146708777Y-89696846D01*
X146740017Y-89722483D01*
X146765654Y-89753723D01*
X146784704Y-89789362D01*
X146796435Y-89828032D01*
X146801000Y-89874388D01*
X146801000Y-90525612D01*
X146796435Y-90571968D01*
X146784704Y-90610638D01*
X146765654Y-90646277D01*
X146740017Y-90677517D01*
X146708777Y-90703154D01*
X146673138Y-90722204D01*
X146634468Y-90733935D01*
X146588112Y-90738500D01*
X145511888Y-90738500D01*
X145465532Y-90733935D01*
X145426862Y-90722204D01*
X145391223Y-90703154D01*
X145359983Y-90677517D01*
X145334346Y-90646277D01*
X145315296Y-90610638D01*
X145303565Y-90571968D01*
X145299000Y-90525612D01*
X145299000Y-89874388D01*
X145303565Y-89828032D01*
X145315296Y-89789362D01*
X145334346Y-89753723D01*
X145359983Y-89722483D01*
X145391223Y-89696846D01*
X145426862Y-89677796D01*
X145465532Y-89666065D01*
X145511888Y-89661500D01*
X146588112Y-89661500D01*
X146634468Y-89666065D01*
X146634468Y-89666065D01*
G37*
G36*
X139394564Y-87381389D02*
G01*
X139585833Y-87460615D01*
X139585835Y-87460616D01*
X139757973Y-87575635D01*
X139904365Y-87722027D01*
X140019385Y-87894167D01*
X140098611Y-88085436D01*
X140139000Y-88288484D01*
X140139000Y-88495516D01*
X140098611Y-88698564D01*
X140019385Y-88889833D01*
X140019384Y-88889835D01*
X139904365Y-89061973D01*
X139757973Y-89208365D01*
X139585835Y-89323384D01*
X139585834Y-89323385D01*
X139585833Y-89323385D01*
X139394564Y-89402611D01*
X139191516Y-89443000D01*
X138984484Y-89443000D01*
X138781436Y-89402611D01*
X138590167Y-89323385D01*
X138590166Y-89323385D01*
X138590165Y-89323384D01*
X138418027Y-89208365D01*
X138271635Y-89061973D01*
X138156616Y-88889835D01*
X138156615Y-88889833D01*
X138077389Y-88698564D01*
X138037000Y-88495516D01*
X138037000Y-88288484D01*
X138077389Y-88085436D01*
X138156615Y-87894167D01*
X138271635Y-87722027D01*
X138418027Y-87575635D01*
X138590165Y-87460616D01*
X138590167Y-87460615D01*
X138781436Y-87381389D01*
X138984484Y-87341000D01*
X139191516Y-87341000D01*
X139394564Y-87381389D01*
X139394564Y-87381389D01*
G37*
G36*
X219381564Y-87381389D02*
G01*
X219572833Y-87460615D01*
X219572835Y-87460616D01*
X219744973Y-87575635D01*
X219891365Y-87722027D01*
X220006385Y-87894167D01*
X220085611Y-88085436D01*
X220126000Y-88288484D01*
X220126000Y-88495516D01*
X220085611Y-88698564D01*
X220006385Y-88889833D01*
X220006384Y-88889835D01*
X219891365Y-89061973D01*
X219744973Y-89208365D01*
X219572835Y-89323384D01*
X219572834Y-89323385D01*
X219572833Y-89323385D01*
X219381564Y-89402611D01*
X219178516Y-89443000D01*
X218971484Y-89443000D01*
X218768436Y-89402611D01*
X218577167Y-89323385D01*
X218577166Y-89323385D01*
X218577165Y-89323384D01*
X218405027Y-89208365D01*
X218258635Y-89061973D01*
X218143616Y-88889835D01*
X218143615Y-88889833D01*
X218064389Y-88698564D01*
X218024000Y-88495516D01*
X218024000Y-88288484D01*
X218064389Y-88085436D01*
X218143615Y-87894167D01*
X218258635Y-87722027D01*
X218405027Y-87575635D01*
X218577165Y-87460616D01*
X218577167Y-87460615D01*
X218768436Y-87381389D01*
X218971484Y-87341000D01*
X219178516Y-87341000D01*
X219381564Y-87381389D01*
X219381564Y-87381389D01*
G37*
G36*
X202617564Y-87381389D02*
G01*
X202808833Y-87460615D01*
X202808835Y-87460616D01*
X202980973Y-87575635D01*
X203127365Y-87722027D01*
X203242385Y-87894167D01*
X203321611Y-88085436D01*
X203362000Y-88288484D01*
X203362000Y-88495516D01*
X203321611Y-88698564D01*
X203242385Y-88889833D01*
X203242384Y-88889835D01*
X203127365Y-89061973D01*
X202980973Y-89208365D01*
X202808835Y-89323384D01*
X202808834Y-89323385D01*
X202808833Y-89323385D01*
X202617564Y-89402611D01*
X202414516Y-89443000D01*
X202207484Y-89443000D01*
X202004436Y-89402611D01*
X201813167Y-89323385D01*
X201813166Y-89323385D01*
X201813165Y-89323384D01*
X201641027Y-89208365D01*
X201494635Y-89061973D01*
X201379616Y-88889835D01*
X201379615Y-88889833D01*
X201300389Y-88698564D01*
X201260000Y-88495516D01*
X201260000Y-88288484D01*
X201300389Y-88085436D01*
X201379615Y-87894167D01*
X201494635Y-87722027D01*
X201641027Y-87575635D01*
X201813165Y-87460616D01*
X201813167Y-87460615D01*
X202004436Y-87381389D01*
X202207484Y-87341000D01*
X202414516Y-87341000D01*
X202617564Y-87381389D01*
X202617564Y-87381389D01*
G37*
G36*
X225881564Y-87381389D02*
G01*
X226072833Y-87460615D01*
X226072835Y-87460616D01*
X226244973Y-87575635D01*
X226391365Y-87722027D01*
X226506385Y-87894167D01*
X226585611Y-88085436D01*
X226626000Y-88288484D01*
X226626000Y-88495516D01*
X226585611Y-88698564D01*
X226506385Y-88889833D01*
X226506384Y-88889835D01*
X226391365Y-89061973D01*
X226244973Y-89208365D01*
X226072835Y-89323384D01*
X226072834Y-89323385D01*
X226072833Y-89323385D01*
X225881564Y-89402611D01*
X225678516Y-89443000D01*
X225471484Y-89443000D01*
X225268436Y-89402611D01*
X225077167Y-89323385D01*
X225077166Y-89323385D01*
X225077165Y-89323384D01*
X224905027Y-89208365D01*
X224758635Y-89061973D01*
X224643616Y-88889835D01*
X224643615Y-88889833D01*
X224564389Y-88698564D01*
X224524000Y-88495516D01*
X224524000Y-88288484D01*
X224564389Y-88085436D01*
X224643615Y-87894167D01*
X224758635Y-87722027D01*
X224905027Y-87575635D01*
X225077165Y-87460616D01*
X225077167Y-87460615D01*
X225268436Y-87381389D01*
X225471484Y-87341000D01*
X225678516Y-87341000D01*
X225881564Y-87381389D01*
X225881564Y-87381389D01*
G37*
G36*
X209117564Y-87381389D02*
G01*
X209308833Y-87460615D01*
X209308835Y-87460616D01*
X209480973Y-87575635D01*
X209627365Y-87722027D01*
X209742385Y-87894167D01*
X209821611Y-88085436D01*
X209862000Y-88288484D01*
X209862000Y-88495516D01*
X209821611Y-88698564D01*
X209742385Y-88889833D01*
X209742384Y-88889835D01*
X209627365Y-89061973D01*
X209480973Y-89208365D01*
X209308835Y-89323384D01*
X209308834Y-89323385D01*
X209308833Y-89323385D01*
X209117564Y-89402611D01*
X208914516Y-89443000D01*
X208707484Y-89443000D01*
X208504436Y-89402611D01*
X208313167Y-89323385D01*
X208313166Y-89323385D01*
X208313165Y-89323384D01*
X208141027Y-89208365D01*
X207994635Y-89061973D01*
X207879616Y-88889835D01*
X207879615Y-88889833D01*
X207800389Y-88698564D01*
X207760000Y-88495516D01*
X207760000Y-88288484D01*
X207800389Y-88085436D01*
X207879615Y-87894167D01*
X207994635Y-87722027D01*
X208141027Y-87575635D01*
X208313165Y-87460616D01*
X208313167Y-87460615D01*
X208504436Y-87381389D01*
X208707484Y-87341000D01*
X208914516Y-87341000D01*
X209117564Y-87381389D01*
X209117564Y-87381389D01*
G37*
G36*
X132894564Y-87381389D02*
G01*
X133085833Y-87460615D01*
X133085835Y-87460616D01*
X133257973Y-87575635D01*
X133404365Y-87722027D01*
X133519385Y-87894167D01*
X133598611Y-88085436D01*
X133639000Y-88288484D01*
X133639000Y-88495516D01*
X133598611Y-88698564D01*
X133519385Y-88889833D01*
X133519384Y-88889835D01*
X133404365Y-89061973D01*
X133257973Y-89208365D01*
X133085835Y-89323384D01*
X133085834Y-89323385D01*
X133085833Y-89323385D01*
X132894564Y-89402611D01*
X132691516Y-89443000D01*
X132484484Y-89443000D01*
X132281436Y-89402611D01*
X132090167Y-89323385D01*
X132090166Y-89323385D01*
X132090165Y-89323384D01*
X131918027Y-89208365D01*
X131771635Y-89061973D01*
X131656616Y-88889835D01*
X131656615Y-88889833D01*
X131577389Y-88698564D01*
X131537000Y-88495516D01*
X131537000Y-88288484D01*
X131577389Y-88085436D01*
X131656615Y-87894167D01*
X131771635Y-87722027D01*
X131918027Y-87575635D01*
X132090165Y-87460616D01*
X132090167Y-87460615D01*
X132281436Y-87381389D01*
X132484484Y-87341000D01*
X132691516Y-87341000D01*
X132894564Y-87381389D01*
X132894564Y-87381389D01*
G37*
G36*
X215722468Y-87809565D02*
G01*
X215761138Y-87821296D01*
X215796777Y-87840346D01*
X215828017Y-87865983D01*
X215853654Y-87897223D01*
X215872704Y-87932862D01*
X215884435Y-87971532D01*
X215889000Y-88017888D01*
X215889000Y-88669112D01*
X215884435Y-88715468D01*
X215872704Y-88754138D01*
X215853654Y-88789777D01*
X215828017Y-88821017D01*
X215796777Y-88846654D01*
X215761138Y-88865704D01*
X215722468Y-88877435D01*
X215676112Y-88882000D01*
X214599888Y-88882000D01*
X214553532Y-88877435D01*
X214514862Y-88865704D01*
X214479223Y-88846654D01*
X214447983Y-88821017D01*
X214422346Y-88789777D01*
X214403296Y-88754138D01*
X214391565Y-88715468D01*
X214387000Y-88669112D01*
X214387000Y-88017888D01*
X214391565Y-87971532D01*
X214403296Y-87932862D01*
X214422346Y-87897223D01*
X214447983Y-87865983D01*
X214479223Y-87840346D01*
X214514862Y-87821296D01*
X214553532Y-87809565D01*
X214599888Y-87805000D01*
X215676112Y-87805000D01*
X215722468Y-87809565D01*
X215722468Y-87809565D01*
G37*
G36*
X213436468Y-87809565D02*
G01*
X213475138Y-87821296D01*
X213510777Y-87840346D01*
X213542017Y-87865983D01*
X213567654Y-87897223D01*
X213586704Y-87932862D01*
X213598435Y-87971532D01*
X213603000Y-88017888D01*
X213603000Y-88669112D01*
X213598435Y-88715468D01*
X213586704Y-88754138D01*
X213567654Y-88789777D01*
X213542017Y-88821017D01*
X213510777Y-88846654D01*
X213475138Y-88865704D01*
X213436468Y-88877435D01*
X213390112Y-88882000D01*
X212313888Y-88882000D01*
X212267532Y-88877435D01*
X212228862Y-88865704D01*
X212193223Y-88846654D01*
X212161983Y-88821017D01*
X212136346Y-88789777D01*
X212117296Y-88754138D01*
X212105565Y-88715468D01*
X212101000Y-88669112D01*
X212101000Y-88017888D01*
X212105565Y-87971532D01*
X212117296Y-87932862D01*
X212136346Y-87897223D01*
X212161983Y-87865983D01*
X212193223Y-87840346D01*
X212228862Y-87821296D01*
X212267532Y-87809565D01*
X212313888Y-87805000D01*
X213390112Y-87805000D01*
X213436468Y-87809565D01*
X213436468Y-87809565D01*
G37*
G36*
X177554000Y-88665000D02*
G01*
X168902000Y-88665000D01*
X168902000Y-87063000D01*
X177554000Y-87063000D01*
X177554000Y-88665000D01*
X177554000Y-88665000D01*
G37*
G36*
X158733443Y-86354519D02*
G01*
X158799627Y-86361037D01*
X158969466Y-86412557D01*
X158969468Y-86412558D01*
X159047729Y-86454390D01*
X159125991Y-86496222D01*
X159161729Y-86525552D01*
X159263186Y-86608814D01*
X159346448Y-86710271D01*
X159375778Y-86746009D01*
X159459443Y-86902534D01*
X159510963Y-87072373D01*
X159528359Y-87249000D01*
X159510963Y-87425627D01*
X159459443Y-87595466D01*
X159375778Y-87751991D01*
X159346448Y-87787729D01*
X159263186Y-87889186D01*
X159163236Y-87971212D01*
X159125991Y-88001778D01*
X159088679Y-88021722D01*
X158990407Y-88074250D01*
X158969466Y-88085443D01*
X158799627Y-88136963D01*
X158733442Y-88143482D01*
X158667260Y-88150000D01*
X158578740Y-88150000D01*
X158512558Y-88143482D01*
X158446373Y-88136963D01*
X158276534Y-88085443D01*
X158255594Y-88074250D01*
X158157321Y-88021722D01*
X158120009Y-88001778D01*
X158082764Y-87971212D01*
X157982814Y-87889186D01*
X157899552Y-87787729D01*
X157870222Y-87751991D01*
X157786557Y-87595466D01*
X157735037Y-87425627D01*
X157717641Y-87249000D01*
X157735037Y-87072373D01*
X157786557Y-86902534D01*
X157870222Y-86746009D01*
X157899552Y-86710271D01*
X157982814Y-86608814D01*
X158084271Y-86525552D01*
X158120009Y-86496222D01*
X158198271Y-86454390D01*
X158276532Y-86412558D01*
X158276534Y-86412557D01*
X158446373Y-86361037D01*
X158512557Y-86354519D01*
X158578740Y-86348000D01*
X158667260Y-86348000D01*
X158733443Y-86354519D01*
X158733443Y-86354519D01*
G37*
G36*
X156193443Y-86354519D02*
G01*
X156259627Y-86361037D01*
X156429466Y-86412557D01*
X156429468Y-86412558D01*
X156507729Y-86454390D01*
X156585991Y-86496222D01*
X156621729Y-86525552D01*
X156723186Y-86608814D01*
X156806448Y-86710271D01*
X156835778Y-86746009D01*
X156919443Y-86902534D01*
X156970963Y-87072373D01*
X156988359Y-87249000D01*
X156970963Y-87425627D01*
X156919443Y-87595466D01*
X156835778Y-87751991D01*
X156806448Y-87787729D01*
X156723186Y-87889186D01*
X156623236Y-87971212D01*
X156585991Y-88001778D01*
X156548679Y-88021722D01*
X156450407Y-88074250D01*
X156429466Y-88085443D01*
X156259627Y-88136963D01*
X156193442Y-88143482D01*
X156127260Y-88150000D01*
X156038740Y-88150000D01*
X155972558Y-88143482D01*
X155906373Y-88136963D01*
X155736534Y-88085443D01*
X155715594Y-88074250D01*
X155617321Y-88021722D01*
X155580009Y-88001778D01*
X155542764Y-87971212D01*
X155442814Y-87889186D01*
X155359552Y-87787729D01*
X155330222Y-87751991D01*
X155246557Y-87595466D01*
X155195037Y-87425627D01*
X155177641Y-87249000D01*
X155195037Y-87072373D01*
X155246557Y-86902534D01*
X155330222Y-86746009D01*
X155359552Y-86710271D01*
X155442814Y-86608814D01*
X155544271Y-86525552D01*
X155580009Y-86496222D01*
X155658271Y-86454390D01*
X155736532Y-86412558D01*
X155736534Y-86412557D01*
X155906373Y-86361037D01*
X155972557Y-86354519D01*
X156038740Y-86348000D01*
X156127260Y-86348000D01*
X156193443Y-86354519D01*
X156193443Y-86354519D01*
G37*
G36*
X164541468Y-85953065D02*
G01*
X164580138Y-85964796D01*
X164615777Y-85983846D01*
X164647017Y-86009483D01*
X164672654Y-86040723D01*
X164691704Y-86076362D01*
X164703435Y-86115032D01*
X164708000Y-86161388D01*
X164708000Y-86812612D01*
X164703435Y-86858968D01*
X164691704Y-86897638D01*
X164672654Y-86933277D01*
X164647017Y-86964517D01*
X164615777Y-86990154D01*
X164580138Y-87009204D01*
X164541468Y-87020935D01*
X164495112Y-87025500D01*
X163418888Y-87025500D01*
X163372532Y-87020935D01*
X163333862Y-87009204D01*
X163298223Y-86990154D01*
X163266983Y-86964517D01*
X163241346Y-86933277D01*
X163222296Y-86897638D01*
X163210565Y-86858968D01*
X163206000Y-86812612D01*
X163206000Y-86161388D01*
X163210565Y-86115032D01*
X163222296Y-86076362D01*
X163241346Y-86040723D01*
X163266983Y-86009483D01*
X163298223Y-85983846D01*
X163333862Y-85964796D01*
X163372532Y-85953065D01*
X163418888Y-85948500D01*
X164495112Y-85948500D01*
X164541468Y-85953065D01*
X164541468Y-85953065D01*
G37*
G36*
X182956468Y-85620565D02*
G01*
X182995138Y-85632296D01*
X183030777Y-85651346D01*
X183062017Y-85676983D01*
X183087654Y-85708223D01*
X183106704Y-85743862D01*
X183118435Y-85782532D01*
X183123000Y-85828888D01*
X183123000Y-86480112D01*
X183118435Y-86526468D01*
X183106704Y-86565138D01*
X183087654Y-86600777D01*
X183062017Y-86632017D01*
X183030777Y-86657654D01*
X182995138Y-86676704D01*
X182956468Y-86688435D01*
X182910112Y-86693000D01*
X181833888Y-86693000D01*
X181787532Y-86688435D01*
X181748862Y-86676704D01*
X181713223Y-86657654D01*
X181681983Y-86632017D01*
X181656346Y-86600777D01*
X181637296Y-86565138D01*
X181625565Y-86526468D01*
X181621000Y-86480112D01*
X181621000Y-85828888D01*
X181625565Y-85782532D01*
X181637296Y-85743862D01*
X181656346Y-85708223D01*
X181681983Y-85676983D01*
X181713223Y-85651346D01*
X181748862Y-85632296D01*
X181787532Y-85620565D01*
X181833888Y-85616000D01*
X182910112Y-85616000D01*
X182956468Y-85620565D01*
X182956468Y-85620565D01*
G37*
G36*
X168329000Y-86490000D02*
G01*
X166727000Y-86490000D01*
X166727000Y-77838000D01*
X168329000Y-77838000D01*
X168329000Y-86490000D01*
X168329000Y-86490000D01*
G37*
G36*
X179729000Y-86490000D02*
G01*
X178127000Y-86490000D01*
X178127000Y-77838000D01*
X179729000Y-77838000D01*
X179729000Y-86490000D01*
X179729000Y-86490000D01*
G37*
G36*
X158733442Y-83814518D02*
G01*
X158799627Y-83821037D01*
X158969466Y-83872557D01*
X159125991Y-83956222D01*
X159161729Y-83985552D01*
X159263186Y-84068814D01*
X159317078Y-84134483D01*
X159375778Y-84206009D01*
X159459443Y-84362534D01*
X159510963Y-84532373D01*
X159528359Y-84709000D01*
X159510963Y-84885627D01*
X159469401Y-85022638D01*
X159459442Y-85055468D01*
X159450798Y-85071639D01*
X159375778Y-85211991D01*
X159346448Y-85247729D01*
X159263186Y-85349186D01*
X159161729Y-85432448D01*
X159125991Y-85461778D01*
X158969466Y-85545443D01*
X158799627Y-85596963D01*
X158733443Y-85603481D01*
X158667260Y-85610000D01*
X158578740Y-85610000D01*
X158512557Y-85603481D01*
X158446373Y-85596963D01*
X158276534Y-85545443D01*
X158120009Y-85461778D01*
X158084271Y-85432448D01*
X157982814Y-85349186D01*
X157899552Y-85247729D01*
X157870222Y-85211991D01*
X157795202Y-85071639D01*
X157786558Y-85055468D01*
X157776599Y-85022638D01*
X157735037Y-84885627D01*
X157717641Y-84709000D01*
X157735037Y-84532373D01*
X157786557Y-84362534D01*
X157870222Y-84206009D01*
X157928922Y-84134483D01*
X157982814Y-84068814D01*
X158084271Y-83985552D01*
X158120009Y-83956222D01*
X158276534Y-83872557D01*
X158446373Y-83821037D01*
X158512558Y-83814518D01*
X158578740Y-83808000D01*
X158667260Y-83808000D01*
X158733442Y-83814518D01*
X158733442Y-83814518D01*
G37*
G36*
X156193442Y-83814518D02*
G01*
X156259627Y-83821037D01*
X156429466Y-83872557D01*
X156585991Y-83956222D01*
X156621729Y-83985552D01*
X156723186Y-84068814D01*
X156777078Y-84134483D01*
X156835778Y-84206009D01*
X156919443Y-84362534D01*
X156970963Y-84532373D01*
X156988359Y-84709000D01*
X156970963Y-84885627D01*
X156929401Y-85022638D01*
X156919442Y-85055468D01*
X156910798Y-85071639D01*
X156835778Y-85211991D01*
X156806448Y-85247729D01*
X156723186Y-85349186D01*
X156621729Y-85432448D01*
X156585991Y-85461778D01*
X156429466Y-85545443D01*
X156259627Y-85596963D01*
X156193443Y-85603481D01*
X156127260Y-85610000D01*
X156038740Y-85610000D01*
X155972557Y-85603481D01*
X155906373Y-85596963D01*
X155736534Y-85545443D01*
X155580009Y-85461778D01*
X155544271Y-85432448D01*
X155442814Y-85349186D01*
X155359552Y-85247729D01*
X155330222Y-85211991D01*
X155255202Y-85071639D01*
X155246558Y-85055468D01*
X155236599Y-85022638D01*
X155195037Y-84885627D01*
X155177641Y-84709000D01*
X155195037Y-84532373D01*
X155246557Y-84362534D01*
X155330222Y-84206009D01*
X155388922Y-84134483D01*
X155442814Y-84068814D01*
X155544271Y-83985552D01*
X155580009Y-83956222D01*
X155736534Y-83872557D01*
X155906373Y-83821037D01*
X155972558Y-83814518D01*
X156038740Y-83808000D01*
X156127260Y-83808000D01*
X156193442Y-83814518D01*
X156193442Y-83814518D01*
G37*
G36*
X164541468Y-84078065D02*
G01*
X164580138Y-84089796D01*
X164615777Y-84108846D01*
X164647017Y-84134483D01*
X164672654Y-84165723D01*
X164691704Y-84201362D01*
X164703435Y-84240032D01*
X164708000Y-84286388D01*
X164708000Y-84937612D01*
X164703435Y-84983968D01*
X164691704Y-85022638D01*
X164672654Y-85058277D01*
X164647017Y-85089517D01*
X164615777Y-85115154D01*
X164580138Y-85134204D01*
X164541468Y-85145935D01*
X164495112Y-85150500D01*
X163418888Y-85150500D01*
X163372532Y-85145935D01*
X163333862Y-85134204D01*
X163298223Y-85115154D01*
X163266983Y-85089517D01*
X163241346Y-85058277D01*
X163222296Y-85022638D01*
X163210565Y-84983968D01*
X163206000Y-84937612D01*
X163206000Y-84286388D01*
X163210565Y-84240032D01*
X163222296Y-84201362D01*
X163241346Y-84165723D01*
X163266983Y-84134483D01*
X163298223Y-84108846D01*
X163333862Y-84089796D01*
X163372532Y-84078065D01*
X163418888Y-84073500D01*
X164495112Y-84073500D01*
X164541468Y-84078065D01*
X164541468Y-84078065D01*
G37*
G36*
X187644000Y-85079000D02*
G01*
X186342000Y-85079000D01*
X186342000Y-83577000D01*
X187644000Y-83577000D01*
X187644000Y-85079000D01*
X187644000Y-85079000D01*
G37*
G36*
X185944000Y-85079000D02*
G01*
X184642000Y-85079000D01*
X184642000Y-83577000D01*
X185944000Y-83577000D01*
X185944000Y-85079000D01*
X185944000Y-85079000D01*
G37*
G36*
X182956468Y-83745565D02*
G01*
X182995138Y-83757296D01*
X183030777Y-83776346D01*
X183062017Y-83801983D01*
X183087654Y-83833223D01*
X183106704Y-83868862D01*
X183118435Y-83907532D01*
X183123000Y-83953888D01*
X183123000Y-84605112D01*
X183118435Y-84651468D01*
X183106704Y-84690138D01*
X183087654Y-84725777D01*
X183062017Y-84757017D01*
X183030777Y-84782654D01*
X182995138Y-84801704D01*
X182956468Y-84813435D01*
X182910112Y-84818000D01*
X181833888Y-84818000D01*
X181787532Y-84813435D01*
X181748862Y-84801704D01*
X181713223Y-84782654D01*
X181681983Y-84757017D01*
X181656346Y-84725777D01*
X181637296Y-84690138D01*
X181625565Y-84651468D01*
X181621000Y-84605112D01*
X181621000Y-83953888D01*
X181625565Y-83907532D01*
X181637296Y-83868862D01*
X181656346Y-83833223D01*
X181681983Y-83801983D01*
X181713223Y-83776346D01*
X181748862Y-83757296D01*
X181787532Y-83745565D01*
X181833888Y-83741000D01*
X182910112Y-83741000D01*
X182956468Y-83745565D01*
X182956468Y-83745565D01*
G37*
G36*
X189560468Y-83588565D02*
G01*
X189599138Y-83600296D01*
X189634777Y-83619346D01*
X189666017Y-83644983D01*
X189691654Y-83676223D01*
X189710704Y-83711862D01*
X189722435Y-83750532D01*
X189727000Y-83796888D01*
X189727000Y-84448112D01*
X189722435Y-84494468D01*
X189710704Y-84533138D01*
X189691654Y-84568777D01*
X189666017Y-84600017D01*
X189634777Y-84625654D01*
X189599138Y-84644704D01*
X189560468Y-84656435D01*
X189514112Y-84661000D01*
X188437888Y-84661000D01*
X188391532Y-84656435D01*
X188352862Y-84644704D01*
X188317223Y-84625654D01*
X188285983Y-84600017D01*
X188260346Y-84568777D01*
X188241296Y-84533138D01*
X188229565Y-84494468D01*
X188225000Y-84448112D01*
X188225000Y-83796888D01*
X188229565Y-83750532D01*
X188241296Y-83711862D01*
X188260346Y-83676223D01*
X188285983Y-83644983D01*
X188317223Y-83619346D01*
X188352862Y-83600296D01*
X188391532Y-83588565D01*
X188437888Y-83584000D01*
X189514112Y-83584000D01*
X189560468Y-83588565D01*
X189560468Y-83588565D01*
G37*
G36*
X142856468Y-83413065D02*
G01*
X142895138Y-83424796D01*
X142930777Y-83443846D01*
X142962017Y-83469483D01*
X142987654Y-83500723D01*
X143006704Y-83536362D01*
X143018435Y-83575032D01*
X143023000Y-83621388D01*
X143023000Y-84272612D01*
X143018435Y-84318968D01*
X143006704Y-84357638D01*
X142987654Y-84393277D01*
X142962017Y-84424517D01*
X142930777Y-84450154D01*
X142895138Y-84469204D01*
X142856468Y-84480935D01*
X142810112Y-84485500D01*
X141733888Y-84485500D01*
X141687532Y-84480935D01*
X141648862Y-84469204D01*
X141613223Y-84450154D01*
X141581983Y-84424517D01*
X141556346Y-84393277D01*
X141537296Y-84357638D01*
X141525565Y-84318968D01*
X141521000Y-84272612D01*
X141521000Y-83621388D01*
X141525565Y-83575032D01*
X141537296Y-83536362D01*
X141556346Y-83500723D01*
X141581983Y-83469483D01*
X141613223Y-83443846D01*
X141648862Y-83424796D01*
X141687532Y-83413065D01*
X141733888Y-83408500D01*
X142810112Y-83408500D01*
X142856468Y-83413065D01*
X142856468Y-83413065D01*
G37*
G36*
X145253468Y-83413065D02*
G01*
X145292138Y-83424796D01*
X145327777Y-83443846D01*
X145359017Y-83469483D01*
X145384654Y-83500723D01*
X145403704Y-83536362D01*
X145415435Y-83575032D01*
X145420000Y-83621388D01*
X145420000Y-84272612D01*
X145415435Y-84318968D01*
X145403704Y-84357638D01*
X145384654Y-84393277D01*
X145359017Y-84424517D01*
X145327777Y-84450154D01*
X145292138Y-84469204D01*
X145253468Y-84480935D01*
X145207112Y-84485500D01*
X144130888Y-84485500D01*
X144084532Y-84480935D01*
X144045862Y-84469204D01*
X144010223Y-84450154D01*
X143978983Y-84424517D01*
X143953346Y-84393277D01*
X143934296Y-84357638D01*
X143922565Y-84318968D01*
X143918000Y-84272612D01*
X143918000Y-83621388D01*
X143922565Y-83575032D01*
X143934296Y-83536362D01*
X143953346Y-83500723D01*
X143978983Y-83469483D01*
X144010223Y-83443846D01*
X144045862Y-83424796D01*
X144084532Y-83413065D01*
X144130888Y-83408500D01*
X145207112Y-83408500D01*
X145253468Y-83413065D01*
X145253468Y-83413065D01*
G37*
G36*
X147650468Y-83413065D02*
G01*
X147689138Y-83424796D01*
X147724777Y-83443846D01*
X147756017Y-83469483D01*
X147781654Y-83500723D01*
X147800704Y-83536362D01*
X147812435Y-83575032D01*
X147817000Y-83621388D01*
X147817000Y-84272612D01*
X147812435Y-84318968D01*
X147800704Y-84357638D01*
X147781654Y-84393277D01*
X147756017Y-84424517D01*
X147724777Y-84450154D01*
X147689138Y-84469204D01*
X147650468Y-84480935D01*
X147604112Y-84485500D01*
X146527888Y-84485500D01*
X146481532Y-84480935D01*
X146442862Y-84469204D01*
X146407223Y-84450154D01*
X146375983Y-84424517D01*
X146350346Y-84393277D01*
X146331296Y-84357638D01*
X146319565Y-84318968D01*
X146315000Y-84272612D01*
X146315000Y-83621388D01*
X146319565Y-83575032D01*
X146331296Y-83536362D01*
X146350346Y-83500723D01*
X146375983Y-83469483D01*
X146407223Y-83443846D01*
X146442862Y-83424796D01*
X146481532Y-83413065D01*
X146527888Y-83408500D01*
X147604112Y-83408500D01*
X147650468Y-83413065D01*
X147650468Y-83413065D01*
G37*
G36*
X133101443Y-81749519D02*
G01*
X133167627Y-81756037D01*
X133337466Y-81807557D01*
X133493991Y-81891222D01*
X133529729Y-81920552D01*
X133631186Y-82003814D01*
X133714448Y-82105271D01*
X133743778Y-82141009D01*
X133827443Y-82297534D01*
X133878963Y-82467373D01*
X133896359Y-82644000D01*
X133878963Y-82820627D01*
X133827443Y-82990466D01*
X133743778Y-83146991D01*
X133714448Y-83182729D01*
X133631186Y-83284186D01*
X133529729Y-83367448D01*
X133493991Y-83396778D01*
X133337466Y-83480443D01*
X133167627Y-83531963D01*
X133122962Y-83536362D01*
X133035260Y-83545000D01*
X131946740Y-83545000D01*
X131859038Y-83536362D01*
X131814373Y-83531963D01*
X131644534Y-83480443D01*
X131488009Y-83396778D01*
X131452271Y-83367448D01*
X131350814Y-83284186D01*
X131267552Y-83182729D01*
X131238222Y-83146991D01*
X131154557Y-82990466D01*
X131103037Y-82820627D01*
X131085641Y-82644000D01*
X131103037Y-82467373D01*
X131154557Y-82297534D01*
X131238222Y-82141009D01*
X131267552Y-82105271D01*
X131350814Y-82003814D01*
X131452271Y-81920552D01*
X131488009Y-81891222D01*
X131644534Y-81807557D01*
X131814373Y-81756037D01*
X131880557Y-81749519D01*
X131946740Y-81743000D01*
X133035260Y-81743000D01*
X133101443Y-81749519D01*
X133101443Y-81749519D01*
G37*
G36*
X156193443Y-81274519D02*
G01*
X156259627Y-81281037D01*
X156429466Y-81332557D01*
X156585991Y-81416222D01*
X156621729Y-81445552D01*
X156723186Y-81528814D01*
X156777078Y-81594483D01*
X156835778Y-81666009D01*
X156919443Y-81822534D01*
X156970963Y-81992373D01*
X156988359Y-82169000D01*
X156970963Y-82345627D01*
X156934031Y-82467375D01*
X156919442Y-82515468D01*
X156910798Y-82531639D01*
X156835778Y-82671991D01*
X156806933Y-82707139D01*
X156723186Y-82809186D01*
X156638116Y-82879000D01*
X156585991Y-82921778D01*
X156429466Y-83005443D01*
X156259627Y-83056963D01*
X156193442Y-83063482D01*
X156127260Y-83070000D01*
X156038740Y-83070000D01*
X155972558Y-83063482D01*
X155906373Y-83056963D01*
X155736534Y-83005443D01*
X155580009Y-82921778D01*
X155527884Y-82879000D01*
X155442814Y-82809186D01*
X155359067Y-82707139D01*
X155330222Y-82671991D01*
X155255202Y-82531639D01*
X155246558Y-82515468D01*
X155231969Y-82467375D01*
X155195037Y-82345627D01*
X155177641Y-82169000D01*
X155195037Y-81992373D01*
X155246557Y-81822534D01*
X155330222Y-81666009D01*
X155388922Y-81594483D01*
X155442814Y-81528814D01*
X155544271Y-81445552D01*
X155580009Y-81416222D01*
X155736534Y-81332557D01*
X155906373Y-81281037D01*
X155972557Y-81274519D01*
X156038740Y-81268000D01*
X156127260Y-81268000D01*
X156193443Y-81274519D01*
X156193443Y-81274519D01*
G37*
G36*
X158733443Y-81274519D02*
G01*
X158799627Y-81281037D01*
X158969466Y-81332557D01*
X159125991Y-81416222D01*
X159161729Y-81445552D01*
X159263186Y-81528814D01*
X159317078Y-81594483D01*
X159375778Y-81666009D01*
X159459443Y-81822534D01*
X159510963Y-81992373D01*
X159528359Y-82169000D01*
X159510963Y-82345627D01*
X159474031Y-82467375D01*
X159459442Y-82515468D01*
X159450798Y-82531639D01*
X159375778Y-82671991D01*
X159346933Y-82707139D01*
X159263186Y-82809186D01*
X159178116Y-82879000D01*
X159125991Y-82921778D01*
X158969466Y-83005443D01*
X158799627Y-83056963D01*
X158733442Y-83063482D01*
X158667260Y-83070000D01*
X158578740Y-83070000D01*
X158512558Y-83063482D01*
X158446373Y-83056963D01*
X158276534Y-83005443D01*
X158120009Y-82921778D01*
X158067884Y-82879000D01*
X157982814Y-82809186D01*
X157899067Y-82707139D01*
X157870222Y-82671991D01*
X157795202Y-82531639D01*
X157786558Y-82515468D01*
X157771969Y-82467375D01*
X157735037Y-82345627D01*
X157717641Y-82169000D01*
X157735037Y-81992373D01*
X157786557Y-81822534D01*
X157870222Y-81666009D01*
X157928922Y-81594483D01*
X157982814Y-81528814D01*
X158084271Y-81445552D01*
X158120009Y-81416222D01*
X158276534Y-81332557D01*
X158446373Y-81281037D01*
X158512557Y-81274519D01*
X158578740Y-81268000D01*
X158667260Y-81268000D01*
X158733443Y-81274519D01*
X158733443Y-81274519D01*
G37*
G36*
X187644000Y-82879000D02*
G01*
X186342000Y-82879000D01*
X186342000Y-81377000D01*
X187644000Y-81377000D01*
X187644000Y-82879000D01*
X187644000Y-82879000D01*
G37*
G36*
X185944000Y-82879000D02*
G01*
X184642000Y-82879000D01*
X184642000Y-81377000D01*
X185944000Y-81377000D01*
X185944000Y-82879000D01*
X185944000Y-82879000D01*
G37*
G36*
X189560468Y-81713565D02*
G01*
X189599138Y-81725296D01*
X189634777Y-81744346D01*
X189666017Y-81769983D01*
X189691654Y-81801223D01*
X189710704Y-81836862D01*
X189722435Y-81875532D01*
X189727000Y-81921888D01*
X189727000Y-82573112D01*
X189722435Y-82619468D01*
X189710704Y-82658138D01*
X189691654Y-82693777D01*
X189666017Y-82725017D01*
X189634777Y-82750654D01*
X189599138Y-82769704D01*
X189560468Y-82781435D01*
X189514112Y-82786000D01*
X188437888Y-82786000D01*
X188391532Y-82781435D01*
X188352862Y-82769704D01*
X188317223Y-82750654D01*
X188285983Y-82725017D01*
X188260346Y-82693777D01*
X188241296Y-82658138D01*
X188229565Y-82619468D01*
X188225000Y-82573112D01*
X188225000Y-81921888D01*
X188229565Y-81875532D01*
X188241296Y-81836862D01*
X188260346Y-81801223D01*
X188285983Y-81769983D01*
X188317223Y-81744346D01*
X188352862Y-81725296D01*
X188391532Y-81713565D01*
X188437888Y-81709000D01*
X189514112Y-81709000D01*
X189560468Y-81713565D01*
X189560468Y-81713565D01*
G37*
G36*
X147650468Y-81538065D02*
G01*
X147689138Y-81549796D01*
X147724777Y-81568846D01*
X147756017Y-81594483D01*
X147781654Y-81625723D01*
X147800704Y-81661362D01*
X147812435Y-81700032D01*
X147817000Y-81746388D01*
X147817000Y-82397612D01*
X147812435Y-82443968D01*
X147800704Y-82482638D01*
X147781654Y-82518277D01*
X147756017Y-82549517D01*
X147724777Y-82575154D01*
X147689138Y-82594204D01*
X147650468Y-82605935D01*
X147604112Y-82610500D01*
X146527888Y-82610500D01*
X146481532Y-82605935D01*
X146442862Y-82594204D01*
X146407223Y-82575154D01*
X146375983Y-82549517D01*
X146350346Y-82518277D01*
X146331296Y-82482638D01*
X146319565Y-82443968D01*
X146315000Y-82397612D01*
X146315000Y-81746388D01*
X146319565Y-81700032D01*
X146331296Y-81661362D01*
X146350346Y-81625723D01*
X146375983Y-81594483D01*
X146407223Y-81568846D01*
X146442862Y-81549796D01*
X146481532Y-81538065D01*
X146527888Y-81533500D01*
X147604112Y-81533500D01*
X147650468Y-81538065D01*
X147650468Y-81538065D01*
G37*
G36*
X145253468Y-81538065D02*
G01*
X145292138Y-81549796D01*
X145327777Y-81568846D01*
X145359017Y-81594483D01*
X145384654Y-81625723D01*
X145403704Y-81661362D01*
X145415435Y-81700032D01*
X145420000Y-81746388D01*
X145420000Y-82397612D01*
X145415435Y-82443968D01*
X145403704Y-82482638D01*
X145384654Y-82518277D01*
X145359017Y-82549517D01*
X145327777Y-82575154D01*
X145292138Y-82594204D01*
X145253468Y-82605935D01*
X145207112Y-82610500D01*
X144130888Y-82610500D01*
X144084532Y-82605935D01*
X144045862Y-82594204D01*
X144010223Y-82575154D01*
X143978983Y-82549517D01*
X143953346Y-82518277D01*
X143934296Y-82482638D01*
X143922565Y-82443968D01*
X143918000Y-82397612D01*
X143918000Y-81746388D01*
X143922565Y-81700032D01*
X143934296Y-81661362D01*
X143953346Y-81625723D01*
X143978983Y-81594483D01*
X144010223Y-81568846D01*
X144045862Y-81549796D01*
X144084532Y-81538065D01*
X144130888Y-81533500D01*
X145207112Y-81533500D01*
X145253468Y-81538065D01*
X145253468Y-81538065D01*
G37*
G36*
X142856468Y-81538065D02*
G01*
X142895138Y-81549796D01*
X142930777Y-81568846D01*
X142962017Y-81594483D01*
X142987654Y-81625723D01*
X143006704Y-81661362D01*
X143018435Y-81700032D01*
X143023000Y-81746388D01*
X143023000Y-82397612D01*
X143018435Y-82443968D01*
X143006704Y-82482638D01*
X142987654Y-82518277D01*
X142962017Y-82549517D01*
X142930777Y-82575154D01*
X142895138Y-82594204D01*
X142856468Y-82605935D01*
X142810112Y-82610500D01*
X141733888Y-82610500D01*
X141687532Y-82605935D01*
X141648862Y-82594204D01*
X141613223Y-82575154D01*
X141581983Y-82549517D01*
X141556346Y-82518277D01*
X141537296Y-82482638D01*
X141525565Y-82443968D01*
X141521000Y-82397612D01*
X141521000Y-81746388D01*
X141525565Y-81700032D01*
X141537296Y-81661362D01*
X141556346Y-81625723D01*
X141581983Y-81594483D01*
X141613223Y-81568846D01*
X141648862Y-81549796D01*
X141687532Y-81538065D01*
X141733888Y-81533500D01*
X142810112Y-81533500D01*
X142856468Y-81538065D01*
X142856468Y-81538065D01*
G37*
G36*
X138208818Y-80001696D02*
G01*
X138322105Y-80036062D01*
X138426512Y-80091869D01*
X138518027Y-80166973D01*
X138593131Y-80258488D01*
X138648938Y-80362895D01*
X138683304Y-80476182D01*
X138694907Y-80594000D01*
X138683304Y-80711818D01*
X138648938Y-80825105D01*
X138593131Y-80929512D01*
X138518027Y-81021027D01*
X138426512Y-81096131D01*
X138322105Y-81151938D01*
X138208818Y-81186304D01*
X138120519Y-81195000D01*
X137511481Y-81195000D01*
X137423182Y-81186304D01*
X137309895Y-81151938D01*
X137205488Y-81096131D01*
X137113973Y-81021027D01*
X137038869Y-80929512D01*
X136983062Y-80825105D01*
X136948696Y-80711818D01*
X136937093Y-80594000D01*
X136948696Y-80476182D01*
X136983062Y-80362897D01*
X137003913Y-80323886D01*
X137013290Y-80301248D01*
X137018070Y-80277214D01*
X137018070Y-80252710D01*
X137016395Y-80244288D01*
X137024613Y-80242653D01*
X137047252Y-80233276D01*
X137067626Y-80219662D01*
X137084950Y-80202338D01*
X137113973Y-80166973D01*
X137205487Y-80091870D01*
X137205486Y-80091870D01*
X137205488Y-80091869D01*
X137309895Y-80036062D01*
X137423182Y-80001696D01*
X137511481Y-79993000D01*
X138120519Y-79993000D01*
X138208818Y-80001696D01*
X138208818Y-80001696D01*
G37*
G36*
X185577468Y-79263565D02*
G01*
X185616138Y-79275296D01*
X185651777Y-79294346D01*
X185683017Y-79319983D01*
X185708654Y-79351223D01*
X185727704Y-79386862D01*
X185739435Y-79425532D01*
X185744000Y-79471888D01*
X185744000Y-80548112D01*
X185739435Y-80594468D01*
X185727704Y-80633138D01*
X185708654Y-80668777D01*
X185683017Y-80700017D01*
X185651777Y-80725654D01*
X185616138Y-80744704D01*
X185577468Y-80756435D01*
X185531112Y-80761000D01*
X184879888Y-80761000D01*
X184833532Y-80756435D01*
X184794862Y-80744704D01*
X184759223Y-80725654D01*
X184727983Y-80700017D01*
X184702346Y-80668777D01*
X184683296Y-80633138D01*
X184671565Y-80594468D01*
X184667000Y-80548112D01*
X184667000Y-79471888D01*
X184671565Y-79425532D01*
X184683296Y-79386862D01*
X184702346Y-79351223D01*
X184727983Y-79319983D01*
X184759223Y-79294346D01*
X184794862Y-79275296D01*
X184833532Y-79263565D01*
X184879888Y-79259000D01*
X185531112Y-79259000D01*
X185577468Y-79263565D01*
X185577468Y-79263565D01*
G37*
G36*
X187452468Y-79263565D02*
G01*
X187491138Y-79275296D01*
X187526777Y-79294346D01*
X187558017Y-79319983D01*
X187583654Y-79351223D01*
X187602704Y-79386862D01*
X187614435Y-79425532D01*
X187619000Y-79471888D01*
X187619000Y-80548112D01*
X187614435Y-80594468D01*
X187602704Y-80633138D01*
X187583654Y-80668777D01*
X187558017Y-80700017D01*
X187526777Y-80725654D01*
X187491138Y-80744704D01*
X187452468Y-80756435D01*
X187406112Y-80761000D01*
X186754888Y-80761000D01*
X186708532Y-80756435D01*
X186669862Y-80744704D01*
X186634223Y-80725654D01*
X186602983Y-80700017D01*
X186577346Y-80668777D01*
X186558296Y-80633138D01*
X186546565Y-80594468D01*
X186542000Y-80548112D01*
X186542000Y-79471888D01*
X186546565Y-79425532D01*
X186558296Y-79386862D01*
X186577346Y-79351223D01*
X186602983Y-79319983D01*
X186634223Y-79294346D01*
X186669862Y-79275296D01*
X186708532Y-79263565D01*
X186754888Y-79259000D01*
X187406112Y-79259000D01*
X187452468Y-79263565D01*
X187452468Y-79263565D01*
G37*
G36*
X142436468Y-79136565D02*
G01*
X142475138Y-79148296D01*
X142510777Y-79167346D01*
X142542017Y-79192983D01*
X142567654Y-79224223D01*
X142586704Y-79259862D01*
X142598435Y-79298532D01*
X142603000Y-79344888D01*
X142603000Y-80421112D01*
X142598435Y-80467468D01*
X142586704Y-80506138D01*
X142567654Y-80541777D01*
X142542017Y-80573017D01*
X142510777Y-80598654D01*
X142475138Y-80617704D01*
X142436468Y-80629435D01*
X142390112Y-80634000D01*
X141738888Y-80634000D01*
X141692532Y-80629435D01*
X141653862Y-80617704D01*
X141618223Y-80598654D01*
X141586983Y-80573017D01*
X141561346Y-80541777D01*
X141542296Y-80506138D01*
X141530565Y-80467468D01*
X141526000Y-80421112D01*
X141526000Y-79344888D01*
X141530565Y-79298532D01*
X141542296Y-79259862D01*
X141561346Y-79224223D01*
X141586983Y-79192983D01*
X141618223Y-79167346D01*
X141653862Y-79148296D01*
X141692532Y-79136565D01*
X141738888Y-79132000D01*
X142390112Y-79132000D01*
X142436468Y-79136565D01*
X142436468Y-79136565D01*
G37*
G36*
X144311468Y-79136565D02*
G01*
X144350138Y-79148296D01*
X144385777Y-79167346D01*
X144417017Y-79192983D01*
X144442654Y-79224223D01*
X144461704Y-79259862D01*
X144473435Y-79298532D01*
X144478000Y-79344888D01*
X144478000Y-80421112D01*
X144473435Y-80467468D01*
X144461704Y-80506138D01*
X144442654Y-80541777D01*
X144417017Y-80573017D01*
X144385777Y-80598654D01*
X144350138Y-80617704D01*
X144311468Y-80629435D01*
X144265112Y-80634000D01*
X143613888Y-80634000D01*
X143567532Y-80629435D01*
X143528862Y-80617704D01*
X143493223Y-80598654D01*
X143461983Y-80573017D01*
X143436346Y-80541777D01*
X143417296Y-80506138D01*
X143405565Y-80467468D01*
X143401000Y-80421112D01*
X143401000Y-79344888D01*
X143405565Y-79298532D01*
X143417296Y-79259862D01*
X143436346Y-79224223D01*
X143461983Y-79192983D01*
X143493223Y-79167346D01*
X143528862Y-79148296D01*
X143567532Y-79136565D01*
X143613888Y-79132000D01*
X144265112Y-79132000D01*
X144311468Y-79136565D01*
X144311468Y-79136565D01*
G37*
G36*
X158733442Y-78734518D02*
G01*
X158799627Y-78741037D01*
X158969466Y-78792557D01*
X158969468Y-78792558D01*
X159047728Y-78834389D01*
X159125991Y-78876222D01*
X159161729Y-78905552D01*
X159263186Y-78988814D01*
X159346448Y-79090271D01*
X159375778Y-79126009D01*
X159375779Y-79126011D01*
X159447325Y-79259862D01*
X159459443Y-79282534D01*
X159510963Y-79452373D01*
X159528359Y-79629000D01*
X159510963Y-79805627D01*
X159459443Y-79975466D01*
X159375778Y-80131991D01*
X159364817Y-80145347D01*
X159263186Y-80269186D01*
X159162352Y-80351937D01*
X159125991Y-80381778D01*
X158969466Y-80465443D01*
X158799627Y-80516963D01*
X158733442Y-80523482D01*
X158667260Y-80530000D01*
X158578740Y-80530000D01*
X158512558Y-80523482D01*
X158446373Y-80516963D01*
X158276534Y-80465443D01*
X158120009Y-80381778D01*
X158083648Y-80351937D01*
X157982814Y-80269186D01*
X157881183Y-80145347D01*
X157870222Y-80131991D01*
X157786557Y-79975466D01*
X157735037Y-79805627D01*
X157717641Y-79629000D01*
X157735037Y-79452373D01*
X157786557Y-79282534D01*
X157798676Y-79259862D01*
X157870221Y-79126011D01*
X157870222Y-79126009D01*
X157899552Y-79090271D01*
X157982814Y-78988814D01*
X158084271Y-78905552D01*
X158120009Y-78876222D01*
X158198272Y-78834389D01*
X158276532Y-78792558D01*
X158276534Y-78792557D01*
X158446373Y-78741037D01*
X158512558Y-78734518D01*
X158578740Y-78728000D01*
X158667260Y-78728000D01*
X158733442Y-78734518D01*
X158733442Y-78734518D01*
G37*
G36*
X156193442Y-78734518D02*
G01*
X156259627Y-78741037D01*
X156429466Y-78792557D01*
X156429468Y-78792558D01*
X156507728Y-78834389D01*
X156585991Y-78876222D01*
X156621729Y-78905552D01*
X156723186Y-78988814D01*
X156806448Y-79090271D01*
X156835778Y-79126009D01*
X156835779Y-79126011D01*
X156907325Y-79259862D01*
X156919443Y-79282534D01*
X156970963Y-79452373D01*
X156988359Y-79629000D01*
X156970963Y-79805627D01*
X156919443Y-79975466D01*
X156835778Y-80131991D01*
X156824817Y-80145347D01*
X156723186Y-80269186D01*
X156622352Y-80351937D01*
X156585991Y-80381778D01*
X156429466Y-80465443D01*
X156259627Y-80516963D01*
X156193442Y-80523482D01*
X156127260Y-80530000D01*
X156038740Y-80530000D01*
X155972558Y-80523482D01*
X155906373Y-80516963D01*
X155736534Y-80465443D01*
X155580009Y-80381778D01*
X155543648Y-80351937D01*
X155442814Y-80269186D01*
X155341183Y-80145347D01*
X155330222Y-80131991D01*
X155246557Y-79975466D01*
X155195037Y-79805627D01*
X155177641Y-79629000D01*
X155195037Y-79452373D01*
X155246557Y-79282534D01*
X155258676Y-79259862D01*
X155330221Y-79126011D01*
X155330222Y-79126009D01*
X155359552Y-79090271D01*
X155442814Y-78988814D01*
X155544271Y-78905552D01*
X155580009Y-78876222D01*
X155658272Y-78834389D01*
X155736532Y-78792558D01*
X155736534Y-78792557D01*
X155906373Y-78741037D01*
X155972558Y-78734518D01*
X156038740Y-78728000D01*
X156127260Y-78728000D01*
X156193442Y-78734518D01*
X156193442Y-78734518D01*
G37*
G36*
X136458818Y-79201696D02*
G01*
X136572105Y-79236062D01*
X136676512Y-79291869D01*
X136676514Y-79291870D01*
X136676513Y-79291870D01*
X136768027Y-79366973D01*
X136797050Y-79402338D01*
X136814374Y-79419662D01*
X136834749Y-79433276D01*
X136857387Y-79442653D01*
X136865606Y-79444288D01*
X136863930Y-79452711D01*
X136863930Y-79477215D01*
X136868710Y-79501248D01*
X136878087Y-79523886D01*
X136898938Y-79562897D01*
X136933304Y-79676182D01*
X136944907Y-79794000D01*
X136933304Y-79911818D01*
X136898938Y-80025103D01*
X136878087Y-80064114D01*
X136868710Y-80086752D01*
X136863930Y-80110786D01*
X136863930Y-80135290D01*
X136865605Y-80143712D01*
X136857387Y-80145347D01*
X136834748Y-80154724D01*
X136814374Y-80168338D01*
X136797050Y-80185662D01*
X136768027Y-80221027D01*
X136699562Y-80277214D01*
X136676512Y-80296131D01*
X136572105Y-80351938D01*
X136458818Y-80386304D01*
X136370519Y-80395000D01*
X135761481Y-80395000D01*
X135673182Y-80386304D01*
X135559895Y-80351938D01*
X135455488Y-80296131D01*
X135363973Y-80221027D01*
X135288869Y-80129512D01*
X135233062Y-80025105D01*
X135198696Y-79911818D01*
X135187093Y-79794000D01*
X135198696Y-79676182D01*
X135233062Y-79562895D01*
X135288869Y-79458488D01*
X135363973Y-79366973D01*
X135455488Y-79291869D01*
X135559895Y-79236062D01*
X135673182Y-79201696D01*
X135761481Y-79193000D01*
X136370519Y-79193000D01*
X136458818Y-79201696D01*
X136458818Y-79201696D01*
G37*
G36*
X138208818Y-78401696D02*
G01*
X138322105Y-78436062D01*
X138426512Y-78491869D01*
X138518027Y-78566973D01*
X138593131Y-78658488D01*
X138648938Y-78762895D01*
X138683304Y-78876182D01*
X138694907Y-78994000D01*
X138683304Y-79111818D01*
X138648938Y-79225105D01*
X138593131Y-79329512D01*
X138518027Y-79421027D01*
X138426512Y-79496131D01*
X138322105Y-79551938D01*
X138208818Y-79586304D01*
X138120519Y-79595000D01*
X137511481Y-79595000D01*
X137423182Y-79586304D01*
X137309895Y-79551938D01*
X137205488Y-79496131D01*
X137159619Y-79458487D01*
X137113973Y-79421027D01*
X137084950Y-79385662D01*
X137067626Y-79368338D01*
X137047251Y-79354724D01*
X137024613Y-79345347D01*
X137016394Y-79343712D01*
X137018070Y-79335289D01*
X137018070Y-79310785D01*
X137013290Y-79286752D01*
X137003913Y-79264114D01*
X136983062Y-79225103D01*
X136948696Y-79111818D01*
X136937093Y-78994000D01*
X136948696Y-78876182D01*
X136983062Y-78762897D01*
X137003913Y-78723886D01*
X137013290Y-78701248D01*
X137018070Y-78677214D01*
X137018070Y-78652710D01*
X137016395Y-78644288D01*
X137024613Y-78642653D01*
X137047252Y-78633276D01*
X137067626Y-78619662D01*
X137084950Y-78602338D01*
X137113973Y-78566973D01*
X137205487Y-78491870D01*
X137205486Y-78491870D01*
X137205488Y-78491869D01*
X137309895Y-78436062D01*
X137423182Y-78401696D01*
X137511481Y-78393000D01*
X138120519Y-78393000D01*
X138208818Y-78401696D01*
X138208818Y-78401696D01*
G37*
G36*
X164541468Y-78381565D02*
G01*
X164580138Y-78393296D01*
X164615777Y-78412346D01*
X164647017Y-78437983D01*
X164672654Y-78469223D01*
X164691704Y-78504862D01*
X164703435Y-78543532D01*
X164708000Y-78589888D01*
X164708000Y-79241112D01*
X164703435Y-79287468D01*
X164691704Y-79326138D01*
X164672654Y-79361777D01*
X164647017Y-79393017D01*
X164615777Y-79418654D01*
X164580138Y-79437704D01*
X164541468Y-79449435D01*
X164495112Y-79454000D01*
X163418888Y-79454000D01*
X163372532Y-79449435D01*
X163333862Y-79437704D01*
X163298223Y-79418654D01*
X163266983Y-79393017D01*
X163241346Y-79361777D01*
X163222296Y-79326138D01*
X163210565Y-79287468D01*
X163206000Y-79241112D01*
X163206000Y-78589888D01*
X163210565Y-78543532D01*
X163222296Y-78504862D01*
X163241346Y-78469223D01*
X163266983Y-78437983D01*
X163298223Y-78412346D01*
X163333862Y-78393296D01*
X163372532Y-78381565D01*
X163418888Y-78377000D01*
X164495112Y-78377000D01*
X164541468Y-78381565D01*
X164541468Y-78381565D01*
G37*
G36*
X136458818Y-77601696D02*
G01*
X136572105Y-77636062D01*
X136676512Y-77691869D01*
X136676514Y-77691870D01*
X136676513Y-77691870D01*
X136768027Y-77766973D01*
X136797050Y-77802338D01*
X136814374Y-77819662D01*
X136834749Y-77833276D01*
X136857387Y-77842653D01*
X136865606Y-77844288D01*
X136863930Y-77852711D01*
X136863930Y-77877215D01*
X136868710Y-77901248D01*
X136878087Y-77923886D01*
X136898938Y-77962897D01*
X136933304Y-78076182D01*
X136944907Y-78194000D01*
X136933304Y-78311818D01*
X136898938Y-78425103D01*
X136878087Y-78464114D01*
X136868710Y-78486752D01*
X136863930Y-78510786D01*
X136863930Y-78535290D01*
X136865605Y-78543712D01*
X136857387Y-78545347D01*
X136834748Y-78554724D01*
X136814374Y-78568338D01*
X136797050Y-78585662D01*
X136768027Y-78621027D01*
X136722381Y-78658487D01*
X136676512Y-78696131D01*
X136572105Y-78751938D01*
X136458818Y-78786304D01*
X136370519Y-78795000D01*
X135761481Y-78795000D01*
X135673182Y-78786304D01*
X135559895Y-78751938D01*
X135455488Y-78696131D01*
X135363973Y-78621027D01*
X135288869Y-78529512D01*
X135233062Y-78425105D01*
X135198696Y-78311818D01*
X135187093Y-78194000D01*
X135198696Y-78076182D01*
X135233062Y-77962895D01*
X135288869Y-77858488D01*
X135363973Y-77766973D01*
X135455488Y-77691869D01*
X135559895Y-77636062D01*
X135673182Y-77601696D01*
X135761481Y-77593000D01*
X136370519Y-77593000D01*
X136458818Y-77601696D01*
X136458818Y-77601696D01*
G37*
G36*
X144311468Y-76596565D02*
G01*
X144350138Y-76608296D01*
X144385777Y-76627346D01*
X144417017Y-76652983D01*
X144442654Y-76684223D01*
X144461704Y-76719862D01*
X144473435Y-76758532D01*
X144478000Y-76804888D01*
X144478000Y-77881112D01*
X144473435Y-77927468D01*
X144461704Y-77966138D01*
X144442654Y-78001777D01*
X144417017Y-78033017D01*
X144385777Y-78058654D01*
X144350138Y-78077704D01*
X144311468Y-78089435D01*
X144265112Y-78094000D01*
X143613888Y-78094000D01*
X143567532Y-78089435D01*
X143528862Y-78077704D01*
X143493223Y-78058654D01*
X143461983Y-78033017D01*
X143436346Y-78001777D01*
X143417296Y-77966138D01*
X143405565Y-77927468D01*
X143401000Y-77881112D01*
X143401000Y-76804888D01*
X143405565Y-76758532D01*
X143417296Y-76719862D01*
X143436346Y-76684223D01*
X143461983Y-76652983D01*
X143493223Y-76627346D01*
X143528862Y-76608296D01*
X143567532Y-76596565D01*
X143613888Y-76592000D01*
X144265112Y-76592000D01*
X144311468Y-76596565D01*
X144311468Y-76596565D01*
G37*
G36*
X142436468Y-76596565D02*
G01*
X142475138Y-76608296D01*
X142510777Y-76627346D01*
X142542017Y-76652983D01*
X142567654Y-76684223D01*
X142586704Y-76719862D01*
X142598435Y-76758532D01*
X142603000Y-76804888D01*
X142603000Y-77881112D01*
X142598435Y-77927468D01*
X142586704Y-77966138D01*
X142567654Y-78001777D01*
X142542017Y-78033017D01*
X142510777Y-78058654D01*
X142475138Y-78077704D01*
X142436468Y-78089435D01*
X142390112Y-78094000D01*
X141738888Y-78094000D01*
X141692532Y-78089435D01*
X141653862Y-78077704D01*
X141618223Y-78058654D01*
X141586983Y-78033017D01*
X141561346Y-78001777D01*
X141542296Y-77966138D01*
X141530565Y-77927468D01*
X141526000Y-77881112D01*
X141526000Y-76804888D01*
X141530565Y-76758532D01*
X141542296Y-76719862D01*
X141561346Y-76684223D01*
X141586983Y-76652983D01*
X141618223Y-76627346D01*
X141653862Y-76608296D01*
X141692532Y-76596565D01*
X141738888Y-76592000D01*
X142390112Y-76592000D01*
X142436468Y-76596565D01*
X142436468Y-76596565D01*
G37*
G36*
X138208818Y-76801696D02*
G01*
X138322105Y-76836062D01*
X138426512Y-76891869D01*
X138518027Y-76966973D01*
X138593131Y-77058488D01*
X138648938Y-77162895D01*
X138683304Y-77276182D01*
X138694907Y-77394000D01*
X138683304Y-77511818D01*
X138648938Y-77625105D01*
X138593131Y-77729512D01*
X138518027Y-77821027D01*
X138426512Y-77896131D01*
X138322105Y-77951938D01*
X138208818Y-77986304D01*
X138120519Y-77995000D01*
X137511481Y-77995000D01*
X137423182Y-77986304D01*
X137309895Y-77951938D01*
X137205488Y-77896131D01*
X137159619Y-77858487D01*
X137113973Y-77821027D01*
X137084950Y-77785662D01*
X137067626Y-77768338D01*
X137047251Y-77754724D01*
X137024613Y-77745347D01*
X137016394Y-77743712D01*
X137018070Y-77735289D01*
X137018070Y-77710785D01*
X137013290Y-77686752D01*
X137003913Y-77664114D01*
X136983062Y-77625103D01*
X136948696Y-77511818D01*
X136937093Y-77394000D01*
X136948696Y-77276182D01*
X136983062Y-77162895D01*
X137038869Y-77058488D01*
X137113973Y-76966973D01*
X137205488Y-76891869D01*
X137309895Y-76836062D01*
X137423182Y-76801696D01*
X137511481Y-76793000D01*
X138120519Y-76793000D01*
X138208818Y-76801696D01*
X138208818Y-76801696D01*
G37*
G36*
X156984000Y-77990000D02*
G01*
X155182000Y-77990000D01*
X155182000Y-76188000D01*
X156984000Y-76188000D01*
X156984000Y-77990000D01*
X156984000Y-77990000D01*
G37*
G36*
X158733442Y-76194518D02*
G01*
X158799627Y-76201037D01*
X158969466Y-76252557D01*
X159125991Y-76336222D01*
X159161729Y-76365552D01*
X159263186Y-76448814D01*
X159335841Y-76537346D01*
X159375778Y-76586009D01*
X159381420Y-76596565D01*
X159447325Y-76719862D01*
X159459443Y-76742534D01*
X159510963Y-76912373D01*
X159528359Y-77089000D01*
X159510963Y-77265627D01*
X159466419Y-77412468D01*
X159459442Y-77435468D01*
X159424874Y-77500139D01*
X159375778Y-77591991D01*
X159367813Y-77601696D01*
X159263186Y-77729186D01*
X159174052Y-77802335D01*
X159125991Y-77841778D01*
X159125989Y-77841779D01*
X159024305Y-77896131D01*
X158969466Y-77925443D01*
X158799627Y-77976963D01*
X158733442Y-77983482D01*
X158667260Y-77990000D01*
X158578740Y-77990000D01*
X158512558Y-77983482D01*
X158446373Y-77976963D01*
X158276534Y-77925443D01*
X158221696Y-77896131D01*
X158120011Y-77841779D01*
X158120009Y-77841778D01*
X158071948Y-77802335D01*
X157982814Y-77729186D01*
X157878187Y-77601696D01*
X157870222Y-77591991D01*
X157821126Y-77500139D01*
X157786558Y-77435468D01*
X157779581Y-77412468D01*
X157735037Y-77265627D01*
X157717641Y-77089000D01*
X157735037Y-76912373D01*
X157786557Y-76742534D01*
X157798676Y-76719862D01*
X157864580Y-76596565D01*
X157870222Y-76586009D01*
X157910159Y-76537346D01*
X157982814Y-76448814D01*
X158084271Y-76365552D01*
X158120009Y-76336222D01*
X158276534Y-76252557D01*
X158446373Y-76201037D01*
X158512558Y-76194518D01*
X158578740Y-76188000D01*
X158667260Y-76188000D01*
X158733442Y-76194518D01*
X158733442Y-76194518D01*
G37*
G36*
X164541468Y-76506565D02*
G01*
X164580138Y-76518296D01*
X164615777Y-76537346D01*
X164647017Y-76562983D01*
X164672654Y-76594223D01*
X164691704Y-76629862D01*
X164703435Y-76668532D01*
X164708000Y-76714888D01*
X164708000Y-77366112D01*
X164703435Y-77412468D01*
X164691704Y-77451138D01*
X164672654Y-77486777D01*
X164647017Y-77518017D01*
X164615777Y-77543654D01*
X164580138Y-77562704D01*
X164541468Y-77574435D01*
X164495112Y-77579000D01*
X163418888Y-77579000D01*
X163372532Y-77574435D01*
X163333862Y-77562704D01*
X163298223Y-77543654D01*
X163266983Y-77518017D01*
X163241346Y-77486777D01*
X163222296Y-77451138D01*
X163210565Y-77412468D01*
X163206000Y-77366112D01*
X163206000Y-76714888D01*
X163210565Y-76668532D01*
X163222296Y-76629862D01*
X163241346Y-76594223D01*
X163266983Y-76562983D01*
X163298223Y-76537346D01*
X163333862Y-76518296D01*
X163372532Y-76506565D01*
X163418888Y-76502000D01*
X164495112Y-76502000D01*
X164541468Y-76506565D01*
X164541468Y-76506565D01*
G37*
G36*
X177554000Y-77265000D02*
G01*
X168902000Y-77265000D01*
X168902000Y-75663000D01*
X177554000Y-75663000D01*
X177554000Y-77265000D01*
X177554000Y-77265000D01*
G37*
G36*
X133101443Y-74449519D02*
G01*
X133167627Y-74456037D01*
X133337466Y-74507557D01*
X133493991Y-74591222D01*
X133529729Y-74620552D01*
X133631186Y-74703814D01*
X133714448Y-74805271D01*
X133743778Y-74841009D01*
X133827443Y-74997534D01*
X133878963Y-75167373D01*
X133896359Y-75344000D01*
X133878963Y-75520627D01*
X133827443Y-75690466D01*
X133743778Y-75846991D01*
X133714448Y-75882729D01*
X133631186Y-75984186D01*
X133529729Y-76067448D01*
X133493991Y-76096778D01*
X133337466Y-76180443D01*
X133167627Y-76231963D01*
X133101443Y-76238481D01*
X133035260Y-76245000D01*
X131946740Y-76245000D01*
X131880557Y-76238481D01*
X131814373Y-76231963D01*
X131644534Y-76180443D01*
X131488009Y-76096778D01*
X131452271Y-76067448D01*
X131350814Y-75984186D01*
X131267552Y-75882729D01*
X131238222Y-75846991D01*
X131154557Y-75690466D01*
X131103037Y-75520627D01*
X131085641Y-75344000D01*
X131103037Y-75167373D01*
X131154557Y-74997534D01*
X131238222Y-74841009D01*
X131267552Y-74805271D01*
X131350814Y-74703814D01*
X131452271Y-74620552D01*
X131488009Y-74591222D01*
X131644534Y-74507557D01*
X131814373Y-74456037D01*
X131880557Y-74449519D01*
X131946740Y-74443000D01*
X133035260Y-74443000D01*
X133101443Y-74449519D01*
X133101443Y-74449519D01*
G37*
G36*
X142436468Y-74447565D02*
G01*
X142475138Y-74459296D01*
X142510777Y-74478346D01*
X142542017Y-74503983D01*
X142567654Y-74535223D01*
X142586704Y-74570862D01*
X142598435Y-74609532D01*
X142603000Y-74655888D01*
X142603000Y-75732112D01*
X142598435Y-75778468D01*
X142586704Y-75817138D01*
X142567654Y-75852777D01*
X142542017Y-75884017D01*
X142510777Y-75909654D01*
X142475138Y-75928704D01*
X142436468Y-75940435D01*
X142390112Y-75945000D01*
X141738888Y-75945000D01*
X141692532Y-75940435D01*
X141653862Y-75928704D01*
X141618223Y-75909654D01*
X141586983Y-75884017D01*
X141561346Y-75852777D01*
X141542296Y-75817138D01*
X141530565Y-75778468D01*
X141526000Y-75732112D01*
X141526000Y-74655888D01*
X141530565Y-74609532D01*
X141542296Y-74570862D01*
X141561346Y-74535223D01*
X141586983Y-74503983D01*
X141618223Y-74478346D01*
X141653862Y-74459296D01*
X141692532Y-74447565D01*
X141738888Y-74443000D01*
X142390112Y-74443000D01*
X142436468Y-74447565D01*
X142436468Y-74447565D01*
G37*
G36*
X144311468Y-74447565D02*
G01*
X144350138Y-74459296D01*
X144385777Y-74478346D01*
X144417017Y-74503983D01*
X144442654Y-74535223D01*
X144461704Y-74570862D01*
X144473435Y-74609532D01*
X144478000Y-74655888D01*
X144478000Y-75732112D01*
X144473435Y-75778468D01*
X144461704Y-75817138D01*
X144442654Y-75852777D01*
X144417017Y-75884017D01*
X144385777Y-75909654D01*
X144350138Y-75928704D01*
X144311468Y-75940435D01*
X144265112Y-75945000D01*
X143613888Y-75945000D01*
X143567532Y-75940435D01*
X143528862Y-75928704D01*
X143493223Y-75909654D01*
X143461983Y-75884017D01*
X143436346Y-75852777D01*
X143417296Y-75817138D01*
X143405565Y-75778468D01*
X143401000Y-75732112D01*
X143401000Y-74655888D01*
X143405565Y-74609532D01*
X143417296Y-74570862D01*
X143436346Y-74535223D01*
X143461983Y-74503983D01*
X143493223Y-74478346D01*
X143528862Y-74459296D01*
X143567532Y-74447565D01*
X143613888Y-74443000D01*
X144265112Y-74443000D01*
X144311468Y-74447565D01*
X144311468Y-74447565D01*
G37*
G36*
X167642468Y-72024565D02*
G01*
X167681138Y-72036296D01*
X167716777Y-72055346D01*
X167748017Y-72080983D01*
X167773654Y-72112223D01*
X167792704Y-72147862D01*
X167804435Y-72186532D01*
X167809000Y-72232888D01*
X167809000Y-73309112D01*
X167804435Y-73355468D01*
X167792704Y-73394138D01*
X167773654Y-73429777D01*
X167748017Y-73461017D01*
X167716777Y-73486654D01*
X167681138Y-73505704D01*
X167642468Y-73517435D01*
X167596112Y-73522000D01*
X166944888Y-73522000D01*
X166898532Y-73517435D01*
X166859862Y-73505704D01*
X166824223Y-73486654D01*
X166792983Y-73461017D01*
X166767346Y-73429777D01*
X166748296Y-73394138D01*
X166736565Y-73355468D01*
X166732000Y-73309112D01*
X166732000Y-72232888D01*
X166736565Y-72186532D01*
X166748296Y-72147862D01*
X166767346Y-72112223D01*
X166792983Y-72080983D01*
X166824223Y-72055346D01*
X166859862Y-72036296D01*
X166898532Y-72024565D01*
X166944888Y-72020000D01*
X167596112Y-72020000D01*
X167642468Y-72024565D01*
X167642468Y-72024565D01*
G37*
G36*
X169517468Y-72024565D02*
G01*
X169556138Y-72036296D01*
X169591777Y-72055346D01*
X169623017Y-72080983D01*
X169648654Y-72112223D01*
X169667704Y-72147862D01*
X169679435Y-72186532D01*
X169684000Y-72232888D01*
X169684000Y-73309112D01*
X169679435Y-73355468D01*
X169667704Y-73394138D01*
X169648654Y-73429777D01*
X169623017Y-73461017D01*
X169591777Y-73486654D01*
X169556138Y-73505704D01*
X169517468Y-73517435D01*
X169471112Y-73522000D01*
X168819888Y-73522000D01*
X168773532Y-73517435D01*
X168734862Y-73505704D01*
X168699223Y-73486654D01*
X168667983Y-73461017D01*
X168642346Y-73429777D01*
X168623296Y-73394138D01*
X168611565Y-73355468D01*
X168607000Y-73309112D01*
X168607000Y-72232888D01*
X168611565Y-72186532D01*
X168623296Y-72147862D01*
X168642346Y-72112223D01*
X168667983Y-72080983D01*
X168699223Y-72055346D01*
X168734862Y-72036296D01*
X168773532Y-72024565D01*
X168819888Y-72020000D01*
X169471112Y-72020000D01*
X169517468Y-72024565D01*
X169517468Y-72024565D01*
G37*
G36*
X154000468Y-71339565D02*
G01*
X154039138Y-71351296D01*
X154074777Y-71370346D01*
X154106017Y-71395983D01*
X154131654Y-71427223D01*
X154150704Y-71462862D01*
X154162435Y-71501532D01*
X154167000Y-71547888D01*
X154167000Y-72199112D01*
X154162435Y-72245468D01*
X154150704Y-72284138D01*
X154131654Y-72319777D01*
X154106017Y-72351017D01*
X154074777Y-72376654D01*
X154039138Y-72395704D01*
X154000468Y-72407435D01*
X153954112Y-72412000D01*
X152877888Y-72412000D01*
X152831532Y-72407435D01*
X152792862Y-72395704D01*
X152757223Y-72376654D01*
X152725983Y-72351017D01*
X152700346Y-72319777D01*
X152681296Y-72284138D01*
X152669565Y-72245468D01*
X152665000Y-72199112D01*
X152665000Y-71547888D01*
X152669565Y-71501532D01*
X152681296Y-71462862D01*
X152700346Y-71427223D01*
X152725983Y-71395983D01*
X152757223Y-71370346D01*
X152792862Y-71351296D01*
X152831532Y-71339565D01*
X152877888Y-71335000D01*
X153954112Y-71335000D01*
X154000468Y-71339565D01*
X154000468Y-71339565D01*
G37*
G36*
X188544468Y-71269565D02*
G01*
X188583138Y-71281296D01*
X188618777Y-71300346D01*
X188650017Y-71325983D01*
X188675654Y-71357223D01*
X188694704Y-71392862D01*
X188706435Y-71431532D01*
X188711000Y-71477888D01*
X188711000Y-72129112D01*
X188706435Y-72175468D01*
X188694704Y-72214138D01*
X188675654Y-72249777D01*
X188650017Y-72281017D01*
X188618777Y-72306654D01*
X188583138Y-72325704D01*
X188544468Y-72337435D01*
X188498112Y-72342000D01*
X187421888Y-72342000D01*
X187375532Y-72337435D01*
X187336862Y-72325704D01*
X187301223Y-72306654D01*
X187269983Y-72281017D01*
X187244346Y-72249777D01*
X187225296Y-72214138D01*
X187213565Y-72175468D01*
X187209000Y-72129112D01*
X187209000Y-71477888D01*
X187213565Y-71431532D01*
X187225296Y-71392862D01*
X187244346Y-71357223D01*
X187269983Y-71325983D01*
X187301223Y-71300346D01*
X187336862Y-71281296D01*
X187375532Y-71269565D01*
X187421888Y-71265000D01*
X188498112Y-71265000D01*
X188544468Y-71269565D01*
X188544468Y-71269565D01*
G37*
G36*
X192227468Y-71269565D02*
G01*
X192266138Y-71281296D01*
X192301777Y-71300346D01*
X192333017Y-71325983D01*
X192358654Y-71357223D01*
X192377704Y-71392862D01*
X192389435Y-71431532D01*
X192394000Y-71477888D01*
X192394000Y-72129112D01*
X192389435Y-72175468D01*
X192377704Y-72214138D01*
X192358654Y-72249777D01*
X192333017Y-72281017D01*
X192301777Y-72306654D01*
X192266138Y-72325704D01*
X192227468Y-72337435D01*
X192181112Y-72342000D01*
X191104888Y-72342000D01*
X191058532Y-72337435D01*
X191019862Y-72325704D01*
X190984223Y-72306654D01*
X190952983Y-72281017D01*
X190927346Y-72249777D01*
X190908296Y-72214138D01*
X190896565Y-72175468D01*
X190892000Y-72129112D01*
X190892000Y-71477888D01*
X190896565Y-71431532D01*
X190908296Y-71392862D01*
X190927346Y-71357223D01*
X190952983Y-71325983D01*
X190984223Y-71300346D01*
X191019862Y-71281296D01*
X191058532Y-71269565D01*
X191104888Y-71265000D01*
X192181112Y-71265000D01*
X192227468Y-71269565D01*
X192227468Y-71269565D01*
G37*
G36*
X181178468Y-71269565D02*
G01*
X181217138Y-71281296D01*
X181252777Y-71300346D01*
X181284017Y-71325983D01*
X181309654Y-71357223D01*
X181328704Y-71392862D01*
X181340435Y-71431532D01*
X181345000Y-71477888D01*
X181345000Y-72129112D01*
X181340435Y-72175468D01*
X181328704Y-72214138D01*
X181309654Y-72249777D01*
X181284017Y-72281017D01*
X181252777Y-72306654D01*
X181217138Y-72325704D01*
X181178468Y-72337435D01*
X181132112Y-72342000D01*
X180055888Y-72342000D01*
X180009532Y-72337435D01*
X179970862Y-72325704D01*
X179935223Y-72306654D01*
X179903983Y-72281017D01*
X179878346Y-72249777D01*
X179859296Y-72214138D01*
X179847565Y-72175468D01*
X179843000Y-72129112D01*
X179843000Y-71477888D01*
X179847565Y-71431532D01*
X179859296Y-71392862D01*
X179878346Y-71357223D01*
X179903983Y-71325983D01*
X179935223Y-71300346D01*
X179970862Y-71281296D01*
X180009532Y-71269565D01*
X180055888Y-71265000D01*
X181132112Y-71265000D01*
X181178468Y-71269565D01*
X181178468Y-71269565D01*
G37*
G36*
X203276468Y-71269565D02*
G01*
X203315138Y-71281296D01*
X203350777Y-71300346D01*
X203382017Y-71325983D01*
X203407654Y-71357223D01*
X203426704Y-71392862D01*
X203438435Y-71431532D01*
X203443000Y-71477888D01*
X203443000Y-72129112D01*
X203438435Y-72175468D01*
X203426704Y-72214138D01*
X203407654Y-72249777D01*
X203382017Y-72281017D01*
X203350777Y-72306654D01*
X203315138Y-72325704D01*
X203276468Y-72337435D01*
X203230112Y-72342000D01*
X202153888Y-72342000D01*
X202107532Y-72337435D01*
X202068862Y-72325704D01*
X202033223Y-72306654D01*
X202001983Y-72281017D01*
X201976346Y-72249777D01*
X201957296Y-72214138D01*
X201945565Y-72175468D01*
X201941000Y-72129112D01*
X201941000Y-71477888D01*
X201945565Y-71431532D01*
X201957296Y-71392862D01*
X201976346Y-71357223D01*
X202001983Y-71325983D01*
X202033223Y-71300346D01*
X202068862Y-71281296D01*
X202107532Y-71269565D01*
X202153888Y-71265000D01*
X203230112Y-71265000D01*
X203276468Y-71269565D01*
X203276468Y-71269565D01*
G37*
G36*
X195910468Y-71269565D02*
G01*
X195949138Y-71281296D01*
X195984777Y-71300346D01*
X196016017Y-71325983D01*
X196041654Y-71357223D01*
X196060704Y-71392862D01*
X196072435Y-71431532D01*
X196077000Y-71477888D01*
X196077000Y-72129112D01*
X196072435Y-72175468D01*
X196060704Y-72214138D01*
X196041654Y-72249777D01*
X196016017Y-72281017D01*
X195984777Y-72306654D01*
X195949138Y-72325704D01*
X195910468Y-72337435D01*
X195864112Y-72342000D01*
X194787888Y-72342000D01*
X194741532Y-72337435D01*
X194702862Y-72325704D01*
X194667223Y-72306654D01*
X194635983Y-72281017D01*
X194610346Y-72249777D01*
X194591296Y-72214138D01*
X194579565Y-72175468D01*
X194575000Y-72129112D01*
X194575000Y-71477888D01*
X194579565Y-71431532D01*
X194591296Y-71392862D01*
X194610346Y-71357223D01*
X194635983Y-71325983D01*
X194667223Y-71300346D01*
X194702862Y-71281296D01*
X194741532Y-71269565D01*
X194787888Y-71265000D01*
X195864112Y-71265000D01*
X195910468Y-71269565D01*
X195910468Y-71269565D01*
G37*
G36*
X199593468Y-71269565D02*
G01*
X199632138Y-71281296D01*
X199667777Y-71300346D01*
X199699017Y-71325983D01*
X199724654Y-71357223D01*
X199743704Y-71392862D01*
X199755435Y-71431532D01*
X199760000Y-71477888D01*
X199760000Y-72129112D01*
X199755435Y-72175468D01*
X199743704Y-72214138D01*
X199724654Y-72249777D01*
X199699017Y-72281017D01*
X199667777Y-72306654D01*
X199632138Y-72325704D01*
X199593468Y-72337435D01*
X199547112Y-72342000D01*
X198470888Y-72342000D01*
X198424532Y-72337435D01*
X198385862Y-72325704D01*
X198350223Y-72306654D01*
X198318983Y-72281017D01*
X198293346Y-72249777D01*
X198274296Y-72214138D01*
X198262565Y-72175468D01*
X198258000Y-72129112D01*
X198258000Y-71477888D01*
X198262565Y-71431532D01*
X198274296Y-71392862D01*
X198293346Y-71357223D01*
X198318983Y-71325983D01*
X198350223Y-71300346D01*
X198385862Y-71281296D01*
X198424532Y-71269565D01*
X198470888Y-71265000D01*
X199547112Y-71265000D01*
X199593468Y-71269565D01*
X199593468Y-71269565D01*
G37*
G36*
X173812468Y-71269565D02*
G01*
X173851138Y-71281296D01*
X173886777Y-71300346D01*
X173918017Y-71325983D01*
X173943654Y-71357223D01*
X173962704Y-71392862D01*
X173974435Y-71431532D01*
X173979000Y-71477888D01*
X173979000Y-72129112D01*
X173974435Y-72175468D01*
X173962704Y-72214138D01*
X173943654Y-72249777D01*
X173918017Y-72281017D01*
X173886777Y-72306654D01*
X173851138Y-72325704D01*
X173812468Y-72337435D01*
X173766112Y-72342000D01*
X172689888Y-72342000D01*
X172643532Y-72337435D01*
X172604862Y-72325704D01*
X172569223Y-72306654D01*
X172537983Y-72281017D01*
X172512346Y-72249777D01*
X172493296Y-72214138D01*
X172481565Y-72175468D01*
X172477000Y-72129112D01*
X172477000Y-71477888D01*
X172481565Y-71431532D01*
X172493296Y-71392862D01*
X172512346Y-71357223D01*
X172537983Y-71325983D01*
X172569223Y-71300346D01*
X172604862Y-71281296D01*
X172643532Y-71269565D01*
X172689888Y-71265000D01*
X173766112Y-71265000D01*
X173812468Y-71269565D01*
X173812468Y-71269565D01*
G37*
G36*
X177495468Y-71269565D02*
G01*
X177534138Y-71281296D01*
X177569777Y-71300346D01*
X177601017Y-71325983D01*
X177626654Y-71357223D01*
X177645704Y-71392862D01*
X177657435Y-71431532D01*
X177662000Y-71477888D01*
X177662000Y-72129112D01*
X177657435Y-72175468D01*
X177645704Y-72214138D01*
X177626654Y-72249777D01*
X177601017Y-72281017D01*
X177569777Y-72306654D01*
X177534138Y-72325704D01*
X177495468Y-72337435D01*
X177449112Y-72342000D01*
X176372888Y-72342000D01*
X176326532Y-72337435D01*
X176287862Y-72325704D01*
X176252223Y-72306654D01*
X176220983Y-72281017D01*
X176195346Y-72249777D01*
X176176296Y-72214138D01*
X176164565Y-72175468D01*
X176160000Y-72129112D01*
X176160000Y-71477888D01*
X176164565Y-71431532D01*
X176176296Y-71392862D01*
X176195346Y-71357223D01*
X176220983Y-71325983D01*
X176252223Y-71300346D01*
X176287862Y-71281296D01*
X176326532Y-71269565D01*
X176372888Y-71265000D01*
X177449112Y-71265000D01*
X177495468Y-71269565D01*
X177495468Y-71269565D01*
G37*
G36*
X184861468Y-71269565D02*
G01*
X184900138Y-71281296D01*
X184935777Y-71300346D01*
X184967017Y-71325983D01*
X184992654Y-71357223D01*
X185011704Y-71392862D01*
X185023435Y-71431532D01*
X185028000Y-71477888D01*
X185028000Y-72129112D01*
X185023435Y-72175468D01*
X185011704Y-72214138D01*
X184992654Y-72249777D01*
X184967017Y-72281017D01*
X184935777Y-72306654D01*
X184900138Y-72325704D01*
X184861468Y-72337435D01*
X184815112Y-72342000D01*
X183738888Y-72342000D01*
X183692532Y-72337435D01*
X183653862Y-72325704D01*
X183618223Y-72306654D01*
X183586983Y-72281017D01*
X183561346Y-72249777D01*
X183542296Y-72214138D01*
X183530565Y-72175468D01*
X183526000Y-72129112D01*
X183526000Y-71477888D01*
X183530565Y-71431532D01*
X183542296Y-71392862D01*
X183561346Y-71357223D01*
X183586983Y-71325983D01*
X183618223Y-71300346D01*
X183653862Y-71281296D01*
X183692532Y-71269565D01*
X183738888Y-71265000D01*
X184815112Y-71265000D01*
X184861468Y-71269565D01*
X184861468Y-71269565D01*
G37*
G36*
X151488000Y-72337000D02*
G01*
X150486000Y-72337000D01*
X150486000Y-71435000D01*
X151488000Y-71435000D01*
X151488000Y-72337000D01*
X151488000Y-72337000D01*
G37*
G36*
X149488000Y-71387000D02*
G01*
X148486000Y-71387000D01*
X148486000Y-70485000D01*
X149488000Y-70485000D01*
X149488000Y-71387000D01*
X149488000Y-71387000D01*
G37*
G36*
X154000468Y-69464565D02*
G01*
X154039138Y-69476296D01*
X154074777Y-69495346D01*
X154106017Y-69520983D01*
X154131654Y-69552223D01*
X154150704Y-69587862D01*
X154162435Y-69626532D01*
X154167000Y-69672888D01*
X154167000Y-70324112D01*
X154162435Y-70370468D01*
X154150704Y-70409138D01*
X154131654Y-70444777D01*
X154106017Y-70476017D01*
X154074777Y-70501654D01*
X154039138Y-70520704D01*
X154000468Y-70532435D01*
X153954112Y-70537000D01*
X152877888Y-70537000D01*
X152831532Y-70532435D01*
X152792862Y-70520704D01*
X152757223Y-70501654D01*
X152725983Y-70476017D01*
X152700346Y-70444777D01*
X152681296Y-70409138D01*
X152669565Y-70370468D01*
X152665000Y-70324112D01*
X152665000Y-69672888D01*
X152669565Y-69626532D01*
X152681296Y-69587862D01*
X152700346Y-69552223D01*
X152725983Y-69520983D01*
X152757223Y-69495346D01*
X152792862Y-69476296D01*
X152831532Y-69464565D01*
X152877888Y-69460000D01*
X153954112Y-69460000D01*
X154000468Y-69464565D01*
X154000468Y-69464565D01*
G37*
G36*
X192227468Y-69394565D02*
G01*
X192266138Y-69406296D01*
X192301777Y-69425346D01*
X192333017Y-69450983D01*
X192358654Y-69482223D01*
X192377704Y-69517862D01*
X192389435Y-69556532D01*
X192394000Y-69602888D01*
X192394000Y-70254112D01*
X192389435Y-70300468D01*
X192377704Y-70339138D01*
X192358654Y-70374777D01*
X192333017Y-70406017D01*
X192301777Y-70431654D01*
X192266138Y-70450704D01*
X192227468Y-70462435D01*
X192181112Y-70467000D01*
X191104888Y-70467000D01*
X191058532Y-70462435D01*
X191019862Y-70450704D01*
X190984223Y-70431654D01*
X190952983Y-70406017D01*
X190927346Y-70374777D01*
X190908296Y-70339138D01*
X190896565Y-70300468D01*
X190892000Y-70254112D01*
X190892000Y-69602888D01*
X190896565Y-69556532D01*
X190908296Y-69517862D01*
X190927346Y-69482223D01*
X190952983Y-69450983D01*
X190984223Y-69425346D01*
X191019862Y-69406296D01*
X191058532Y-69394565D01*
X191104888Y-69390000D01*
X192181112Y-69390000D01*
X192227468Y-69394565D01*
X192227468Y-69394565D01*
G37*
G36*
X181178468Y-69394565D02*
G01*
X181217138Y-69406296D01*
X181252777Y-69425346D01*
X181284017Y-69450983D01*
X181309654Y-69482223D01*
X181328704Y-69517862D01*
X181340435Y-69556532D01*
X181345000Y-69602888D01*
X181345000Y-70254112D01*
X181340435Y-70300468D01*
X181328704Y-70339138D01*
X181309654Y-70374777D01*
X181284017Y-70406017D01*
X181252777Y-70431654D01*
X181217138Y-70450704D01*
X181178468Y-70462435D01*
X181132112Y-70467000D01*
X180055888Y-70467000D01*
X180009532Y-70462435D01*
X179970862Y-70450704D01*
X179935223Y-70431654D01*
X179903983Y-70406017D01*
X179878346Y-70374777D01*
X179859296Y-70339138D01*
X179847565Y-70300468D01*
X179843000Y-70254112D01*
X179843000Y-69602888D01*
X179847565Y-69556532D01*
X179859296Y-69517862D01*
X179878346Y-69482223D01*
X179903983Y-69450983D01*
X179935223Y-69425346D01*
X179970862Y-69406296D01*
X180009532Y-69394565D01*
X180055888Y-69390000D01*
X181132112Y-69390000D01*
X181178468Y-69394565D01*
X181178468Y-69394565D01*
G37*
G36*
X177495468Y-69394565D02*
G01*
X177534138Y-69406296D01*
X177569777Y-69425346D01*
X177601017Y-69450983D01*
X177626654Y-69482223D01*
X177645704Y-69517862D01*
X177657435Y-69556532D01*
X177662000Y-69602888D01*
X177662000Y-70254112D01*
X177657435Y-70300468D01*
X177645704Y-70339138D01*
X177626654Y-70374777D01*
X177601017Y-70406017D01*
X177569777Y-70431654D01*
X177534138Y-70450704D01*
X177495468Y-70462435D01*
X177449112Y-70467000D01*
X176372888Y-70467000D01*
X176326532Y-70462435D01*
X176287862Y-70450704D01*
X176252223Y-70431654D01*
X176220983Y-70406017D01*
X176195346Y-70374777D01*
X176176296Y-70339138D01*
X176164565Y-70300468D01*
X176160000Y-70254112D01*
X176160000Y-69602888D01*
X176164565Y-69556532D01*
X176176296Y-69517862D01*
X176195346Y-69482223D01*
X176220983Y-69450983D01*
X176252223Y-69425346D01*
X176287862Y-69406296D01*
X176326532Y-69394565D01*
X176372888Y-69390000D01*
X177449112Y-69390000D01*
X177495468Y-69394565D01*
X177495468Y-69394565D01*
G37*
G36*
X188544468Y-69394565D02*
G01*
X188583138Y-69406296D01*
X188618777Y-69425346D01*
X188650017Y-69450983D01*
X188675654Y-69482223D01*
X188694704Y-69517862D01*
X188706435Y-69556532D01*
X188711000Y-69602888D01*
X188711000Y-70254112D01*
X188706435Y-70300468D01*
X188694704Y-70339138D01*
X188675654Y-70374777D01*
X188650017Y-70406017D01*
X188618777Y-70431654D01*
X188583138Y-70450704D01*
X188544468Y-70462435D01*
X188498112Y-70467000D01*
X187421888Y-70467000D01*
X187375532Y-70462435D01*
X187336862Y-70450704D01*
X187301223Y-70431654D01*
X187269983Y-70406017D01*
X187244346Y-70374777D01*
X187225296Y-70339138D01*
X187213565Y-70300468D01*
X187209000Y-70254112D01*
X187209000Y-69602888D01*
X187213565Y-69556532D01*
X187225296Y-69517862D01*
X187244346Y-69482223D01*
X187269983Y-69450983D01*
X187301223Y-69425346D01*
X187336862Y-69406296D01*
X187375532Y-69394565D01*
X187421888Y-69390000D01*
X188498112Y-69390000D01*
X188544468Y-69394565D01*
X188544468Y-69394565D01*
G37*
G36*
X195910468Y-69394565D02*
G01*
X195949138Y-69406296D01*
X195984777Y-69425346D01*
X196016017Y-69450983D01*
X196041654Y-69482223D01*
X196060704Y-69517862D01*
X196072435Y-69556532D01*
X196077000Y-69602888D01*
X196077000Y-70254112D01*
X196072435Y-70300468D01*
X196060704Y-70339138D01*
X196041654Y-70374777D01*
X196016017Y-70406017D01*
X195984777Y-70431654D01*
X195949138Y-70450704D01*
X195910468Y-70462435D01*
X195864112Y-70467000D01*
X194787888Y-70467000D01*
X194741532Y-70462435D01*
X194702862Y-70450704D01*
X194667223Y-70431654D01*
X194635983Y-70406017D01*
X194610346Y-70374777D01*
X194591296Y-70339138D01*
X194579565Y-70300468D01*
X194575000Y-70254112D01*
X194575000Y-69602888D01*
X194579565Y-69556532D01*
X194591296Y-69517862D01*
X194610346Y-69482223D01*
X194635983Y-69450983D01*
X194667223Y-69425346D01*
X194702862Y-69406296D01*
X194741532Y-69394565D01*
X194787888Y-69390000D01*
X195864112Y-69390000D01*
X195910468Y-69394565D01*
X195910468Y-69394565D01*
G37*
G36*
X199593468Y-69394565D02*
G01*
X199632138Y-69406296D01*
X199667777Y-69425346D01*
X199699017Y-69450983D01*
X199724654Y-69482223D01*
X199743704Y-69517862D01*
X199755435Y-69556532D01*
X199760000Y-69602888D01*
X199760000Y-70254112D01*
X199755435Y-70300468D01*
X199743704Y-70339138D01*
X199724654Y-70374777D01*
X199699017Y-70406017D01*
X199667777Y-70431654D01*
X199632138Y-70450704D01*
X199593468Y-70462435D01*
X199547112Y-70467000D01*
X198470888Y-70467000D01*
X198424532Y-70462435D01*
X198385862Y-70450704D01*
X198350223Y-70431654D01*
X198318983Y-70406017D01*
X198293346Y-70374777D01*
X198274296Y-70339138D01*
X198262565Y-70300468D01*
X198258000Y-70254112D01*
X198258000Y-69602888D01*
X198262565Y-69556532D01*
X198274296Y-69517862D01*
X198293346Y-69482223D01*
X198318983Y-69450983D01*
X198350223Y-69425346D01*
X198385862Y-69406296D01*
X198424532Y-69394565D01*
X198470888Y-69390000D01*
X199547112Y-69390000D01*
X199593468Y-69394565D01*
X199593468Y-69394565D01*
G37*
G36*
X203276468Y-69394565D02*
G01*
X203315138Y-69406296D01*
X203350777Y-69425346D01*
X203382017Y-69450983D01*
X203407654Y-69482223D01*
X203426704Y-69517862D01*
X203438435Y-69556532D01*
X203443000Y-69602888D01*
X203443000Y-70254112D01*
X203438435Y-70300468D01*
X203426704Y-70339138D01*
X203407654Y-70374777D01*
X203382017Y-70406017D01*
X203350777Y-70431654D01*
X203315138Y-70450704D01*
X203276468Y-70462435D01*
X203230112Y-70467000D01*
X202153888Y-70467000D01*
X202107532Y-70462435D01*
X202068862Y-70450704D01*
X202033223Y-70431654D01*
X202001983Y-70406017D01*
X201976346Y-70374777D01*
X201957296Y-70339138D01*
X201945565Y-70300468D01*
X201941000Y-70254112D01*
X201941000Y-69602888D01*
X201945565Y-69556532D01*
X201957296Y-69517862D01*
X201976346Y-69482223D01*
X202001983Y-69450983D01*
X202033223Y-69425346D01*
X202068862Y-69406296D01*
X202107532Y-69394565D01*
X202153888Y-69390000D01*
X203230112Y-69390000D01*
X203276468Y-69394565D01*
X203276468Y-69394565D01*
G37*
G36*
X173812468Y-69394565D02*
G01*
X173851138Y-69406296D01*
X173886777Y-69425346D01*
X173918017Y-69450983D01*
X173943654Y-69482223D01*
X173962704Y-69517862D01*
X173974435Y-69556532D01*
X173979000Y-69602888D01*
X173979000Y-70254112D01*
X173974435Y-70300468D01*
X173962704Y-70339138D01*
X173943654Y-70374777D01*
X173918017Y-70406017D01*
X173886777Y-70431654D01*
X173851138Y-70450704D01*
X173812468Y-70462435D01*
X173766112Y-70467000D01*
X172689888Y-70467000D01*
X172643532Y-70462435D01*
X172604862Y-70450704D01*
X172569223Y-70431654D01*
X172537983Y-70406017D01*
X172512346Y-70374777D01*
X172493296Y-70339138D01*
X172481565Y-70300468D01*
X172477000Y-70254112D01*
X172477000Y-69602888D01*
X172481565Y-69556532D01*
X172493296Y-69517862D01*
X172512346Y-69482223D01*
X172537983Y-69450983D01*
X172569223Y-69425346D01*
X172604862Y-69406296D01*
X172643532Y-69394565D01*
X172689888Y-69390000D01*
X173766112Y-69390000D01*
X173812468Y-69394565D01*
X173812468Y-69394565D01*
G37*
G36*
X184861468Y-69394565D02*
G01*
X184900138Y-69406296D01*
X184935777Y-69425346D01*
X184967017Y-69450983D01*
X184992654Y-69482223D01*
X185011704Y-69517862D01*
X185023435Y-69556532D01*
X185028000Y-69602888D01*
X185028000Y-70254112D01*
X185023435Y-70300468D01*
X185011704Y-70339138D01*
X184992654Y-70374777D01*
X184967017Y-70406017D01*
X184935777Y-70431654D01*
X184900138Y-70450704D01*
X184861468Y-70462435D01*
X184815112Y-70467000D01*
X183738888Y-70467000D01*
X183692532Y-70462435D01*
X183653862Y-70450704D01*
X183618223Y-70431654D01*
X183586983Y-70406017D01*
X183561346Y-70374777D01*
X183542296Y-70339138D01*
X183530565Y-70300468D01*
X183526000Y-70254112D01*
X183526000Y-69602888D01*
X183530565Y-69556532D01*
X183542296Y-69517862D01*
X183561346Y-69482223D01*
X183586983Y-69450983D01*
X183618223Y-69425346D01*
X183653862Y-69406296D01*
X183692532Y-69394565D01*
X183738888Y-69390000D01*
X184815112Y-69390000D01*
X184861468Y-69394565D01*
X184861468Y-69394565D01*
G37*
G36*
X151488000Y-70437000D02*
G01*
X150486000Y-70437000D01*
X150486000Y-69535000D01*
X151488000Y-69535000D01*
X151488000Y-70437000D01*
X151488000Y-70437000D01*
G37*
G36*
X138596468Y-60848565D02*
G01*
X138635138Y-60860296D01*
X138670777Y-60879346D01*
X138702017Y-60904983D01*
X138727654Y-60936223D01*
X138746704Y-60971862D01*
X138758435Y-61010532D01*
X138763000Y-61056888D01*
X138763000Y-62133112D01*
X138758435Y-62179468D01*
X138746704Y-62218138D01*
X138727654Y-62253777D01*
X138702017Y-62285017D01*
X138670777Y-62310654D01*
X138635138Y-62329704D01*
X138596468Y-62341435D01*
X138550112Y-62346000D01*
X137898888Y-62346000D01*
X137852532Y-62341435D01*
X137813862Y-62329704D01*
X137778223Y-62310654D01*
X137746983Y-62285017D01*
X137721346Y-62253777D01*
X137702296Y-62218138D01*
X137690565Y-62179468D01*
X137686000Y-62133112D01*
X137686000Y-61056888D01*
X137690565Y-61010532D01*
X137702296Y-60971862D01*
X137721346Y-60936223D01*
X137746983Y-60904983D01*
X137778223Y-60879346D01*
X137813862Y-60860296D01*
X137852532Y-60848565D01*
X137898888Y-60844000D01*
X138550112Y-60844000D01*
X138596468Y-60848565D01*
X138596468Y-60848565D01*
G37*
G36*
X209799277Y-60848565D02*
G01*
X209837947Y-60860296D01*
X209873586Y-60879346D01*
X209904826Y-60904983D01*
X209930463Y-60936223D01*
X209949513Y-60971862D01*
X209961244Y-61010532D01*
X209965809Y-61056888D01*
X209965809Y-62133112D01*
X209961244Y-62179468D01*
X209949513Y-62218138D01*
X209930463Y-62253777D01*
X209904826Y-62285017D01*
X209873586Y-62310654D01*
X209837947Y-62329704D01*
X209799277Y-62341435D01*
X209752921Y-62346000D01*
X209101697Y-62346000D01*
X209055341Y-62341435D01*
X209016671Y-62329704D01*
X208981032Y-62310654D01*
X208949792Y-62285017D01*
X208924155Y-62253777D01*
X208905105Y-62218138D01*
X208893374Y-62179468D01*
X208888809Y-62133112D01*
X208888809Y-61056888D01*
X208893374Y-61010532D01*
X208905105Y-60971862D01*
X208924155Y-60936223D01*
X208949792Y-60904983D01*
X208981032Y-60879346D01*
X209016671Y-60860296D01*
X209055341Y-60848565D01*
X209101697Y-60844000D01*
X209752921Y-60844000D01*
X209799277Y-60848565D01*
X209799277Y-60848565D01*
G37*
G36*
X211674277Y-60848565D02*
G01*
X211712947Y-60860296D01*
X211748586Y-60879346D01*
X211779826Y-60904983D01*
X211805463Y-60936223D01*
X211824513Y-60971862D01*
X211836244Y-61010532D01*
X211840809Y-61056888D01*
X211840809Y-62133112D01*
X211836244Y-62179468D01*
X211824513Y-62218138D01*
X211805463Y-62253777D01*
X211779826Y-62285017D01*
X211748586Y-62310654D01*
X211712947Y-62329704D01*
X211674277Y-62341435D01*
X211627921Y-62346000D01*
X210976697Y-62346000D01*
X210930341Y-62341435D01*
X210891671Y-62329704D01*
X210856032Y-62310654D01*
X210824792Y-62285017D01*
X210799155Y-62253777D01*
X210780105Y-62218138D01*
X210768374Y-62179468D01*
X210763809Y-62133112D01*
X210763809Y-61056888D01*
X210768374Y-61010532D01*
X210780105Y-60971862D01*
X210799155Y-60936223D01*
X210824792Y-60904983D01*
X210856032Y-60879346D01*
X210891671Y-60860296D01*
X210930341Y-60848565D01*
X210976697Y-60844000D01*
X211627921Y-60844000D01*
X211674277Y-60848565D01*
X211674277Y-60848565D01*
G37*
G36*
X220238968Y-60848565D02*
G01*
X220277638Y-60860296D01*
X220313277Y-60879346D01*
X220344517Y-60904983D01*
X220370154Y-60936223D01*
X220389204Y-60971862D01*
X220400935Y-61010532D01*
X220405500Y-61056888D01*
X220405500Y-62133112D01*
X220400935Y-62179468D01*
X220389204Y-62218138D01*
X220370154Y-62253777D01*
X220344517Y-62285017D01*
X220313277Y-62310654D01*
X220277638Y-62329704D01*
X220238968Y-62341435D01*
X220192612Y-62346000D01*
X219541388Y-62346000D01*
X219495032Y-62341435D01*
X219456362Y-62329704D01*
X219420723Y-62310654D01*
X219389483Y-62285017D01*
X219363846Y-62253777D01*
X219344796Y-62218138D01*
X219333065Y-62179468D01*
X219328500Y-62133112D01*
X219328500Y-61056888D01*
X219333065Y-61010532D01*
X219344796Y-60971862D01*
X219363846Y-60936223D01*
X219389483Y-60904983D01*
X219420723Y-60879346D01*
X219456362Y-60860296D01*
X219495032Y-60848565D01*
X219541388Y-60844000D01*
X220192612Y-60844000D01*
X220238968Y-60848565D01*
X220238968Y-60848565D01*
G37*
G36*
X199359590Y-60848565D02*
G01*
X199398260Y-60860296D01*
X199433899Y-60879346D01*
X199465139Y-60904983D01*
X199490776Y-60936223D01*
X199509826Y-60971862D01*
X199521557Y-61010532D01*
X199526122Y-61056888D01*
X199526122Y-62133112D01*
X199521557Y-62179468D01*
X199509826Y-62218138D01*
X199490776Y-62253777D01*
X199465139Y-62285017D01*
X199433899Y-62310654D01*
X199398260Y-62329704D01*
X199359590Y-62341435D01*
X199313234Y-62346000D01*
X198662010Y-62346000D01*
X198615654Y-62341435D01*
X198576984Y-62329704D01*
X198541345Y-62310654D01*
X198510105Y-62285017D01*
X198484468Y-62253777D01*
X198465418Y-62218138D01*
X198453687Y-62179468D01*
X198449122Y-62133112D01*
X198449122Y-61056888D01*
X198453687Y-61010532D01*
X198465418Y-60971862D01*
X198484468Y-60936223D01*
X198510105Y-60904983D01*
X198541345Y-60879346D01*
X198576984Y-60860296D01*
X198615654Y-60848565D01*
X198662010Y-60844000D01*
X199313234Y-60844000D01*
X199359590Y-60848565D01*
X199359590Y-60848565D01*
G37*
G36*
X136721468Y-60848565D02*
G01*
X136760138Y-60860296D01*
X136795777Y-60879346D01*
X136827017Y-60904983D01*
X136852654Y-60936223D01*
X136871704Y-60971862D01*
X136883435Y-61010532D01*
X136888000Y-61056888D01*
X136888000Y-62133112D01*
X136883435Y-62179468D01*
X136871704Y-62218138D01*
X136852654Y-62253777D01*
X136827017Y-62285017D01*
X136795777Y-62310654D01*
X136760138Y-62329704D01*
X136721468Y-62341435D01*
X136675112Y-62346000D01*
X136023888Y-62346000D01*
X135977532Y-62341435D01*
X135938862Y-62329704D01*
X135903223Y-62310654D01*
X135871983Y-62285017D01*
X135846346Y-62253777D01*
X135827296Y-62218138D01*
X135815565Y-62179468D01*
X135811000Y-62133112D01*
X135811000Y-61056888D01*
X135815565Y-61010532D01*
X135827296Y-60971862D01*
X135846346Y-60936223D01*
X135871983Y-60904983D01*
X135903223Y-60879346D01*
X135938862Y-60860296D01*
X135977532Y-60848565D01*
X136023888Y-60844000D01*
X136675112Y-60844000D01*
X136721468Y-60848565D01*
X136721468Y-60848565D01*
G37*
G36*
X201234590Y-60848565D02*
G01*
X201273260Y-60860296D01*
X201308899Y-60879346D01*
X201340139Y-60904983D01*
X201365776Y-60936223D01*
X201384826Y-60971862D01*
X201396557Y-61010532D01*
X201401122Y-61056888D01*
X201401122Y-62133112D01*
X201396557Y-62179468D01*
X201384826Y-62218138D01*
X201365776Y-62253777D01*
X201340139Y-62285017D01*
X201308899Y-62310654D01*
X201273260Y-62329704D01*
X201234590Y-62341435D01*
X201188234Y-62346000D01*
X200537010Y-62346000D01*
X200490654Y-62341435D01*
X200451984Y-62329704D01*
X200416345Y-62310654D01*
X200385105Y-62285017D01*
X200359468Y-62253777D01*
X200340418Y-62218138D01*
X200328687Y-62179468D01*
X200324122Y-62133112D01*
X200324122Y-61056888D01*
X200328687Y-61010532D01*
X200340418Y-60971862D01*
X200359468Y-60936223D01*
X200385105Y-60904983D01*
X200416345Y-60879346D01*
X200451984Y-60860296D01*
X200490654Y-60848565D01*
X200537010Y-60844000D01*
X201188234Y-60844000D01*
X201234590Y-60848565D01*
X201234590Y-60848565D01*
G37*
G36*
X222113968Y-60848565D02*
G01*
X222152638Y-60860296D01*
X222188277Y-60879346D01*
X222219517Y-60904983D01*
X222245154Y-60936223D01*
X222264204Y-60971862D01*
X222275935Y-61010532D01*
X222280500Y-61056888D01*
X222280500Y-62133112D01*
X222275935Y-62179468D01*
X222264204Y-62218138D01*
X222245154Y-62253777D01*
X222219517Y-62285017D01*
X222188277Y-62310654D01*
X222152638Y-62329704D01*
X222113968Y-62341435D01*
X222067612Y-62346000D01*
X221416388Y-62346000D01*
X221370032Y-62341435D01*
X221331362Y-62329704D01*
X221295723Y-62310654D01*
X221264483Y-62285017D01*
X221238846Y-62253777D01*
X221219796Y-62218138D01*
X221208065Y-62179468D01*
X221203500Y-62133112D01*
X221203500Y-61056888D01*
X221208065Y-61010532D01*
X221219796Y-60971862D01*
X221238846Y-60936223D01*
X221264483Y-60904983D01*
X221295723Y-60879346D01*
X221331362Y-60860296D01*
X221370032Y-60848565D01*
X221416388Y-60844000D01*
X222067612Y-60844000D01*
X222113968Y-60848565D01*
X222113968Y-60848565D01*
G37*
G36*
X190794903Y-60848565D02*
G01*
X190833573Y-60860296D01*
X190869212Y-60879346D01*
X190900452Y-60904983D01*
X190926089Y-60936223D01*
X190945139Y-60971862D01*
X190956870Y-61010532D01*
X190961435Y-61056888D01*
X190961435Y-62133112D01*
X190956870Y-62179468D01*
X190945139Y-62218138D01*
X190926089Y-62253777D01*
X190900452Y-62285017D01*
X190869212Y-62310654D01*
X190833573Y-62329704D01*
X190794903Y-62341435D01*
X190748547Y-62346000D01*
X190097323Y-62346000D01*
X190050967Y-62341435D01*
X190012297Y-62329704D01*
X189976658Y-62310654D01*
X189945418Y-62285017D01*
X189919781Y-62253777D01*
X189900731Y-62218138D01*
X189889000Y-62179468D01*
X189884435Y-62133112D01*
X189884435Y-61056888D01*
X189889000Y-61010532D01*
X189900731Y-60971862D01*
X189919781Y-60936223D01*
X189945418Y-60904983D01*
X189976658Y-60879346D01*
X190012297Y-60860296D01*
X190050967Y-60848565D01*
X190097323Y-60844000D01*
X190748547Y-60844000D01*
X190794903Y-60848565D01*
X190794903Y-60848565D01*
G37*
G36*
X188919903Y-60848565D02*
G01*
X188958573Y-60860296D01*
X188994212Y-60879346D01*
X189025452Y-60904983D01*
X189051089Y-60936223D01*
X189070139Y-60971862D01*
X189081870Y-61010532D01*
X189086435Y-61056888D01*
X189086435Y-62133112D01*
X189081870Y-62179468D01*
X189070139Y-62218138D01*
X189051089Y-62253777D01*
X189025452Y-62285017D01*
X188994212Y-62310654D01*
X188958573Y-62329704D01*
X188919903Y-62341435D01*
X188873547Y-62346000D01*
X188222323Y-62346000D01*
X188175967Y-62341435D01*
X188137297Y-62329704D01*
X188101658Y-62310654D01*
X188070418Y-62285017D01*
X188044781Y-62253777D01*
X188025731Y-62218138D01*
X188014000Y-62179468D01*
X188009435Y-62133112D01*
X188009435Y-61056888D01*
X188014000Y-61010532D01*
X188025731Y-60971862D01*
X188044781Y-60936223D01*
X188070418Y-60904983D01*
X188101658Y-60879346D01*
X188137297Y-60860296D01*
X188175967Y-60848565D01*
X188222323Y-60844000D01*
X188873547Y-60844000D01*
X188919903Y-60848565D01*
X188919903Y-60848565D01*
G37*
G36*
X180355216Y-60848565D02*
G01*
X180393886Y-60860296D01*
X180429525Y-60879346D01*
X180460765Y-60904983D01*
X180486402Y-60936223D01*
X180505452Y-60971862D01*
X180517183Y-61010532D01*
X180521748Y-61056888D01*
X180521748Y-62133112D01*
X180517183Y-62179468D01*
X180505452Y-62218138D01*
X180486402Y-62253777D01*
X180460765Y-62285017D01*
X180429525Y-62310654D01*
X180393886Y-62329704D01*
X180355216Y-62341435D01*
X180308860Y-62346000D01*
X179657636Y-62346000D01*
X179611280Y-62341435D01*
X179572610Y-62329704D01*
X179536971Y-62310654D01*
X179505731Y-62285017D01*
X179480094Y-62253777D01*
X179461044Y-62218138D01*
X179449313Y-62179468D01*
X179444748Y-62133112D01*
X179444748Y-61056888D01*
X179449313Y-61010532D01*
X179461044Y-60971862D01*
X179480094Y-60936223D01*
X179505731Y-60904983D01*
X179536971Y-60879346D01*
X179572610Y-60860296D01*
X179611280Y-60848565D01*
X179657636Y-60844000D01*
X180308860Y-60844000D01*
X180355216Y-60848565D01*
X180355216Y-60848565D01*
G37*
G36*
X169915529Y-60848565D02*
G01*
X169954199Y-60860296D01*
X169989838Y-60879346D01*
X170021078Y-60904983D01*
X170046715Y-60936223D01*
X170065765Y-60971862D01*
X170077496Y-61010532D01*
X170082061Y-61056888D01*
X170082061Y-62133112D01*
X170077496Y-62179468D01*
X170065765Y-62218138D01*
X170046715Y-62253777D01*
X170021078Y-62285017D01*
X169989838Y-62310654D01*
X169954199Y-62329704D01*
X169915529Y-62341435D01*
X169869173Y-62346000D01*
X169217949Y-62346000D01*
X169171593Y-62341435D01*
X169132923Y-62329704D01*
X169097284Y-62310654D01*
X169066044Y-62285017D01*
X169040407Y-62253777D01*
X169021357Y-62218138D01*
X169009626Y-62179468D01*
X169005061Y-62133112D01*
X169005061Y-61056888D01*
X169009626Y-61010532D01*
X169021357Y-60971862D01*
X169040407Y-60936223D01*
X169066044Y-60904983D01*
X169097284Y-60879346D01*
X169132923Y-60860296D01*
X169171593Y-60848565D01*
X169217949Y-60844000D01*
X169869173Y-60844000D01*
X169915529Y-60848565D01*
X169915529Y-60848565D01*
G37*
G36*
X168040529Y-60848565D02*
G01*
X168079199Y-60860296D01*
X168114838Y-60879346D01*
X168146078Y-60904983D01*
X168171715Y-60936223D01*
X168190765Y-60971862D01*
X168202496Y-61010532D01*
X168207061Y-61056888D01*
X168207061Y-62133112D01*
X168202496Y-62179468D01*
X168190765Y-62218138D01*
X168171715Y-62253777D01*
X168146078Y-62285017D01*
X168114838Y-62310654D01*
X168079199Y-62329704D01*
X168040529Y-62341435D01*
X167994173Y-62346000D01*
X167342949Y-62346000D01*
X167296593Y-62341435D01*
X167257923Y-62329704D01*
X167222284Y-62310654D01*
X167191044Y-62285017D01*
X167165407Y-62253777D01*
X167146357Y-62218138D01*
X167134626Y-62179468D01*
X167130061Y-62133112D01*
X167130061Y-61056888D01*
X167134626Y-61010532D01*
X167146357Y-60971862D01*
X167165407Y-60936223D01*
X167191044Y-60904983D01*
X167222284Y-60879346D01*
X167257923Y-60860296D01*
X167296593Y-60848565D01*
X167342949Y-60844000D01*
X167994173Y-60844000D01*
X168040529Y-60848565D01*
X168040529Y-60848565D01*
G37*
G36*
X157600842Y-60848565D02*
G01*
X157639512Y-60860296D01*
X157675151Y-60879346D01*
X157706391Y-60904983D01*
X157732028Y-60936223D01*
X157751078Y-60971862D01*
X157762809Y-61010532D01*
X157767374Y-61056888D01*
X157767374Y-62133112D01*
X157762809Y-62179468D01*
X157751078Y-62218138D01*
X157732028Y-62253777D01*
X157706391Y-62285017D01*
X157675151Y-62310654D01*
X157639512Y-62329704D01*
X157600842Y-62341435D01*
X157554486Y-62346000D01*
X156903262Y-62346000D01*
X156856906Y-62341435D01*
X156818236Y-62329704D01*
X156782597Y-62310654D01*
X156751357Y-62285017D01*
X156725720Y-62253777D01*
X156706670Y-62218138D01*
X156694939Y-62179468D01*
X156690374Y-62133112D01*
X156690374Y-61056888D01*
X156694939Y-61010532D01*
X156706670Y-60971862D01*
X156725720Y-60936223D01*
X156751357Y-60904983D01*
X156782597Y-60879346D01*
X156818236Y-60860296D01*
X156856906Y-60848565D01*
X156903262Y-60844000D01*
X157554486Y-60844000D01*
X157600842Y-60848565D01*
X157600842Y-60848565D01*
G37*
G36*
X149036155Y-60848565D02*
G01*
X149074825Y-60860296D01*
X149110464Y-60879346D01*
X149141704Y-60904983D01*
X149167341Y-60936223D01*
X149186391Y-60971862D01*
X149198122Y-61010532D01*
X149202687Y-61056888D01*
X149202687Y-62133112D01*
X149198122Y-62179468D01*
X149186391Y-62218138D01*
X149167341Y-62253777D01*
X149141704Y-62285017D01*
X149110464Y-62310654D01*
X149074825Y-62329704D01*
X149036155Y-62341435D01*
X148989799Y-62346000D01*
X148338575Y-62346000D01*
X148292219Y-62341435D01*
X148253549Y-62329704D01*
X148217910Y-62310654D01*
X148186670Y-62285017D01*
X148161033Y-62253777D01*
X148141983Y-62218138D01*
X148130252Y-62179468D01*
X148125687Y-62133112D01*
X148125687Y-61056888D01*
X148130252Y-61010532D01*
X148141983Y-60971862D01*
X148161033Y-60936223D01*
X148186670Y-60904983D01*
X148217910Y-60879346D01*
X148253549Y-60860296D01*
X148292219Y-60848565D01*
X148338575Y-60844000D01*
X148989799Y-60844000D01*
X149036155Y-60848565D01*
X149036155Y-60848565D01*
G37*
G36*
X147161155Y-60848565D02*
G01*
X147199825Y-60860296D01*
X147235464Y-60879346D01*
X147266704Y-60904983D01*
X147292341Y-60936223D01*
X147311391Y-60971862D01*
X147323122Y-61010532D01*
X147327687Y-61056888D01*
X147327687Y-62133112D01*
X147323122Y-62179468D01*
X147311391Y-62218138D01*
X147292341Y-62253777D01*
X147266704Y-62285017D01*
X147235464Y-62310654D01*
X147199825Y-62329704D01*
X147161155Y-62341435D01*
X147114799Y-62346000D01*
X146463575Y-62346000D01*
X146417219Y-62341435D01*
X146378549Y-62329704D01*
X146342910Y-62310654D01*
X146311670Y-62285017D01*
X146286033Y-62253777D01*
X146266983Y-62218138D01*
X146255252Y-62179468D01*
X146250687Y-62133112D01*
X146250687Y-61056888D01*
X146255252Y-61010532D01*
X146266983Y-60971862D01*
X146286033Y-60936223D01*
X146311670Y-60904983D01*
X146342910Y-60879346D01*
X146378549Y-60860296D01*
X146417219Y-60848565D01*
X146463575Y-60844000D01*
X147114799Y-60844000D01*
X147161155Y-60848565D01*
X147161155Y-60848565D01*
G37*
G36*
X159475842Y-60848565D02*
G01*
X159514512Y-60860296D01*
X159550151Y-60879346D01*
X159581391Y-60904983D01*
X159607028Y-60936223D01*
X159626078Y-60971862D01*
X159637809Y-61010532D01*
X159642374Y-61056888D01*
X159642374Y-62133112D01*
X159637809Y-62179468D01*
X159626078Y-62218138D01*
X159607028Y-62253777D01*
X159581391Y-62285017D01*
X159550151Y-62310654D01*
X159514512Y-62329704D01*
X159475842Y-62341435D01*
X159429486Y-62346000D01*
X158778262Y-62346000D01*
X158731906Y-62341435D01*
X158693236Y-62329704D01*
X158657597Y-62310654D01*
X158626357Y-62285017D01*
X158600720Y-62253777D01*
X158581670Y-62218138D01*
X158569939Y-62179468D01*
X158565374Y-62133112D01*
X158565374Y-61056888D01*
X158569939Y-61010532D01*
X158581670Y-60971862D01*
X158600720Y-60936223D01*
X158626357Y-60904983D01*
X158657597Y-60879346D01*
X158693236Y-60860296D01*
X158731906Y-60848565D01*
X158778262Y-60844000D01*
X159429486Y-60844000D01*
X159475842Y-60848565D01*
X159475842Y-60848565D01*
G37*
G36*
X178480216Y-60848565D02*
G01*
X178518886Y-60860296D01*
X178554525Y-60879346D01*
X178585765Y-60904983D01*
X178611402Y-60936223D01*
X178630452Y-60971862D01*
X178642183Y-61010532D01*
X178646748Y-61056888D01*
X178646748Y-62133112D01*
X178642183Y-62179468D01*
X178630452Y-62218138D01*
X178611402Y-62253777D01*
X178585765Y-62285017D01*
X178554525Y-62310654D01*
X178518886Y-62329704D01*
X178480216Y-62341435D01*
X178433860Y-62346000D01*
X177782636Y-62346000D01*
X177736280Y-62341435D01*
X177697610Y-62329704D01*
X177661971Y-62310654D01*
X177630731Y-62285017D01*
X177605094Y-62253777D01*
X177586044Y-62218138D01*
X177574313Y-62179468D01*
X177569748Y-62133112D01*
X177569748Y-61056888D01*
X177574313Y-61010532D01*
X177586044Y-60971862D01*
X177605094Y-60936223D01*
X177630731Y-60904983D01*
X177661971Y-60879346D01*
X177697610Y-60860296D01*
X177736280Y-60848565D01*
X177782636Y-60844000D01*
X178433860Y-60844000D01*
X178480216Y-60848565D01*
X178480216Y-60848565D01*
G37*
M02*
