G04 #@! TF.GenerationSoftware,KiCad,Pcbnew,(5.1.2)-2*
G04 #@! TF.CreationDate,2020-08-30T00:43:24-04:00*
G04 #@! TF.ProjectId,Scanner1,5363616e-6e65-4723-912e-6b696361645f,rev?*
G04 #@! TF.SameCoordinates,Original*
G04 #@! TF.FileFunction,Soldermask,Bot*
G04 #@! TF.FilePolarity,Negative*
%FSLAX46Y46*%
G04 Gerber Fmt 4.6, Leading zero omitted, Abs format (unit mm)*
G04 Created by KiCad (PCBNEW (5.1.2)-2) date 2020-08-30 00:43:24*
%MOMM*%
%LPD*%
G04 APERTURE LIST*
%ADD10C,0.100000*%
G04 APERTURE END LIST*
D10*
G36*
X183752442Y-92831518D02*
G01*
X183818627Y-92838037D01*
X183988466Y-92889557D01*
X184144991Y-92973222D01*
X184172154Y-92995514D01*
X184282186Y-93085814D01*
X184365448Y-93187271D01*
X184394778Y-93223009D01*
X184478443Y-93379534D01*
X184529963Y-93549373D01*
X184547359Y-93726000D01*
X184529963Y-93902627D01*
X184478443Y-94072466D01*
X184394778Y-94228991D01*
X184365448Y-94264729D01*
X184282186Y-94366186D01*
X184180729Y-94449448D01*
X184144991Y-94478778D01*
X183988466Y-94562443D01*
X183818627Y-94613963D01*
X183752443Y-94620481D01*
X183686260Y-94627000D01*
X183597740Y-94627000D01*
X183531557Y-94620481D01*
X183465373Y-94613963D01*
X183295534Y-94562443D01*
X183139009Y-94478778D01*
X183103271Y-94449448D01*
X183001814Y-94366186D01*
X182918552Y-94264729D01*
X182889222Y-94228991D01*
X182805557Y-94072466D01*
X182754037Y-93902627D01*
X182736641Y-93726000D01*
X182754037Y-93549373D01*
X182805557Y-93379534D01*
X182889222Y-93223009D01*
X182918552Y-93187271D01*
X183001814Y-93085814D01*
X183111846Y-92995514D01*
X183139009Y-92973222D01*
X183295534Y-92889557D01*
X183465373Y-92838037D01*
X183531558Y-92831518D01*
X183597740Y-92825000D01*
X183686260Y-92825000D01*
X183752442Y-92831518D01*
X183752442Y-92831518D01*
G37*
G36*
X188832442Y-92831518D02*
G01*
X188898627Y-92838037D01*
X189068466Y-92889557D01*
X189224991Y-92973222D01*
X189252154Y-92995514D01*
X189362186Y-93085814D01*
X189445448Y-93187271D01*
X189474778Y-93223009D01*
X189558443Y-93379534D01*
X189609963Y-93549373D01*
X189627359Y-93726000D01*
X189609963Y-93902627D01*
X189558443Y-94072466D01*
X189474778Y-94228991D01*
X189445448Y-94264729D01*
X189362186Y-94366186D01*
X189260729Y-94449448D01*
X189224991Y-94478778D01*
X189068466Y-94562443D01*
X188898627Y-94613963D01*
X188832443Y-94620481D01*
X188766260Y-94627000D01*
X188677740Y-94627000D01*
X188611557Y-94620481D01*
X188545373Y-94613963D01*
X188375534Y-94562443D01*
X188219009Y-94478778D01*
X188183271Y-94449448D01*
X188081814Y-94366186D01*
X187998552Y-94264729D01*
X187969222Y-94228991D01*
X187885557Y-94072466D01*
X187834037Y-93902627D01*
X187816641Y-93726000D01*
X187834037Y-93549373D01*
X187885557Y-93379534D01*
X187969222Y-93223009D01*
X187998552Y-93187271D01*
X188081814Y-93085814D01*
X188191846Y-92995514D01*
X188219009Y-92973222D01*
X188375534Y-92889557D01*
X188545373Y-92838037D01*
X188611558Y-92831518D01*
X188677740Y-92825000D01*
X188766260Y-92825000D01*
X188832442Y-92831518D01*
X188832442Y-92831518D01*
G37*
G36*
X186292442Y-92831518D02*
G01*
X186358627Y-92838037D01*
X186528466Y-92889557D01*
X186684991Y-92973222D01*
X186712154Y-92995514D01*
X186822186Y-93085814D01*
X186905448Y-93187271D01*
X186934778Y-93223009D01*
X187018443Y-93379534D01*
X187069963Y-93549373D01*
X187087359Y-93726000D01*
X187069963Y-93902627D01*
X187018443Y-94072466D01*
X186934778Y-94228991D01*
X186905448Y-94264729D01*
X186822186Y-94366186D01*
X186720729Y-94449448D01*
X186684991Y-94478778D01*
X186528466Y-94562443D01*
X186358627Y-94613963D01*
X186292443Y-94620481D01*
X186226260Y-94627000D01*
X186137740Y-94627000D01*
X186071557Y-94620481D01*
X186005373Y-94613963D01*
X185835534Y-94562443D01*
X185679009Y-94478778D01*
X185643271Y-94449448D01*
X185541814Y-94366186D01*
X185458552Y-94264729D01*
X185429222Y-94228991D01*
X185345557Y-94072466D01*
X185294037Y-93902627D01*
X185276641Y-93726000D01*
X185294037Y-93549373D01*
X185345557Y-93379534D01*
X185429222Y-93223009D01*
X185458552Y-93187271D01*
X185541814Y-93085814D01*
X185651846Y-92995514D01*
X185679009Y-92973222D01*
X185835534Y-92889557D01*
X186005373Y-92838037D01*
X186071558Y-92831518D01*
X186137740Y-92825000D01*
X186226260Y-92825000D01*
X186292442Y-92831518D01*
X186292442Y-92831518D01*
G37*
G36*
X219381564Y-91881389D02*
G01*
X219572833Y-91960615D01*
X219572835Y-91960616D01*
X219742471Y-92073963D01*
X219744973Y-92075635D01*
X219891365Y-92222027D01*
X220006385Y-92394167D01*
X220085611Y-92585436D01*
X220126000Y-92788484D01*
X220126000Y-92995516D01*
X220085611Y-93198564D01*
X220010652Y-93379532D01*
X220006384Y-93389835D01*
X219891365Y-93561973D01*
X219744973Y-93708365D01*
X219572835Y-93823384D01*
X219572834Y-93823385D01*
X219572833Y-93823385D01*
X219381564Y-93902611D01*
X219178516Y-93943000D01*
X218971484Y-93943000D01*
X218768436Y-93902611D01*
X218577167Y-93823385D01*
X218577166Y-93823385D01*
X218577165Y-93823384D01*
X218405027Y-93708365D01*
X218258635Y-93561973D01*
X218143616Y-93389835D01*
X218139348Y-93379532D01*
X218064389Y-93198564D01*
X218024000Y-92995516D01*
X218024000Y-92788484D01*
X218064389Y-92585436D01*
X218143615Y-92394167D01*
X218258635Y-92222027D01*
X218405027Y-92075635D01*
X218407529Y-92073963D01*
X218577165Y-91960616D01*
X218577167Y-91960615D01*
X218768436Y-91881389D01*
X218971484Y-91841000D01*
X219178516Y-91841000D01*
X219381564Y-91881389D01*
X219381564Y-91881389D01*
G37*
G36*
X132894564Y-91881389D02*
G01*
X133085833Y-91960615D01*
X133085835Y-91960616D01*
X133255471Y-92073963D01*
X133257973Y-92075635D01*
X133404365Y-92222027D01*
X133519385Y-92394167D01*
X133598611Y-92585436D01*
X133639000Y-92788484D01*
X133639000Y-92995516D01*
X133598611Y-93198564D01*
X133523652Y-93379532D01*
X133519384Y-93389835D01*
X133404365Y-93561973D01*
X133257973Y-93708365D01*
X133085835Y-93823384D01*
X133085834Y-93823385D01*
X133085833Y-93823385D01*
X132894564Y-93902611D01*
X132691516Y-93943000D01*
X132484484Y-93943000D01*
X132281436Y-93902611D01*
X132090167Y-93823385D01*
X132090166Y-93823385D01*
X132090165Y-93823384D01*
X131918027Y-93708365D01*
X131771635Y-93561973D01*
X131656616Y-93389835D01*
X131652348Y-93379532D01*
X131577389Y-93198564D01*
X131537000Y-92995516D01*
X131537000Y-92788484D01*
X131577389Y-92585436D01*
X131656615Y-92394167D01*
X131771635Y-92222027D01*
X131918027Y-92075635D01*
X131920529Y-92073963D01*
X132090165Y-91960616D01*
X132090167Y-91960615D01*
X132281436Y-91881389D01*
X132484484Y-91841000D01*
X132691516Y-91841000D01*
X132894564Y-91881389D01*
X132894564Y-91881389D01*
G37*
G36*
X139394564Y-91881389D02*
G01*
X139585833Y-91960615D01*
X139585835Y-91960616D01*
X139755471Y-92073963D01*
X139757973Y-92075635D01*
X139904365Y-92222027D01*
X140019385Y-92394167D01*
X140098611Y-92585436D01*
X140139000Y-92788484D01*
X140139000Y-92995516D01*
X140098611Y-93198564D01*
X140023652Y-93379532D01*
X140019384Y-93389835D01*
X139904365Y-93561973D01*
X139757973Y-93708365D01*
X139585835Y-93823384D01*
X139585834Y-93823385D01*
X139585833Y-93823385D01*
X139394564Y-93902611D01*
X139191516Y-93943000D01*
X138984484Y-93943000D01*
X138781436Y-93902611D01*
X138590167Y-93823385D01*
X138590166Y-93823385D01*
X138590165Y-93823384D01*
X138418027Y-93708365D01*
X138271635Y-93561973D01*
X138156616Y-93389835D01*
X138152348Y-93379532D01*
X138077389Y-93198564D01*
X138037000Y-92995516D01*
X138037000Y-92788484D01*
X138077389Y-92585436D01*
X138156615Y-92394167D01*
X138271635Y-92222027D01*
X138418027Y-92075635D01*
X138420529Y-92073963D01*
X138590165Y-91960616D01*
X138590167Y-91960615D01*
X138781436Y-91881389D01*
X138984484Y-91841000D01*
X139191516Y-91841000D01*
X139394564Y-91881389D01*
X139394564Y-91881389D01*
G37*
G36*
X209117564Y-91881389D02*
G01*
X209308833Y-91960615D01*
X209308835Y-91960616D01*
X209478471Y-92073963D01*
X209480973Y-92075635D01*
X209627365Y-92222027D01*
X209742385Y-92394167D01*
X209821611Y-92585436D01*
X209862000Y-92788484D01*
X209862000Y-92995516D01*
X209821611Y-93198564D01*
X209746652Y-93379532D01*
X209742384Y-93389835D01*
X209627365Y-93561973D01*
X209480973Y-93708365D01*
X209308835Y-93823384D01*
X209308834Y-93823385D01*
X209308833Y-93823385D01*
X209117564Y-93902611D01*
X208914516Y-93943000D01*
X208707484Y-93943000D01*
X208504436Y-93902611D01*
X208313167Y-93823385D01*
X208313166Y-93823385D01*
X208313165Y-93823384D01*
X208141027Y-93708365D01*
X207994635Y-93561973D01*
X207879616Y-93389835D01*
X207875348Y-93379532D01*
X207800389Y-93198564D01*
X207760000Y-92995516D01*
X207760000Y-92788484D01*
X207800389Y-92585436D01*
X207879615Y-92394167D01*
X207994635Y-92222027D01*
X208141027Y-92075635D01*
X208143529Y-92073963D01*
X208313165Y-91960616D01*
X208313167Y-91960615D01*
X208504436Y-91881389D01*
X208707484Y-91841000D01*
X208914516Y-91841000D01*
X209117564Y-91881389D01*
X209117564Y-91881389D01*
G37*
G36*
X202617564Y-91881389D02*
G01*
X202808833Y-91960615D01*
X202808835Y-91960616D01*
X202978471Y-92073963D01*
X202980973Y-92075635D01*
X203127365Y-92222027D01*
X203242385Y-92394167D01*
X203321611Y-92585436D01*
X203362000Y-92788484D01*
X203362000Y-92995516D01*
X203321611Y-93198564D01*
X203246652Y-93379532D01*
X203242384Y-93389835D01*
X203127365Y-93561973D01*
X202980973Y-93708365D01*
X202808835Y-93823384D01*
X202808834Y-93823385D01*
X202808833Y-93823385D01*
X202617564Y-93902611D01*
X202414516Y-93943000D01*
X202207484Y-93943000D01*
X202004436Y-93902611D01*
X201813167Y-93823385D01*
X201813166Y-93823385D01*
X201813165Y-93823384D01*
X201641027Y-93708365D01*
X201494635Y-93561973D01*
X201379616Y-93389835D01*
X201375348Y-93379532D01*
X201300389Y-93198564D01*
X201260000Y-92995516D01*
X201260000Y-92788484D01*
X201300389Y-92585436D01*
X201379615Y-92394167D01*
X201494635Y-92222027D01*
X201641027Y-92075635D01*
X201643529Y-92073963D01*
X201813165Y-91960616D01*
X201813167Y-91960615D01*
X202004436Y-91881389D01*
X202207484Y-91841000D01*
X202414516Y-91841000D01*
X202617564Y-91881389D01*
X202617564Y-91881389D01*
G37*
G36*
X225881564Y-91881389D02*
G01*
X226072833Y-91960615D01*
X226072835Y-91960616D01*
X226242471Y-92073963D01*
X226244973Y-92075635D01*
X226391365Y-92222027D01*
X226506385Y-92394167D01*
X226585611Y-92585436D01*
X226626000Y-92788484D01*
X226626000Y-92995516D01*
X226585611Y-93198564D01*
X226510652Y-93379532D01*
X226506384Y-93389835D01*
X226391365Y-93561973D01*
X226244973Y-93708365D01*
X226072835Y-93823384D01*
X226072834Y-93823385D01*
X226072833Y-93823385D01*
X225881564Y-93902611D01*
X225678516Y-93943000D01*
X225471484Y-93943000D01*
X225268436Y-93902611D01*
X225077167Y-93823385D01*
X225077166Y-93823385D01*
X225077165Y-93823384D01*
X224905027Y-93708365D01*
X224758635Y-93561973D01*
X224643616Y-93389835D01*
X224639348Y-93379532D01*
X224564389Y-93198564D01*
X224524000Y-92995516D01*
X224524000Y-92788484D01*
X224564389Y-92585436D01*
X224643615Y-92394167D01*
X224758635Y-92222027D01*
X224905027Y-92075635D01*
X224907529Y-92073963D01*
X225077165Y-91960616D01*
X225077167Y-91960615D01*
X225268436Y-91881389D01*
X225471484Y-91841000D01*
X225678516Y-91841000D01*
X225881564Y-91881389D01*
X225881564Y-91881389D01*
G37*
G36*
X189623000Y-92087000D02*
G01*
X187821000Y-92087000D01*
X187821000Y-90285000D01*
X189623000Y-90285000D01*
X189623000Y-92087000D01*
X189623000Y-92087000D01*
G37*
G36*
X183752443Y-90291519D02*
G01*
X183818627Y-90298037D01*
X183988466Y-90349557D01*
X184144991Y-90433222D01*
X184180729Y-90462552D01*
X184282186Y-90545814D01*
X184365448Y-90647271D01*
X184394778Y-90683009D01*
X184478443Y-90839534D01*
X184529963Y-91009373D01*
X184547359Y-91186000D01*
X184529963Y-91362627D01*
X184478443Y-91532466D01*
X184394778Y-91688991D01*
X184365448Y-91724729D01*
X184282186Y-91826186D01*
X184180729Y-91909448D01*
X184144991Y-91938778D01*
X183988466Y-92022443D01*
X183818627Y-92073963D01*
X183752443Y-92080481D01*
X183686260Y-92087000D01*
X183597740Y-92087000D01*
X183531557Y-92080481D01*
X183465373Y-92073963D01*
X183295534Y-92022443D01*
X183139009Y-91938778D01*
X183103271Y-91909448D01*
X183001814Y-91826186D01*
X182918552Y-91724729D01*
X182889222Y-91688991D01*
X182805557Y-91532466D01*
X182754037Y-91362627D01*
X182736641Y-91186000D01*
X182754037Y-91009373D01*
X182805557Y-90839534D01*
X182889222Y-90683009D01*
X182918552Y-90647271D01*
X183001814Y-90545814D01*
X183103271Y-90462552D01*
X183139009Y-90433222D01*
X183295534Y-90349557D01*
X183465373Y-90298037D01*
X183531558Y-90291518D01*
X183597740Y-90285000D01*
X183686260Y-90285000D01*
X183752443Y-90291519D01*
X183752443Y-90291519D01*
G37*
G36*
X186292443Y-90291519D02*
G01*
X186358627Y-90298037D01*
X186528466Y-90349557D01*
X186684991Y-90433222D01*
X186720729Y-90462552D01*
X186822186Y-90545814D01*
X186905448Y-90647271D01*
X186934778Y-90683009D01*
X187018443Y-90839534D01*
X187069963Y-91009373D01*
X187087359Y-91186000D01*
X187069963Y-91362627D01*
X187018443Y-91532466D01*
X186934778Y-91688991D01*
X186905448Y-91724729D01*
X186822186Y-91826186D01*
X186720729Y-91909448D01*
X186684991Y-91938778D01*
X186528466Y-92022443D01*
X186358627Y-92073963D01*
X186292443Y-92080481D01*
X186226260Y-92087000D01*
X186137740Y-92087000D01*
X186071557Y-92080481D01*
X186005373Y-92073963D01*
X185835534Y-92022443D01*
X185679009Y-91938778D01*
X185643271Y-91909448D01*
X185541814Y-91826186D01*
X185458552Y-91724729D01*
X185429222Y-91688991D01*
X185345557Y-91532466D01*
X185294037Y-91362627D01*
X185276641Y-91186000D01*
X185294037Y-91009373D01*
X185345557Y-90839534D01*
X185429222Y-90683009D01*
X185458552Y-90647271D01*
X185541814Y-90545814D01*
X185643271Y-90462552D01*
X185679009Y-90433222D01*
X185835534Y-90349557D01*
X186005373Y-90298037D01*
X186071558Y-90291518D01*
X186137740Y-90285000D01*
X186226260Y-90285000D01*
X186292443Y-90291519D01*
X186292443Y-90291519D01*
G37*
G36*
X219381564Y-87381389D02*
G01*
X219572833Y-87460615D01*
X219572835Y-87460616D01*
X219744973Y-87575635D01*
X219891365Y-87722027D01*
X220006385Y-87894167D01*
X220085611Y-88085436D01*
X220126000Y-88288484D01*
X220126000Y-88495516D01*
X220085611Y-88698564D01*
X220006385Y-88889833D01*
X220006384Y-88889835D01*
X219891365Y-89061973D01*
X219744973Y-89208365D01*
X219572835Y-89323384D01*
X219572834Y-89323385D01*
X219572833Y-89323385D01*
X219381564Y-89402611D01*
X219178516Y-89443000D01*
X218971484Y-89443000D01*
X218768436Y-89402611D01*
X218577167Y-89323385D01*
X218577166Y-89323385D01*
X218577165Y-89323384D01*
X218405027Y-89208365D01*
X218258635Y-89061973D01*
X218143616Y-88889835D01*
X218143615Y-88889833D01*
X218064389Y-88698564D01*
X218024000Y-88495516D01*
X218024000Y-88288484D01*
X218064389Y-88085436D01*
X218143615Y-87894167D01*
X218258635Y-87722027D01*
X218405027Y-87575635D01*
X218577165Y-87460616D01*
X218577167Y-87460615D01*
X218768436Y-87381389D01*
X218971484Y-87341000D01*
X219178516Y-87341000D01*
X219381564Y-87381389D01*
X219381564Y-87381389D01*
G37*
G36*
X225881564Y-87381389D02*
G01*
X226072833Y-87460615D01*
X226072835Y-87460616D01*
X226244973Y-87575635D01*
X226391365Y-87722027D01*
X226506385Y-87894167D01*
X226585611Y-88085436D01*
X226626000Y-88288484D01*
X226626000Y-88495516D01*
X226585611Y-88698564D01*
X226506385Y-88889833D01*
X226506384Y-88889835D01*
X226391365Y-89061973D01*
X226244973Y-89208365D01*
X226072835Y-89323384D01*
X226072834Y-89323385D01*
X226072833Y-89323385D01*
X225881564Y-89402611D01*
X225678516Y-89443000D01*
X225471484Y-89443000D01*
X225268436Y-89402611D01*
X225077167Y-89323385D01*
X225077166Y-89323385D01*
X225077165Y-89323384D01*
X224905027Y-89208365D01*
X224758635Y-89061973D01*
X224643616Y-88889835D01*
X224643615Y-88889833D01*
X224564389Y-88698564D01*
X224524000Y-88495516D01*
X224524000Y-88288484D01*
X224564389Y-88085436D01*
X224643615Y-87894167D01*
X224758635Y-87722027D01*
X224905027Y-87575635D01*
X225077165Y-87460616D01*
X225077167Y-87460615D01*
X225268436Y-87381389D01*
X225471484Y-87341000D01*
X225678516Y-87341000D01*
X225881564Y-87381389D01*
X225881564Y-87381389D01*
G37*
G36*
X202617564Y-87381389D02*
G01*
X202808833Y-87460615D01*
X202808835Y-87460616D01*
X202980973Y-87575635D01*
X203127365Y-87722027D01*
X203242385Y-87894167D01*
X203321611Y-88085436D01*
X203362000Y-88288484D01*
X203362000Y-88495516D01*
X203321611Y-88698564D01*
X203242385Y-88889833D01*
X203242384Y-88889835D01*
X203127365Y-89061973D01*
X202980973Y-89208365D01*
X202808835Y-89323384D01*
X202808834Y-89323385D01*
X202808833Y-89323385D01*
X202617564Y-89402611D01*
X202414516Y-89443000D01*
X202207484Y-89443000D01*
X202004436Y-89402611D01*
X201813167Y-89323385D01*
X201813166Y-89323385D01*
X201813165Y-89323384D01*
X201641027Y-89208365D01*
X201494635Y-89061973D01*
X201379616Y-88889835D01*
X201379615Y-88889833D01*
X201300389Y-88698564D01*
X201260000Y-88495516D01*
X201260000Y-88288484D01*
X201300389Y-88085436D01*
X201379615Y-87894167D01*
X201494635Y-87722027D01*
X201641027Y-87575635D01*
X201813165Y-87460616D01*
X201813167Y-87460615D01*
X202004436Y-87381389D01*
X202207484Y-87341000D01*
X202414516Y-87341000D01*
X202617564Y-87381389D01*
X202617564Y-87381389D01*
G37*
G36*
X139394564Y-87381389D02*
G01*
X139585833Y-87460615D01*
X139585835Y-87460616D01*
X139757973Y-87575635D01*
X139904365Y-87722027D01*
X140019385Y-87894167D01*
X140098611Y-88085436D01*
X140139000Y-88288484D01*
X140139000Y-88495516D01*
X140098611Y-88698564D01*
X140019385Y-88889833D01*
X140019384Y-88889835D01*
X139904365Y-89061973D01*
X139757973Y-89208365D01*
X139585835Y-89323384D01*
X139585834Y-89323385D01*
X139585833Y-89323385D01*
X139394564Y-89402611D01*
X139191516Y-89443000D01*
X138984484Y-89443000D01*
X138781436Y-89402611D01*
X138590167Y-89323385D01*
X138590166Y-89323385D01*
X138590165Y-89323384D01*
X138418027Y-89208365D01*
X138271635Y-89061973D01*
X138156616Y-88889835D01*
X138156615Y-88889833D01*
X138077389Y-88698564D01*
X138037000Y-88495516D01*
X138037000Y-88288484D01*
X138077389Y-88085436D01*
X138156615Y-87894167D01*
X138271635Y-87722027D01*
X138418027Y-87575635D01*
X138590165Y-87460616D01*
X138590167Y-87460615D01*
X138781436Y-87381389D01*
X138984484Y-87341000D01*
X139191516Y-87341000D01*
X139394564Y-87381389D01*
X139394564Y-87381389D01*
G37*
G36*
X132894564Y-87381389D02*
G01*
X133085833Y-87460615D01*
X133085835Y-87460616D01*
X133257973Y-87575635D01*
X133404365Y-87722027D01*
X133519385Y-87894167D01*
X133598611Y-88085436D01*
X133639000Y-88288484D01*
X133639000Y-88495516D01*
X133598611Y-88698564D01*
X133519385Y-88889833D01*
X133519384Y-88889835D01*
X133404365Y-89061973D01*
X133257973Y-89208365D01*
X133085835Y-89323384D01*
X133085834Y-89323385D01*
X133085833Y-89323385D01*
X132894564Y-89402611D01*
X132691516Y-89443000D01*
X132484484Y-89443000D01*
X132281436Y-89402611D01*
X132090167Y-89323385D01*
X132090166Y-89323385D01*
X132090165Y-89323384D01*
X131918027Y-89208365D01*
X131771635Y-89061973D01*
X131656616Y-88889835D01*
X131656615Y-88889833D01*
X131577389Y-88698564D01*
X131537000Y-88495516D01*
X131537000Y-88288484D01*
X131577389Y-88085436D01*
X131656615Y-87894167D01*
X131771635Y-87722027D01*
X131918027Y-87575635D01*
X132090165Y-87460616D01*
X132090167Y-87460615D01*
X132281436Y-87381389D01*
X132484484Y-87341000D01*
X132691516Y-87341000D01*
X132894564Y-87381389D01*
X132894564Y-87381389D01*
G37*
G36*
X209117564Y-87381389D02*
G01*
X209308833Y-87460615D01*
X209308835Y-87460616D01*
X209480973Y-87575635D01*
X209627365Y-87722027D01*
X209742385Y-87894167D01*
X209821611Y-88085436D01*
X209862000Y-88288484D01*
X209862000Y-88495516D01*
X209821611Y-88698564D01*
X209742385Y-88889833D01*
X209742384Y-88889835D01*
X209627365Y-89061973D01*
X209480973Y-89208365D01*
X209308835Y-89323384D01*
X209308834Y-89323385D01*
X209308833Y-89323385D01*
X209117564Y-89402611D01*
X208914516Y-89443000D01*
X208707484Y-89443000D01*
X208504436Y-89402611D01*
X208313167Y-89323385D01*
X208313166Y-89323385D01*
X208313165Y-89323384D01*
X208141027Y-89208365D01*
X207994635Y-89061973D01*
X207879616Y-88889835D01*
X207879615Y-88889833D01*
X207800389Y-88698564D01*
X207760000Y-88495516D01*
X207760000Y-88288484D01*
X207800389Y-88085436D01*
X207879615Y-87894167D01*
X207994635Y-87722027D01*
X208141027Y-87575635D01*
X208313165Y-87460616D01*
X208313167Y-87460615D01*
X208504436Y-87381389D01*
X208707484Y-87341000D01*
X208914516Y-87341000D01*
X209117564Y-87381389D01*
X209117564Y-87381389D01*
G37*
G36*
X156193443Y-86354519D02*
G01*
X156259627Y-86361037D01*
X156429466Y-86412557D01*
X156585991Y-86496222D01*
X156621729Y-86525552D01*
X156723186Y-86608814D01*
X156806448Y-86710271D01*
X156835778Y-86746009D01*
X156919443Y-86902534D01*
X156970963Y-87072373D01*
X156988359Y-87249000D01*
X156970963Y-87425627D01*
X156919443Y-87595466D01*
X156835778Y-87751991D01*
X156806448Y-87787729D01*
X156723186Y-87889186D01*
X156621729Y-87972448D01*
X156585991Y-88001778D01*
X156429466Y-88085443D01*
X156259627Y-88136963D01*
X156193442Y-88143482D01*
X156127260Y-88150000D01*
X156038740Y-88150000D01*
X155972558Y-88143482D01*
X155906373Y-88136963D01*
X155736534Y-88085443D01*
X155580009Y-88001778D01*
X155544271Y-87972448D01*
X155442814Y-87889186D01*
X155359552Y-87787729D01*
X155330222Y-87751991D01*
X155246557Y-87595466D01*
X155195037Y-87425627D01*
X155177641Y-87249000D01*
X155195037Y-87072373D01*
X155246557Y-86902534D01*
X155330222Y-86746009D01*
X155359552Y-86710271D01*
X155442814Y-86608814D01*
X155544271Y-86525552D01*
X155580009Y-86496222D01*
X155736534Y-86412557D01*
X155906373Y-86361037D01*
X155972557Y-86354519D01*
X156038740Y-86348000D01*
X156127260Y-86348000D01*
X156193443Y-86354519D01*
X156193443Y-86354519D01*
G37*
G36*
X158733443Y-86354519D02*
G01*
X158799627Y-86361037D01*
X158969466Y-86412557D01*
X159125991Y-86496222D01*
X159161729Y-86525552D01*
X159263186Y-86608814D01*
X159346448Y-86710271D01*
X159375778Y-86746009D01*
X159459443Y-86902534D01*
X159510963Y-87072373D01*
X159528359Y-87249000D01*
X159510963Y-87425627D01*
X159459443Y-87595466D01*
X159375778Y-87751991D01*
X159346448Y-87787729D01*
X159263186Y-87889186D01*
X159161729Y-87972448D01*
X159125991Y-88001778D01*
X158969466Y-88085443D01*
X158799627Y-88136963D01*
X158733442Y-88143482D01*
X158667260Y-88150000D01*
X158578740Y-88150000D01*
X158512558Y-88143482D01*
X158446373Y-88136963D01*
X158276534Y-88085443D01*
X158120009Y-88001778D01*
X158084271Y-87972448D01*
X157982814Y-87889186D01*
X157899552Y-87787729D01*
X157870222Y-87751991D01*
X157786557Y-87595466D01*
X157735037Y-87425627D01*
X157717641Y-87249000D01*
X157735037Y-87072373D01*
X157786557Y-86902534D01*
X157870222Y-86746009D01*
X157899552Y-86710271D01*
X157982814Y-86608814D01*
X158084271Y-86525552D01*
X158120009Y-86496222D01*
X158276534Y-86412557D01*
X158446373Y-86361037D01*
X158512557Y-86354519D01*
X158578740Y-86348000D01*
X158667260Y-86348000D01*
X158733443Y-86354519D01*
X158733443Y-86354519D01*
G37*
G36*
X158733442Y-83814518D02*
G01*
X158799627Y-83821037D01*
X158969466Y-83872557D01*
X159125991Y-83956222D01*
X159161729Y-83985552D01*
X159263186Y-84068814D01*
X159346448Y-84170271D01*
X159375778Y-84206009D01*
X159459443Y-84362534D01*
X159510963Y-84532373D01*
X159528359Y-84709000D01*
X159510963Y-84885627D01*
X159459443Y-85055466D01*
X159375778Y-85211991D01*
X159346448Y-85247729D01*
X159263186Y-85349186D01*
X159161729Y-85432448D01*
X159125991Y-85461778D01*
X158969466Y-85545443D01*
X158799627Y-85596963D01*
X158733443Y-85603481D01*
X158667260Y-85610000D01*
X158578740Y-85610000D01*
X158512557Y-85603481D01*
X158446373Y-85596963D01*
X158276534Y-85545443D01*
X158120009Y-85461778D01*
X158084271Y-85432448D01*
X157982814Y-85349186D01*
X157899552Y-85247729D01*
X157870222Y-85211991D01*
X157786557Y-85055466D01*
X157735037Y-84885627D01*
X157717641Y-84709000D01*
X157735037Y-84532373D01*
X157786557Y-84362534D01*
X157870222Y-84206009D01*
X157899552Y-84170271D01*
X157982814Y-84068814D01*
X158084271Y-83985552D01*
X158120009Y-83956222D01*
X158276534Y-83872557D01*
X158446373Y-83821037D01*
X158512558Y-83814518D01*
X158578740Y-83808000D01*
X158667260Y-83808000D01*
X158733442Y-83814518D01*
X158733442Y-83814518D01*
G37*
G36*
X156193442Y-83814518D02*
G01*
X156259627Y-83821037D01*
X156429466Y-83872557D01*
X156585991Y-83956222D01*
X156621729Y-83985552D01*
X156723186Y-84068814D01*
X156806448Y-84170271D01*
X156835778Y-84206009D01*
X156919443Y-84362534D01*
X156970963Y-84532373D01*
X156988359Y-84709000D01*
X156970963Y-84885627D01*
X156919443Y-85055466D01*
X156835778Y-85211991D01*
X156806448Y-85247729D01*
X156723186Y-85349186D01*
X156621729Y-85432448D01*
X156585991Y-85461778D01*
X156429466Y-85545443D01*
X156259627Y-85596963D01*
X156193443Y-85603481D01*
X156127260Y-85610000D01*
X156038740Y-85610000D01*
X155972557Y-85603481D01*
X155906373Y-85596963D01*
X155736534Y-85545443D01*
X155580009Y-85461778D01*
X155544271Y-85432448D01*
X155442814Y-85349186D01*
X155359552Y-85247729D01*
X155330222Y-85211991D01*
X155246557Y-85055466D01*
X155195037Y-84885627D01*
X155177641Y-84709000D01*
X155195037Y-84532373D01*
X155246557Y-84362534D01*
X155330222Y-84206009D01*
X155359552Y-84170271D01*
X155442814Y-84068814D01*
X155544271Y-83985552D01*
X155580009Y-83956222D01*
X155736534Y-83872557D01*
X155906373Y-83821037D01*
X155972558Y-83814518D01*
X156038740Y-83808000D01*
X156127260Y-83808000D01*
X156193442Y-83814518D01*
X156193442Y-83814518D01*
G37*
G36*
X133101443Y-81749519D02*
G01*
X133167627Y-81756037D01*
X133337466Y-81807557D01*
X133493991Y-81891222D01*
X133529729Y-81920552D01*
X133631186Y-82003814D01*
X133714448Y-82105271D01*
X133743778Y-82141009D01*
X133827443Y-82297534D01*
X133878963Y-82467373D01*
X133896359Y-82644000D01*
X133878963Y-82820627D01*
X133827443Y-82990466D01*
X133743778Y-83146991D01*
X133714448Y-83182729D01*
X133631186Y-83284186D01*
X133529729Y-83367448D01*
X133493991Y-83396778D01*
X133337466Y-83480443D01*
X133167627Y-83531963D01*
X133101442Y-83538482D01*
X133035260Y-83545000D01*
X131946740Y-83545000D01*
X131880558Y-83538482D01*
X131814373Y-83531963D01*
X131644534Y-83480443D01*
X131488009Y-83396778D01*
X131452271Y-83367448D01*
X131350814Y-83284186D01*
X131267552Y-83182729D01*
X131238222Y-83146991D01*
X131154557Y-82990466D01*
X131103037Y-82820627D01*
X131085641Y-82644000D01*
X131103037Y-82467373D01*
X131154557Y-82297534D01*
X131238222Y-82141009D01*
X131267552Y-82105271D01*
X131350814Y-82003814D01*
X131452271Y-81920552D01*
X131488009Y-81891222D01*
X131644534Y-81807557D01*
X131814373Y-81756037D01*
X131880557Y-81749519D01*
X131946740Y-81743000D01*
X133035260Y-81743000D01*
X133101443Y-81749519D01*
X133101443Y-81749519D01*
G37*
G36*
X156193443Y-81274519D02*
G01*
X156259627Y-81281037D01*
X156429466Y-81332557D01*
X156585991Y-81416222D01*
X156621729Y-81445552D01*
X156723186Y-81528814D01*
X156806448Y-81630271D01*
X156835778Y-81666009D01*
X156919443Y-81822534D01*
X156970963Y-81992373D01*
X156988359Y-82169000D01*
X156970963Y-82345627D01*
X156919443Y-82515466D01*
X156835778Y-82671991D01*
X156806448Y-82707729D01*
X156723186Y-82809186D01*
X156621729Y-82892448D01*
X156585991Y-82921778D01*
X156429466Y-83005443D01*
X156259627Y-83056963D01*
X156193442Y-83063482D01*
X156127260Y-83070000D01*
X156038740Y-83070000D01*
X155972558Y-83063482D01*
X155906373Y-83056963D01*
X155736534Y-83005443D01*
X155580009Y-82921778D01*
X155544271Y-82892448D01*
X155442814Y-82809186D01*
X155359552Y-82707729D01*
X155330222Y-82671991D01*
X155246557Y-82515466D01*
X155195037Y-82345627D01*
X155177641Y-82169000D01*
X155195037Y-81992373D01*
X155246557Y-81822534D01*
X155330222Y-81666009D01*
X155359552Y-81630271D01*
X155442814Y-81528814D01*
X155544271Y-81445552D01*
X155580009Y-81416222D01*
X155736534Y-81332557D01*
X155906373Y-81281037D01*
X155972557Y-81274519D01*
X156038740Y-81268000D01*
X156127260Y-81268000D01*
X156193443Y-81274519D01*
X156193443Y-81274519D01*
G37*
G36*
X158733443Y-81274519D02*
G01*
X158799627Y-81281037D01*
X158969466Y-81332557D01*
X159125991Y-81416222D01*
X159161729Y-81445552D01*
X159263186Y-81528814D01*
X159346448Y-81630271D01*
X159375778Y-81666009D01*
X159459443Y-81822534D01*
X159510963Y-81992373D01*
X159528359Y-82169000D01*
X159510963Y-82345627D01*
X159459443Y-82515466D01*
X159375778Y-82671991D01*
X159346448Y-82707729D01*
X159263186Y-82809186D01*
X159161729Y-82892448D01*
X159125991Y-82921778D01*
X158969466Y-83005443D01*
X158799627Y-83056963D01*
X158733442Y-83063482D01*
X158667260Y-83070000D01*
X158578740Y-83070000D01*
X158512558Y-83063482D01*
X158446373Y-83056963D01*
X158276534Y-83005443D01*
X158120009Y-82921778D01*
X158084271Y-82892448D01*
X157982814Y-82809186D01*
X157899552Y-82707729D01*
X157870222Y-82671991D01*
X157786557Y-82515466D01*
X157735037Y-82345627D01*
X157717641Y-82169000D01*
X157735037Y-81992373D01*
X157786557Y-81822534D01*
X157870222Y-81666009D01*
X157899552Y-81630271D01*
X157982814Y-81528814D01*
X158084271Y-81445552D01*
X158120009Y-81416222D01*
X158276534Y-81332557D01*
X158446373Y-81281037D01*
X158512557Y-81274519D01*
X158578740Y-81268000D01*
X158667260Y-81268000D01*
X158733443Y-81274519D01*
X158733443Y-81274519D01*
G37*
G36*
X138208818Y-80001696D02*
G01*
X138322105Y-80036062D01*
X138426512Y-80091869D01*
X138518027Y-80166973D01*
X138593131Y-80258488D01*
X138648938Y-80362895D01*
X138683304Y-80476182D01*
X138694907Y-80594000D01*
X138683304Y-80711818D01*
X138648938Y-80825105D01*
X138593131Y-80929512D01*
X138518027Y-81021027D01*
X138426512Y-81096131D01*
X138322105Y-81151938D01*
X138208818Y-81186304D01*
X138120519Y-81195000D01*
X137511481Y-81195000D01*
X137423182Y-81186304D01*
X137309895Y-81151938D01*
X137205488Y-81096131D01*
X137113973Y-81021027D01*
X137038869Y-80929512D01*
X136983062Y-80825105D01*
X136948696Y-80711818D01*
X136937093Y-80594000D01*
X136948696Y-80476182D01*
X136983062Y-80362897D01*
X137003913Y-80323886D01*
X137013290Y-80301248D01*
X137018070Y-80277214D01*
X137018070Y-80252710D01*
X137016395Y-80244288D01*
X137024613Y-80242653D01*
X137047252Y-80233276D01*
X137067626Y-80219662D01*
X137084950Y-80202338D01*
X137113973Y-80166973D01*
X137205487Y-80091870D01*
X137205486Y-80091870D01*
X137205488Y-80091869D01*
X137309895Y-80036062D01*
X137423182Y-80001696D01*
X137511481Y-79993000D01*
X138120519Y-79993000D01*
X138208818Y-80001696D01*
X138208818Y-80001696D01*
G37*
G36*
X158733442Y-78734518D02*
G01*
X158799627Y-78741037D01*
X158969466Y-78792557D01*
X158969468Y-78792558D01*
X159047728Y-78834389D01*
X159125991Y-78876222D01*
X159161729Y-78905552D01*
X159263186Y-78988814D01*
X159346448Y-79090271D01*
X159375778Y-79126009D01*
X159459443Y-79282534D01*
X159510963Y-79452373D01*
X159528359Y-79629000D01*
X159510963Y-79805627D01*
X159459443Y-79975466D01*
X159375778Y-80131991D01*
X159364817Y-80145347D01*
X159263186Y-80269186D01*
X159162352Y-80351937D01*
X159125991Y-80381778D01*
X158969466Y-80465443D01*
X158799627Y-80516963D01*
X158733442Y-80523482D01*
X158667260Y-80530000D01*
X158578740Y-80530000D01*
X158512558Y-80523482D01*
X158446373Y-80516963D01*
X158276534Y-80465443D01*
X158120009Y-80381778D01*
X158083648Y-80351937D01*
X157982814Y-80269186D01*
X157881183Y-80145347D01*
X157870222Y-80131991D01*
X157786557Y-79975466D01*
X157735037Y-79805627D01*
X157717641Y-79629000D01*
X157735037Y-79452373D01*
X157786557Y-79282534D01*
X157870222Y-79126009D01*
X157899552Y-79090271D01*
X157982814Y-78988814D01*
X158084271Y-78905552D01*
X158120009Y-78876222D01*
X158198272Y-78834389D01*
X158276532Y-78792558D01*
X158276534Y-78792557D01*
X158446373Y-78741037D01*
X158512558Y-78734518D01*
X158578740Y-78728000D01*
X158667260Y-78728000D01*
X158733442Y-78734518D01*
X158733442Y-78734518D01*
G37*
G36*
X156193442Y-78734518D02*
G01*
X156259627Y-78741037D01*
X156429466Y-78792557D01*
X156429468Y-78792558D01*
X156507728Y-78834389D01*
X156585991Y-78876222D01*
X156621729Y-78905552D01*
X156723186Y-78988814D01*
X156806448Y-79090271D01*
X156835778Y-79126009D01*
X156919443Y-79282534D01*
X156970963Y-79452373D01*
X156988359Y-79629000D01*
X156970963Y-79805627D01*
X156919443Y-79975466D01*
X156835778Y-80131991D01*
X156824817Y-80145347D01*
X156723186Y-80269186D01*
X156622352Y-80351937D01*
X156585991Y-80381778D01*
X156429466Y-80465443D01*
X156259627Y-80516963D01*
X156193442Y-80523482D01*
X156127260Y-80530000D01*
X156038740Y-80530000D01*
X155972558Y-80523482D01*
X155906373Y-80516963D01*
X155736534Y-80465443D01*
X155580009Y-80381778D01*
X155543648Y-80351937D01*
X155442814Y-80269186D01*
X155341183Y-80145347D01*
X155330222Y-80131991D01*
X155246557Y-79975466D01*
X155195037Y-79805627D01*
X155177641Y-79629000D01*
X155195037Y-79452373D01*
X155246557Y-79282534D01*
X155330222Y-79126009D01*
X155359552Y-79090271D01*
X155442814Y-78988814D01*
X155544271Y-78905552D01*
X155580009Y-78876222D01*
X155658272Y-78834389D01*
X155736532Y-78792558D01*
X155736534Y-78792557D01*
X155906373Y-78741037D01*
X155972558Y-78734518D01*
X156038740Y-78728000D01*
X156127260Y-78728000D01*
X156193442Y-78734518D01*
X156193442Y-78734518D01*
G37*
G36*
X136458818Y-79201696D02*
G01*
X136572105Y-79236062D01*
X136676512Y-79291869D01*
X136676514Y-79291870D01*
X136676513Y-79291870D01*
X136768027Y-79366973D01*
X136797050Y-79402338D01*
X136814374Y-79419662D01*
X136834749Y-79433276D01*
X136857387Y-79442653D01*
X136865606Y-79444288D01*
X136863930Y-79452711D01*
X136863930Y-79477215D01*
X136868710Y-79501248D01*
X136878087Y-79523886D01*
X136898938Y-79562897D01*
X136933304Y-79676182D01*
X136944907Y-79794000D01*
X136933304Y-79911818D01*
X136898938Y-80025103D01*
X136878087Y-80064114D01*
X136868710Y-80086752D01*
X136863930Y-80110786D01*
X136863930Y-80135290D01*
X136865605Y-80143712D01*
X136857387Y-80145347D01*
X136834748Y-80154724D01*
X136814374Y-80168338D01*
X136797050Y-80185662D01*
X136768027Y-80221027D01*
X136699562Y-80277214D01*
X136676512Y-80296131D01*
X136572105Y-80351938D01*
X136458818Y-80386304D01*
X136370519Y-80395000D01*
X135761481Y-80395000D01*
X135673182Y-80386304D01*
X135559895Y-80351938D01*
X135455488Y-80296131D01*
X135363973Y-80221027D01*
X135288869Y-80129512D01*
X135233062Y-80025105D01*
X135198696Y-79911818D01*
X135187093Y-79794000D01*
X135198696Y-79676182D01*
X135233062Y-79562895D01*
X135288869Y-79458488D01*
X135363973Y-79366973D01*
X135455488Y-79291869D01*
X135559895Y-79236062D01*
X135673182Y-79201696D01*
X135761481Y-79193000D01*
X136370519Y-79193000D01*
X136458818Y-79201696D01*
X136458818Y-79201696D01*
G37*
G36*
X138208818Y-78401696D02*
G01*
X138322105Y-78436062D01*
X138426512Y-78491869D01*
X138518027Y-78566973D01*
X138593131Y-78658488D01*
X138648938Y-78762895D01*
X138683304Y-78876182D01*
X138694907Y-78994000D01*
X138683304Y-79111818D01*
X138648938Y-79225105D01*
X138593131Y-79329512D01*
X138518027Y-79421027D01*
X138426512Y-79496131D01*
X138322105Y-79551938D01*
X138208818Y-79586304D01*
X138120519Y-79595000D01*
X137511481Y-79595000D01*
X137423182Y-79586304D01*
X137309895Y-79551938D01*
X137205488Y-79496131D01*
X137159619Y-79458487D01*
X137113973Y-79421027D01*
X137084950Y-79385662D01*
X137067626Y-79368338D01*
X137047251Y-79354724D01*
X137024613Y-79345347D01*
X137016394Y-79343712D01*
X137018070Y-79335289D01*
X137018070Y-79310785D01*
X137013290Y-79286752D01*
X137003913Y-79264114D01*
X136983062Y-79225103D01*
X136948696Y-79111818D01*
X136937093Y-78994000D01*
X136948696Y-78876182D01*
X136983062Y-78762897D01*
X137003913Y-78723886D01*
X137013290Y-78701248D01*
X137018070Y-78677214D01*
X137018070Y-78652710D01*
X137016395Y-78644288D01*
X137024613Y-78642653D01*
X137047252Y-78633276D01*
X137067626Y-78619662D01*
X137084950Y-78602338D01*
X137113973Y-78566973D01*
X137205487Y-78491870D01*
X137205486Y-78491870D01*
X137205488Y-78491869D01*
X137309895Y-78436062D01*
X137423182Y-78401696D01*
X137511481Y-78393000D01*
X138120519Y-78393000D01*
X138208818Y-78401696D01*
X138208818Y-78401696D01*
G37*
G36*
X136458818Y-77601696D02*
G01*
X136572105Y-77636062D01*
X136676512Y-77691869D01*
X136676514Y-77691870D01*
X136676513Y-77691870D01*
X136768027Y-77766973D01*
X136797050Y-77802338D01*
X136814374Y-77819662D01*
X136834749Y-77833276D01*
X136857387Y-77842653D01*
X136865606Y-77844288D01*
X136863930Y-77852711D01*
X136863930Y-77877215D01*
X136868710Y-77901248D01*
X136878087Y-77923886D01*
X136898938Y-77962897D01*
X136933304Y-78076182D01*
X136944907Y-78194000D01*
X136933304Y-78311818D01*
X136898938Y-78425103D01*
X136878087Y-78464114D01*
X136868710Y-78486752D01*
X136863930Y-78510786D01*
X136863930Y-78535290D01*
X136865605Y-78543712D01*
X136857387Y-78545347D01*
X136834748Y-78554724D01*
X136814374Y-78568338D01*
X136797050Y-78585662D01*
X136768027Y-78621027D01*
X136722381Y-78658487D01*
X136676512Y-78696131D01*
X136572105Y-78751938D01*
X136458818Y-78786304D01*
X136370519Y-78795000D01*
X135761481Y-78795000D01*
X135673182Y-78786304D01*
X135559895Y-78751938D01*
X135455488Y-78696131D01*
X135363973Y-78621027D01*
X135288869Y-78529512D01*
X135233062Y-78425105D01*
X135198696Y-78311818D01*
X135187093Y-78194000D01*
X135198696Y-78076182D01*
X135233062Y-77962895D01*
X135288869Y-77858488D01*
X135363973Y-77766973D01*
X135455488Y-77691869D01*
X135559895Y-77636062D01*
X135673182Y-77601696D01*
X135761481Y-77593000D01*
X136370519Y-77593000D01*
X136458818Y-77601696D01*
X136458818Y-77601696D01*
G37*
G36*
X138208818Y-76801696D02*
G01*
X138322105Y-76836062D01*
X138426512Y-76891869D01*
X138518027Y-76966973D01*
X138593131Y-77058488D01*
X138648938Y-77162895D01*
X138683304Y-77276182D01*
X138694907Y-77394000D01*
X138683304Y-77511818D01*
X138648938Y-77625105D01*
X138593131Y-77729512D01*
X138518027Y-77821027D01*
X138426512Y-77896131D01*
X138322105Y-77951938D01*
X138208818Y-77986304D01*
X138120519Y-77995000D01*
X137511481Y-77995000D01*
X137423182Y-77986304D01*
X137309895Y-77951938D01*
X137205488Y-77896131D01*
X137159619Y-77858487D01*
X137113973Y-77821027D01*
X137084950Y-77785662D01*
X137067626Y-77768338D01*
X137047251Y-77754724D01*
X137024613Y-77745347D01*
X137016394Y-77743712D01*
X137018070Y-77735289D01*
X137018070Y-77710785D01*
X137013290Y-77686752D01*
X137003913Y-77664114D01*
X136983062Y-77625103D01*
X136948696Y-77511818D01*
X136937093Y-77394000D01*
X136948696Y-77276182D01*
X136983062Y-77162895D01*
X137038869Y-77058488D01*
X137113973Y-76966973D01*
X137205488Y-76891869D01*
X137309895Y-76836062D01*
X137423182Y-76801696D01*
X137511481Y-76793000D01*
X138120519Y-76793000D01*
X138208818Y-76801696D01*
X138208818Y-76801696D01*
G37*
G36*
X158733442Y-76194518D02*
G01*
X158799627Y-76201037D01*
X158969466Y-76252557D01*
X159125991Y-76336222D01*
X159161729Y-76365552D01*
X159263186Y-76448814D01*
X159346448Y-76550271D01*
X159375778Y-76586009D01*
X159459443Y-76742534D01*
X159510963Y-76912373D01*
X159528359Y-77089000D01*
X159510963Y-77265627D01*
X159459443Y-77435466D01*
X159375778Y-77591991D01*
X159367813Y-77601696D01*
X159263186Y-77729186D01*
X159174052Y-77802335D01*
X159125991Y-77841778D01*
X159125989Y-77841779D01*
X159024305Y-77896131D01*
X158969466Y-77925443D01*
X158799627Y-77976963D01*
X158733442Y-77983482D01*
X158667260Y-77990000D01*
X158578740Y-77990000D01*
X158512558Y-77983482D01*
X158446373Y-77976963D01*
X158276534Y-77925443D01*
X158221696Y-77896131D01*
X158120011Y-77841779D01*
X158120009Y-77841778D01*
X158071948Y-77802335D01*
X157982814Y-77729186D01*
X157878187Y-77601696D01*
X157870222Y-77591991D01*
X157786557Y-77435466D01*
X157735037Y-77265627D01*
X157717641Y-77089000D01*
X157735037Y-76912373D01*
X157786557Y-76742534D01*
X157870222Y-76586009D01*
X157899552Y-76550271D01*
X157982814Y-76448814D01*
X158084271Y-76365552D01*
X158120009Y-76336222D01*
X158276534Y-76252557D01*
X158446373Y-76201037D01*
X158512558Y-76194518D01*
X158578740Y-76188000D01*
X158667260Y-76188000D01*
X158733442Y-76194518D01*
X158733442Y-76194518D01*
G37*
G36*
X156984000Y-77990000D02*
G01*
X155182000Y-77990000D01*
X155182000Y-76188000D01*
X156984000Y-76188000D01*
X156984000Y-77990000D01*
X156984000Y-77990000D01*
G37*
G36*
X133101443Y-74449519D02*
G01*
X133167627Y-74456037D01*
X133337466Y-74507557D01*
X133493991Y-74591222D01*
X133529729Y-74620552D01*
X133631186Y-74703814D01*
X133714448Y-74805271D01*
X133743778Y-74841009D01*
X133827443Y-74997534D01*
X133878963Y-75167373D01*
X133896359Y-75344000D01*
X133878963Y-75520627D01*
X133827443Y-75690466D01*
X133743778Y-75846991D01*
X133714448Y-75882729D01*
X133631186Y-75984186D01*
X133529729Y-76067448D01*
X133493991Y-76096778D01*
X133337466Y-76180443D01*
X133167627Y-76231963D01*
X133101443Y-76238481D01*
X133035260Y-76245000D01*
X131946740Y-76245000D01*
X131880557Y-76238481D01*
X131814373Y-76231963D01*
X131644534Y-76180443D01*
X131488009Y-76096778D01*
X131452271Y-76067448D01*
X131350814Y-75984186D01*
X131267552Y-75882729D01*
X131238222Y-75846991D01*
X131154557Y-75690466D01*
X131103037Y-75520627D01*
X131085641Y-75344000D01*
X131103037Y-75167373D01*
X131154557Y-74997534D01*
X131238222Y-74841009D01*
X131267552Y-74805271D01*
X131350814Y-74703814D01*
X131452271Y-74620552D01*
X131488009Y-74591222D01*
X131644534Y-74507557D01*
X131814373Y-74456037D01*
X131880557Y-74449519D01*
X131946740Y-74443000D01*
X133035260Y-74443000D01*
X133101443Y-74449519D01*
X133101443Y-74449519D01*
G37*
M02*
