M48
; DRILL file {KiCad (5.1.2)-2} date 2020-08-30 12:43:27 AM
; FORMAT={-:-/ absolute / inch / decimal}
; #@! TF.CreationDate,2020-08-30T00:43:27-04:00
; #@! TF.GenerationSoftware,Kicad,Pcbnew,(5.1.2)-2
; #@! TF.FileFunction,Plated,1,2,PTH
FMAT,2
INCH
T1C0.0157
T2C0.0276
T3C0.0394
T4C0.0433
%
G90
G05
T1
X5.515Y-3.305
X5.875Y-3.245
X5.9Y-3.285
X5.945Y-3.175
X6.03Y-3.285
X6.135Y-2.755
X6.375Y-3.1433
X6.375Y-3.24
X6.524Y-3.361
X6.526Y-3.109
X6.585Y-2.935
X6.7885Y-3.5315
X6.97Y-3.7
X7.055Y-2.945
X7.13Y-3.435
X7.21Y-2.89
X7.35Y-2.88
X7.455Y-3.145
X8.425Y-3.6
T2
X5.3678Y-3.0785
X5.3678Y-3.1415
X5.415Y-3.047
X5.415Y-3.11
X5.415Y-3.173
T3
X7.23Y-3.59
X7.23Y-3.69
X7.33Y-3.59
X7.33Y-3.69
X7.43Y-3.59
X7.43Y-3.69
X6.145Y-3.035
X6.145Y-3.135
X6.145Y-3.235
X6.145Y-3.335
X6.145Y-3.435
X6.245Y-3.035
X6.245Y-3.135
X6.245Y-3.235
X6.245Y-3.335
X6.245Y-3.435
T4
X5.22Y-3.48
X5.22Y-3.6572
X5.4759Y-3.48
X5.4759Y-3.6572
X8.625Y-3.48
X8.625Y-3.6572
X8.8809Y-3.48
X8.8809Y-3.6572
X7.965Y-3.48
X7.965Y-3.6572
X8.2209Y-3.48
X8.2209Y-3.6572
T2
G00X5.1926Y-2.9663
M15
G01X5.2398Y-2.9663
M16
G05
G00X5.1926Y-3.2537
M15
G01X5.2398Y-3.2537
M16
G05
T0
M30
