G04 #@! TF.GenerationSoftware,KiCad,Pcbnew,(5.1.2)-2*
G04 #@! TF.CreationDate,2020-08-30T00:43:24-04:00*
G04 #@! TF.ProjectId,Scanner1,5363616e-6e65-4723-912e-6b696361645f,rev?*
G04 #@! TF.SameCoordinates,Original*
G04 #@! TF.FileFunction,Copper,L2,Bot*
G04 #@! TF.FilePolarity,Positive*
%FSLAX46Y46*%
G04 Gerber Fmt 4.6, Leading zero omitted, Abs format (unit mm)*
G04 Created by KiCad (PCBNEW (5.1.2)-2) date 2020-08-30 00:43:24*
%MOMM*%
%LPD*%
G04 APERTURE LIST*
%ADD10O,1.650000X1.100000*%
%ADD11O,2.700000X1.700000*%
%ADD12R,1.700000X1.700000*%
%ADD13O,1.700000X1.700000*%
%ADD14C,2.000000*%
%ADD15C,0.800000*%
%ADD16C,0.250000*%
%ADD17C,0.254000*%
G04 APERTURE END LIST*
D10*
X137816000Y-78994000D03*
X137816000Y-77394000D03*
X137816000Y-80594000D03*
X136066000Y-78194000D03*
X136066000Y-79794000D03*
D11*
X132491000Y-75344000D03*
X132491000Y-82644000D03*
D12*
X156083000Y-77089000D03*
D13*
X158623000Y-77089000D03*
X156083000Y-79629000D03*
X158623000Y-79629000D03*
X156083000Y-82169000D03*
X158623000Y-82169000D03*
X156083000Y-84709000D03*
X158623000Y-84709000D03*
X156083000Y-87249000D03*
X158623000Y-87249000D03*
D12*
X188722000Y-91186000D03*
D13*
X188722000Y-93726000D03*
X186182000Y-91186000D03*
X186182000Y-93726000D03*
X183642000Y-91186000D03*
X183642000Y-93726000D03*
D14*
X132588000Y-92892000D03*
X132588000Y-88392000D03*
X139088000Y-92892000D03*
X139088000Y-88392000D03*
X208811000Y-88392000D03*
X208811000Y-92892000D03*
X202311000Y-88392000D03*
X202311000Y-92892000D03*
X219075000Y-92892000D03*
X219075000Y-88392000D03*
X225575000Y-92892000D03*
X225575000Y-88392000D03*
D15*
X179197000Y-74803000D03*
X140081000Y-83947000D03*
X155829000Y-69977000D03*
X172428000Y-89700000D03*
X165710000Y-85369000D03*
X189357000Y-79883000D03*
X165760000Y-78969000D03*
X167259000Y-74549000D03*
X213995000Y-91440000D03*
X149225000Y-82423000D03*
X151003000Y-80645000D03*
X181102000Y-87249000D03*
X177038000Y-93980000D03*
X149860000Y-83439000D03*
X153162000Y-83439000D03*
X183134000Y-73406000D03*
X186690000Y-73152000D03*
X161925000Y-82296000D03*
X161925000Y-79839000D03*
D16*
X149225000Y-82423000D02*
X151003000Y-80645000D01*
X181102000Y-87814685D02*
X181102000Y-87249000D01*
X181102000Y-89848081D02*
X181102000Y-87814685D01*
X182439919Y-91186000D02*
X181102000Y-89848081D01*
X183642000Y-91186000D02*
X182439919Y-91186000D01*
X181102000Y-89848081D02*
X181102000Y-89916000D01*
X181102000Y-89916000D02*
X177038000Y-93980000D01*
X149860000Y-83439000D02*
X153162000Y-83439000D01*
X183134000Y-73406000D02*
X183699685Y-73406000D01*
X183699685Y-73406000D02*
X186436000Y-73406000D01*
X186436000Y-73406000D02*
X186690000Y-73152000D01*
X161925000Y-82296000D02*
X161925000Y-79839000D01*
D17*
G36*
X227940000Y-95225000D02*
G01*
X130200000Y-95225000D01*
X130200000Y-94027413D01*
X131632192Y-94027413D01*
X131727956Y-94291814D01*
X132017571Y-94432704D01*
X132329108Y-94514384D01*
X132650595Y-94533718D01*
X132969675Y-94489961D01*
X133274088Y-94384795D01*
X133448044Y-94291814D01*
X133543808Y-94027413D01*
X138132192Y-94027413D01*
X138227956Y-94291814D01*
X138517571Y-94432704D01*
X138829108Y-94514384D01*
X139150595Y-94533718D01*
X139469675Y-94489961D01*
X139774088Y-94384795D01*
X139948044Y-94291814D01*
X140043808Y-94027413D01*
X139894456Y-93878061D01*
X176003000Y-93878061D01*
X176003000Y-94081939D01*
X176042774Y-94281898D01*
X176120795Y-94470256D01*
X176234063Y-94639774D01*
X176378226Y-94783937D01*
X176547744Y-94897205D01*
X176736102Y-94975226D01*
X176936061Y-95015000D01*
X177139939Y-95015000D01*
X177339898Y-94975226D01*
X177528256Y-94897205D01*
X177697774Y-94783937D01*
X177841937Y-94639774D01*
X177955205Y-94470256D01*
X178033226Y-94281898D01*
X178072810Y-94082891D01*
X182200519Y-94082891D01*
X182297843Y-94357252D01*
X182446822Y-94607355D01*
X182641731Y-94823588D01*
X182875080Y-94997641D01*
X183137901Y-95122825D01*
X183285110Y-95167476D01*
X183515000Y-95046155D01*
X183515000Y-93853000D01*
X182321186Y-93853000D01*
X182200519Y-94082891D01*
X178072810Y-94082891D01*
X178073000Y-94081939D01*
X178073000Y-94019801D01*
X181135960Y-90956842D01*
X181876120Y-91697003D01*
X181899918Y-91726001D01*
X182015643Y-91820974D01*
X182147672Y-91891546D01*
X182290933Y-91935003D01*
X182362284Y-91942031D01*
X182401294Y-92015014D01*
X182586866Y-92241134D01*
X182812986Y-92426706D01*
X182870756Y-92457584D01*
X182641731Y-92628412D01*
X182446822Y-92844645D01*
X182297843Y-93094748D01*
X182200519Y-93369109D01*
X182321186Y-93599000D01*
X183515000Y-93599000D01*
X183515000Y-93579000D01*
X183769000Y-93579000D01*
X183769000Y-93599000D01*
X183789000Y-93599000D01*
X183789000Y-93853000D01*
X183769000Y-93853000D01*
X183769000Y-95046155D01*
X183998890Y-95167476D01*
X184146099Y-95122825D01*
X184408920Y-94997641D01*
X184642269Y-94823588D01*
X184837178Y-94607355D01*
X184906799Y-94490477D01*
X184941294Y-94555014D01*
X185126866Y-94781134D01*
X185352986Y-94966706D01*
X185610966Y-95104599D01*
X185890889Y-95189513D01*
X186109050Y-95211000D01*
X186254950Y-95211000D01*
X186473111Y-95189513D01*
X186753034Y-95104599D01*
X187011014Y-94966706D01*
X187237134Y-94781134D01*
X187422706Y-94555014D01*
X187452000Y-94500209D01*
X187481294Y-94555014D01*
X187666866Y-94781134D01*
X187892986Y-94966706D01*
X188150966Y-95104599D01*
X188430889Y-95189513D01*
X188649050Y-95211000D01*
X188794950Y-95211000D01*
X189013111Y-95189513D01*
X189293034Y-95104599D01*
X189551014Y-94966706D01*
X189777134Y-94781134D01*
X189962706Y-94555014D01*
X190100599Y-94297034D01*
X190185513Y-94017111D01*
X190214185Y-93726000D01*
X190185513Y-93434889D01*
X190100599Y-93154966D01*
X189962706Y-92896986D01*
X189826458Y-92730967D01*
X200676000Y-92730967D01*
X200676000Y-93053033D01*
X200738832Y-93368912D01*
X200862082Y-93666463D01*
X201041013Y-93934252D01*
X201268748Y-94161987D01*
X201536537Y-94340918D01*
X201834088Y-94464168D01*
X202149967Y-94527000D01*
X202472033Y-94527000D01*
X202787912Y-94464168D01*
X203085463Y-94340918D01*
X203353252Y-94161987D01*
X203580987Y-93934252D01*
X203759918Y-93666463D01*
X203883168Y-93368912D01*
X203946000Y-93053033D01*
X203946000Y-92730967D01*
X207176000Y-92730967D01*
X207176000Y-93053033D01*
X207238832Y-93368912D01*
X207362082Y-93666463D01*
X207541013Y-93934252D01*
X207768748Y-94161987D01*
X208036537Y-94340918D01*
X208334088Y-94464168D01*
X208649967Y-94527000D01*
X208972033Y-94527000D01*
X209287912Y-94464168D01*
X209585463Y-94340918D01*
X209853252Y-94161987D01*
X210080987Y-93934252D01*
X210259918Y-93666463D01*
X210383168Y-93368912D01*
X210446000Y-93053033D01*
X210446000Y-92730967D01*
X217440000Y-92730967D01*
X217440000Y-93053033D01*
X217502832Y-93368912D01*
X217626082Y-93666463D01*
X217805013Y-93934252D01*
X218032748Y-94161987D01*
X218300537Y-94340918D01*
X218598088Y-94464168D01*
X218913967Y-94527000D01*
X219236033Y-94527000D01*
X219551912Y-94464168D01*
X219849463Y-94340918D01*
X220117252Y-94161987D01*
X220344987Y-93934252D01*
X220523918Y-93666463D01*
X220647168Y-93368912D01*
X220710000Y-93053033D01*
X220710000Y-92730967D01*
X223940000Y-92730967D01*
X223940000Y-93053033D01*
X224002832Y-93368912D01*
X224126082Y-93666463D01*
X224305013Y-93934252D01*
X224532748Y-94161987D01*
X224800537Y-94340918D01*
X225098088Y-94464168D01*
X225413967Y-94527000D01*
X225736033Y-94527000D01*
X226051912Y-94464168D01*
X226349463Y-94340918D01*
X226617252Y-94161987D01*
X226844987Y-93934252D01*
X227023918Y-93666463D01*
X227147168Y-93368912D01*
X227210000Y-93053033D01*
X227210000Y-92730967D01*
X227147168Y-92415088D01*
X227023918Y-92117537D01*
X226844987Y-91849748D01*
X226617252Y-91622013D01*
X226349463Y-91443082D01*
X226051912Y-91319832D01*
X225736033Y-91257000D01*
X225413967Y-91257000D01*
X225098088Y-91319832D01*
X224800537Y-91443082D01*
X224532748Y-91622013D01*
X224305013Y-91849748D01*
X224126082Y-92117537D01*
X224002832Y-92415088D01*
X223940000Y-92730967D01*
X220710000Y-92730967D01*
X220647168Y-92415088D01*
X220523918Y-92117537D01*
X220344987Y-91849748D01*
X220117252Y-91622013D01*
X219849463Y-91443082D01*
X219551912Y-91319832D01*
X219236033Y-91257000D01*
X218913967Y-91257000D01*
X218598088Y-91319832D01*
X218300537Y-91443082D01*
X218032748Y-91622013D01*
X217805013Y-91849748D01*
X217626082Y-92117537D01*
X217502832Y-92415088D01*
X217440000Y-92730967D01*
X210446000Y-92730967D01*
X210383168Y-92415088D01*
X210259918Y-92117537D01*
X210080987Y-91849748D01*
X209853252Y-91622013D01*
X209585463Y-91443082D01*
X209287912Y-91319832D01*
X208972033Y-91257000D01*
X208649967Y-91257000D01*
X208334088Y-91319832D01*
X208036537Y-91443082D01*
X207768748Y-91622013D01*
X207541013Y-91849748D01*
X207362082Y-92117537D01*
X207238832Y-92415088D01*
X207176000Y-92730967D01*
X203946000Y-92730967D01*
X203883168Y-92415088D01*
X203759918Y-92117537D01*
X203580987Y-91849748D01*
X203353252Y-91622013D01*
X203085463Y-91443082D01*
X202787912Y-91319832D01*
X202472033Y-91257000D01*
X202149967Y-91257000D01*
X201834088Y-91319832D01*
X201536537Y-91443082D01*
X201268748Y-91622013D01*
X201041013Y-91849748D01*
X200862082Y-92117537D01*
X200738832Y-92415088D01*
X200676000Y-92730967D01*
X189826458Y-92730967D01*
X189777134Y-92670866D01*
X189747313Y-92646393D01*
X189816180Y-92625502D01*
X189926494Y-92566537D01*
X190023185Y-92487185D01*
X190102537Y-92390494D01*
X190161502Y-92280180D01*
X190197812Y-92160482D01*
X190210072Y-92036000D01*
X190210072Y-90336000D01*
X190197812Y-90211518D01*
X190161502Y-90091820D01*
X190102537Y-89981506D01*
X190023185Y-89884815D01*
X189926494Y-89805463D01*
X189816180Y-89746498D01*
X189696482Y-89710188D01*
X189572000Y-89697928D01*
X187872000Y-89697928D01*
X187747518Y-89710188D01*
X187627820Y-89746498D01*
X187517506Y-89805463D01*
X187420815Y-89884815D01*
X187341463Y-89981506D01*
X187282498Y-90091820D01*
X187261607Y-90160687D01*
X187237134Y-90130866D01*
X187011014Y-89945294D01*
X186753034Y-89807401D01*
X186473111Y-89722487D01*
X186254950Y-89701000D01*
X186109050Y-89701000D01*
X185890889Y-89722487D01*
X185610966Y-89807401D01*
X185352986Y-89945294D01*
X185126866Y-90130866D01*
X184941294Y-90356986D01*
X184912000Y-90411791D01*
X184882706Y-90356986D01*
X184697134Y-90130866D01*
X184471014Y-89945294D01*
X184213034Y-89807401D01*
X183933111Y-89722487D01*
X183714950Y-89701000D01*
X183569050Y-89701000D01*
X183350889Y-89722487D01*
X183070966Y-89807401D01*
X182812986Y-89945294D01*
X182586866Y-90130866D01*
X182529494Y-90200774D01*
X181862000Y-89533280D01*
X181862000Y-88230967D01*
X200676000Y-88230967D01*
X200676000Y-88553033D01*
X200738832Y-88868912D01*
X200862082Y-89166463D01*
X201041013Y-89434252D01*
X201268748Y-89661987D01*
X201536537Y-89840918D01*
X201834088Y-89964168D01*
X202149967Y-90027000D01*
X202472033Y-90027000D01*
X202787912Y-89964168D01*
X203085463Y-89840918D01*
X203353252Y-89661987D01*
X203580987Y-89434252D01*
X203759918Y-89166463D01*
X203883168Y-88868912D01*
X203946000Y-88553033D01*
X203946000Y-88230967D01*
X207176000Y-88230967D01*
X207176000Y-88553033D01*
X207238832Y-88868912D01*
X207362082Y-89166463D01*
X207541013Y-89434252D01*
X207768748Y-89661987D01*
X208036537Y-89840918D01*
X208334088Y-89964168D01*
X208649967Y-90027000D01*
X208972033Y-90027000D01*
X209287912Y-89964168D01*
X209585463Y-89840918D01*
X209853252Y-89661987D01*
X210080987Y-89434252D01*
X210259918Y-89166463D01*
X210383168Y-88868912D01*
X210446000Y-88553033D01*
X210446000Y-88230967D01*
X217440000Y-88230967D01*
X217440000Y-88553033D01*
X217502832Y-88868912D01*
X217626082Y-89166463D01*
X217805013Y-89434252D01*
X218032748Y-89661987D01*
X218300537Y-89840918D01*
X218598088Y-89964168D01*
X218913967Y-90027000D01*
X219236033Y-90027000D01*
X219551912Y-89964168D01*
X219849463Y-89840918D01*
X220117252Y-89661987D01*
X220344987Y-89434252D01*
X220523918Y-89166463D01*
X220647168Y-88868912D01*
X220710000Y-88553033D01*
X220710000Y-88230967D01*
X223940000Y-88230967D01*
X223940000Y-88553033D01*
X224002832Y-88868912D01*
X224126082Y-89166463D01*
X224305013Y-89434252D01*
X224532748Y-89661987D01*
X224800537Y-89840918D01*
X225098088Y-89964168D01*
X225413967Y-90027000D01*
X225736033Y-90027000D01*
X226051912Y-89964168D01*
X226349463Y-89840918D01*
X226617252Y-89661987D01*
X226844987Y-89434252D01*
X227023918Y-89166463D01*
X227147168Y-88868912D01*
X227210000Y-88553033D01*
X227210000Y-88230967D01*
X227147168Y-87915088D01*
X227023918Y-87617537D01*
X226844987Y-87349748D01*
X226617252Y-87122013D01*
X226349463Y-86943082D01*
X226051912Y-86819832D01*
X225736033Y-86757000D01*
X225413967Y-86757000D01*
X225098088Y-86819832D01*
X224800537Y-86943082D01*
X224532748Y-87122013D01*
X224305013Y-87349748D01*
X224126082Y-87617537D01*
X224002832Y-87915088D01*
X223940000Y-88230967D01*
X220710000Y-88230967D01*
X220647168Y-87915088D01*
X220523918Y-87617537D01*
X220344987Y-87349748D01*
X220117252Y-87122013D01*
X219849463Y-86943082D01*
X219551912Y-86819832D01*
X219236033Y-86757000D01*
X218913967Y-86757000D01*
X218598088Y-86819832D01*
X218300537Y-86943082D01*
X218032748Y-87122013D01*
X217805013Y-87349748D01*
X217626082Y-87617537D01*
X217502832Y-87915088D01*
X217440000Y-88230967D01*
X210446000Y-88230967D01*
X210383168Y-87915088D01*
X210259918Y-87617537D01*
X210080987Y-87349748D01*
X209853252Y-87122013D01*
X209585463Y-86943082D01*
X209287912Y-86819832D01*
X208972033Y-86757000D01*
X208649967Y-86757000D01*
X208334088Y-86819832D01*
X208036537Y-86943082D01*
X207768748Y-87122013D01*
X207541013Y-87349748D01*
X207362082Y-87617537D01*
X207238832Y-87915088D01*
X207176000Y-88230967D01*
X203946000Y-88230967D01*
X203883168Y-87915088D01*
X203759918Y-87617537D01*
X203580987Y-87349748D01*
X203353252Y-87122013D01*
X203085463Y-86943082D01*
X202787912Y-86819832D01*
X202472033Y-86757000D01*
X202149967Y-86757000D01*
X201834088Y-86819832D01*
X201536537Y-86943082D01*
X201268748Y-87122013D01*
X201041013Y-87349748D01*
X200862082Y-87617537D01*
X200738832Y-87915088D01*
X200676000Y-88230967D01*
X181862000Y-88230967D01*
X181862000Y-87952711D01*
X181905937Y-87908774D01*
X182019205Y-87739256D01*
X182097226Y-87550898D01*
X182137000Y-87350939D01*
X182137000Y-87147061D01*
X182097226Y-86947102D01*
X182019205Y-86758744D01*
X181905937Y-86589226D01*
X181761774Y-86445063D01*
X181592256Y-86331795D01*
X181403898Y-86253774D01*
X181203939Y-86214000D01*
X181000061Y-86214000D01*
X180800102Y-86253774D01*
X180611744Y-86331795D01*
X180442226Y-86445063D01*
X180298063Y-86589226D01*
X180184795Y-86758744D01*
X180106774Y-86947102D01*
X180067000Y-87147061D01*
X180067000Y-87350939D01*
X180106774Y-87550898D01*
X180184795Y-87739256D01*
X180298063Y-87908774D01*
X180342001Y-87952712D01*
X180342000Y-89601198D01*
X176998199Y-92945000D01*
X176936061Y-92945000D01*
X176736102Y-92984774D01*
X176547744Y-93062795D01*
X176378226Y-93176063D01*
X176234063Y-93320226D01*
X176120795Y-93489744D01*
X176042774Y-93678102D01*
X176003000Y-93878061D01*
X139894456Y-93878061D01*
X139088000Y-93071605D01*
X138132192Y-94027413D01*
X133543808Y-94027413D01*
X132588000Y-93071605D01*
X131632192Y-94027413D01*
X130200000Y-94027413D01*
X130200000Y-92954595D01*
X130946282Y-92954595D01*
X130990039Y-93273675D01*
X131095205Y-93578088D01*
X131188186Y-93752044D01*
X131452587Y-93847808D01*
X132408395Y-92892000D01*
X132767605Y-92892000D01*
X133723413Y-93847808D01*
X133987814Y-93752044D01*
X134128704Y-93462429D01*
X134210384Y-93150892D01*
X134222189Y-92954595D01*
X137446282Y-92954595D01*
X137490039Y-93273675D01*
X137595205Y-93578088D01*
X137688186Y-93752044D01*
X137952587Y-93847808D01*
X138908395Y-92892000D01*
X139267605Y-92892000D01*
X140223413Y-93847808D01*
X140487814Y-93752044D01*
X140628704Y-93462429D01*
X140710384Y-93150892D01*
X140729718Y-92829405D01*
X140685961Y-92510325D01*
X140580795Y-92205912D01*
X140487814Y-92031956D01*
X140223413Y-91936192D01*
X139267605Y-92892000D01*
X138908395Y-92892000D01*
X137952587Y-91936192D01*
X137688186Y-92031956D01*
X137547296Y-92321571D01*
X137465616Y-92633108D01*
X137446282Y-92954595D01*
X134222189Y-92954595D01*
X134229718Y-92829405D01*
X134185961Y-92510325D01*
X134080795Y-92205912D01*
X133987814Y-92031956D01*
X133723413Y-91936192D01*
X132767605Y-92892000D01*
X132408395Y-92892000D01*
X131452587Y-91936192D01*
X131188186Y-92031956D01*
X131047296Y-92321571D01*
X130965616Y-92633108D01*
X130946282Y-92954595D01*
X130200000Y-92954595D01*
X130200000Y-91756587D01*
X131632192Y-91756587D01*
X132588000Y-92712395D01*
X133543808Y-91756587D01*
X138132192Y-91756587D01*
X139088000Y-92712395D01*
X140043808Y-91756587D01*
X139948044Y-91492186D01*
X139658429Y-91351296D01*
X139346892Y-91269616D01*
X139025405Y-91250282D01*
X138706325Y-91294039D01*
X138401912Y-91399205D01*
X138227956Y-91492186D01*
X138132192Y-91756587D01*
X133543808Y-91756587D01*
X133448044Y-91492186D01*
X133158429Y-91351296D01*
X132846892Y-91269616D01*
X132525405Y-91250282D01*
X132206325Y-91294039D01*
X131901912Y-91399205D01*
X131727956Y-91492186D01*
X131632192Y-91756587D01*
X130200000Y-91756587D01*
X130200000Y-88230967D01*
X130953000Y-88230967D01*
X130953000Y-88553033D01*
X131015832Y-88868912D01*
X131139082Y-89166463D01*
X131318013Y-89434252D01*
X131545748Y-89661987D01*
X131813537Y-89840918D01*
X132111088Y-89964168D01*
X132426967Y-90027000D01*
X132749033Y-90027000D01*
X133064912Y-89964168D01*
X133362463Y-89840918D01*
X133630252Y-89661987D01*
X133857987Y-89434252D01*
X134036918Y-89166463D01*
X134160168Y-88868912D01*
X134223000Y-88553033D01*
X134223000Y-88230967D01*
X137453000Y-88230967D01*
X137453000Y-88553033D01*
X137515832Y-88868912D01*
X137639082Y-89166463D01*
X137818013Y-89434252D01*
X138045748Y-89661987D01*
X138313537Y-89840918D01*
X138611088Y-89964168D01*
X138926967Y-90027000D01*
X139249033Y-90027000D01*
X139564912Y-89964168D01*
X139862463Y-89840918D01*
X140130252Y-89661987D01*
X140357987Y-89434252D01*
X140536918Y-89166463D01*
X140660168Y-88868912D01*
X140723000Y-88553033D01*
X140723000Y-88230967D01*
X140660168Y-87915088D01*
X140536918Y-87617537D01*
X140357987Y-87349748D01*
X140130252Y-87122013D01*
X139862463Y-86943082D01*
X139564912Y-86819832D01*
X139249033Y-86757000D01*
X138926967Y-86757000D01*
X138611088Y-86819832D01*
X138313537Y-86943082D01*
X138045748Y-87122013D01*
X137818013Y-87349748D01*
X137639082Y-87617537D01*
X137515832Y-87915088D01*
X137453000Y-88230967D01*
X134223000Y-88230967D01*
X134160168Y-87915088D01*
X134036918Y-87617537D01*
X133857987Y-87349748D01*
X133630252Y-87122013D01*
X133362463Y-86943082D01*
X133064912Y-86819832D01*
X132749033Y-86757000D01*
X132426967Y-86757000D01*
X132111088Y-86819832D01*
X131813537Y-86943082D01*
X131545748Y-87122013D01*
X131318013Y-87349748D01*
X131139082Y-87617537D01*
X131015832Y-87915088D01*
X130953000Y-88230967D01*
X130200000Y-88230967D01*
X130200000Y-83000890D01*
X130549524Y-83000890D01*
X130570437Y-83094953D01*
X130685709Y-83363426D01*
X130851143Y-83604252D01*
X131060381Y-83808176D01*
X131305382Y-83967361D01*
X131576731Y-84075690D01*
X131864000Y-84129000D01*
X132364000Y-84129000D01*
X132364000Y-82771000D01*
X132618000Y-82771000D01*
X132618000Y-84129000D01*
X133118000Y-84129000D01*
X133405269Y-84075690D01*
X133676618Y-83967361D01*
X133921619Y-83808176D01*
X134130857Y-83604252D01*
X134296291Y-83363426D01*
X134411563Y-83094953D01*
X134432476Y-83000890D01*
X134311155Y-82771000D01*
X132618000Y-82771000D01*
X132364000Y-82771000D01*
X130670845Y-82771000D01*
X130549524Y-83000890D01*
X130200000Y-83000890D01*
X130200000Y-82287110D01*
X130549524Y-82287110D01*
X130670845Y-82517000D01*
X132364000Y-82517000D01*
X132364000Y-81159000D01*
X132618000Y-81159000D01*
X132618000Y-82517000D01*
X134311155Y-82517000D01*
X134414558Y-82321061D01*
X148190000Y-82321061D01*
X148190000Y-82524939D01*
X148229774Y-82724898D01*
X148307795Y-82913256D01*
X148421063Y-83082774D01*
X148565226Y-83226937D01*
X148734744Y-83340205D01*
X148825000Y-83377591D01*
X148825000Y-83540939D01*
X148864774Y-83740898D01*
X148942795Y-83929256D01*
X149056063Y-84098774D01*
X149200226Y-84242937D01*
X149369744Y-84356205D01*
X149558102Y-84434226D01*
X149758061Y-84474000D01*
X149961939Y-84474000D01*
X150161898Y-84434226D01*
X150350256Y-84356205D01*
X150519774Y-84242937D01*
X150563711Y-84199000D01*
X152458289Y-84199000D01*
X152502226Y-84242937D01*
X152671744Y-84356205D01*
X152860102Y-84434226D01*
X153060061Y-84474000D01*
X153263939Y-84474000D01*
X153463898Y-84434226D01*
X153652256Y-84356205D01*
X153821774Y-84242937D01*
X153965937Y-84098774D01*
X154079205Y-83929256D01*
X154157226Y-83740898D01*
X154197000Y-83540939D01*
X154197000Y-83337061D01*
X154157226Y-83137102D01*
X154079205Y-82948744D01*
X153965937Y-82779226D01*
X153821774Y-82635063D01*
X153652256Y-82521795D01*
X153463898Y-82443774D01*
X153263939Y-82404000D01*
X153060061Y-82404000D01*
X152860102Y-82443774D01*
X152671744Y-82521795D01*
X152502226Y-82635063D01*
X152458289Y-82679000D01*
X150563711Y-82679000D01*
X150519774Y-82635063D01*
X150350256Y-82521795D01*
X150260000Y-82484409D01*
X150260000Y-82462801D01*
X151042802Y-81680000D01*
X151104939Y-81680000D01*
X151304898Y-81640226D01*
X151493256Y-81562205D01*
X151662774Y-81448937D01*
X151806937Y-81304774D01*
X151920205Y-81135256D01*
X151998226Y-80946898D01*
X152038000Y-80746939D01*
X152038000Y-80543061D01*
X151998226Y-80343102D01*
X151920205Y-80154744D01*
X151806937Y-79985226D01*
X151662774Y-79841063D01*
X151493256Y-79727795D01*
X151304898Y-79649774D01*
X151200460Y-79629000D01*
X154590815Y-79629000D01*
X154619487Y-79920111D01*
X154704401Y-80200034D01*
X154842294Y-80458014D01*
X155027866Y-80684134D01*
X155253986Y-80869706D01*
X155308791Y-80899000D01*
X155253986Y-80928294D01*
X155027866Y-81113866D01*
X154842294Y-81339986D01*
X154704401Y-81597966D01*
X154619487Y-81877889D01*
X154590815Y-82169000D01*
X154619487Y-82460111D01*
X154704401Y-82740034D01*
X154842294Y-82998014D01*
X155027866Y-83224134D01*
X155253986Y-83409706D01*
X155308791Y-83439000D01*
X155253986Y-83468294D01*
X155027866Y-83653866D01*
X154842294Y-83879986D01*
X154704401Y-84137966D01*
X154619487Y-84417889D01*
X154590815Y-84709000D01*
X154619487Y-85000111D01*
X154704401Y-85280034D01*
X154842294Y-85538014D01*
X155027866Y-85764134D01*
X155253986Y-85949706D01*
X155308791Y-85979000D01*
X155253986Y-86008294D01*
X155027866Y-86193866D01*
X154842294Y-86419986D01*
X154704401Y-86677966D01*
X154619487Y-86957889D01*
X154590815Y-87249000D01*
X154619487Y-87540111D01*
X154704401Y-87820034D01*
X154842294Y-88078014D01*
X155027866Y-88304134D01*
X155253986Y-88489706D01*
X155511966Y-88627599D01*
X155791889Y-88712513D01*
X156010050Y-88734000D01*
X156155950Y-88734000D01*
X156374111Y-88712513D01*
X156654034Y-88627599D01*
X156912014Y-88489706D01*
X157138134Y-88304134D01*
X157323706Y-88078014D01*
X157354584Y-88020244D01*
X157525412Y-88249269D01*
X157741645Y-88444178D01*
X157991748Y-88593157D01*
X158266109Y-88690481D01*
X158496000Y-88569814D01*
X158496000Y-87376000D01*
X158750000Y-87376000D01*
X158750000Y-88569814D01*
X158979891Y-88690481D01*
X159254252Y-88593157D01*
X159504355Y-88444178D01*
X159720588Y-88249269D01*
X159894641Y-88015920D01*
X160019825Y-87753099D01*
X160064476Y-87605890D01*
X159943155Y-87376000D01*
X158750000Y-87376000D01*
X158496000Y-87376000D01*
X158476000Y-87376000D01*
X158476000Y-87122000D01*
X158496000Y-87122000D01*
X158496000Y-87102000D01*
X158750000Y-87102000D01*
X158750000Y-87122000D01*
X159943155Y-87122000D01*
X160064476Y-86892110D01*
X160019825Y-86744901D01*
X159894641Y-86482080D01*
X159720588Y-86248731D01*
X159504355Y-86053822D01*
X159387477Y-85984201D01*
X159452014Y-85949706D01*
X159678134Y-85764134D01*
X159863706Y-85538014D01*
X160001599Y-85280034D01*
X160086513Y-85000111D01*
X160115185Y-84709000D01*
X160086513Y-84417889D01*
X160001599Y-84137966D01*
X159863706Y-83879986D01*
X159678134Y-83653866D01*
X159452014Y-83468294D01*
X159397209Y-83439000D01*
X159452014Y-83409706D01*
X159678134Y-83224134D01*
X159863706Y-82998014D01*
X160001599Y-82740034D01*
X160086513Y-82460111D01*
X160115185Y-82169000D01*
X160086513Y-81877889D01*
X160001599Y-81597966D01*
X159863706Y-81339986D01*
X159678134Y-81113866D01*
X159452014Y-80928294D01*
X159397209Y-80899000D01*
X159452014Y-80869706D01*
X159678134Y-80684134D01*
X159863706Y-80458014D01*
X160001599Y-80200034D01*
X160086513Y-79920111D01*
X160104541Y-79737061D01*
X160890000Y-79737061D01*
X160890000Y-79940939D01*
X160929774Y-80140898D01*
X161007795Y-80329256D01*
X161121063Y-80498774D01*
X161165001Y-80542712D01*
X161165000Y-81592289D01*
X161121063Y-81636226D01*
X161007795Y-81805744D01*
X160929774Y-81994102D01*
X160890000Y-82194061D01*
X160890000Y-82397939D01*
X160929774Y-82597898D01*
X161007795Y-82786256D01*
X161121063Y-82955774D01*
X161265226Y-83099937D01*
X161434744Y-83213205D01*
X161623102Y-83291226D01*
X161823061Y-83331000D01*
X162026939Y-83331000D01*
X162226898Y-83291226D01*
X162415256Y-83213205D01*
X162584774Y-83099937D01*
X162728937Y-82955774D01*
X162842205Y-82786256D01*
X162920226Y-82597898D01*
X162960000Y-82397939D01*
X162960000Y-82194061D01*
X162920226Y-81994102D01*
X162842205Y-81805744D01*
X162728937Y-81636226D01*
X162685000Y-81592289D01*
X162685000Y-80542711D01*
X162728937Y-80498774D01*
X162842205Y-80329256D01*
X162920226Y-80140898D01*
X162960000Y-79940939D01*
X162960000Y-79737061D01*
X162920226Y-79537102D01*
X162842205Y-79348744D01*
X162728937Y-79179226D01*
X162584774Y-79035063D01*
X162415256Y-78921795D01*
X162226898Y-78843774D01*
X162026939Y-78804000D01*
X161823061Y-78804000D01*
X161623102Y-78843774D01*
X161434744Y-78921795D01*
X161265226Y-79035063D01*
X161121063Y-79179226D01*
X161007795Y-79348744D01*
X160929774Y-79537102D01*
X160890000Y-79737061D01*
X160104541Y-79737061D01*
X160115185Y-79629000D01*
X160086513Y-79337889D01*
X160001599Y-79057966D01*
X159863706Y-78799986D01*
X159678134Y-78573866D01*
X159452014Y-78388294D01*
X159387477Y-78353799D01*
X159504355Y-78284178D01*
X159720588Y-78089269D01*
X159894641Y-77855920D01*
X160019825Y-77593099D01*
X160064476Y-77445890D01*
X159943155Y-77216000D01*
X158750000Y-77216000D01*
X158750000Y-77236000D01*
X158496000Y-77236000D01*
X158496000Y-77216000D01*
X158476000Y-77216000D01*
X158476000Y-76962000D01*
X158496000Y-76962000D01*
X158496000Y-75768186D01*
X158750000Y-75768186D01*
X158750000Y-76962000D01*
X159943155Y-76962000D01*
X160064476Y-76732110D01*
X160019825Y-76584901D01*
X159894641Y-76322080D01*
X159720588Y-76088731D01*
X159504355Y-75893822D01*
X159254252Y-75744843D01*
X158979891Y-75647519D01*
X158750000Y-75768186D01*
X158496000Y-75768186D01*
X158266109Y-75647519D01*
X157991748Y-75744843D01*
X157741645Y-75893822D01*
X157545498Y-76070626D01*
X157522502Y-75994820D01*
X157463537Y-75884506D01*
X157384185Y-75787815D01*
X157287494Y-75708463D01*
X157177180Y-75649498D01*
X157057482Y-75613188D01*
X156933000Y-75600928D01*
X155233000Y-75600928D01*
X155108518Y-75613188D01*
X154988820Y-75649498D01*
X154878506Y-75708463D01*
X154781815Y-75787815D01*
X154702463Y-75884506D01*
X154643498Y-75994820D01*
X154607188Y-76114518D01*
X154594928Y-76239000D01*
X154594928Y-77939000D01*
X154607188Y-78063482D01*
X154643498Y-78183180D01*
X154702463Y-78293494D01*
X154781815Y-78390185D01*
X154878506Y-78469537D01*
X154988820Y-78528502D01*
X155057687Y-78549393D01*
X155027866Y-78573866D01*
X154842294Y-78799986D01*
X154704401Y-79057966D01*
X154619487Y-79337889D01*
X154590815Y-79629000D01*
X151200460Y-79629000D01*
X151104939Y-79610000D01*
X150901061Y-79610000D01*
X150701102Y-79649774D01*
X150512744Y-79727795D01*
X150343226Y-79841063D01*
X150199063Y-79985226D01*
X150085795Y-80154744D01*
X150007774Y-80343102D01*
X149968000Y-80543061D01*
X149968000Y-80605198D01*
X149185199Y-81388000D01*
X149123061Y-81388000D01*
X148923102Y-81427774D01*
X148734744Y-81505795D01*
X148565226Y-81619063D01*
X148421063Y-81763226D01*
X148307795Y-81932744D01*
X148229774Y-82121102D01*
X148190000Y-82321061D01*
X134414558Y-82321061D01*
X134432476Y-82287110D01*
X134411563Y-82193047D01*
X134296291Y-81924574D01*
X134130857Y-81683748D01*
X133921619Y-81479824D01*
X133676618Y-81320639D01*
X133405269Y-81212310D01*
X133118000Y-81159000D01*
X132618000Y-81159000D01*
X132364000Y-81159000D01*
X131864000Y-81159000D01*
X131576731Y-81212310D01*
X131305382Y-81320639D01*
X131060381Y-81479824D01*
X130851143Y-81683748D01*
X130685709Y-81924574D01*
X130570437Y-82193047D01*
X130549524Y-82287110D01*
X130200000Y-82287110D01*
X130200000Y-78194000D01*
X134600267Y-78194000D01*
X134623147Y-78426300D01*
X134690906Y-78649674D01*
X134800942Y-78855536D01*
X134914577Y-78994000D01*
X134800942Y-79132464D01*
X134690906Y-79338326D01*
X134623147Y-79561700D01*
X134600267Y-79794000D01*
X134623147Y-80026300D01*
X134690906Y-80249674D01*
X134800942Y-80455536D01*
X134949025Y-80635975D01*
X135129464Y-80784058D01*
X135335326Y-80894094D01*
X135558700Y-80961853D01*
X135732793Y-80979000D01*
X136399207Y-80979000D01*
X136418880Y-80977062D01*
X136440906Y-81049674D01*
X136550942Y-81255536D01*
X136699025Y-81435975D01*
X136879464Y-81584058D01*
X137085326Y-81694094D01*
X137308700Y-81761853D01*
X137482793Y-81779000D01*
X138149207Y-81779000D01*
X138323300Y-81761853D01*
X138546674Y-81694094D01*
X138752536Y-81584058D01*
X138932975Y-81435975D01*
X139081058Y-81255536D01*
X139191094Y-81049674D01*
X139258853Y-80826300D01*
X139281733Y-80594000D01*
X139258853Y-80361700D01*
X139191094Y-80138326D01*
X139081058Y-79932464D01*
X138967423Y-79794000D01*
X139081058Y-79655536D01*
X139191094Y-79449674D01*
X139258853Y-79226300D01*
X139281733Y-78994000D01*
X139258853Y-78761700D01*
X139191094Y-78538326D01*
X139081058Y-78332464D01*
X138967562Y-78194169D01*
X139018725Y-78142119D01*
X139146850Y-77946754D01*
X139234399Y-77730147D01*
X139234803Y-77703744D01*
X139109361Y-77521000D01*
X137943000Y-77521000D01*
X137943000Y-77541000D01*
X137689000Y-77541000D01*
X137689000Y-77521000D01*
X137669000Y-77521000D01*
X137669000Y-77267000D01*
X137689000Y-77267000D01*
X137689000Y-76209000D01*
X137943000Y-76209000D01*
X137943000Y-77267000D01*
X139109361Y-77267000D01*
X139234803Y-77084256D01*
X139234399Y-77057853D01*
X139146850Y-76841246D01*
X139018725Y-76645881D01*
X138854948Y-76479266D01*
X138661813Y-76347804D01*
X138446742Y-76256546D01*
X138218000Y-76209000D01*
X137943000Y-76209000D01*
X137689000Y-76209000D01*
X137414000Y-76209000D01*
X137185258Y-76256546D01*
X136970187Y-76347804D01*
X136777052Y-76479266D01*
X136613275Y-76645881D01*
X136485150Y-76841246D01*
X136416652Y-77010718D01*
X136399207Y-77009000D01*
X135732793Y-77009000D01*
X135558700Y-77026147D01*
X135335326Y-77093906D01*
X135129464Y-77203942D01*
X134949025Y-77352025D01*
X134800942Y-77532464D01*
X134690906Y-77738326D01*
X134623147Y-77961700D01*
X134600267Y-78194000D01*
X130200000Y-78194000D01*
X130200000Y-75700890D01*
X130549524Y-75700890D01*
X130570437Y-75794953D01*
X130685709Y-76063426D01*
X130851143Y-76304252D01*
X131060381Y-76508176D01*
X131305382Y-76667361D01*
X131576731Y-76775690D01*
X131864000Y-76829000D01*
X132364000Y-76829000D01*
X132364000Y-75471000D01*
X132618000Y-75471000D01*
X132618000Y-76829000D01*
X133118000Y-76829000D01*
X133405269Y-76775690D01*
X133676618Y-76667361D01*
X133921619Y-76508176D01*
X134130857Y-76304252D01*
X134296291Y-76063426D01*
X134411563Y-75794953D01*
X134432476Y-75700890D01*
X134311155Y-75471000D01*
X132618000Y-75471000D01*
X132364000Y-75471000D01*
X130670845Y-75471000D01*
X130549524Y-75700890D01*
X130200000Y-75700890D01*
X130200000Y-74987110D01*
X130549524Y-74987110D01*
X130670845Y-75217000D01*
X132364000Y-75217000D01*
X132364000Y-73859000D01*
X132618000Y-73859000D01*
X132618000Y-75217000D01*
X134311155Y-75217000D01*
X134432476Y-74987110D01*
X134411563Y-74893047D01*
X134296291Y-74624574D01*
X134130857Y-74383748D01*
X133921619Y-74179824D01*
X133676618Y-74020639D01*
X133405269Y-73912310D01*
X133118000Y-73859000D01*
X132618000Y-73859000D01*
X132364000Y-73859000D01*
X131864000Y-73859000D01*
X131576731Y-73912310D01*
X131305382Y-74020639D01*
X131060381Y-74179824D01*
X130851143Y-74383748D01*
X130685709Y-74624574D01*
X130570437Y-74893047D01*
X130549524Y-74987110D01*
X130200000Y-74987110D01*
X130200000Y-73304061D01*
X182099000Y-73304061D01*
X182099000Y-73507939D01*
X182138774Y-73707898D01*
X182216795Y-73896256D01*
X182330063Y-74065774D01*
X182474226Y-74209937D01*
X182643744Y-74323205D01*
X182832102Y-74401226D01*
X183032061Y-74441000D01*
X183235939Y-74441000D01*
X183435898Y-74401226D01*
X183624256Y-74323205D01*
X183793774Y-74209937D01*
X183837711Y-74166000D01*
X186398678Y-74166000D01*
X186436000Y-74169676D01*
X186473322Y-74166000D01*
X186473333Y-74166000D01*
X186479455Y-74165397D01*
X186588061Y-74187000D01*
X186791939Y-74187000D01*
X186991898Y-74147226D01*
X187180256Y-74069205D01*
X187349774Y-73955937D01*
X187493937Y-73811774D01*
X187607205Y-73642256D01*
X187685226Y-73453898D01*
X187725000Y-73253939D01*
X187725000Y-73050061D01*
X187685226Y-72850102D01*
X187607205Y-72661744D01*
X187493937Y-72492226D01*
X187349774Y-72348063D01*
X187180256Y-72234795D01*
X186991898Y-72156774D01*
X186791939Y-72117000D01*
X186588061Y-72117000D01*
X186388102Y-72156774D01*
X186199744Y-72234795D01*
X186030226Y-72348063D01*
X185886063Y-72492226D01*
X185783315Y-72646000D01*
X183837711Y-72646000D01*
X183793774Y-72602063D01*
X183624256Y-72488795D01*
X183435898Y-72410774D01*
X183235939Y-72371000D01*
X183032061Y-72371000D01*
X182832102Y-72410774D01*
X182643744Y-72488795D01*
X182474226Y-72602063D01*
X182330063Y-72746226D01*
X182216795Y-72915744D01*
X182138774Y-73104102D01*
X182099000Y-73304061D01*
X130200000Y-73304061D01*
X130200000Y-56540000D01*
X227940001Y-56540000D01*
X227940000Y-95225000D01*
X227940000Y-95225000D01*
G37*
X227940000Y-95225000D02*
X130200000Y-95225000D01*
X130200000Y-94027413D01*
X131632192Y-94027413D01*
X131727956Y-94291814D01*
X132017571Y-94432704D01*
X132329108Y-94514384D01*
X132650595Y-94533718D01*
X132969675Y-94489961D01*
X133274088Y-94384795D01*
X133448044Y-94291814D01*
X133543808Y-94027413D01*
X138132192Y-94027413D01*
X138227956Y-94291814D01*
X138517571Y-94432704D01*
X138829108Y-94514384D01*
X139150595Y-94533718D01*
X139469675Y-94489961D01*
X139774088Y-94384795D01*
X139948044Y-94291814D01*
X140043808Y-94027413D01*
X139894456Y-93878061D01*
X176003000Y-93878061D01*
X176003000Y-94081939D01*
X176042774Y-94281898D01*
X176120795Y-94470256D01*
X176234063Y-94639774D01*
X176378226Y-94783937D01*
X176547744Y-94897205D01*
X176736102Y-94975226D01*
X176936061Y-95015000D01*
X177139939Y-95015000D01*
X177339898Y-94975226D01*
X177528256Y-94897205D01*
X177697774Y-94783937D01*
X177841937Y-94639774D01*
X177955205Y-94470256D01*
X178033226Y-94281898D01*
X178072810Y-94082891D01*
X182200519Y-94082891D01*
X182297843Y-94357252D01*
X182446822Y-94607355D01*
X182641731Y-94823588D01*
X182875080Y-94997641D01*
X183137901Y-95122825D01*
X183285110Y-95167476D01*
X183515000Y-95046155D01*
X183515000Y-93853000D01*
X182321186Y-93853000D01*
X182200519Y-94082891D01*
X178072810Y-94082891D01*
X178073000Y-94081939D01*
X178073000Y-94019801D01*
X181135960Y-90956842D01*
X181876120Y-91697003D01*
X181899918Y-91726001D01*
X182015643Y-91820974D01*
X182147672Y-91891546D01*
X182290933Y-91935003D01*
X182362284Y-91942031D01*
X182401294Y-92015014D01*
X182586866Y-92241134D01*
X182812986Y-92426706D01*
X182870756Y-92457584D01*
X182641731Y-92628412D01*
X182446822Y-92844645D01*
X182297843Y-93094748D01*
X182200519Y-93369109D01*
X182321186Y-93599000D01*
X183515000Y-93599000D01*
X183515000Y-93579000D01*
X183769000Y-93579000D01*
X183769000Y-93599000D01*
X183789000Y-93599000D01*
X183789000Y-93853000D01*
X183769000Y-93853000D01*
X183769000Y-95046155D01*
X183998890Y-95167476D01*
X184146099Y-95122825D01*
X184408920Y-94997641D01*
X184642269Y-94823588D01*
X184837178Y-94607355D01*
X184906799Y-94490477D01*
X184941294Y-94555014D01*
X185126866Y-94781134D01*
X185352986Y-94966706D01*
X185610966Y-95104599D01*
X185890889Y-95189513D01*
X186109050Y-95211000D01*
X186254950Y-95211000D01*
X186473111Y-95189513D01*
X186753034Y-95104599D01*
X187011014Y-94966706D01*
X187237134Y-94781134D01*
X187422706Y-94555014D01*
X187452000Y-94500209D01*
X187481294Y-94555014D01*
X187666866Y-94781134D01*
X187892986Y-94966706D01*
X188150966Y-95104599D01*
X188430889Y-95189513D01*
X188649050Y-95211000D01*
X188794950Y-95211000D01*
X189013111Y-95189513D01*
X189293034Y-95104599D01*
X189551014Y-94966706D01*
X189777134Y-94781134D01*
X189962706Y-94555014D01*
X190100599Y-94297034D01*
X190185513Y-94017111D01*
X190214185Y-93726000D01*
X190185513Y-93434889D01*
X190100599Y-93154966D01*
X189962706Y-92896986D01*
X189826458Y-92730967D01*
X200676000Y-92730967D01*
X200676000Y-93053033D01*
X200738832Y-93368912D01*
X200862082Y-93666463D01*
X201041013Y-93934252D01*
X201268748Y-94161987D01*
X201536537Y-94340918D01*
X201834088Y-94464168D01*
X202149967Y-94527000D01*
X202472033Y-94527000D01*
X202787912Y-94464168D01*
X203085463Y-94340918D01*
X203353252Y-94161987D01*
X203580987Y-93934252D01*
X203759918Y-93666463D01*
X203883168Y-93368912D01*
X203946000Y-93053033D01*
X203946000Y-92730967D01*
X207176000Y-92730967D01*
X207176000Y-93053033D01*
X207238832Y-93368912D01*
X207362082Y-93666463D01*
X207541013Y-93934252D01*
X207768748Y-94161987D01*
X208036537Y-94340918D01*
X208334088Y-94464168D01*
X208649967Y-94527000D01*
X208972033Y-94527000D01*
X209287912Y-94464168D01*
X209585463Y-94340918D01*
X209853252Y-94161987D01*
X210080987Y-93934252D01*
X210259918Y-93666463D01*
X210383168Y-93368912D01*
X210446000Y-93053033D01*
X210446000Y-92730967D01*
X217440000Y-92730967D01*
X217440000Y-93053033D01*
X217502832Y-93368912D01*
X217626082Y-93666463D01*
X217805013Y-93934252D01*
X218032748Y-94161987D01*
X218300537Y-94340918D01*
X218598088Y-94464168D01*
X218913967Y-94527000D01*
X219236033Y-94527000D01*
X219551912Y-94464168D01*
X219849463Y-94340918D01*
X220117252Y-94161987D01*
X220344987Y-93934252D01*
X220523918Y-93666463D01*
X220647168Y-93368912D01*
X220710000Y-93053033D01*
X220710000Y-92730967D01*
X223940000Y-92730967D01*
X223940000Y-93053033D01*
X224002832Y-93368912D01*
X224126082Y-93666463D01*
X224305013Y-93934252D01*
X224532748Y-94161987D01*
X224800537Y-94340918D01*
X225098088Y-94464168D01*
X225413967Y-94527000D01*
X225736033Y-94527000D01*
X226051912Y-94464168D01*
X226349463Y-94340918D01*
X226617252Y-94161987D01*
X226844987Y-93934252D01*
X227023918Y-93666463D01*
X227147168Y-93368912D01*
X227210000Y-93053033D01*
X227210000Y-92730967D01*
X227147168Y-92415088D01*
X227023918Y-92117537D01*
X226844987Y-91849748D01*
X226617252Y-91622013D01*
X226349463Y-91443082D01*
X226051912Y-91319832D01*
X225736033Y-91257000D01*
X225413967Y-91257000D01*
X225098088Y-91319832D01*
X224800537Y-91443082D01*
X224532748Y-91622013D01*
X224305013Y-91849748D01*
X224126082Y-92117537D01*
X224002832Y-92415088D01*
X223940000Y-92730967D01*
X220710000Y-92730967D01*
X220647168Y-92415088D01*
X220523918Y-92117537D01*
X220344987Y-91849748D01*
X220117252Y-91622013D01*
X219849463Y-91443082D01*
X219551912Y-91319832D01*
X219236033Y-91257000D01*
X218913967Y-91257000D01*
X218598088Y-91319832D01*
X218300537Y-91443082D01*
X218032748Y-91622013D01*
X217805013Y-91849748D01*
X217626082Y-92117537D01*
X217502832Y-92415088D01*
X217440000Y-92730967D01*
X210446000Y-92730967D01*
X210383168Y-92415088D01*
X210259918Y-92117537D01*
X210080987Y-91849748D01*
X209853252Y-91622013D01*
X209585463Y-91443082D01*
X209287912Y-91319832D01*
X208972033Y-91257000D01*
X208649967Y-91257000D01*
X208334088Y-91319832D01*
X208036537Y-91443082D01*
X207768748Y-91622013D01*
X207541013Y-91849748D01*
X207362082Y-92117537D01*
X207238832Y-92415088D01*
X207176000Y-92730967D01*
X203946000Y-92730967D01*
X203883168Y-92415088D01*
X203759918Y-92117537D01*
X203580987Y-91849748D01*
X203353252Y-91622013D01*
X203085463Y-91443082D01*
X202787912Y-91319832D01*
X202472033Y-91257000D01*
X202149967Y-91257000D01*
X201834088Y-91319832D01*
X201536537Y-91443082D01*
X201268748Y-91622013D01*
X201041013Y-91849748D01*
X200862082Y-92117537D01*
X200738832Y-92415088D01*
X200676000Y-92730967D01*
X189826458Y-92730967D01*
X189777134Y-92670866D01*
X189747313Y-92646393D01*
X189816180Y-92625502D01*
X189926494Y-92566537D01*
X190023185Y-92487185D01*
X190102537Y-92390494D01*
X190161502Y-92280180D01*
X190197812Y-92160482D01*
X190210072Y-92036000D01*
X190210072Y-90336000D01*
X190197812Y-90211518D01*
X190161502Y-90091820D01*
X190102537Y-89981506D01*
X190023185Y-89884815D01*
X189926494Y-89805463D01*
X189816180Y-89746498D01*
X189696482Y-89710188D01*
X189572000Y-89697928D01*
X187872000Y-89697928D01*
X187747518Y-89710188D01*
X187627820Y-89746498D01*
X187517506Y-89805463D01*
X187420815Y-89884815D01*
X187341463Y-89981506D01*
X187282498Y-90091820D01*
X187261607Y-90160687D01*
X187237134Y-90130866D01*
X187011014Y-89945294D01*
X186753034Y-89807401D01*
X186473111Y-89722487D01*
X186254950Y-89701000D01*
X186109050Y-89701000D01*
X185890889Y-89722487D01*
X185610966Y-89807401D01*
X185352986Y-89945294D01*
X185126866Y-90130866D01*
X184941294Y-90356986D01*
X184912000Y-90411791D01*
X184882706Y-90356986D01*
X184697134Y-90130866D01*
X184471014Y-89945294D01*
X184213034Y-89807401D01*
X183933111Y-89722487D01*
X183714950Y-89701000D01*
X183569050Y-89701000D01*
X183350889Y-89722487D01*
X183070966Y-89807401D01*
X182812986Y-89945294D01*
X182586866Y-90130866D01*
X182529494Y-90200774D01*
X181862000Y-89533280D01*
X181862000Y-88230967D01*
X200676000Y-88230967D01*
X200676000Y-88553033D01*
X200738832Y-88868912D01*
X200862082Y-89166463D01*
X201041013Y-89434252D01*
X201268748Y-89661987D01*
X201536537Y-89840918D01*
X201834088Y-89964168D01*
X202149967Y-90027000D01*
X202472033Y-90027000D01*
X202787912Y-89964168D01*
X203085463Y-89840918D01*
X203353252Y-89661987D01*
X203580987Y-89434252D01*
X203759918Y-89166463D01*
X203883168Y-88868912D01*
X203946000Y-88553033D01*
X203946000Y-88230967D01*
X207176000Y-88230967D01*
X207176000Y-88553033D01*
X207238832Y-88868912D01*
X207362082Y-89166463D01*
X207541013Y-89434252D01*
X207768748Y-89661987D01*
X208036537Y-89840918D01*
X208334088Y-89964168D01*
X208649967Y-90027000D01*
X208972033Y-90027000D01*
X209287912Y-89964168D01*
X209585463Y-89840918D01*
X209853252Y-89661987D01*
X210080987Y-89434252D01*
X210259918Y-89166463D01*
X210383168Y-88868912D01*
X210446000Y-88553033D01*
X210446000Y-88230967D01*
X217440000Y-88230967D01*
X217440000Y-88553033D01*
X217502832Y-88868912D01*
X217626082Y-89166463D01*
X217805013Y-89434252D01*
X218032748Y-89661987D01*
X218300537Y-89840918D01*
X218598088Y-89964168D01*
X218913967Y-90027000D01*
X219236033Y-90027000D01*
X219551912Y-89964168D01*
X219849463Y-89840918D01*
X220117252Y-89661987D01*
X220344987Y-89434252D01*
X220523918Y-89166463D01*
X220647168Y-88868912D01*
X220710000Y-88553033D01*
X220710000Y-88230967D01*
X223940000Y-88230967D01*
X223940000Y-88553033D01*
X224002832Y-88868912D01*
X224126082Y-89166463D01*
X224305013Y-89434252D01*
X224532748Y-89661987D01*
X224800537Y-89840918D01*
X225098088Y-89964168D01*
X225413967Y-90027000D01*
X225736033Y-90027000D01*
X226051912Y-89964168D01*
X226349463Y-89840918D01*
X226617252Y-89661987D01*
X226844987Y-89434252D01*
X227023918Y-89166463D01*
X227147168Y-88868912D01*
X227210000Y-88553033D01*
X227210000Y-88230967D01*
X227147168Y-87915088D01*
X227023918Y-87617537D01*
X226844987Y-87349748D01*
X226617252Y-87122013D01*
X226349463Y-86943082D01*
X226051912Y-86819832D01*
X225736033Y-86757000D01*
X225413967Y-86757000D01*
X225098088Y-86819832D01*
X224800537Y-86943082D01*
X224532748Y-87122013D01*
X224305013Y-87349748D01*
X224126082Y-87617537D01*
X224002832Y-87915088D01*
X223940000Y-88230967D01*
X220710000Y-88230967D01*
X220647168Y-87915088D01*
X220523918Y-87617537D01*
X220344987Y-87349748D01*
X220117252Y-87122013D01*
X219849463Y-86943082D01*
X219551912Y-86819832D01*
X219236033Y-86757000D01*
X218913967Y-86757000D01*
X218598088Y-86819832D01*
X218300537Y-86943082D01*
X218032748Y-87122013D01*
X217805013Y-87349748D01*
X217626082Y-87617537D01*
X217502832Y-87915088D01*
X217440000Y-88230967D01*
X210446000Y-88230967D01*
X210383168Y-87915088D01*
X210259918Y-87617537D01*
X210080987Y-87349748D01*
X209853252Y-87122013D01*
X209585463Y-86943082D01*
X209287912Y-86819832D01*
X208972033Y-86757000D01*
X208649967Y-86757000D01*
X208334088Y-86819832D01*
X208036537Y-86943082D01*
X207768748Y-87122013D01*
X207541013Y-87349748D01*
X207362082Y-87617537D01*
X207238832Y-87915088D01*
X207176000Y-88230967D01*
X203946000Y-88230967D01*
X203883168Y-87915088D01*
X203759918Y-87617537D01*
X203580987Y-87349748D01*
X203353252Y-87122013D01*
X203085463Y-86943082D01*
X202787912Y-86819832D01*
X202472033Y-86757000D01*
X202149967Y-86757000D01*
X201834088Y-86819832D01*
X201536537Y-86943082D01*
X201268748Y-87122013D01*
X201041013Y-87349748D01*
X200862082Y-87617537D01*
X200738832Y-87915088D01*
X200676000Y-88230967D01*
X181862000Y-88230967D01*
X181862000Y-87952711D01*
X181905937Y-87908774D01*
X182019205Y-87739256D01*
X182097226Y-87550898D01*
X182137000Y-87350939D01*
X182137000Y-87147061D01*
X182097226Y-86947102D01*
X182019205Y-86758744D01*
X181905937Y-86589226D01*
X181761774Y-86445063D01*
X181592256Y-86331795D01*
X181403898Y-86253774D01*
X181203939Y-86214000D01*
X181000061Y-86214000D01*
X180800102Y-86253774D01*
X180611744Y-86331795D01*
X180442226Y-86445063D01*
X180298063Y-86589226D01*
X180184795Y-86758744D01*
X180106774Y-86947102D01*
X180067000Y-87147061D01*
X180067000Y-87350939D01*
X180106774Y-87550898D01*
X180184795Y-87739256D01*
X180298063Y-87908774D01*
X180342001Y-87952712D01*
X180342000Y-89601198D01*
X176998199Y-92945000D01*
X176936061Y-92945000D01*
X176736102Y-92984774D01*
X176547744Y-93062795D01*
X176378226Y-93176063D01*
X176234063Y-93320226D01*
X176120795Y-93489744D01*
X176042774Y-93678102D01*
X176003000Y-93878061D01*
X139894456Y-93878061D01*
X139088000Y-93071605D01*
X138132192Y-94027413D01*
X133543808Y-94027413D01*
X132588000Y-93071605D01*
X131632192Y-94027413D01*
X130200000Y-94027413D01*
X130200000Y-92954595D01*
X130946282Y-92954595D01*
X130990039Y-93273675D01*
X131095205Y-93578088D01*
X131188186Y-93752044D01*
X131452587Y-93847808D01*
X132408395Y-92892000D01*
X132767605Y-92892000D01*
X133723413Y-93847808D01*
X133987814Y-93752044D01*
X134128704Y-93462429D01*
X134210384Y-93150892D01*
X134222189Y-92954595D01*
X137446282Y-92954595D01*
X137490039Y-93273675D01*
X137595205Y-93578088D01*
X137688186Y-93752044D01*
X137952587Y-93847808D01*
X138908395Y-92892000D01*
X139267605Y-92892000D01*
X140223413Y-93847808D01*
X140487814Y-93752044D01*
X140628704Y-93462429D01*
X140710384Y-93150892D01*
X140729718Y-92829405D01*
X140685961Y-92510325D01*
X140580795Y-92205912D01*
X140487814Y-92031956D01*
X140223413Y-91936192D01*
X139267605Y-92892000D01*
X138908395Y-92892000D01*
X137952587Y-91936192D01*
X137688186Y-92031956D01*
X137547296Y-92321571D01*
X137465616Y-92633108D01*
X137446282Y-92954595D01*
X134222189Y-92954595D01*
X134229718Y-92829405D01*
X134185961Y-92510325D01*
X134080795Y-92205912D01*
X133987814Y-92031956D01*
X133723413Y-91936192D01*
X132767605Y-92892000D01*
X132408395Y-92892000D01*
X131452587Y-91936192D01*
X131188186Y-92031956D01*
X131047296Y-92321571D01*
X130965616Y-92633108D01*
X130946282Y-92954595D01*
X130200000Y-92954595D01*
X130200000Y-91756587D01*
X131632192Y-91756587D01*
X132588000Y-92712395D01*
X133543808Y-91756587D01*
X138132192Y-91756587D01*
X139088000Y-92712395D01*
X140043808Y-91756587D01*
X139948044Y-91492186D01*
X139658429Y-91351296D01*
X139346892Y-91269616D01*
X139025405Y-91250282D01*
X138706325Y-91294039D01*
X138401912Y-91399205D01*
X138227956Y-91492186D01*
X138132192Y-91756587D01*
X133543808Y-91756587D01*
X133448044Y-91492186D01*
X133158429Y-91351296D01*
X132846892Y-91269616D01*
X132525405Y-91250282D01*
X132206325Y-91294039D01*
X131901912Y-91399205D01*
X131727956Y-91492186D01*
X131632192Y-91756587D01*
X130200000Y-91756587D01*
X130200000Y-88230967D01*
X130953000Y-88230967D01*
X130953000Y-88553033D01*
X131015832Y-88868912D01*
X131139082Y-89166463D01*
X131318013Y-89434252D01*
X131545748Y-89661987D01*
X131813537Y-89840918D01*
X132111088Y-89964168D01*
X132426967Y-90027000D01*
X132749033Y-90027000D01*
X133064912Y-89964168D01*
X133362463Y-89840918D01*
X133630252Y-89661987D01*
X133857987Y-89434252D01*
X134036918Y-89166463D01*
X134160168Y-88868912D01*
X134223000Y-88553033D01*
X134223000Y-88230967D01*
X137453000Y-88230967D01*
X137453000Y-88553033D01*
X137515832Y-88868912D01*
X137639082Y-89166463D01*
X137818013Y-89434252D01*
X138045748Y-89661987D01*
X138313537Y-89840918D01*
X138611088Y-89964168D01*
X138926967Y-90027000D01*
X139249033Y-90027000D01*
X139564912Y-89964168D01*
X139862463Y-89840918D01*
X140130252Y-89661987D01*
X140357987Y-89434252D01*
X140536918Y-89166463D01*
X140660168Y-88868912D01*
X140723000Y-88553033D01*
X140723000Y-88230967D01*
X140660168Y-87915088D01*
X140536918Y-87617537D01*
X140357987Y-87349748D01*
X140130252Y-87122013D01*
X139862463Y-86943082D01*
X139564912Y-86819832D01*
X139249033Y-86757000D01*
X138926967Y-86757000D01*
X138611088Y-86819832D01*
X138313537Y-86943082D01*
X138045748Y-87122013D01*
X137818013Y-87349748D01*
X137639082Y-87617537D01*
X137515832Y-87915088D01*
X137453000Y-88230967D01*
X134223000Y-88230967D01*
X134160168Y-87915088D01*
X134036918Y-87617537D01*
X133857987Y-87349748D01*
X133630252Y-87122013D01*
X133362463Y-86943082D01*
X133064912Y-86819832D01*
X132749033Y-86757000D01*
X132426967Y-86757000D01*
X132111088Y-86819832D01*
X131813537Y-86943082D01*
X131545748Y-87122013D01*
X131318013Y-87349748D01*
X131139082Y-87617537D01*
X131015832Y-87915088D01*
X130953000Y-88230967D01*
X130200000Y-88230967D01*
X130200000Y-83000890D01*
X130549524Y-83000890D01*
X130570437Y-83094953D01*
X130685709Y-83363426D01*
X130851143Y-83604252D01*
X131060381Y-83808176D01*
X131305382Y-83967361D01*
X131576731Y-84075690D01*
X131864000Y-84129000D01*
X132364000Y-84129000D01*
X132364000Y-82771000D01*
X132618000Y-82771000D01*
X132618000Y-84129000D01*
X133118000Y-84129000D01*
X133405269Y-84075690D01*
X133676618Y-83967361D01*
X133921619Y-83808176D01*
X134130857Y-83604252D01*
X134296291Y-83363426D01*
X134411563Y-83094953D01*
X134432476Y-83000890D01*
X134311155Y-82771000D01*
X132618000Y-82771000D01*
X132364000Y-82771000D01*
X130670845Y-82771000D01*
X130549524Y-83000890D01*
X130200000Y-83000890D01*
X130200000Y-82287110D01*
X130549524Y-82287110D01*
X130670845Y-82517000D01*
X132364000Y-82517000D01*
X132364000Y-81159000D01*
X132618000Y-81159000D01*
X132618000Y-82517000D01*
X134311155Y-82517000D01*
X134414558Y-82321061D01*
X148190000Y-82321061D01*
X148190000Y-82524939D01*
X148229774Y-82724898D01*
X148307795Y-82913256D01*
X148421063Y-83082774D01*
X148565226Y-83226937D01*
X148734744Y-83340205D01*
X148825000Y-83377591D01*
X148825000Y-83540939D01*
X148864774Y-83740898D01*
X148942795Y-83929256D01*
X149056063Y-84098774D01*
X149200226Y-84242937D01*
X149369744Y-84356205D01*
X149558102Y-84434226D01*
X149758061Y-84474000D01*
X149961939Y-84474000D01*
X150161898Y-84434226D01*
X150350256Y-84356205D01*
X150519774Y-84242937D01*
X150563711Y-84199000D01*
X152458289Y-84199000D01*
X152502226Y-84242937D01*
X152671744Y-84356205D01*
X152860102Y-84434226D01*
X153060061Y-84474000D01*
X153263939Y-84474000D01*
X153463898Y-84434226D01*
X153652256Y-84356205D01*
X153821774Y-84242937D01*
X153965937Y-84098774D01*
X154079205Y-83929256D01*
X154157226Y-83740898D01*
X154197000Y-83540939D01*
X154197000Y-83337061D01*
X154157226Y-83137102D01*
X154079205Y-82948744D01*
X153965937Y-82779226D01*
X153821774Y-82635063D01*
X153652256Y-82521795D01*
X153463898Y-82443774D01*
X153263939Y-82404000D01*
X153060061Y-82404000D01*
X152860102Y-82443774D01*
X152671744Y-82521795D01*
X152502226Y-82635063D01*
X152458289Y-82679000D01*
X150563711Y-82679000D01*
X150519774Y-82635063D01*
X150350256Y-82521795D01*
X150260000Y-82484409D01*
X150260000Y-82462801D01*
X151042802Y-81680000D01*
X151104939Y-81680000D01*
X151304898Y-81640226D01*
X151493256Y-81562205D01*
X151662774Y-81448937D01*
X151806937Y-81304774D01*
X151920205Y-81135256D01*
X151998226Y-80946898D01*
X152038000Y-80746939D01*
X152038000Y-80543061D01*
X151998226Y-80343102D01*
X151920205Y-80154744D01*
X151806937Y-79985226D01*
X151662774Y-79841063D01*
X151493256Y-79727795D01*
X151304898Y-79649774D01*
X151200460Y-79629000D01*
X154590815Y-79629000D01*
X154619487Y-79920111D01*
X154704401Y-80200034D01*
X154842294Y-80458014D01*
X155027866Y-80684134D01*
X155253986Y-80869706D01*
X155308791Y-80899000D01*
X155253986Y-80928294D01*
X155027866Y-81113866D01*
X154842294Y-81339986D01*
X154704401Y-81597966D01*
X154619487Y-81877889D01*
X154590815Y-82169000D01*
X154619487Y-82460111D01*
X154704401Y-82740034D01*
X154842294Y-82998014D01*
X155027866Y-83224134D01*
X155253986Y-83409706D01*
X155308791Y-83439000D01*
X155253986Y-83468294D01*
X155027866Y-83653866D01*
X154842294Y-83879986D01*
X154704401Y-84137966D01*
X154619487Y-84417889D01*
X154590815Y-84709000D01*
X154619487Y-85000111D01*
X154704401Y-85280034D01*
X154842294Y-85538014D01*
X155027866Y-85764134D01*
X155253986Y-85949706D01*
X155308791Y-85979000D01*
X155253986Y-86008294D01*
X155027866Y-86193866D01*
X154842294Y-86419986D01*
X154704401Y-86677966D01*
X154619487Y-86957889D01*
X154590815Y-87249000D01*
X154619487Y-87540111D01*
X154704401Y-87820034D01*
X154842294Y-88078014D01*
X155027866Y-88304134D01*
X155253986Y-88489706D01*
X155511966Y-88627599D01*
X155791889Y-88712513D01*
X156010050Y-88734000D01*
X156155950Y-88734000D01*
X156374111Y-88712513D01*
X156654034Y-88627599D01*
X156912014Y-88489706D01*
X157138134Y-88304134D01*
X157323706Y-88078014D01*
X157354584Y-88020244D01*
X157525412Y-88249269D01*
X157741645Y-88444178D01*
X157991748Y-88593157D01*
X158266109Y-88690481D01*
X158496000Y-88569814D01*
X158496000Y-87376000D01*
X158750000Y-87376000D01*
X158750000Y-88569814D01*
X158979891Y-88690481D01*
X159254252Y-88593157D01*
X159504355Y-88444178D01*
X159720588Y-88249269D01*
X159894641Y-88015920D01*
X160019825Y-87753099D01*
X160064476Y-87605890D01*
X159943155Y-87376000D01*
X158750000Y-87376000D01*
X158496000Y-87376000D01*
X158476000Y-87376000D01*
X158476000Y-87122000D01*
X158496000Y-87122000D01*
X158496000Y-87102000D01*
X158750000Y-87102000D01*
X158750000Y-87122000D01*
X159943155Y-87122000D01*
X160064476Y-86892110D01*
X160019825Y-86744901D01*
X159894641Y-86482080D01*
X159720588Y-86248731D01*
X159504355Y-86053822D01*
X159387477Y-85984201D01*
X159452014Y-85949706D01*
X159678134Y-85764134D01*
X159863706Y-85538014D01*
X160001599Y-85280034D01*
X160086513Y-85000111D01*
X160115185Y-84709000D01*
X160086513Y-84417889D01*
X160001599Y-84137966D01*
X159863706Y-83879986D01*
X159678134Y-83653866D01*
X159452014Y-83468294D01*
X159397209Y-83439000D01*
X159452014Y-83409706D01*
X159678134Y-83224134D01*
X159863706Y-82998014D01*
X160001599Y-82740034D01*
X160086513Y-82460111D01*
X160115185Y-82169000D01*
X160086513Y-81877889D01*
X160001599Y-81597966D01*
X159863706Y-81339986D01*
X159678134Y-81113866D01*
X159452014Y-80928294D01*
X159397209Y-80899000D01*
X159452014Y-80869706D01*
X159678134Y-80684134D01*
X159863706Y-80458014D01*
X160001599Y-80200034D01*
X160086513Y-79920111D01*
X160104541Y-79737061D01*
X160890000Y-79737061D01*
X160890000Y-79940939D01*
X160929774Y-80140898D01*
X161007795Y-80329256D01*
X161121063Y-80498774D01*
X161165001Y-80542712D01*
X161165000Y-81592289D01*
X161121063Y-81636226D01*
X161007795Y-81805744D01*
X160929774Y-81994102D01*
X160890000Y-82194061D01*
X160890000Y-82397939D01*
X160929774Y-82597898D01*
X161007795Y-82786256D01*
X161121063Y-82955774D01*
X161265226Y-83099937D01*
X161434744Y-83213205D01*
X161623102Y-83291226D01*
X161823061Y-83331000D01*
X162026939Y-83331000D01*
X162226898Y-83291226D01*
X162415256Y-83213205D01*
X162584774Y-83099937D01*
X162728937Y-82955774D01*
X162842205Y-82786256D01*
X162920226Y-82597898D01*
X162960000Y-82397939D01*
X162960000Y-82194061D01*
X162920226Y-81994102D01*
X162842205Y-81805744D01*
X162728937Y-81636226D01*
X162685000Y-81592289D01*
X162685000Y-80542711D01*
X162728937Y-80498774D01*
X162842205Y-80329256D01*
X162920226Y-80140898D01*
X162960000Y-79940939D01*
X162960000Y-79737061D01*
X162920226Y-79537102D01*
X162842205Y-79348744D01*
X162728937Y-79179226D01*
X162584774Y-79035063D01*
X162415256Y-78921795D01*
X162226898Y-78843774D01*
X162026939Y-78804000D01*
X161823061Y-78804000D01*
X161623102Y-78843774D01*
X161434744Y-78921795D01*
X161265226Y-79035063D01*
X161121063Y-79179226D01*
X161007795Y-79348744D01*
X160929774Y-79537102D01*
X160890000Y-79737061D01*
X160104541Y-79737061D01*
X160115185Y-79629000D01*
X160086513Y-79337889D01*
X160001599Y-79057966D01*
X159863706Y-78799986D01*
X159678134Y-78573866D01*
X159452014Y-78388294D01*
X159387477Y-78353799D01*
X159504355Y-78284178D01*
X159720588Y-78089269D01*
X159894641Y-77855920D01*
X160019825Y-77593099D01*
X160064476Y-77445890D01*
X159943155Y-77216000D01*
X158750000Y-77216000D01*
X158750000Y-77236000D01*
X158496000Y-77236000D01*
X158496000Y-77216000D01*
X158476000Y-77216000D01*
X158476000Y-76962000D01*
X158496000Y-76962000D01*
X158496000Y-75768186D01*
X158750000Y-75768186D01*
X158750000Y-76962000D01*
X159943155Y-76962000D01*
X160064476Y-76732110D01*
X160019825Y-76584901D01*
X159894641Y-76322080D01*
X159720588Y-76088731D01*
X159504355Y-75893822D01*
X159254252Y-75744843D01*
X158979891Y-75647519D01*
X158750000Y-75768186D01*
X158496000Y-75768186D01*
X158266109Y-75647519D01*
X157991748Y-75744843D01*
X157741645Y-75893822D01*
X157545498Y-76070626D01*
X157522502Y-75994820D01*
X157463537Y-75884506D01*
X157384185Y-75787815D01*
X157287494Y-75708463D01*
X157177180Y-75649498D01*
X157057482Y-75613188D01*
X156933000Y-75600928D01*
X155233000Y-75600928D01*
X155108518Y-75613188D01*
X154988820Y-75649498D01*
X154878506Y-75708463D01*
X154781815Y-75787815D01*
X154702463Y-75884506D01*
X154643498Y-75994820D01*
X154607188Y-76114518D01*
X154594928Y-76239000D01*
X154594928Y-77939000D01*
X154607188Y-78063482D01*
X154643498Y-78183180D01*
X154702463Y-78293494D01*
X154781815Y-78390185D01*
X154878506Y-78469537D01*
X154988820Y-78528502D01*
X155057687Y-78549393D01*
X155027866Y-78573866D01*
X154842294Y-78799986D01*
X154704401Y-79057966D01*
X154619487Y-79337889D01*
X154590815Y-79629000D01*
X151200460Y-79629000D01*
X151104939Y-79610000D01*
X150901061Y-79610000D01*
X150701102Y-79649774D01*
X150512744Y-79727795D01*
X150343226Y-79841063D01*
X150199063Y-79985226D01*
X150085795Y-80154744D01*
X150007774Y-80343102D01*
X149968000Y-80543061D01*
X149968000Y-80605198D01*
X149185199Y-81388000D01*
X149123061Y-81388000D01*
X148923102Y-81427774D01*
X148734744Y-81505795D01*
X148565226Y-81619063D01*
X148421063Y-81763226D01*
X148307795Y-81932744D01*
X148229774Y-82121102D01*
X148190000Y-82321061D01*
X134414558Y-82321061D01*
X134432476Y-82287110D01*
X134411563Y-82193047D01*
X134296291Y-81924574D01*
X134130857Y-81683748D01*
X133921619Y-81479824D01*
X133676618Y-81320639D01*
X133405269Y-81212310D01*
X133118000Y-81159000D01*
X132618000Y-81159000D01*
X132364000Y-81159000D01*
X131864000Y-81159000D01*
X131576731Y-81212310D01*
X131305382Y-81320639D01*
X131060381Y-81479824D01*
X130851143Y-81683748D01*
X130685709Y-81924574D01*
X130570437Y-82193047D01*
X130549524Y-82287110D01*
X130200000Y-82287110D01*
X130200000Y-78194000D01*
X134600267Y-78194000D01*
X134623147Y-78426300D01*
X134690906Y-78649674D01*
X134800942Y-78855536D01*
X134914577Y-78994000D01*
X134800942Y-79132464D01*
X134690906Y-79338326D01*
X134623147Y-79561700D01*
X134600267Y-79794000D01*
X134623147Y-80026300D01*
X134690906Y-80249674D01*
X134800942Y-80455536D01*
X134949025Y-80635975D01*
X135129464Y-80784058D01*
X135335326Y-80894094D01*
X135558700Y-80961853D01*
X135732793Y-80979000D01*
X136399207Y-80979000D01*
X136418880Y-80977062D01*
X136440906Y-81049674D01*
X136550942Y-81255536D01*
X136699025Y-81435975D01*
X136879464Y-81584058D01*
X137085326Y-81694094D01*
X137308700Y-81761853D01*
X137482793Y-81779000D01*
X138149207Y-81779000D01*
X138323300Y-81761853D01*
X138546674Y-81694094D01*
X138752536Y-81584058D01*
X138932975Y-81435975D01*
X139081058Y-81255536D01*
X139191094Y-81049674D01*
X139258853Y-80826300D01*
X139281733Y-80594000D01*
X139258853Y-80361700D01*
X139191094Y-80138326D01*
X139081058Y-79932464D01*
X138967423Y-79794000D01*
X139081058Y-79655536D01*
X139191094Y-79449674D01*
X139258853Y-79226300D01*
X139281733Y-78994000D01*
X139258853Y-78761700D01*
X139191094Y-78538326D01*
X139081058Y-78332464D01*
X138967562Y-78194169D01*
X139018725Y-78142119D01*
X139146850Y-77946754D01*
X139234399Y-77730147D01*
X139234803Y-77703744D01*
X139109361Y-77521000D01*
X137943000Y-77521000D01*
X137943000Y-77541000D01*
X137689000Y-77541000D01*
X137689000Y-77521000D01*
X137669000Y-77521000D01*
X137669000Y-77267000D01*
X137689000Y-77267000D01*
X137689000Y-76209000D01*
X137943000Y-76209000D01*
X137943000Y-77267000D01*
X139109361Y-77267000D01*
X139234803Y-77084256D01*
X139234399Y-77057853D01*
X139146850Y-76841246D01*
X139018725Y-76645881D01*
X138854948Y-76479266D01*
X138661813Y-76347804D01*
X138446742Y-76256546D01*
X138218000Y-76209000D01*
X137943000Y-76209000D01*
X137689000Y-76209000D01*
X137414000Y-76209000D01*
X137185258Y-76256546D01*
X136970187Y-76347804D01*
X136777052Y-76479266D01*
X136613275Y-76645881D01*
X136485150Y-76841246D01*
X136416652Y-77010718D01*
X136399207Y-77009000D01*
X135732793Y-77009000D01*
X135558700Y-77026147D01*
X135335326Y-77093906D01*
X135129464Y-77203942D01*
X134949025Y-77352025D01*
X134800942Y-77532464D01*
X134690906Y-77738326D01*
X134623147Y-77961700D01*
X134600267Y-78194000D01*
X130200000Y-78194000D01*
X130200000Y-75700890D01*
X130549524Y-75700890D01*
X130570437Y-75794953D01*
X130685709Y-76063426D01*
X130851143Y-76304252D01*
X131060381Y-76508176D01*
X131305382Y-76667361D01*
X131576731Y-76775690D01*
X131864000Y-76829000D01*
X132364000Y-76829000D01*
X132364000Y-75471000D01*
X132618000Y-75471000D01*
X132618000Y-76829000D01*
X133118000Y-76829000D01*
X133405269Y-76775690D01*
X133676618Y-76667361D01*
X133921619Y-76508176D01*
X134130857Y-76304252D01*
X134296291Y-76063426D01*
X134411563Y-75794953D01*
X134432476Y-75700890D01*
X134311155Y-75471000D01*
X132618000Y-75471000D01*
X132364000Y-75471000D01*
X130670845Y-75471000D01*
X130549524Y-75700890D01*
X130200000Y-75700890D01*
X130200000Y-74987110D01*
X130549524Y-74987110D01*
X130670845Y-75217000D01*
X132364000Y-75217000D01*
X132364000Y-73859000D01*
X132618000Y-73859000D01*
X132618000Y-75217000D01*
X134311155Y-75217000D01*
X134432476Y-74987110D01*
X134411563Y-74893047D01*
X134296291Y-74624574D01*
X134130857Y-74383748D01*
X133921619Y-74179824D01*
X133676618Y-74020639D01*
X133405269Y-73912310D01*
X133118000Y-73859000D01*
X132618000Y-73859000D01*
X132364000Y-73859000D01*
X131864000Y-73859000D01*
X131576731Y-73912310D01*
X131305382Y-74020639D01*
X131060381Y-74179824D01*
X130851143Y-74383748D01*
X130685709Y-74624574D01*
X130570437Y-74893047D01*
X130549524Y-74987110D01*
X130200000Y-74987110D01*
X130200000Y-73304061D01*
X182099000Y-73304061D01*
X182099000Y-73507939D01*
X182138774Y-73707898D01*
X182216795Y-73896256D01*
X182330063Y-74065774D01*
X182474226Y-74209937D01*
X182643744Y-74323205D01*
X182832102Y-74401226D01*
X183032061Y-74441000D01*
X183235939Y-74441000D01*
X183435898Y-74401226D01*
X183624256Y-74323205D01*
X183793774Y-74209937D01*
X183837711Y-74166000D01*
X186398678Y-74166000D01*
X186436000Y-74169676D01*
X186473322Y-74166000D01*
X186473333Y-74166000D01*
X186479455Y-74165397D01*
X186588061Y-74187000D01*
X186791939Y-74187000D01*
X186991898Y-74147226D01*
X187180256Y-74069205D01*
X187349774Y-73955937D01*
X187493937Y-73811774D01*
X187607205Y-73642256D01*
X187685226Y-73453898D01*
X187725000Y-73253939D01*
X187725000Y-73050061D01*
X187685226Y-72850102D01*
X187607205Y-72661744D01*
X187493937Y-72492226D01*
X187349774Y-72348063D01*
X187180256Y-72234795D01*
X186991898Y-72156774D01*
X186791939Y-72117000D01*
X186588061Y-72117000D01*
X186388102Y-72156774D01*
X186199744Y-72234795D01*
X186030226Y-72348063D01*
X185886063Y-72492226D01*
X185783315Y-72646000D01*
X183837711Y-72646000D01*
X183793774Y-72602063D01*
X183624256Y-72488795D01*
X183435898Y-72410774D01*
X183235939Y-72371000D01*
X183032061Y-72371000D01*
X182832102Y-72410774D01*
X182643744Y-72488795D01*
X182474226Y-72602063D01*
X182330063Y-72746226D01*
X182216795Y-72915744D01*
X182138774Y-73104102D01*
X182099000Y-73304061D01*
X130200000Y-73304061D01*
X130200000Y-56540000D01*
X227940001Y-56540000D01*
X227940000Y-95225000D01*
M02*
